<svg xmlns="http://www.w3.org/2000/svg" viewBox="0 0 100 77.69"><title>Asset 2</title><g id="Layer_2" data-name="Layer 2"><g id="Layer_1-2" data-name="Layer 1"><path d="M10.1,20.81c0-.29,0-.49,0-.5s0-.88.09-1.77.21-1.73.21-1.73l.05-.23c.34.28.79.65,1.25,1s.93.65,1.28.88a5.35,5.35,0,0,0,0,.88h0s0,.74,0,1.5h1.32c0-.61,0-1.2,0-1.37a.57.57,0,0,0,0-.13h0c0-.29.28-2.3.37-2.71l0-.1.24-1s0-.07,0-.11c.1-.37.71-2.06.89-2.43l.07-.11a11.1,11.1,0,0,1,.65-1.19,10,10,0,0,1,.76-1l0-.05c.09-.1.36-.37.46-.46l0,0a2.9,2.9,0,0,1,.39-.31l.14-.09h.53s.67,0,1.34.15l14.94,3.06V11.28l-.22.26-4.37-.9,2.05-2.43,2.54.52V7.2l-1.7-.35,1.69-2V3L23.22.56c-.4-.09-.84-.17-1.2-.23L20.9.16l-.17,0L19.64,0a8.45,8.45,0,0,0-1.41,0l-.6,0a5.15,5.15,0,0,0-.78,0L15.43.43A3.67,3.67,0,0,0,14.2.94l-.26.15a8,8,0,0,0-1.82,1.14l-1.47,1.3A17.2,17.2,0,0,0,9.4,5a8,8,0,0,0-.81,1.08L7.67,7.64a7.61,7.61,0,0,0-.62,1.18l-.93,2.23c-.28.86-.51,1.73-.51,1.73L5.3,13.89a3.58,3.58,0,0,0-.14.64l-.48,3-.16,2.94c0,.13,0,.23,0,.33ZM28,2.87l4.28.89-2,2.43-4.28-.88Zm1.35,4.67-2,2.43L22.9,9.08,25,6.64ZM19.42,2.75c.3-.49.63-1,.89-1.33l.39,0,1.11.17c.34.05.76.13,1.14.21l1.8.37-2,2.44-.9-.19-1.52-.24L18.8,4.1h-.13A10.66,10.66,0,0,1,19.42,2.75Zm-2.48,3,.3-.06.29-.07.21,0a11,11,0,0,1,1.94,0,16.1,16.1,0,0,1,1.8.27l.2,0-1,1.22c-.36.46-.68.92-.91,1.28-.46-.05-.81-.07-.84-.07h-.81a.66.66,0,0,0-.36.13l-.28.17a5.93,5.93,0,0,0-.51.4l-.16.13a8.68,8.68,0,0,1-.38-1.49,7,7,0,0,1-.07-1.62L16.44,6C16.58,6,16.77,5.87,16.94,5.79ZM13,3.16h0a12,12,0,0,1,1.52-.92l.29-.17a2.91,2.91,0,0,1,.86-.37l.94-.22A6.69,6.69,0,0,0,16.18,3a6.82,6.82,0,0,0-.07,1.54c-.19.1-.37.21-.53.31a3.49,3.49,0,0,0-1,.64,7.36,7.36,0,0,0-1.45,1.35l0,0a14.25,14.25,0,0,1-.55-1.48c-.16-.53-.28-1.09-.37-1.53C12.63,3.54,12.88,3.31,13,3.16Zm-.59,7.39A17,17,0,0,1,13.37,9l.14-.19c.18.41.42.94.7,1.44a15,15,0,0,0,.84,1.33c-.22.39-.38.72-.39.73h0a10.27,10.27,0,0,0-1,2.91h0l0,.17c-.32-.28-.74-.67-1.15-1.08s-.8-.84-1.09-1.18c.18-.51.34-.91.35-.92A16.94,16.94,0,0,1,12.43,10.55ZM8.28,9.3a6,6,0,0,1,.52-1l.69-1.18a5,5,0,0,0,.24-.44h0l.07-.11c.2.4.48.93.77,1.43s.6,1,.84,1.34l-.36.6a5.7,5.7,0,0,0-.38.82L10,12.43c-.1.29-.15.5-.15.5l0,.15c-.31-.31-.72-.71-1.11-1.14s-.74-.86-1-1.2ZM6,17.68l.48-2.95a3.6,3.6,0,0,1,.09-.45l.07-.23c.31.3.73.68,1.19,1s.9.72,1.25,1l-.21,1.26a6.32,6.32,0,0,0-.12,1.14L8.65,20c0,.08,0,.14,0,.21-.37-.2-.87-.47-1.36-.77s-1-.6-1.35-.85Z" fill="#4d4d4d"/><path d="M66.15,11.32l-1.28.26v1.31L79.16,10c.7-.15,1.38-.22,1.42-.23A9,9,0,0,1,81.7,9.7l.14.09a.21.21,0,0,0,.08.06l.43.37,0,0a7.89,7.89,0,0,1,.78.92,10.22,10.22,0,0,1,.69,1.13,12.39,12.39,0,0,1,.59,1.26,12.76,12.76,0,0,1,.48,1.32l.27,1a.36.36,0,0,0,0,.09c.09.39.41,2.27.44,2.66a.86.86,0,0,0,0,.23c0,.25.07,1.23.08,2h3.91l-1.21-.66c-.51-.26-1-.5-1.42-.67a5.71,5.71,0,0,0-.09-.81,16.46,16.46,0,0,0-.53-3.15h0l0-.16c.42.09,1,.22,1.53.38s1.1.35,1.52.49c.07.37.14.69.15.83a.64.64,0,0,0,0,.24c.06.41.24,2.83.23,3.29,0,0,0,.07,0,.11v.12H91.4a2.18,2.18,0,0,0,0-.25L91.25,18h0a2,2,0,0,0,0-.22c.41.15.94.36,1.45.59s1,.47,1.43.66l.05.95a.41.41,0,0,0,0,.16c0,.12,0,.36,0,.67h1.32a6.09,6.09,0,0,0,0-1l-.09-1.65a8.48,8.48,0,0,0-.13-1.29L95,15.21a9.59,9.59,0,0,0-.39-1.83l-.5-1.72-1-2.52a5.85,5.85,0,0,0-.46-1l-.88-1.5-.16-.27A4.85,4.85,0,0,0,91,5.51l-1.1-1.36a1.52,1.52,0,0,0-.32-.39,10,10,0,0,0-2.91-2.32h0L85.62.84A10.2,10.2,0,0,0,83.11.09c-1-.09-2-.09-2-.09s-.26,0-.62,0l-1.3.11L77.36.44,64.87,3V4.66l.1-.33,4.28-.88-.9,3.06-3.48.71V8.73l2.2-.45ZM87,12.55c-.58-.07-1.14-.1-1.57-.11-.2-.42-.37-.74-.37-.74a14.75,14.75,0,0,0-.78-1.27,9.39,9.39,0,0,0-.91-1.08,1.58,1.58,0,0,0-.13-.13,7.07,7.07,0,0,1,1.47-.47,12.9,12.9,0,0,1,1.59-.27c.35.46.59.83.59.84a14.05,14.05,0,0,1,.9,1.6c.4.8.71,1.64.71,1.64s.05.15.08.22C88.1,12.7,87.53,12.61,87,12.55Zm5.55-1.39.15.34.65,2.26a8.11,8.11,0,0,1,.35,1.63l0,.22c-.41-.14-1-.32-1.5-.48s-1.09-.31-1.51-.41c-.12-.46-.24-.81-.24-.81L90,12.39,89.44,11l-.08-.19c.43,0,1,.05,1.56.11S92.07,11.09,92.51,11.16ZM86.63,4.72a15.2,15.2,0,0,1,1.53-.51c.2.18.38.34.51.48l.08.07a.35.35,0,0,0,.07.12L90,6.36a3.56,3.56,0,0,1,.43.66c.07.11.13.22.18.29L91,8c-.45,0-1,0-1.59,0s-1.13.09-1.54.15h0a2.61,2.61,0,0,0-.23-.3l-.26-.32a14.29,14.29,0,0,0-1-1.18l-1-.84a.12.12,0,0,0,0,0,1.41,1.41,0,0,0-.17-.14A13.58,13.58,0,0,1,86.63,4.72ZM79.52,2.84c.2-.53.44-1,.63-1.45l.44,0,.51,0s.93,0,1.83.07a13.39,13.39,0,0,1,1.88.5l.08.05.24.14a7.17,7.17,0,0,0-1.27,1,6.4,6.4,0,0,0-1,1.18l-.14,0-.18,0-.42,0a.44.44,0,0,0-.16,0v0a6.73,6.73,0,0,0-1.27,0l-1,.08a2.9,2.9,0,0,0-.5.08l-.17,0C79.13,3.92,79.31,3.38,79.52,2.84ZM78,6l.94-.19a17.35,17.35,0,0,1,1.8-.23,9.93,9.93,0,0,1,1.33,0,4.34,4.34,0,0,1,.74.1l.08,0a.72.72,0,0,1,.2.09A3.07,3.07,0,0,0,81.8,7.14c-.22.4-.4.82-.58,1.24a6.64,6.64,0,0,0-.81.07s-.74.08-1.52.24l-1.83.38ZM72.46,2.79,76.55,2l.19,0L75.84,5l-4.28.87ZM70.34,7.61l4.37-.9-.92,3-4.37.9Z" fill="#4d4d4d"/><path d="M39.07,20.81V10.18l3.12,1.62v4.25l-3.12-1.62v3.19l3.12,1.62v1.57h2.29V18.12l2.15,1.12v1.57h2.29V18.12l2.15,1.12v1.57h2.29V18.13l2.15,1.11v1.57H57.8V18.13l3.13,1.61v1.07h1.31V2.2a1.28,1.28,0,0,0-.38-.92,1.31,1.31,0,0,0-.93-.39h-4.1a.75.75,0,0,0-.16,0,1.16,1.16,0,0,0-.18,0h-4.1c-.06,0-.11,0-.17,0s-.11,0-.17,0H48c-.06,0-.12,0-.18,0s-.1,0-.16,0h-4.1c-.06,0-.12,0-.18,0s-.1,0-.16,0h-4.1a1.29,1.29,0,0,0-.93.39,1.29,1.29,0,0,0-.39.93v18.6ZM57.8,5.39V3.24l3.13,1.62V9.12L57.8,7.49Zm0,5.29,3.13,1.62v4.25L57.8,14.93V10.68ZM53.36,5.39V3.24l2.15,1.12V8.61L53.36,7.49Zm0,5.29,2.15,1.12v4.25l-2.15-1.11ZM48.92,5.39V3.24l2.15,1.12V8.61L48.92,7.49Zm0,5.29,2.15,1.12v4.25l-2.15-1.11V10.68ZM46.63,13.9v2.15l-2.15-1.11V10.68l2.15,1.12ZM44.48,5.39V3.24l2.15,1.12V8.61L44.48,7.5ZM39.07,2.21h0v.52l3.12,1.63V8.61L39.07,7V2.21Z" fill="#4d4d4d"/><path d="M4.5,56.88c0,.09,0,.2,0,.33l.16,2.93.48,3a3.58,3.58,0,0,0,.14.65l.31,1.1s.23.87.51,1.73l.93,2.23a7.24,7.24,0,0,0,.62,1.19l.92,1.57a8,8,0,0,0,.81,1.07,16.48,16.48,0,0,0,1.25,1.47l1.47,1.29a8.24,8.24,0,0,0,1.82,1.15l.26.15a3.89,3.89,0,0,0,1.23.51l1.42.33a5.49,5.49,0,0,0,.78.06l.6,0a9.8,9.8,0,0,0,1.41,0l1.09-.1h.17L22,77.35l1.2-.22,11.9-2.45V72.87l-1.69-2,1.7-.35V69l-2.54.52L30.54,67l4.37-.89.22.26V64.76L20.19,67.83c-.67.11-1.33.15-1.34.15h-.53l-.14-.09a4,4,0,0,1-.39-.31l0,0c-.1-.09-.37-.37-.46-.47l0,0a8.26,8.26,0,0,1-.76-1,12.27,12.27,0,0,1-.65-1.19l-.07-.12c-.18-.37-.79-2.05-.89-2.43,0,0,0-.07,0-.1l-.24-1,0-.11c-.09-.4-.36-2.41-.37-2.7h0a.62.62,0,0,0,0-.13c0-.18,0-.77,0-1.37H12.89c0,.75,0,1.49,0,1.49h0a5.23,5.23,0,0,0,0,.87c-.35.23-.82.54-1.28.88s-.91.7-1.25,1l-.05-.22s-.14-.87-.21-1.74-.09-1.76-.09-1.76,0-.21,0-.5Zm21.44,15.5,4.28-.88,2,2.43L28,74.81ZM25,71,22.9,68.61l4.36-.9,2,2.44Zm-6.28,2.54h.13l1.51-.11,1.52-.25.9-.18,2,2.43-1.8.37c-.38.08-.8.16-1.14.21l-1.11.18-.39,0c-.26-.36-.59-.84-.89-1.32A10.66,10.66,0,0,1,18.67,73.58Zm-2.23-1.94-.11-.06A7.07,7.07,0,0,1,16.4,70a8.55,8.55,0,0,1,.38-1.48l.16.12a4.45,4.45,0,0,0,.51.4l.28.18a.65.65,0,0,0,.36.12h.81l.84-.08a15.21,15.21,0,0,0,.91,1.28l1,1.23-.2,0s-.91.19-1.8.27a12.15,12.15,0,0,1-1.94,0l-.21,0a1.53,1.53,0,0,0-.29-.07l-.3-.06C16.77,71.81,16.58,71.73,16.44,71.64Zm-4.23,2.14c.09-.43.21-1,.37-1.52a13.44,13.44,0,0,1,.55-1.48l0,0a7,7,0,0,0,1.45,1.36,3.73,3.73,0,0,0,1,.64l.53.3a6.8,6.8,0,0,0,.07,1.54,6.94,6.94,0,0,0,.46,1.54L15.7,76a2.67,2.67,0,0,1-.86-.37l-.29-.16A13.41,13.41,0,0,1,13,74.52h0C12.88,74.38,12.63,74.15,12.21,73.78Zm-.54-8.29s-.17-.41-.35-.93c.29-.33.68-.77,1.09-1.17s.83-.8,1.15-1.08l0,.16h0a10.27,10.27,0,0,0,1,2.91h0s.17.34.39.74a13.67,13.67,0,0,0-.84,1.33,15.43,15.43,0,0,0-.7,1.43l-.14-.18a16.45,16.45,0,0,1-1.7-3.21Zm-4,1.45c.27-.34.64-.78,1-1.19s.8-.84,1.11-1.14l0,.15s.05.21.15.49l.7,1.66a4.77,4.77,0,0,0,.38.82l.36.61c-.24.35-.55.83-.84,1.33s-.57,1-.77,1.43A.49.49,0,0,1,9.74,71h0a3.89,3.89,0,0,0-.24-.44L8.8,69.38a6,6,0,0,1-.52-1ZM5.93,59.1l1.35-.85c.49-.29,1-.56,1.36-.77,0,.07,0,.13,0,.21l.08,1.51a6.33,6.33,0,0,0,.12,1.15l.21,1.26c-.35.26-.8.61-1.25,1s-.88.75-1.19,1l-.07-.22A3.6,3.6,0,0,1,6.46,63L6,60Z" fill="#4d4d4d"/><path d="M67.07,69.4,64.87,69v1.52l3.48.71.9,3L65,73.35l-.1-.33v1.65l12.49,2.57,1.81.29,1.3.12.62,0s1,0,2-.09a10.2,10.2,0,0,0,2.51-.75l1.07-.6h0a10.21,10.21,0,0,0,2.91-2.32,1.71,1.71,0,0,0,.32-.39L91,72.17a4.51,4.51,0,0,0,.57-.85l.16-.26.88-1.51a5.06,5.06,0,0,0,.46-1l1-2.51.5-1.72A9.46,9.46,0,0,0,95,62.47l.28-1.67a8.47,8.47,0,0,0,.13-1.28l.09-1.65a6.09,6.09,0,0,0,0-1H94.17c0,.3,0,.55,0,.67a.4.4,0,0,0,0,.15l-.05,1c-.4.19-.91.43-1.43.66s-1,.43-1.45.58a1.8,1.8,0,0,0,0-.22h0l.14-2.56a2.09,2.09,0,0,0,0-.24H89.88V57s0,.07,0,.11c0,.45-.17,2.87-.23,3.28a.69.69,0,0,0,0,.25c0,.14-.08.45-.15.82-.42.15-1,.33-1.52.49s-1.11.29-1.53.39l0-.17h0A16.55,16.55,0,0,0,87,59a5.55,5.55,0,0,0,.09-.8c.39-.18.91-.41,1.42-.68s.85-.45,1.21-.65H85.78c0,.73,0,1.7-.08,2a.82.82,0,0,0,0,.22c0,.4-.35,2.28-.44,2.66a.42.42,0,0,0,0,.1l-.27,1a12.76,12.76,0,0,1-.48,1.32,13.19,13.19,0,0,1-.59,1.27,8.68,8.68,0,0,1-1.47,2l0,0a5.2,5.2,0,0,1-.43.37l-.08.06a.67.67,0,0,1-.14.09,7.42,7.42,0,0,1-1.12,0,12.79,12.79,0,0,1-1.42-.22L64.87,64.79v1.32l1.28.26Zm21.47-4.49c0,.07-.05.13-.08.22s-.31.84-.71,1.64a12.55,12.55,0,0,1-.9,1.59s-.24.38-.59.84a14.87,14.87,0,0,1-1.59-.26,8.51,8.51,0,0,1-1.47-.47,1.59,1.59,0,0,1,.13-.13,10.41,10.41,0,0,0,.91-1.08C84.65,66.67,85,66,85,66s.17-.33.37-.75c.43,0,1,0,1.57-.1S88.1,65,88.54,64.91Zm2.38,1.82c-.58.06-1.13.09-1.56.11l.08-.2L90,65.29l.44-1.51s.12-.35.24-.82c.42-.09,1-.23,1.51-.4s1.09-.34,1.5-.48l0,.21a8,8,0,0,1-.35,1.63l-.65,2.26-.15.35C92.07,66.6,91.49,66.68,90.92,66.73Zm-5.68,5.6.17-.14,0-.06,1-.84a15.17,15.17,0,0,0,1-1.17l.26-.32c.08-.09.15-.19.23-.3h0c.41,0,1,.11,1.54.15s1.14,0,1.59,0l-.4.67c0,.07-.11.18-.18.3a3.19,3.19,0,0,1-.43.65l-1.2,1.48a.75.75,0,0,0-.07.12l-.08.08-.51.48c-.44-.13-1-.31-1.53-.52A13.75,13.75,0,0,1,85.24,72.33Zm-6.24,1,.17,0s.21,0,.5.07l1,.09a9.05,9.05,0,0,0,1.27,0v0l.16,0,.42,0a1.13,1.13,0,0,0,.18,0l.14,0a6.09,6.09,0,0,0,1,1.18,6.82,6.82,0,0,0,1.27,1l-.24.13-.08.06a13.82,13.82,0,0,1-1.88.49c-.9.07-1.82.07-1.83.07s-.22,0-.51,0l-.44,0c-.19-.4-.43-.93-.63-1.45S79.13,73.76,79,73.35Zm-1.94-4.74,1.83.38c.78.17,1.52.25,1.52.25s.45.05.81.07c.18.42.36.83.58,1.23a3,3,0,0,0,1.27,1.32,1.21,1.21,0,0,1-.2.09l-.08,0a4.34,4.34,0,0,1-.74.1,10.06,10.06,0,0,1-1.33,0c-.91-.06-1.79-.22-1.8-.22l-.94-.2Zm-5.5,3.22,4.28.88.9,3.06-.19,0-4.09-.85ZM69.42,67l4.37.9.92,3-4.37-.89Z" fill="#4d4d4d"/><path d="M37.75,56.88v18.6a1.31,1.31,0,0,0,.39.93,1.28,1.28,0,0,0,.93.38h4.1a.9.9,0,0,0,.16,0,.57.57,0,0,0,.18,0h4.1a.76.76,0,0,0,.16,0,1.13,1.13,0,0,0,.18,0h4.1a.5.5,0,0,1,.34,0h4.1a1.13,1.13,0,0,0,.18,0,.76.76,0,0,0,.16,0h4.1a1.3,1.3,0,0,0,1.31-1.31V56.88H60.93v1.06L57.8,59.56V56.88H55.51v1.57l-2.15,1.11V56.88H51.07v1.57l-2.15,1.11V56.88H46.63v1.57l-2.15,1.11V56.88H42.19v1.57l-3.12,1.62v3.19l3.12-1.62v4.25l-3.12,1.62V56.88Zm20,13.31,3.13-1.62v4.26L57.8,74.44V70.19Zm0-5.34v-2.1l3.13-1.62v4.25L57.8,67Zm-4.44,5.34,2.15-1.11v4.25l-2.15,1.11V70.19Zm0-7.44,2.15-1.11v4.25L53.36,67Zm-4.44,7.44,2.15-1.11v4.25l-2.15,1.11V70.19Zm0-5.34v-2.1l2.15-1.11v4.25L48.92,67Zm-2.29,1L44.48,67V62.75l2.15-1.11v4.25Zm-2.15,4.3,2.15-1.11v4.25l-2.15,1.11V70.19Zm-5.41,4.23V70.7l3.12-1.62v4.25L39.07,75v.53h0Z" fill="#4d4d4d"/><path d="M12.33,34.48a7.7,7.7,0,0,1-5.69,2.65c-4,0-6.64-2.55-6.64-6.75s3.25-6.91,5.71-6.91a3.49,3.49,0,0,1,2.9,1.27l.43-1h3V29H8.63c-.06-1.22-.66-2.37-2-2.37S4.4,28.34,4.4,30.38c0,1.86,1,3.54,2.74,3.54,1.58,0,2.82-1.66,3-1.84Z" fill="#4d4d4d"/><path d="M19,23.69v2.48H18v8.16h2.42V31.94h3.16v4.89H13.09v-2.5h1V26.17h-1V23.69Z" fill="#4d4d4d"/><path d="M30.81,23.69v2.48H29.64v8.16h1.17v2.5H24.56v-2.5h1.19V26.17H24.56V23.69Z" fill="#4d4d4d"/><path d="M44.79,27c-.15.85-.41,2.09-.54,2.52l-2,7.31H38.35l-2.11-7.5A12.66,12.66,0,0,1,35.85,27h-.08v7.41h1.07v2.42H31.75V34.41h1V26.12h-1V23.69h7.12l1.9,7,1.81-7h7.16v2.43h-1v8.27h1v2.44H43.82V34.39h1V27Z" fill="#4d4d4d"/><path d="M50.71,34.39H51.8V26.12H50.71V23.69h7c3.12,0,4.61,1.17,4.61,3.22,0,1.58-.43,2.35-1.85,2.91A3.15,3.15,0,0,1,63,33c0,2.65-1.49,3.81-5.12,3.81H50.71Zm5-5.4h1.15c1,0,1.28-.54,1.28-1.44a1.24,1.24,0,0,0-1.25-1.38H55.69Zm1.5,5.4a1.53,1.53,0,0,0,1.53-1.62,1.5,1.5,0,0,0-1.58-1.65H55.69v3.27Z" fill="#4d4d4d"/><path d="M69.87,23.69v2.48H68.71v8.16h1.16v2.5H63.63v-2.5h1.19V26.17H63.63V23.69Z" fill="#4d4d4d"/><path d="M84,26.12V36.83h-4l-4.79-7.16v4.74h1.45v2.42H70.82V34.41h1.1V26.12H70.83V23.69h5.4l4.61,6.9V26.12H79.56V23.69h5.65v2.43Z" fill="#4d4d4d"/><path d="M94.91,35.65a3.62,3.62,0,0,1-3,1.35c-3.29,0-5.9-2.56-5.9-6.62s2.83-6.91,5.77-6.91c2.72,0,3.36,1.27,3.66,1.58l.4-1.36h2.8v5.55H95.24a2.22,2.22,0,0,0-2.14-2.39c-1.52,0-2.57,1.65-2.57,3.53s.94,3.46,2.57,3.46a1.84,1.84,0,0,0,1.81-.92v-.79H93.76v-2H100v2h-.75v4.7H95.49Z" fill="#4d4d4d"/><path d="M9.5,41.55V45H6.77V43.63H4.25v2.18h3V47.9h-3v2.57H6.77V49H9.5v3.55H0V50.47H1V43.63H0V41.55Z" fill="#4d4d4d"/><path d="M21.55,51.7a2.28,2.28,0,0,1-2.36,2.52,2.54,2.54,0,0,1-2.44-1.75,8,8,0,0,1-1.23.09c-3.18,0-5.39-1.85-5.39-5.57a5.14,5.14,0,0,1,5.3-5.48c3.71,0,5.38,2.23,5.38,5.59A5.71,5.71,0,0,1,19.51,51c.12.49.3,1,.69,1s.32-.44.32-.71v-.46h1Zm-4.26-4c0-.19,0-.39,0-.61,0-1.81-.74-3.29-1.91-3.29-.94,0-1.81,1.34-1.81,3.18a5.71,5.71,0,0,0,.06.86,2.48,2.48,0,0,1,1.86-.75A3,3,0,0,1,17.29,47.71Zm-.93,2.15c-.11-.79-.3-1.33-.84-1.33s-.83.52-1,1.15a1.39,1.39,0,0,0,1,.52A1.27,1.27,0,0,0,16.36,49.86Z" fill="#4d4d4d"/><path d="M27,41.55v2h-.85V47c0,2.53.57,3.07,1.58,3.07s1.59-.38,1.59-3.09V43.63h-.85V41.55h4.66v2h-.85v3.82c0,3.74-1.56,5.42-4.52,5.42-3.18-.09-4.88-1.76-4.88-5.34V43.6H22V41.55Z" fill="#4d4d4d"/><path d="M39,41.55v2.08h-1v6.84h1v2.09H33.81V50.47h1V43.63h-1V41.55Z" fill="#4d4d4d"/><path d="M44.93,41.55c3.66,0,4.35,1.58,4.35,3.38C49.28,47,47.39,48,45.14,48h-1.2v2.45h1v2.07H39.83V50.49h.88V43.62h-.88V41.55Zm-1,4.79h.71c.91,0,1.54-.47,1.54-1.3a1.32,1.32,0,0,0-1.46-1.44h-.79Z" fill="#4d4d4d"/><path d="M60.85,44.33c-.13.71-.35,1.74-.46,2.11l-1.65,6.12h-3.3l-1.76-6.28a11,11,0,0,1-.33-2h-.06v6.2h.9v2H49.92v-2h.85V43.59h-.84v-2h6l1.59,5.9L59,41.55h6v2h-.87v6.93H65v2H60v-2h.88V44.33Z" fill="#4d4d4d"/><path d="M75.3,41.55V45H72.58V43.63H70.06v2.18h3V47.9h-3v2.57h2.52V49H75.3v3.55H65.8V50.47h1V43.63h-1V41.55Z" fill="#4d4d4d"/><path d="M87.12,43.59v9H83.74l-4-6v4h1.21v2H76.1v-2H77V43.59h-.91v-2h4.52l3.86,5.79V43.59H83.42v-2h4.74v2Z" fill="#4d4d4d"/><path d="M99.37,45.65H97.05v-2H95.73v6.84H97v2.09H91.18V50.47h1.29V43.63H91.12v2H88.8v-4.1H99.37Z" fill="#4d4d4d"/></g></g></svg>