<svg xmlns="http://www.w3.org/2000/svg" viewBox="0 0 100 100"><title>Asset 4</title><g id="Layer_2" data-name="Layer 2"><g id="Layer_1-2" data-name="Layer 1"><polygon points="78.98 68.59 77.92 69.94 78.65 70.52 77.68 71.78 76.4 70.78 77.55 69.29 76.5 68.48 75.34 69.97 74.25 69.13 75.23 67.86 75.93 68.4 77 67.04 75.24 65.7 71.57 70.46 72.61 71.25 72.99 70.76 76.41 73.42 76.03 73.9 77.08 74.72 80.76 69.96 78.98 68.59" fill="#4d4d4d"/><polygon points="68.66 24.98 68.19 24.59 67.32 25.58 70.11 28.02 70.98 27.02 70.21 26.35 71.06 25.4 72.48 26.64 73.35 25.64 71.92 24.4 73.06 23.09 74.19 24.07 73.61 24.74 74.94 25.9 76.38 24.25 71.89 20.33 71.03 21.32 71.5 21.72 68.66 24.98" fill="#4d4d4d"/><polygon points="71.87 50.73 70.86 50.73 70.86 51.27 69.92 51.27 69.92 50.31 71.03 50.31 71.03 49.55 69.92 49.55 69.92 48.73 70.86 48.73 70.86 49.26 71.87 49.26 71.87 47.96 68.35 47.96 68.35 48.73 68.72 48.73 68.72 51.27 68.35 51.27 68.35 52.04 71.87 52.04 71.87 50.73" fill="#4d4d4d"/><path d="M64.15,24c2,1.07,3.73.46,4.81-1.53s.77-3.79-1.38-4.95A3.39,3.39,0,0,0,62.78,19,3.32,3.32,0,0,0,64.15,24Zm.78-3.79c.6-1.08,1.38-1.65,1.91-1.35s.5,1.38-.07,2.43-1.33,1.63-1.88,1.33S64.32,21.35,64.93,20.2Z" fill="#4d4d4d"/><polygon points="56.04 51.25 56.23 51.23 62.47 50 56.85 48.9 56.04 51.25" fill="#4d4d4d"/><polygon points="53.9 54.84 56.74 56.74 54.79 53.83 53.9 54.84" fill="#4d4d4d"/><polygon points="54.82 14.83 55.66 15 54.84 19.25 54.05 19.1 53.79 20.4 57.44 21.1 57.68 19.79 56.87 19.63 57.68 15.38 58.51 15.54 58.26 16.8 59.7 17.07 60.2 14.52 53.62 13.26 53.13 15.81 54.57 16.08 54.82 14.83" fill="#4d4d4d"/><polygon points="50.8 58.4 49.5 59.9 50 62.47 50.8 58.4" fill="#4d4d4d"/><polygon points="50.5 40.12 50 37.55 49.2 41.61 50.5 40.12" fill="#4d4d4d"/><polygon points="52.21 18.92 51.6 18.92 51.67 14.59 52.29 14.59 52.31 13.28 49 13.22 48.98 14.53 49.6 14.54 49.53 18.88 48.9 18.86 48.88 20.18 52.19 20.26 52.21 18.92" fill="#4d4d4d"/><path d="M49.62,68.71c0-.22.22-.32.4-.32a.68.68,0,0,1,.75.67h1V67.61h-1l-.05.48a1.45,1.45,0,0,0-2.61.66c0,1.49,2.25,1.31,2.25,1.75,0,.26-.3.3-.5.3s-.74-.1-.74-.59H48.08v1.47h1l.06-.44a1.59,1.59,0,0,0,1.22.53c.69,0,1.54-.33,1.54-1.24C51.92,69.16,49.62,69.3,49.62,68.71Z" fill="#4d4d4d"/><polygon points="49.56 31.54 49.1 31.54 49.1 30.07 50.6 32.29 51.85 32.29 51.85 28.96 52.24 28.96 52.24 28.2 50.48 28.2 50.48 28.96 50.88 28.96 50.88 30.36 49.45 28.22 47.78 28.2 47.78 28.96 48.11 28.96 48.11 31.54 47.76 31.54 47.76 32.29 49.56 32.29 49.56 31.54" fill="#4d4d4d"/><path d="M74.93,74.15l-.51.42.21.25c.13.15.14.29,0,.39s-.34,0-.61-.37a1.56,1.56,0,0,0-1.93-.24,1.51,1.51,0,0,0,.19-2c-.73-.87-1.67-1.28-3.44.22l-2.44,2-2.54,1.3.6,1.16.48-.24,1,1.88c.77,1.53.52,1.92,0,2.2s-1,.15-1.76-1.27l-1-1.92.49-.25-.59-1.15-.2.1-2.42,1.24L54,79.5v0l-2.82,0,0,1.28h.67l0,2.38-2.49-3.62-2.83,0v-.09l-5.87-1.28v0l-2.2-1L38,78.46l.48.22-1.74,1.59a5.43,5.43,0,0,0-.86,1l0,0A5.88,5.88,0,0,0,36,80l.19-2.37.48.22.54-1.18-3.32-1.55-.55,1.18.5.23v6.27l1.66.77,4.57-4.13.45.21,0-.09.49.1-.92,4.23-.62-.12-.28,1.29,5.87,1.28.48-2.2-1.69-.37-.19.91-1.56-.34.35-1.59,1.84.4.29-1.29-1.86-.4.3-1.36,1.56.35-.19.87,1.68.37.43-1.91v1.12h.57l.07,4.39-.58,0V86.6l3.07,0,0-1.28h-.77l0-2.52,2.61,3.77,2.15,0-.1-5.69h.67l0-.47L54.63,82l1.42-.36-.31-1.24.83-.21,1,4.2-.78.2.31,1.28L60.76,85l-.33-1.3-.8.21-1.05-4.2.81-.2.31,1.23,1.43-.36-.33-1.3,0,.06.5-.25,1.11,2.19c1,2,2.46,2.48,4.28,1.62s2.07-2.25,1-4.36l-1.1-2.16.49-.24-.3-.57.43.49.42-.35,2.8,3.32-.43.37.84,1,2.46-2.07-.84-1-.47.4-1-1.18c.68-.57.91-.49,1.49.21a1.69,1.69,0,0,0,2.67.17,1.39,1.39,0,0,0,.1-2.15Zm-4.27,1-.35.3-1.08-1.3.37-.32a.81.81,0,0,1,1.27.1C71.21,74.34,71.1,74.8,70.66,75.17Z" fill="#4d4d4d"/><polygon points="46.1 45.17 43.26 43.26 45.21 46.18 46.1 45.17" fill="#4d4d4d"/><path d="M41.75,64.29,47.28,58l5.53-6.33,2.72-8,2.72-7.93-5.53,6.32-5.51,6.34-2.74,8Zm4-7.52,2.65-7.7L50,50l1.61.94-5.34,6.13-1,1.18Z" fill="#4d4d4d"/><polygon points="43.96 48.75 43.78 48.79 37.54 50 43.16 51.1 43.96 48.75" fill="#4d4d4d"/><path d="M41.57,15.44l.68,4.3-.55.09.2,1.3,3.19-.5-.22-1.31-.6.1L44,17.89c.87-.14,1,.06,1.16,1a1.62,1.62,0,0,0,1.71,1.56,2.85,2.85,0,0,0,.49,0,1.38,1.38,0,0,0,1.19-1.79L48.49,18l-.65.1,0,.33c0,.2,0,.33-.18.36s-.27-.22-.35-.64a1.5,1.5,0,0,0-1.5-1.2,1.5,1.5,0,0,0,1.19-1.65c-.17-1.13-.77-1.95-3-1.6l-3.19.52.2,1.29Zm2.5-.4a.8.8,0,0,1,1,.73c.08.53-.25.85-.82.95l-.44.07-.27-1.68Z" fill="#4d4d4d"/><polygon points="37.31 16.89 37.64 17.84 38.73 20.97 38.15 21.18 38.59 22.43 41.71 21.34 41.67 21.21 41.27 20.09 40.68 20.29 39.26 16.21 39.83 16 39.4 14.76 36.28 15.86 36.71 17.09 37.31 16.89" fill="#4d4d4d"/><path d="M31,20l2.09,3.82-.5.27,0,.08.59,1.07L36,23.7l-.63-1.15-.53.29-.74-1.36.66-.37c1.18-.64,1.89-1.69,1.47-2.78a2,2,0,0,0-.1-.21c-.56-1-1.41-1.67-3.45-.56l-2.84,1.56.63,1.15Zm2.23-1.22a.81.81,0,0,1,1.24.34A.83.83,0,0,1,34,20.31l-.39.22L32.75,19Z" fill="#4d4d4d"/><path d="M34.17,48.72h.33V48H32.84v.76h.31l-.2.88a8.56,8.56,0,0,0-.17,1.13h0c0-.3-.1-.77-.17-1.16L32.21,48H31l-.28,1.31c-.12.56-.27,1.29-.29,1.46h0c0-.17-.13-.87-.19-1.16L30,48.72h.35V48H28.46v.76h.32L29.56,52h1.35l.36-1.4c0-.17.11-.54.13-.71h0c0,.19.1.53.15.73L31.92,52h1.39Z" fill="#4d4d4d"/><path d="M29.73,25.49c.27.32-.06.71-.31.93s-1.06.7-1.61.06l-1.4,1.23,1.64,1.89,1.32-1.14L29,27.81a2.7,2.7,0,0,0,2.18-.67,2.56,2.56,0,0,0,1-2.71,1.88,1.88,0,0,0-.37-.61c-1.54-1.78-4.37,1-5,.21-.23-.27,0-.67.17-.85a1.16,1.16,0,0,1,1.72,0L30,22l-1.64-1.9L27,21.27l.47.7a2.19,2.19,0,0,0-2.24.59,2.28,2.28,0,0,0-.4,3.17C26.54,27.65,29.22,24.9,29.73,25.49Z" fill="#4d4d4d"/><path d="M31.45,73l-2.38-1.89-.82,1,.48.38L26,76l-.48-.38-.82,1,2.35,1.87c1.93,1.52,3.82,1.35,5.23-.43C33.5,76.55,33.35,74.53,31.45,73Zm-.92,3.6c-.79,1-1.74,1.46-2.58.82l-.3-.23,2.69-3.39.3.23C31.47,74.71,31.18,75.78,30.53,76.63Z" fill="#4d4d4d"/><path d="M50,77.51a27.51,27.51,0,0,0,0-55,26.41,26.41,0,0,0-2.83.15A27.51,27.51,0,0,0,50,77.51Zm0-51.64A24.13,24.13,0,1,1,25.88,50,24.16,24.16,0,0,1,50,25.87Z" fill="#4d4d4d"/><path d="M27.62,69.39l-2.35-3-1,.79.24.32-4.27,1.64-.41-.53-1,.8,1.95,2.5,1-.8-.49-.62.67-.25,1.27,1.61-.41.58-.59-.75-1,.81,2.46,3.15,1-.81-.43-.55Zm-4.5.4L25.21,69l-1.28,1.85Z" fill="#4d4d4d"/><path d="M50,0a50,50,0,1,0,50,50A50.07,50.07,0,0,0,50,0Zm0,88.83c-1.18,0-2.35-.06-3.5-.17a38.7,38.7,0,1,1,3.5.17ZM94.72,33l-7.16,2.61A39.63,39.63,0,0,0,85.2,30.5l6.6-3.8A49.55,49.55,0,0,1,94.72,33ZM86.18,18.72,80.36,23.6a39.8,39.8,0,0,0-4-3.94l4.88-5.83A47.13,47.13,0,0,1,86.18,18.72ZM73.31,8.22,69.5,14.8a41,41,0,0,0-5.07-2.36L67,5.29A46.43,46.43,0,0,1,73.31,8.22ZM33,5.29l2.61,7.15A41,41,0,0,0,30.5,14.8L26.7,8.22A45.75,45.75,0,0,1,33,5.29ZM18.72,13.83l4.88,5.83a40.7,40.7,0,0,0-3.94,3.94l-5.83-4.88A47,47,0,0,1,18.72,13.83ZM8.22,26.7l6.58,3.8a41,41,0,0,0-2.36,5.07L5.29,33A45.75,45.75,0,0,1,8.22,26.7ZM5.29,67l7.15-2.61A39.63,39.63,0,0,0,14.8,69.5L8.22,73.31A46.43,46.43,0,0,1,5.29,67Zm8.53,14.24,5.82-4.88a40.9,40.9,0,0,0,4,3.94l-4.88,5.83A46.17,46.17,0,0,1,13.82,81.28ZM26.7,91.78l3.8-6.58a38.32,38.32,0,0,0,5.07,2.36L33,94.71A45.75,45.75,0,0,1,26.7,91.78Zm40.34,3-2.61-7.17A38.32,38.32,0,0,0,69.5,85.2l3.81,6.6A50.4,50.4,0,0,1,67,94.73Zm14.24-8.55L76.4,80.36a39.8,39.8,0,0,0,3.94-4l5.83,4.9A47.93,47.93,0,0,1,81.28,86.18Zm10.5-12.87L85.2,69.5a39.63,39.63,0,0,0,2.36-5.07L94.72,67A46,46,0,0,1,91.78,73.31Z" fill="#4d4d4d"/></g></g></svg>