<svg xmlns="http://www.w3.org/2000/svg" viewBox="0 0 99.77 100"><title>Asset 5</title><g id="Layer_2" data-name="Layer 2"><g id="Layer_1-2" data-name="Layer 1"><path d="M29.1,64.61a1.43,1.43,0,0,1-1-1.9c.23-.9.85-1.52,1.51-1.36a1,1,0,0,1,.71,1.28L32,63c.21-.95.31-1.43.52-2.38l-1.41-.31-.32.41a1.8,1.8,0,0,0-1.24-.9A3.15,3.15,0,0,0,26,62.1c-.53,1.83.48,3.36,2.51,3.86a4.06,4.06,0,0,0,3.17-.5c-.36-.52-.53-.78-.87-1.31A2.26,2.26,0,0,1,29.1,64.61Z" fill="#4d4d4d"/><path d="M37.88,61.61c-1.39-.2-2.09-.32-3.47-.59-.08.44-.12.65-.21,1.08l.38.07c-.77,1.39-1.17,2.07-2,3.44L32,65.47l-.23,1.1c1.23.26,1.84.38,3.07.59.08-.44.12-.66.19-1.1l-.74-.14.3-.53c.78.14,1.17.21,2,.33,0,.24.07.36.11.61l-.91-.15c-.07.44-.11.66-.18,1.1,1.56.26,2.34.37,3.9.56.05-.44.08-.67.13-1.11l-.67-.08C38.43,64.63,38.24,63.63,37.88,61.61Zm-2.81,2.84c.37-.69.56-1,.92-1.72.12.77.18,1.16.31,1.93Z" fill="#4d4d4d"/><path d="M44.67,65.53c-.31-1.3-.46-2-.73-3.25-1.38-.1-2.07-.16-3.45-.32-.05.43-.08.65-.13,1.09l.49.06c-.16,1.49-.25,2.24-.41,3.74l-.52-.06c-.05.44-.08.66-.13,1.09,1.06.13,1.59.18,2.65.27,0-.44.06-.66.09-1.1L42,67c.12-1.34.19-2,.31-3.36h0a4.91,4.91,0,0,0,.1,1.07c.3,1.39.46,2.09.79,3.48.82.07,1.23.09,2.05.13.48-1.3.71-2,1.16-3.27a10.76,10.76,0,0,0,.32-1.13h0c0,.2,0,.31,0,.51-.05,1.14-.07,1.71-.11,2.85l-.54,0,0,1.11c1.24.06,1.86.07,3.1.08,0-.44,0-.66,0-1.11h-.54c0-1.51,0-2.26.06-3.76h.51c0-.44,0-.67,0-1.11-1.4,0-2.09,0-3.48-.1C45.32,63.65,45.11,64.28,44.67,65.53Z" fill="#4d4d4d"/><path d="M52.63,62.45c-1.19,0-1.78,0-3,0v1.12h.51c0,1.49,0,2.23,0,3.72h-.55v1.13c1.27,0,1.9,0,3.16,0,0-.45,0-.68,0-1.13l-.59,0c0-.53,0-.79,0-1.32l.72,0c1.36,0,2.46-.68,2.39-1.81C55.2,63.18,54.75,62.38,52.63,62.45Zm-.08,2.6h-.43l0-1.48.46,0c.54,0,.88.25.9.75S53.09,65,52.55,65.05Z" fill="#4d4d4d"/><path d="M58.44,66.91c-.14-1.48-.22-2.22-.36-3.69l.57-.06c0-.45-.07-.67-.12-1.12-1.21.13-1.81.18-3,.26,0,.45,0,.68.07,1.13l.59,0c.11,1.48.16,2.21.28,3.69l-.61,0c0,.45,0,.67.08,1.13,1.3-.09,1.95-.15,3.24-.28,0-.46-.07-.68-.12-1.13Z" fill="#4d4d4d"/><path d="M66.13,62c-.09-.43-.13-.65-.21-1.08-1.09.22-1.63.32-2.72.5.07.43.11.65.18,1.08l.62-.1.35,2c-1.13-1.07-1.68-1.62-2.75-2.73-1,.15-1.56.21-2.61.33,0,.44.08.66.12,1.09l.54-.06c.18,1.5.26,2.25.44,3.74l-.57.07c0,.44.08.65.12,1.09,1.2-.13,1.8-.21,3-.38-.07-.44-.1-.66-.17-1.09l-.73.1-.3-2.13c1.14,1.16,1.72,1.73,2.93,2.84.83-.13,1.25-.21,2.08-.37l-.92-4.78Z" fill="#4d4d4d"/><path d="M74,62.87c-.1-.36-.16-.53-.26-.88-1.22.36-1.83.52-3,.84.09.35.13.53.22.88l.57-.15c0,.14.05.21.09.35s-.26.5-.8.64a1.38,1.38,0,0,1-1.65-1.22A1.48,1.48,0,0,1,70,61.46a1.07,1.07,0,0,1,1.31.79c.66-.17,1-.26,1.64-.45-.27-1-.41-1.45-.69-2.42L71,59.74c0,.26,0,.39,0,.64A2.07,2.07,0,0,0,69,60.13a3.08,3.08,0,0,0-2.12,3.69,2.85,2.85,0,0,0,3.63,2.27,2,2,0,0,0,1.38-1l.43.44c.77-.2,1.15-.31,1.91-.53-.24-.82-.36-1.23-.59-2Z" fill="#4d4d4d"/><path d="M87.29,61.42c.71-3,1-4.43,1.45-7.36a69.07,69.07,0,0,1-8.68,4l-1.52-3.91c-19.8,6.54-37.51,6.54-57.31,0L19.71,58a69.07,69.07,0,0,1-8.68-4c.45,2.93.74,4.4,1.45,7.36a74,74,0,0,1-7,3.22,79.26,79.26,0,0,0,15.73,6.6c.5-1.6.76-2.4,1.26-4a102.15,102.15,0,0,0,54.9,0c.51,1.6.76,2.4,1.27,4a78.63,78.63,0,0,0,15.73-6.59A74,74,0,0,1,87.29,61.42Zm-67.35,8A78.87,78.87,0,0,1,9,64.88c2.18-1,3.24-1.53,5.3-2.65-.59-2.24-.85-3.36-1.29-5.6a66.24,66.24,0,0,0,6.19,2.7l-2.32,6c1.57.61,2.36.9,4,1.43Zm57-3.47a100.42,100.42,0,0,1-54,0c-1.58-.5-2.36-.76-3.92-1.34.88-2.39,1.32-3.59,2.21-6,.39-1,.58-1.58,1-2.62,19.16,6,36.37,6,55.53,0,.39,1,.58,1.57,1,2.62.88,2.39,1.32,3.59,2.21,6C79.27,65.14,78.49,65.41,76.91,65.9Zm2,.81c1.59-.53,2.38-.82,4-1.43l-2.32-6c2.5-1,3.74-1.52,6.18-2.7-.43,2.24-.69,3.36-1.28,5.6,2.06,1.12,3.12,1.65,5.3,2.65a78.87,78.87,0,0,1-10.94,4.49Z" fill="#4d4d4d"/><path d="M40.82,28.76,28.3,44.37a30.3,30.3,0,0,0-4.43,9.18,98.84,98.84,0,0,0,12.24,2.91c4.21-8.24,4.31-21.14,4.71-21.54.41.42.51,14.49,5.3,22.62a81.84,81.84,0,0,0,12.51-.4l-.55-2.41a30.31,30.31,0,0,0-4.74-10.36Z" fill="#4d4d4d"/><path d="M59.83,57a94.69,94.69,0,0,0,16-3.44,29.5,29.5,0,0,0-4.16-8.28L60.27,31.06,42.63,29,54.21,43.41a31.69,31.69,0,0,1,5,11Z" fill="#4d4d4d"/><path d="M58.29,65.4c.05.45.1.92.15,1.51l.6-.06Z" fill="#4d4d4d"/><path d="M52.3,63.57h-.22l0,1.48h.39Z" fill="#4d4d4d"/><path d="M36,62.73a1.8,1.8,0,0,1-.11.2l.13-.1Z" fill="#4d4d4d"/><path d="M59.38,63.05l.32.42c0-.14,0-.29-.05-.45Z" fill="#4d4d4d"/><path d="M42.29,63.65c0,.26,0,.49-.07.7l.13-.21a2.57,2.57,0,0,1,0-.48Z" fill="#4d4d4d"/><path d="M36.58,66.21l-.08.1.1,0S36.59,66.25,36.58,66.21Z" fill="#4d4d4d"/><path d="M40.51,66.2l-.34.62.27,0C40.46,66.62,40.49,66.4,40.51,66.2Z" fill="#4d4d4d"/><path d="M46.72,65.81l-.26,1.48h.2C46.68,66.7,46.7,66.26,46.72,65.81Z" fill="#4d4d4d"/><polygon points="35.21 35.76 13.54 15.65 34.87 36.18 35.21 35.76" fill="#4d4d4d"/><path d="M28.3,44.37l.26-.33-27-6.95,26.65,7.38Z" fill="#4d4d4d"/><polygon points="30.93 41.09 4.36 29.32 30.58 41.52 30.93 41.09" fill="#4d4d4d"/><polygon points="33.1 38.39 8.38 22.1 32.76 38.81 33.1 38.39" fill="#4d4d4d"/><path d="M26.33,47.49.11,45.22l26,2.74Z" fill="#4d4d4d"/><path d="M24.53,51.54,0,53.47,24.37,52Z" fill="#4d4d4d"/><path d="M9.84,66.88l-6,2.6L10,67Z" fill="#4d4d4d"/><path d="M11.92,59,1.25,61.64,12,59.18C12,59.11,11.93,59.05,11.92,59Z" fill="#4d4d4d"/><polygon points="57.09 30.69 66.74 2.92 56.53 30.62 57.09 30.69" fill="#4d4d4d"/><polygon points="50.42 29.9 50.54 0 49.87 29.83 50.42 29.9" fill="#4d4d4d"/><polygon points="53.72 30.29 58.76 0.79 53.17 30.22 53.72 30.29" fill="#4d4d4d"/><path d="M17.91,70.17,7.67,76.8l10.51-6.54Z" fill="#4d4d4d"/><polygon points="43.27 29.05 34.27 2.5 42.71 28.98 43.27 29.05" fill="#4d4d4d"/><polygon points="47.01 29.49 42.3 0.57 46.46 29.43 47.01 29.49" fill="#4d4d4d"/><polygon points="39.74 30.11 26.66 5.71 39.39 30.54 39.74 30.11" fill="#4d4d4d"/><polygon points="37.38 33.05 19.69 10.14 37.03 33.48 37.38 33.05" fill="#4d4d4d"/><path d="M28.71,68.72,12.65,83.38,29.19,68.82Z" fill="#4d4d4d"/><path d="M69.68,69,86.23,84.35l-16-15.45Z" fill="#4d4d4d"/><path d="M64.64,69.87l15.44,20L65.16,69.79Z" fill="#4d4d4d"/><polygon points="60.27 31.06 60.56 31.42 74.26 6.34 60.16 31.05 60.27 31.06" fill="#4d4d4d"/><path d="M75.53,52.69l24.13,2.09-24.3-2.56C75.42,52.38,75.48,52.53,75.53,52.69Z" fill="#4d4d4d"/><path d="M88.42,67.59l7,3.1-6.82-3.18Z" fill="#4d4d4d"/><path d="M60.32,70.43,73.1,94.29,60.84,70.37Z" fill="#4d4d4d"/><path d="M87.58,60.18l10.61,2.73L87.63,60Z" fill="#4d4d4d"/><path d="M80.39,70.66l11,7.24-10.7-7.34Z" fill="#4d4d4d"/><path d="M38.28,70.29,25.51,93.66,38.8,70.35Z" fill="#4d4d4d"/><path d="M42.21,70.68,33,97.08l9.71-26.36Z" fill="#4d4d4d"/><path d="M33.86,69.67,18.66,89.05l15.72-19.3Z" fill="#4d4d4d"/><path d="M45.85,70.9,41,99.21l5.37-28.28Z" fill="#4d4d4d"/><path d="M52.83,70.94l4.64,28.49-4.11-28.5Z" fill="#4d4d4d"/><path d="M56.44,70.77,65.5,97.5,57,70.73Z" fill="#4d4d4d"/><path d="M49.34,71l-.11,29,.64-29Z" fill="#4d4d4d"/><path d="M18.69,57.63,20,57.34c.05-.14.1-.28.15-.4l-2,.48Z" fill="#4d4d4d"/><path d="M22.43,67.24c-.05.16-.1.32-.14.47l.57-.36Z" fill="#4d4d4d"/><polygon points="69.15 42.14 95.94 30.52 68.8 41.7 69.15 42.14" fill="#4d4d4d"/><path d="M73.49,48.11l.24.47,26-2.06Z" fill="#4d4d4d"/><polygon points="71.52 45.09 98.52 38.36 71.16 44.64 71.52 45.09" fill="#4d4d4d"/><polygon points="64.93 36.88 87.11 16.62 64.59 36.45 64.93 36.88" fill="#4d4d4d"/><polygon points="67 39.46 92.1 23.2 66.66 39.03 67 39.46" fill="#4d4d4d"/><polygon points="62.82 34.25 81.11 10.95 62.48 33.82 62.82 34.25" fill="#4d4d4d"/><path d="M80.06,58l.22-.08L80,57.87A.77.77,0,0,1,80.06,58Z" fill="#4d4d4d"/><path d="M82.69,64.76a3.42,3.42,0,0,0,.13.34l3.82,1.7.22-.1Z" fill="#4d4d4d"/><path d="M77.75,68.55l-1.51-1-.45.11L77.89,69C77.85,68.86,77.8,68.71,77.75,68.55Z" fill="#4d4d4d"/></g></g></svg>