<svg xmlns="http://www.w3.org/2000/svg" viewBox="0 0 100 100"><title>Asset 6</title><g id="Layer_2" data-name="Layer 2"><g id="Layer_1-2" data-name="Layer 1"><path d="M59.12,72.19a2.6,2.6,0,0,0,.4,0A5.87,5.87,0,0,0,60.91,72a8.9,8.9,0,0,0,2-.8,9.83,9.83,0,0,0,1.86-1.34,8.65,8.65,0,0,0,1.38-1.61,5,5,0,0,0,.67-1.55,2.4,2.4,0,0,0,0-1.31,1.69,1.69,0,0,0-.72-.93L62,61.85a34.49,34.49,0,0,1-7.31,1.32l-3.49,2.94,6.63,5.57A2.43,2.43,0,0,0,59.12,72.19Zm-.38-2.56a4.37,4.37,0,0,1,.63-1.14,7.54,7.54,0,0,1,1.18-1.23,9,9,0,0,1,1.49-1,6.86,6.86,0,0,1,1.45-.56,4,4,0,0,1,1-.14h.16a1.23,1.23,0,0,1,.59.15.28.28,0,0,1,.13.15,1.08,1.08,0,0,1,0,.53,3.46,3.46,0,0,1-.47,1.07,6.74,6.74,0,0,1-1.13,1.31,8,8,0,0,1-1.58,1.14,6.76,6.76,0,0,1-1.61.66,3.93,3.93,0,0,1-1,.15l-.25,0a1.07,1.07,0,0,1-.54-.17.31.31,0,0,1-.1-.2A1.52,1.52,0,0,1,58.74,69.63Z" fill="#4d4d4d"/><path d="M50,63.36A42.26,42.26,0,0,1,37.85,62L34,64.49a1.75,1.75,0,0,0-.73.93,2.51,2.51,0,0,0,0,1.31,5,5,0,0,0,.67,1.55,8.65,8.65,0,0,0,1.38,1.61,9.83,9.83,0,0,0,1.86,1.34,8.7,8.7,0,0,0,2,.8,5.85,5.85,0,0,0,1.38.19,2.73,2.73,0,0,0,.41,0,2.43,2.43,0,0,0,1.34-.51l10-8.36c-.71,0-1.43,0-2.17,0Zm-8.63,7a.25.25,0,0,1-.1.19,1,1,0,0,1-.55.18l-.25,0a3.92,3.92,0,0,1-1-.15,6.6,6.6,0,0,1-1.61-.66,7.64,7.64,0,0,1-1.58-1.14,6.74,6.74,0,0,1-1.13-1.31,3.51,3.51,0,0,1-.48-1.07,1.06,1.06,0,0,1,0-.53.28.28,0,0,1,.12-.15,1.27,1.27,0,0,1,.59-.15h.17a4.2,4.2,0,0,1,1,.14,7.23,7.23,0,0,1,1.44.56,9,9,0,0,1,1.49,1,8,8,0,0,1,1.18,1.23,4.37,4.37,0,0,1,.63,1.14A1.67,1.67,0,0,1,41.37,70.35Z" fill="#4d4d4d"/><path d="M50.74,36.24c0,.78-.06,1.51-.12,2.19a8.16,8.16,0,0,1-.29,1.77,2,2,0,0,1-.33.71,2,2,0,0,1-.33-.71,8.16,8.16,0,0,1-.29-1.77c-.06-.68-.08-1.41-.13-2.19A20.58,20.58,0,0,0,49,33.82a10.25,10.25,0,0,0-.66-2.37,6.21,6.21,0,0,0-1.21-1.82,4.11,4.11,0,0,0-.66-.61,4.55,4.55,0,0,0-.65-.43,7.87,7.87,0,0,0-1.08-.52l-.93-.29s.19.31.49.83a6.9,6.9,0,0,1,.37,1,2.22,2.22,0,0,1,.13.58,2.07,2.07,0,0,1,0,.61,3,3,0,0,1-.27,1.2,5.9,5.9,0,0,1-.71,1.17c-.29.4-.65.83-1,1.29S42,35.4,41.57,36a16.3,16.3,0,0,0-1.37,2,12.53,12.53,0,0,0-1,2.2c0-.16,0-.32-.06-.49a9.66,9.66,0,0,0-.67-2.37,6.18,6.18,0,0,0-1.2-1.83,5.17,5.17,0,0,0-.67-.6,4.14,4.14,0,0,0-.65-.44,7.35,7.35,0,0,0-1.08-.52c-.59-.19-.93-.28-.93-.28s.19.3.5.83a6.49,6.49,0,0,1,.36,1A2.07,2.07,0,0,1,35,36a2.51,2.51,0,0,1,.05.61,3.38,3.38,0,0,1-.27,1.21A6.78,6.78,0,0,1,34,39c-.29.4-.66.83-1,1.29s-.84,1-1.28,1.55a14.9,14.9,0,0,0-1.36,2,10.52,10.52,0,0,0-1.14,2.78,11.33,11.33,0,0,0-.3,1.73,11.56,11.56,0,0,0,0,1.86C29.8,58,36.21,60.66,43.1,61.51a5.44,5.44,0,0,1-3.38-4.58,5.53,5.53,0,0,1,0-.91,4.61,4.61,0,0,1,.15-.84,5.15,5.15,0,0,1,.55-1.36,9.24,9.24,0,0,1,.66-1c.22-.28.44-.53.63-.75s.36-.44.5-.63a2.51,2.51,0,0,0,.35-.57,1.74,1.74,0,0,0,.13-.59,1,1,0,0,0,0-.3,2.3,2.3,0,0,0-.06-.28,4.45,4.45,0,0,0-.18-.46c-.15-.27-.24-.41-.24-.41l.45.14a4,4,0,0,1,.53.25,2.82,2.82,0,0,1,.31.21,3,3,0,0,1,.33.3,3.13,3.13,0,0,1,.59.89,5.43,5.43,0,0,1,.32,1.15l0,.25A6,6,0,0,1,45.22,51a9.24,9.24,0,0,1,.67-1c.21-.28.43-.53.62-.75L47,48.6a3.17,3.17,0,0,0,.34-.57,1.37,1.37,0,0,0,.13-.59,1,1,0,0,0,0-.3.88.88,0,0,0-.06-.28,4.7,4.7,0,0,0-.18-.47L47,46l.45.14a3.45,3.45,0,0,1,.53.25,2.49,2.49,0,0,1,.32.21,2.2,2.2,0,0,1,.32.3,2.88,2.88,0,0,1,.59.88,4.53,4.53,0,0,1,.32,1.16,10,10,0,0,1,.12,1.18c0,.39,0,.74.06,1.07a3.76,3.76,0,0,0,.14.86,1,1,0,0,0,.16.35,1,1,0,0,0,.16-.35,3.76,3.76,0,0,0,.14-.86c0-.33,0-.68.06-1.07s0-.77.11-1.18a5,5,0,0,1,.33-1.16,3.06,3.06,0,0,1,.58-.88,2.24,2.24,0,0,1,.33-.3,2.49,2.49,0,0,1,.32-.21,3.45,3.45,0,0,1,.53-.25L53,46l-.24.4a3.09,3.09,0,0,0-.18.47,1.28,1.28,0,0,0-.07.28c0,.1,0,.2,0,.3a1.54,1.54,0,0,0,.14.59,3.17,3.17,0,0,0,.34.57c.14.19.32.4.51.63s.4.47.62.75a9.24,9.24,0,0,1,.67,1A6,6,0,0,1,55.25,52a2.42,2.42,0,0,1,0-.25,4.89,4.89,0,0,1,.32-1.15,3.13,3.13,0,0,1,.59-.89,2.3,2.3,0,0,1,.33-.3,2.82,2.82,0,0,1,.31-.21,3.45,3.45,0,0,1,.53-.25l.45-.14s-.09.14-.24.41a4.45,4.45,0,0,0-.18.46,2.3,2.3,0,0,0-.06.28,1,1,0,0,0,0,.3,1.53,1.53,0,0,0,.13.59,2.86,2.86,0,0,0,.34.57l.51.63c.19.22.41.47.62.75a7,7,0,0,1,.67,1,5.51,5.51,0,0,1,.55,1.36,4.61,4.61,0,0,1,.15.84,5.66,5.66,0,0,1,0,.92,5.51,5.51,0,0,1-3.46,4.52c6.86-.94,13.33-3.75,14.25-11.23a10.65,10.65,0,0,0,0-1.87,11.33,11.33,0,0,0-.3-1.73,10.87,10.87,0,0,0-1.14-2.78,14.9,14.9,0,0,0-1.36-2c-.45-.58-.89-1.1-1.28-1.55s-.75-.89-1-1.29a6.2,6.2,0,0,1-.71-1.17A3.18,3.18,0,0,1,65,36.62,3.13,3.13,0,0,1,65,36a3.18,3.18,0,0,1,.13-.57,7.77,7.77,0,0,1,.37-1c.31-.53.5-.83.5-.83s-.34.09-.93.28a7.92,7.92,0,0,0-1.09.52,4.07,4.07,0,0,0-.64.44,4.64,4.64,0,0,0-.68.6,6.6,6.6,0,0,0-1.2,1.83,9.65,9.65,0,0,0-.66,2.37c0,.17,0,.33-.06.49a10.64,10.64,0,0,0-1-2.2,16.29,16.29,0,0,0-1.36-2c-.45-.57-.89-1.09-1.28-1.55s-.75-.89-1-1.29a6.34,6.34,0,0,1-.7-1.17,3,3,0,0,1-.27-1.2,2.47,2.47,0,0,1,0-.61,2.22,2.22,0,0,1,.13-.58,6.9,6.9,0,0,1,.37-1c.3-.52.49-.83.49-.83l-.93.29a7.87,7.87,0,0,0-1.08.52,4.05,4.05,0,0,0-.65.43,4.63,4.63,0,0,0-.67.61,6.39,6.39,0,0,0-1.2,1.82A10.26,10.26,0,0,0,51,33.82C50.84,34.65,50.79,35.45,50.74,36.24Z" fill="#4d4d4d"/><path d="M67.81,91.41c-.84.37-1.7.71-2.57,1a.7.7,0,0,0-.42.9.7.7,0,0,0,.66.47.69.69,0,0,0,.24,0c.9-.32,1.78-.67,2.65-1a.71.71,0,0,0-.56-1.3Z" fill="#4d4d4d"/><path d="M94,40.18c.2.9.38,1.8.52,2.72a.72.72,0,0,0,.7.6h.11a.7.7,0,0,0,.58-.81c-.15-1-.33-1.88-.53-2.81a.71.71,0,0,0-1.38.31Z" fill="#4d4d4d"/><path d="M8.1,66.63a.7.7,0,0,0-1.31.52c.35.89.73,1.76,1.14,2.62a.69.69,0,0,0,.63.41.63.63,0,0,0,.3-.07.71.71,0,0,0,.34-.94C8.81,68.34,8.44,67.49,8.1,66.63Z" fill="#4d4d4d"/><path d="M6.74,62.7c-.25-.88-.49-1.77-.69-2.68a.7.7,0,0,0-.85-.53.71.71,0,0,0-.53.84c.22.94.46,1.86.72,2.77a.7.7,0,0,0,.68.51l.2,0A.71.71,0,0,0,6.74,62.7Z" fill="#4d4d4d"/><path d="M11.14,72.85a.69.69,0,0,0-1-.25.7.7,0,0,0-.25,1c.48.82,1,1.63,1.52,2.42a.71.71,0,0,0,1,.19.71.71,0,0,0,.19-1C12.11,74.43,11.61,73.65,11.14,72.85Z" fill="#4d4d4d"/><path d="M15.1,78.53a.69.69,0,0,0-1-.1.7.7,0,0,0-.09,1c.6.74,1.22,1.45,1.87,2.15a.71.71,0,0,0,.52.23.7.7,0,0,0,.51-1.18C16.3,79.94,15.69,79.24,15.1,78.53Z" fill="#4d4d4d"/><path d="M47.53,95c-.93,0-1.86-.13-2.77-.23a.72.72,0,0,0-.78.62.71.71,0,0,0,.62.78q1.41.17,2.85.24h0a.7.7,0,0,0,.7-.66A.71.71,0,0,0,47.53,95Z" fill="#4d4d4d"/><path d="M54.45,94.85c-.91.09-1.84.16-2.76.19a.71.71,0,0,0,0,1.41h0c1,0,1.91-.1,2.86-.19a.71.71,0,0,0,.63-.77A.73.73,0,0,0,54.45,94.85Z" fill="#4d4d4d"/><path d="M40.66,94.1c-.91-.19-1.81-.41-2.69-.65a.69.69,0,0,0-.87.49.7.7,0,0,0,.49.86c.92.26,1.84.48,2.78.68h.15a.7.7,0,0,0,.14-1.39Z" fill="#4d4d4d"/><path d="M5.32,55.93C5.2,55,5.1,54.1,5,53.17a.71.71,0,0,0-1.41.1c.07.95.17,1.9.29,2.84a.7.7,0,0,0,.7.61h.09A.71.71,0,0,0,5.32,55.93Z" fill="#4d4d4d"/><path d="M61.27,93.65c-.89.23-1.79.43-2.7.61a.7.7,0,0,0-.57.82.72.72,0,0,0,.7.57h.13q1.41-.27,2.79-.63a.7.7,0,0,0,.51-.85A.71.71,0,0,0,61.27,93.65Z" fill="#4d4d4d"/><path d="M90.28,29.76a.69.69,0,0,0,.63.39.68.68,0,0,0,.31-.08.7.7,0,0,0,.32-.94c-.43-.85-.89-1.69-1.37-2.51a.7.7,0,0,0-1-.26.71.71,0,0,0-.25,1Q89.65,28.52,90.28,29.76Z" fill="#4d4d4d"/><path d="M95,47c.06.92.09,1.84.1,2.77a.7.7,0,0,0,.7.7h0a.7.7,0,0,0,.71-.7c0-1,0-1.91-.1-2.86A.71.71,0,1,0,95,47Z" fill="#4d4d4d"/><path d="M19.89,83.53a.71.71,0,0,0-1,.06.69.69,0,0,0,.05,1c.7.64,1.43,1.25,2.18,1.85a.71.71,0,0,0,.44.15.69.69,0,0,0,.55-.27.71.71,0,0,0-.11-1C21.28,84.75,20.58,84.15,19.89,83.53Z" fill="#4d4d4d"/><path d="M34,92.15c-.87-.32-1.73-.68-2.57-1.06a.7.7,0,0,0-.58,1.28c.87.39,1.75.76,2.65,1.1a.68.68,0,0,0,.9-.41A.71.71,0,0,0,34,92.15Z" fill="#4d4d4d"/><path d="M27.75,89.2q-1.21-.69-2.37-1.44a.7.7,0,1,0-.77,1.17c.8.53,1.61,1,2.44,1.5a.73.73,0,0,0,.35.09.71.71,0,0,0,.35-1.32Z" fill="#4d4d4d"/><path d="M92.9,36.17a.72.72,0,0,0,.68.48.76.76,0,0,0,.21,0,.71.71,0,0,0,.46-.88q-.45-1.37-1-2.7a.72.72,0,0,0-.92-.4.71.71,0,0,0-.4.91C92.31,34.41,92.62,35.28,92.9,36.17Z" fill="#4d4d4d"/><path d="M62.22,6.61c.9.25,1.78.53,2.65.83a.62.62,0,0,0,.23,0,.7.7,0,0,0,.23-1.37c-.89-.31-1.8-.6-2.72-.86a.71.71,0,0,0-.39,1.36Z" fill="#4d4d4d"/><path d="M68.73,9c.84.39,1.67.8,2.48,1.23a.68.68,0,0,0,.33.09A.71.71,0,0,0,71.88,9c-.84-.45-1.7-.87-2.57-1.27a.71.71,0,0,0-.93.35A.7.7,0,0,0,68.73,9Z" fill="#4d4d4d"/><path d="M55.43,5.25c.93.12,1.84.25,2.74.42h.13a.71.71,0,0,0,.13-1.4c-.93-.17-1.88-.31-2.83-.42a.7.7,0,0,0-.17,1.39Z" fill="#4d4d4d"/><path d="M74.79,12.35c.77.51,1.52,1.05,2.26,1.6a.71.71,0,0,0,1-.14.7.7,0,0,0-.14-1q-1.14-.87-2.34-1.65a.7.7,0,0,0-.77,1.17Z" fill="#4d4d4d"/><path d="M86.7,23.84a.7.7,0,0,0,.57.29.69.69,0,0,0,.41-.13.71.71,0,0,0,.17-1c-.56-.78-1.14-1.54-1.73-2.28a.71.71,0,0,0-1-.1.7.7,0,0,0-.11,1C85.6,22.35,86.16,23.08,86.7,23.84Z" fill="#4d4d4d"/><path d="M48.49,5h0l1.42,0c.46,0,.9,0,1.35,0a.71.71,0,0,0,0-1.41L50,3.52c-.5,0-1,0-1.53,0a.7.7,0,0,0,0,1.4Z" fill="#4d4d4d"/><path d="M82.25,18.52a.7.7,0,1,0,1-1c-.66-.68-1.35-1.34-2.05-2a.72.72,0,0,0-1,0,.71.71,0,0,0,.05,1C80.94,17.22,81.61,17.86,82.25,18.52Z" fill="#4d4d4d"/><path d="M6.15,36.81l.21,0A.7.7,0,0,0,7,36.35c.28-.88.59-1.76.92-2.62a.7.7,0,1,0-1.31-.51C6.3,34.11,6,35,5.69,35.93A.7.7,0,0,0,6.15,36.81Z" fill="#4d4d4d"/><path d="M8.69,30.25a.71.71,0,0,0,.94-.32c.42-.83.86-1.65,1.32-2.45a.7.7,0,1,0-1.22-.7c-.48.83-.93,1.67-1.36,2.52A.71.71,0,0,0,8.69,30.25Z" fill="#4d4d4d"/><path d="M12.62,24.28a.69.69,0,0,0,.57-.3c.54-.75,1.1-1.49,1.67-2.21a.7.7,0,1,0-1.09-.88c-.6.74-1.18,1.5-1.73,2.28a.7.7,0,0,0,.17,1A.67.67,0,0,0,12.62,24.28Z" fill="#4d4d4d"/><path d="M17.11,18.87a.7.7,0,0,0,.51-.22c.64-.66,1.3-1.31,2-1.93a.7.7,0,0,0,0-1,.71.71,0,0,0-1-.05c-.7.65-1.38,1.31-2,2a.71.71,0,0,0,0,1A.7.7,0,0,0,17.11,18.87Z" fill="#4d4d4d"/><path d="M4.23,50.7a.7.7,0,0,0,.7-.7c0-.93,0-1.86.08-2.77a.7.7,0,1,0-1.4-.09c-.06,1-.09,1.9-.09,2.86A.7.7,0,0,0,4.23,50.7Z" fill="#4d4d4d"/><path d="M34.71,7.54a.67.67,0,0,0,.24,0q1.29-.45,2.64-.84a.7.7,0,0,0-.39-1.35c-.92.26-1.83.55-2.72.87a.7.7,0,0,0,.23,1.36Z" fill="#4d4d4d"/><path d="M41.5,5.72l.13,0c.9-.17,1.82-.31,2.74-.42a.71.71,0,0,0-.17-1.4c-1,.12-1.9.27-2.83.44a.71.71,0,0,0,.13,1.4Z" fill="#4d4d4d"/><path d="M22.37,14.2a.69.69,0,0,0,.43-.14c.74-.56,1.49-1.09,2.26-1.61a.7.7,0,0,0-.78-1.17c-.8.53-1.57,1.08-2.33,1.66a.7.7,0,0,0-.14,1A.69.69,0,0,0,22.37,14.2Z" fill="#4d4d4d"/><path d="M28.29,10.4a.68.68,0,0,0,.33-.09c.81-.43,1.64-.85,2.48-1.24a.7.7,0,0,0,.34-.93.72.72,0,0,0-.94-.35c-.86.41-1.71.83-2.55,1.28a.71.71,0,0,0,.34,1.33Z" fill="#4d4d4d"/><path d="M4.65,43.68h.11a.72.72,0,0,0,.7-.6c.14-.91.31-1.82.5-2.72a.71.71,0,1,0-1.38-.3c-.2.93-.37,1.86-.52,2.81A.7.7,0,0,0,4.65,43.68Z" fill="#4d4d4d"/><path d="M73.94,88.19c-.78.49-1.58,1-2.39,1.4a.72.72,0,0,0-.28,1,.73.73,0,0,0,1,.28c.84-.46,1.66-.94,2.46-1.45a.7.7,0,0,0,.22-1A.71.71,0,0,0,73.94,88.19Z" fill="#4d4d4d"/><path d="M92.52,67a.7.7,0,0,0-.92.38c-.36.85-.74,1.7-1.15,2.52a.71.71,0,0,0,.32,1,.71.71,0,0,0,.94-.32c.43-.86.82-1.73,1.19-2.61A.7.7,0,0,0,92.52,67Z" fill="#4d4d4d"/><path d="M95.66,53.32a.71.71,0,0,0-.76.64c-.08.92-.19,1.84-.33,2.75a.71.71,0,0,0,.6.8h.1a.71.71,0,0,0,.7-.6c.14-.94.25-1.89.33-2.84A.7.7,0,0,0,95.66,53.32Z" fill="#4d4d4d"/><path d="M94.62,60.27a.7.7,0,0,0-.85.52q-.33,1.35-.75,2.67a.71.71,0,0,0,.47.88.76.76,0,0,0,.21,0,.7.7,0,0,0,.67-.49c.28-.91.54-1.83.77-2.75A.72.72,0,0,0,94.62,60.27Z" fill="#4d4d4d"/><path d="M84.38,79.14c-.6.71-1.22,1.4-1.86,2.06A.71.71,0,0,0,83,82.4a.74.74,0,0,0,.51-.22c.66-.69,1.3-1.4,1.91-2.12a.71.71,0,1,0-1.07-.92Z" fill="#4d4d4d"/><path d="M89.41,73.3a.71.71,0,0,0-1,.23c-.48.79-1,1.57-1.52,2.32A.71.71,0,0,0,87.5,77a.67.67,0,0,0,.57-.3c.55-.78,1.07-1.58,1.57-2.39A.7.7,0,0,0,89.41,73.3Z" fill="#4d4d4d"/><path d="M79.51,84.07c-.7.6-1.42,1.19-2.15,1.75a.7.7,0,0,0-.13,1,.71.71,0,0,0,1,.13c.76-.58,1.5-1.18,2.22-1.81a.71.71,0,0,0,.07-1A.7.7,0,0,0,79.51,84.07Z" fill="#4d4d4d"/><path d="M50,7A43,43,0,1,0,93,50,43,43,0,0,0,50,7Zm0,84.51A41.55,41.55,0,1,1,91.55,50,41.6,41.6,0,0,1,50,91.55Z" fill="#4d4d4d"/><path d="M16.89,38.25a3.27,3.27,0,0,0,4.67-1.67,4,4,0,0,0,0-3.29l-1.63.51a2.36,2.36,0,0,1,.22,1.83,1.62,1.62,0,0,1-2.29.53c-1-.46-1.57-1.25-1.28-1.89a1.12,1.12,0,0,1,1.57-.42l.74-1.6-2.54-1.18-.65,1.4.41.44A1.82,1.82,0,0,0,14.86,34,3.44,3.44,0,0,0,16.89,38.25Z" fill="#4d4d4d"/><path d="M19.36,28.8,22,32.5l-.41.53,1,.78,1.92-2.48-1-.79-.47.61-.4-.57L23.83,29l.66.25-.57.74,1,.79,2.41-3.13-1-.79-.42.55-5.5-2-2.31,3,1,.78Zm3.31-.25-.78,1-1.3-1.81Z" fill="#4d4d4d"/><path d="M24.34,22.73l2.6,3.48-.42.32.76,1,2.14-1.6-.76-1-.45.33-2.33-3.1,0,0a7,7,0,0,0,.9.86l3.24,2.48,1.65-1.23-1.47-3.69a13,13,0,0,0-.57-1.23l0,0,.34.46,2,2.64-.44.33.76,1,2.5-1.87-.77-1-.44.32L31,17.71l.44-.32-.76-1-3,2.25,1.45,3.52-3-2.35-3,2.24.76,1Z" fill="#4d4d4d"/><path d="M33.35,16.64l1.67,4-.51.21L35,22,38,20.78l-.51-1.2-.55.24-.6-1.41.69-.29c1.3-.55,2.14-1.62,1.63-2.82-.44-1-1.22-1.77-3.33-.88l-3,1.25.51,1.19Zm2.31-1a.86.86,0,1,1,.63,1.6l-.41.18-.67-1.58Z" fill="#4d4d4d"/><polygon points="39.9 14.19 40.94 18.34 40.34 18.49 40.66 19.77 43.83 18.97 43.51 17.69 42.92 17.84 41.87 13.69 42.47 13.54 42.15 12.28 38.98 13.08 39.29 14.34 39.9 14.19" fill="#4d4d4d"/><polygon points="44.19 13.1 44.49 17.44 43.91 17.48 44 18.75 47.02 18.54 46.93 17.27 46.18 17.32 46 14.84 48.77 18.41 50.89 18.27 50.5 12.65 51.15 12.61 51.06 11.34 48.1 11.55 48.19 12.82 48.85 12.77 49.02 15.11 46.35 11.67 43.53 11.87 43.62 13.14 44.19 13.1" fill="#4d4d4d"/><path d="M54.62,18.83a1.87,1.87,0,0,0,1.68-.45l.2.67,2,.32.4-2.43.39.06.17-1-3.23-.54-.17,1,.59.1-.07.41a.93.93,0,0,1-1,.32c-.85-.13-1.2-1-1-2s.85-1.74,1.64-1.61a1.17,1.17,0,0,1,.9,1.42l1.75.29.47-2.87-1.45-.24-.32.67a2.08,2.08,0,0,0-1.76-1.14,3.37,3.37,0,0,0-3.58,3.09A3.17,3.17,0,0,0,54.62,18.83Z" fill="#4d4d4d"/><path d="M64.37,20.4l-.68-.35.49-.5,1.8.92-.13.69L65,20.73l-.59,1.15L68,23.69l.59-1.15-.62-.31,1-5.78-3.36-1.73L65,15.85l.35.18-3.16,3.24-.6-.31L61,20.11l2.79,1.44Zm2.22-3.34-.4,2.19L65,18.66Z" fill="#4d4d4d"/><path d="M68.8,22.79l-.84,1,2.42,2.06.84-1-.45-.39,1-1.16c.67.57.61.81,0,1.49a1.68,1.68,0,0,0,.26,2.64,1.37,1.37,0,0,0,2.12-.27l.35-.41-.5-.43-.21.25c-.13.15-.27.19-.38.09s0-.34.26-.66a1.5,1.5,0,0,0-.08-1.91,1.51,1.51,0,0,0,2-.16c.73-.85,1-1.83-.76-3.32l-2.44-2.08-.84,1,.42.36-2.79,3.27Zm4.77-1.59.37.32a.79.79,0,0,1,.11,1.25.82.82,0,0,1-1.24,0l-.33-.29Z" fill="#4d4d4d"/><polygon points="77.6 24.91 77.98 25.4 74.6 28.02 74.22 27.53 73.18 28.33 76.82 33.03 78.58 31.67 77.54 30.32 76.81 30.88 75.85 29.63 77.12 28.65 78.27 30.13 79.31 29.33 78.16 27.85 79.23 27.01 80.2 28.26 79.51 28.8 80.55 30.15 82.27 28.82 78.63 24.11 77.6 24.91" fill="#4d4d4d"/><path d="M78.39,33.08l-.29-.6L76.94,33l1.33,2.83,1.17-.55-.33-.69.69-.1.86,1.83-.51.47-.4-.85-1.17.55,1.68,3.58,1.17-.55-.3-.63,4.33-4-1.61-3.43-1.15.54.17.37Zm3.19,2.43L81,34.35l2.2-.33Z" fill="#4d4d4d"/><polygon points="15.14 62.01 14.27 62.27 13.81 60.76 15.34 60.3 15.89 62.09 17.14 61.7 16.6 59.91 17.9 59.51 18.36 61.02 17.52 61.28 18.02 62.91 20.11 62.27 18.37 56.59 17.12 56.97 17.31 57.56 13.21 58.81 13.03 58.22 11.77 58.6 13.51 64.29 15.64 63.64 15.14 62.01" fill="#4d4d4d"/><path d="M19.68,65.45c.3-.16.64.1.78.35a1.15,1.15,0,0,1-.41,1.65L20.89,69l2.18-1.18-.8-1.49-.78.31a2.18,2.18,0,0,0-.09-2.29,2.23,2.23,0,0,0-3-1.07c-2.22,1.19-.14,4.37-.82,4.73-.36.2-.66-.2-.83-.5s-.45-1.17.28-1.56l-.86-1.61L14,65.54l.81,1.52.72-.26A2.67,2.67,0,0,0,15.72,69c.56,1,1.72,2,3.08,1.31C20.84,69.26,18.78,65.93,19.68,65.45Z" fill="#4d4d4d"/><polygon points="24.85 72.11 25.37 72.75 24.4 73.55 25.32 74.67 27.3 73.03 23.09 67.93 21.11 69.56 22.03 70.68 23.01 69.88 23.55 70.53 20.25 73.25 19.73 72.63 18.72 73.47 21.05 76.3 22.06 75.46 21.55 74.83 24.85 72.11" fill="#4d4d4d"/><path d="M31.34,76.25l-3-2.33-.78,1,.32.25-3.72,2.58-.53-.41-.79,1,2.46,1.94.8-1-.61-.48.58-.39,1.59,1.24-.25.66-.74-.58-.79,1L29,83.18l.79-1-.54-.43Zm-3.22,2.24-1-.8,1.81-1.28Z" fill="#4d4d4d"/><path d="M37.94,81.78c.47-1,0-1.85-1.44-2.57l-3.31-1.6-.55,1.14.51.25-1.89,3.91-.52-.25-.56,1.15,3.38,1.64c1.71.83,2.68.62,3.28-.64a1.63,1.63,0,0,0-.44-2.07A1.37,1.37,0,0,0,37.94,81.78Zm-3,2a.79.79,0,0,1-1.08.41l-.71-.34.74-1.55.69.33A.79.79,0,0,1,34.89,83.73Zm.92-2.61c-.21.43-.47.62-.94.39l-.54-.26L35,79.92l.56.27A.65.65,0,0,1,35.81,81.12Z" fill="#4d4d4d"/><polygon points="41.13 86.72 39.9 86.38 41.03 82.25 41.53 82.39 41.88 81.13 38.87 80.31 38.52 81.56 39.05 81.71 37.92 85.84 37.4 85.7 37.05 86.96 42.38 88.42 43.06 85.94 41.46 85.51 41.13 86.72" fill="#4d4d4d"/><polygon points="44.19 83.01 44.8 83.09 44.27 87.33 43.66 87.25 43.49 88.55 46.74 88.96 46.9 87.66 46.3 87.58 46.83 83.34 47.43 83.42 47.6 82.13 44.35 81.72 44.19 83.01" fill="#4d4d4d"/><path d="M50.34,84c0-.35.38-.53.67-.54a1.16,1.16,0,0,1,1.3,1.11l1.78,0L54,82.06l-1.7,0-.07.83a2.22,2.22,0,0,0-2.09-1,2.25,2.25,0,0,0-2.29,2.19c.07,2.51,3.85,2.08,3.87,2.85,0,.41-.48.51-.82.52s-1.25-.13-1.27-1l-1.84.05.07,2.48,1.73,0,.09-.76a2.61,2.61,0,0,0,2.08.85c1.18,0,2.6-.63,2.56-2.16C54.27,84.69,50.37,85,50.34,84Z" fill="#4d4d4d"/><polygon points="61.81 86 60.8 81.83 61.36 81.69 61.05 80.43 57.94 81.18 58.24 82.45 58.81 82.31 59.16 83.76 57.34 84.2 56.99 82.75 57.58 82.61 57.27 81.34 54.17 82.09 54.48 83.36 55 83.23 56.01 87.4 55.48 87.53 55.79 88.79 58.9 88.04 58.59 86.78 58 86.92 57.64 85.47 59.47 85.03 59.82 86.48 59.25 86.62 59.56 87.88 62.67 87.13 62.37 85.86 61.81 86" fill="#4d4d4d"/><path d="M68.84,76.07l-2.42,1.79v0L61,80.37l.56,1.18.56-.27L64,85.15l-.56.27L64,86.6l5.37-2.54-.95-2-1.54.73.39.83-1.43.67-.68-1.45,1.69-.8-.56-1.19-1.69.8L64,80.41l1.42-.67.38.79,1.54-.73-.92-1.94.78,1,.49-.36L70.23,82l-.49.37.78,1.05,2.39-1.77c2-1.44,2.28-3.29.94-5.1C72.73,75,70.76,74.65,68.84,76.07Zm3.32,4.49-.3.22-2.55-3.44.31-.23c.84-.62,1.78-.07,2.4.77C72.76,78.88,73,79.92,72.16,80.56Z" fill="#4d4d4d"/><path d="M79.87,73.11l-4.29-3.56L74.46,70.9a4.19,4.19,0,0,1-.11,2.15l1.13.35.27-1.06,2.82,2.34-.63.76,1,.84,2.51-3-1-.84Z" fill="#4d4d4d"/><path d="M81.58,65.7a2.85,2.85,0,0,0-4.15.92,2.46,2.46,0,0,0,.82,3.47,2.15,2.15,0,0,0,3.07-.85A1.81,1.81,0,0,0,81.51,68,1.17,1.17,0,0,1,82,69.67a2.88,2.88,0,0,1-1.17,1l.75,1.23a4,4,0,0,0,1.87-1.59C84.75,68,82.88,66.43,81.58,65.7Zm-1.34,2.59a.81.81,0,0,1-1.16.24.86.86,0,0,1-.27-1.21c.32-.54,1-.36,1.42-.11A1.29,1.29,0,0,1,80.24,68.29Z" fill="#4d4d4d"/><path d="M85.42,61.17a1.91,1.91,0,0,0-2,.32,1.49,1.49,0,0,0-.95-1.26c-1-.41-2.11.05-2.67,1.47s-.08,2.5.94,2.9a1.53,1.53,0,0,0,1.49-.2A2.08,2.08,0,0,0,83.5,66c1.13.44,2.36-.12,3-1.64S86.55,61.62,85.42,61.17Zm-4.12,1.9a.74.74,0,0,1,.54-1.35.78.78,0,0,1,.43.68C82.14,62.7,81.81,63.27,81.3,63.07Zm3.86.79a.87.87,0,0,1-1.09.56,1.1,1.1,0,0,1-.61-.86c.19-.41.64-1.09,1.28-.84A.82.82,0,0,1,85.16,63.86Z" fill="#4d4d4d"/><path d="M81.3,57a2.46,2.46,0,0,0,1.89,3,2.16,2.16,0,0,0,2.64-1.79A1.79,1.79,0,0,0,85.59,57a1.18,1.18,0,0,1,1.06,1.46,2.84,2.84,0,0,1-.8,1.3l1.11.92a4,4,0,0,0,1.25-2.1c.48-2.55-1.81-3.46-3.28-3.74A2.85,2.85,0,0,0,81.3,57Zm3.2.68a.8.8,0,0,1-1,.59.86.86,0,0,1-.64-1.05c.14-.62.83-.67,1.31-.56A1.28,1.28,0,0,1,84.5,57.68Z" fill="#4d4d4d"/><path d="M50,0a50,50,0,1,0,50,50A50.06,50.06,0,0,0,50,0Zm0,98.59A48.59,48.59,0,1,1,98.59,50,48.65,48.65,0,0,1,50,98.59Z" fill="#4d4d4d"/></g></g></svg>