<svg xmlns="http://www.w3.org/2000/svg" viewBox="0 0 100 88.41"><title>Asset 1</title><g id="Layer_2" data-name="Layer 2"><g id="Layer_1-2" data-name="Layer 1"><path d="M15.12,66.36c-.12.68-.34,1.69-.44,2l-1.6,5.91H9.9L8.2,68.24a10.15,10.15,0,0,1-.32-1.88H7.82v6h.87v2H4.56v-2h.83V65.64H4.58v-2h5.76l1.54,5.69,1.46-5.69h5.79v2H18.3v6.69h.83v2h-4.8v-2h.85v-6Z" fill="#4d4d4d"/><path d="M19.75,68.94a5.2,5.2,0,0,1,5.34-5.55c3.72,0,5.46,2.24,5.46,5.66s-1.92,5.54-5.36,5.54C22,74.59,19.75,72.75,19.75,68.94Zm7,.11c0-1.84-.5-3.32-1.67-3.32-.93,0-1.56,1.33-1.56,3.21s.71,3.26,1.68,3.26S26.74,70.94,26.74,69.05Z" fill="#4d4d4d"/><path d="M35.84,63.68v2H35v3.29c0,2.45.55,3,1.52,3s1.54-.36,1.54-3V65.69h-.82v-2h4.5v2h-.82v3.7c0,3.6-1.51,5.23-4.37,5.23-3.07-.09-4.71-1.7-4.71-5.16V65.66H31v-2Z" fill="#4d4d4d"/><path d="M53,65.64v8.67H49.75l-3.88-5.79v3.83H47v2H42.37v-2h.9V65.64h-.88v-2h4.36l3.73,5.58V65.64h-1v-2H54v2Z" fill="#4d4d4d"/><path d="M64.84,67.64H62.6v-2H61.33v6.6h1.26v2H56.93v-2h1.25v-6.6H56.87v2H54.64v-4h10.2Z" fill="#4d4d4d"/><path d="M71.26,74.31v-2h1.45l-.32-1H69.27l-.32,1h1.19v2H65.3v-2h1l2-6.68h-.63v-2H73.6l2.7,8.64h1.06v2Zm.56-4.85-1-3.28-1,3.28Z" fill="#4d4d4d"/><path d="M83,63.68v2h-.94v6.6H83v2H78v-2h1v-6.6H78v-2Z" fill="#4d4d4d"/><path d="M94.43,65.64v8.67H91.16l-3.88-5.79v3.83h1.18v2H83.79v-2h.89V65.64H83.8v-2h4.37l3.72,5.58V65.64h-1v-2h4.58v2Z" fill="#4d4d4d"/><path d="M6,88.16v-2H7.41l-.32-1H4l-.32,1H4.84v2H0v-2H1l2.05-6.67H2.46v-2H8.3L11,86.16h1.07v2Zm.56-4.85L5.52,80l-1,3.29Z" fill="#4d4d4d"/><path d="M12.67,86.13h.95v-6.6h-.95v-2h4.64c3.68,0,5.78,2.26,5.78,5.17,0,3.46-2.1,5.46-5.84,5.46H12.67Zm4.64,0c1.61,0,2.28-1.53,2.28-3.43,0-1.63-.67-3.17-2.28-3.17h-.58v6.6Z" fill="#4d4d4d"/><path d="M29.71,84.75a7.38,7.38,0,0,1,.55-1.93l1.38-3.32h-.8v-2h4.31v2h-.74l-3.65,8.66H28l-4-8.66H23.1v-2h5.59v2h-.82l1.29,3.41a8.66,8.66,0,0,1,.47,1.84Z" fill="#4d4d4d"/><path d="M44.56,77.53v3.36H41.93V79.53H39.49v2.1h2.89v2H39.49v2.48h2.44V84.72h2.63v3.44H35.39v-2h1v-6.6h-1v-2Z" fill="#4d4d4d"/><path d="M56,79.49v8.67H52.7l-3.88-5.8v3.83H50v2H45.32v-2h.9v-6.7h-.88v-2H49.7l3.73,5.58V79.49h-1v-2H57v2Z" fill="#4d4d4d"/><path d="M67.79,81.48H65.56v-2H64.28v6.6h1.26v2H59.88v-2h1.25v-6.6H59.82v2H57.59v-4h10.2Z" fill="#4d4d4d"/><path d="M73.09,77.53v2h-.82v3.28c0,2.45.54,3,1.52,3s1.53-.37,1.53-3V79.53H74.5v-2H79v2h-.82v3.69c0,3.61-1.5,5.23-4.36,5.23-3.07-.09-4.72-1.7-4.72-5.15V79.5h-.85v-2Z" fill="#4d4d4d"/><path d="M84.56,77.53c3.53,0,4.21,1.4,4.21,3.13a2.31,2.31,0,0,1-2.2,2.2,2.31,2.31,0,0,1,2,2.16c0,.66.09,1,.36,1s.35-.18.35-.49v-.5h1v.84c0,1.26-.53,2.43-2.22,2.43-2,0-2.95-1-2.95-2.83,0-1.38-.16-1.72-1.52-1.72v2.36h.93v2H79.62v-2h.85V79.52h-.85v-2Zm-1,4.56h.69c.88,0,1.46-.43,1.46-1.23a1.24,1.24,0,0,0-1.39-1.36H83.6Z" fill="#4d4d4d"/><path d="M31.05,74.79a1.8,1.8,0,0,1-.19.2h.34C31.14,74.93,31.11,74.85,31.05,74.79Z" fill="#4d4d4d"/><path d="M21.67,61.15v.44a8.12,8.12,0,0,1,3.42-.73,9.21,9.21,0,0,1,3.38.59v-.3h15.3l2.65-8.35-5.56-19,5.53-22.57L49,6l12,28,1.54,3.62,1.64-1.79,4.55,25.28H79.09V53.89l-7.74-6.45,1.15-20.1L82.93,45.68l.95,11.56.07.85.56.63,2.15,2.43h3.39L86.41,57l-1-12.13L72.76,22.68l-9.5,10.37L49.14,0,37.69,23,26.61,26.85,20.48,39.78l-9.54,9.73L9.08,61.15Z" fill="#4d4d4d"/><path d="M100,77.53v3.36H97.37V79.53H94.94v2.1h2.89v2H94.94v2.48h2.43V84.72H100v3.44H90.83v-2h1v-6.6h-1v-2Z" fill="#4d4d4d"/></g></g></svg>