<?xml version="1.0" encoding="iso-8859-1"?>
<!-- Generator: Adobe Illustrator 19.0.0, SVG Export Plug-In . SVG Version: 6.00 Build 0)  -->
<svg version="1.1" id="Layer_1" xmlns="http://www.w3.org/2000/svg" xmlns:xlink="http://www.w3.org/1999/xlink" x="0px" y="0px"
	 viewBox="0 0 511.999 511.999" style="enable-background:new 0 0 511.999 511.999;" xml:space="preserve">
<g>
	<g>
		<path d="M247.448,171.023c-46.856,0-84.977,38.121-84.977,84.977s38.121,84.977,84.977,84.977s84.977-38.121,84.977-84.977
			S294.304,171.023,247.448,171.023z M255.465,324.463v-8.605c0-4.427-3.589-8.017-8.017-8.017s-8.017,3.589-8.017,8.017v8.605
			c-31.618-3.68-56.766-28.827-60.446-60.446h8.605c4.427,0,8.017-3.589,8.017-8.017s-3.589-8.017-8.017-8.017h-8.605
			c3.68-31.618,28.827-56.766,60.446-60.446v8.605c0,4.427,3.589,8.017,8.017,8.017s8.017-3.589,8.017-8.017v-8.605
			c31.618,3.68,56.766,28.827,60.446,60.446h-8.605c-4.427,0-8.017,3.589-8.017,8.017s3.589,8.017,8.017,8.017h8.605
			C312.231,295.635,287.083,320.782,255.465,324.463z"/>
	</g>
</g>
<g>
	<g>
		<path d="M287.321,216.127c-3.13-3.131-8.207-3.131-11.337,0l-34.205,34.205c-3.131,3.131-3.131,8.207,0,11.337
			c1.565,1.565,3.617,2.348,5.668,2.348s4.103-0.782,5.668-2.348l34.205-34.205C290.452,224.333,290.452,219.257,287.321,216.127z"
			/>
	</g>
</g>
<g>
	<g>
		<path d="M230.348,51.307c-4.427,0-8.017,3.589-8.017,8.017v8.552c0,4.427,3.589,8.017,8.017,8.017s8.017-3.589,8.017-8.017v-8.552
			C238.365,54.896,234.776,51.307,230.348,51.307z"/>
	</g>
</g>
<g>
	<g>
		<path d="M264.553,51.307c-4.427,0-8.017,3.589-8.017,8.017v8.552c0,4.427,3.589,8.017,8.017,8.017s8.017-3.589,8.017-8.017v-8.552
			C272.569,54.896,268.98,51.307,264.553,51.307z"/>
	</g>
</g>
<g>
	<g>
		<path d="M230.348,436.109c-4.427,0-8.017,3.589-8.017,8.017v8.552c0,4.427,3.589,8.017,8.017,8.017s8.017-3.589,8.017-8.017
			v-8.552C238.365,439.698,234.776,436.109,230.348,436.109z"/>
	</g>
</g>
<g>
	<g>
		<path d="M264.553,436.109c-4.427,0-8.017,3.589-8.017,8.017v8.552c0,4.427,3.589,8.017,8.017,8.017s8.017-3.589,8.017-8.017
			v-8.552C272.569,439.698,268.98,436.109,264.553,436.109z"/>
	</g>
</g>
<g>
	<g>
		<path d="M375.716,239.432c-4.427,0-8.017,3.589-8.017,8.017v0.534h-1.345c-1.763-26.406-12.16-50.484-28.392-69.427l-12.92-70.968
			c-1.464-7.838-8.314-13.526-16.287-13.526h-1.984V16.568C306.772,7.432,299.34,0,290.204,0h-85.511
			c-9.136,0-16.568,7.432-16.568,16.568v77.495h-1.984c-7.972,0-14.821,5.688-16.293,13.562l-12.913,70.932
			c-17.861,20.844-28.668,47.905-28.668,77.443s10.807,56.599,28.668,77.443l12.92,70.968c1.464,7.837,8.314,13.525,16.286,13.525
			h1.985v77.495c0,9.136,7.432,16.568,16.568,16.568h85.511c9.136,0,16.568-7.432,16.568-16.568v-77.494h1.984
			c7.972,0,14.821-5.688,16.293-13.562l12.913-70.932c16.232-18.944,26.629-43.022,28.392-69.427h1.345v0.534
			c0,4.427,3.589,8.017,8.017,8.017c4.427,0,8.017-3.589,8.017-8.017v-17.102C383.732,243.021,380.143,239.432,375.716,239.432z
			 M204.158,16.568c0-0.295,0.239-0.534,0.534-0.534h17.666c-0.012,0.177-0.027,0.354-0.027,0.534v8.552
			c0,4.427,3.589,8.017,8.017,8.017c4.427,0,8.017-3.589,8.017-8.017v-8.552c0-0.181-0.015-0.357-0.027-0.534h18.225
			c-0.012,0.177-0.027,0.354-0.027,0.534v8.552c0,4.427,3.589,8.017,8.017,8.017c4.427,0,8.017-3.589,8.017-8.017v-8.552
			c0-0.181-0.015-0.357-0.027-0.534h17.661c0.295,0,0.534,0.239,0.534,0.534v94.063c0,0.295-0.239,0.534-0.534,0.534h-17.661
			c0.012-0.177,0.027-0.354,0.027-0.534v-8.552c0-4.427-3.589-8.017-8.017-8.017s-8.017,3.589-8.017,8.017v8.552
			c0,0.181,0.015,0.357,0.027,0.534h-18.225c0.012-0.177,0.027-0.354,0.027-0.534v-8.552c0-4.427-3.589-8.017-8.017-8.017
			s-8.017,3.589-8.017,8.017v8.552c0,0.181,0.015,0.357,0.027,0.534h-17.666c-0.295,0-0.534-0.239-0.534-0.534V16.568z
			 M185.616,110.533c0.046-0.253,0.267-0.437,0.525-0.437h1.984v0.534c0,9.136,7.432,16.568,16.568,16.568h85.511
			c9.136,0,16.568-7.432,16.568-16.568v-0.534h1.984c0.258,0,0.478,0.184,0.518,0.4l9.058,49.754
			c-19.825-14.714-44.354-23.431-70.884-23.431s-51.059,8.717-70.884,23.431L185.616,110.533z M290.739,495.432
			c0,0.295-0.239,0.534-0.534,0.534h-17.661c0.012-0.177,0.027-0.354,0.027-0.534v-8.552c0-4.427-3.589-8.017-8.017-8.017
			s-8.017,3.589-8.017,8.017v8.552c0,0.181,0.015,0.357,0.027,0.534h-18.225c0.012-0.177,0.027-0.354,0.027-0.534v-8.552
			c0-4.427-3.589-8.017-8.017-8.017s-8.017,3.589-8.017,8.017v8.552c0,0.181,0.015,0.357,0.027,0.534h-17.666
			c-0.295,0-0.534-0.239-0.534-0.534V401.37c0-0.295,0.239-0.534,0.534-0.534h17.666c-0.012,0.177-0.027,0.354-0.027,0.534v8.552
			c0,4.427,3.589,8.017,8.017,8.017c4.427,0,8.017-3.589,8.017-8.017v-8.552c0-0.181-0.015-0.357-0.027-0.534h18.225
			c-0.012,0.177-0.027,0.354-0.027,0.534v8.552c0,4.427,3.589,8.017,8.017,8.017c4.427,0,8.017-3.589,8.017-8.017v-8.552
			c0-0.181-0.015-0.357-0.027-0.534h17.661c0.295,0,0.534,0.239,0.534,0.534V495.432z M309.281,401.467
			c-0.046,0.253-0.267,0.437-0.525,0.437h-1.984v-0.534c0-9.136-7.432-16.568-16.568-16.568h-85.511
			c-9.136,0-16.568,7.432-16.568,16.568v0.534h-1.984c-0.258,0-0.478-0.184-0.518-0.4l-9.058-49.754
			c19.825,14.714,44.354,23.431,70.884,23.431s51.059-8.717,70.884-23.431L309.281,401.467z M247.448,359.148
			C190.573,359.148,144.3,312.876,144.3,256s46.272-103.148,103.148-103.148S350.597,199.124,350.597,256
			S304.324,359.148,247.448,359.148z"/>
	</g>
</g>
<g>
</g>
<g>
</g>
<g>
</g>
<g>
</g>
<g>
</g>
<g>
</g>
<g>
</g>
<g>
</g>
<g>
</g>
<g>
</g>
<g>
</g>
<g>
</g>
<g>
</g>
<g>
</g>
<g>
</g>
</svg>
