<svg xmlns="http://www.w3.org/2000/svg" width="130.526" height="119.588" viewBox="0 0 130.526 119.588">
  <g id="hero-shape" transform="translate(-993.653 -171.654)">
    <path id="Path_8" data-name="Path 8" d="M418.622,48.491a14.1,14.1,0,0,0,11.293,5.647,13.145,13.145,0,0,1,13.145,13.144A13.785,13.785,0,0,0,455.933,81.17a13.523,13.523,0,0,0,14.175-13.508,13.146,13.146,0,0,1,13.144-13.525,13.784,13.784,0,0,0,13.888-12.874,13.527,13.527,0,0,0-13.888-14.176,13.142,13.142,0,0,1-13.144-13.144A14.139,14.139,0,0,0,466.4,4.4c-8.26-9.017-23.338-3.1-23.338,9.163a13.514,13.514,0,0,1-13.525,13.525A13.482,13.482,0,0,0,418.622,48.491Z" transform="translate(577.64 171.611)" fill="#0e1b50" opacity="0.04"/>
    <path id="Path_9" data-name="Path 9" d="M417.6,29.529a8.584,8.584,0,0,0,6.873,3.437,8,8,0,0,1,8,8,8.389,8.389,0,0,0,7.835,8.452,8.23,8.23,0,0,0,8.627-8.221,8,8,0,0,1,8-8.231,8.389,8.389,0,0,0,8.453-7.835,8.232,8.232,0,0,0-8.453-8.627,8,8,0,0,1-8-8A8.605,8.605,0,0,0,446.678,2.7a8.192,8.192,0,0,0-14.2,5.577,8.225,8.225,0,0,1-8.232,8.231A8.205,8.205,0,0,0,417.6,29.529Z" transform="translate(658.781 241.815)" fill="#0e1b50" opacity="0.04"/>
  </g>
</svg>
