<svg id="Capa_1" enable-background="new 0 0 512.022 512.022" height="512" viewBox="0 0 512.022 512.022" width="512" xmlns="http://www.w3.org/2000/svg"><g><path d="m510.96 487.829c.686-1.142 1.025-2.471 1.041-3.799v-278.113c.18-2.574-.802-5.207-2.882-6.797l-67.118-52.445v-68.645c0-4.142-3.357-7.5-7.5-7.5h-89.95l-45.712-35.717c-24.324-19.007-58.377-19.105-82.809-.242l-46.579 35.959h-91.95c-4.143 0-7.5 3.358-7.5 7.5v69.275l-67.062 51.773c-1.83 1.398-2.942 3.65-2.938 5.953v66c0 4.143 3.357 7.5 7.5 7.5s7.5-3.357 7.5-7.5v-53.22l188.602 105.354-188.602 145.601v-162.736c0-4.143-3.357-7.5-7.5-7.5s-7.5 3.357-7.5 7.5v178c-.066 4.026 3.471 7.57 7.5 7.5h497c2.608.008 5.16-1.435 6.459-3.701zm-19.195-283.232-49.764 28.036v-66.921zm-266.569-158.153c19.004-14.67 45.49-14.593 64.406.188l30.585 23.898h-126.191zm-53.191 39.086h.009.006 254.981v155.554l-47.376 26.691c-3.608 2.033-4.886 6.606-2.853 10.216 2.044 3.643 6.673 4.866 10.216 2.853l110.013-61.979v249.787l-73.729-57.61c-3.263-2.549-7.977-1.972-10.528 1.292-2.55 3.265-1.972 7.978 1.292 10.528l68.685 53.669h-453.232l195.708-151.086c19.006-14.672 45.49-14.593 64.406.188l3.612 2.822c.005.004.009.007.014.011l94.016 73.461c3.265 2.55 7.977 1.973 10.528-1.292 2.55-3.265 1.972-7.978-1.292-10.528l-85.229-66.595 46.113-25.979c3.608-2.033 4.886-6.606 2.853-10.216-2.032-3.608-6.604-4.884-10.216-2.853l-51.562 29.049c-24.132-18.57-57.646-18.695-81.91-.31l-131.529-73.471v-154.202zm-102.004 145.822-48.923-27.329 48.923-37.769z"/><path d="m186.501 143.53h139c4.143 0 7.5-3.358 7.5-7.5s-3.357-7.5-7.5-7.5h-139c-4.143 0-7.5 3.358-7.5 7.5s3.357 7.5 7.5 7.5z"/><path d="m141.501 245.53h229c4.143 0 7.5-3.358 7.5-7.5s-3.357-7.5-7.5-7.5h-229c-4.143 0-7.5 3.358-7.5 7.5s3.357 7.5 7.5 7.5z"/><path d="m141.555 194.201h60.451c4.143 0 7.5-3.358 7.5-7.5s-3.357-7.5-7.5-7.5h-60.451c-4.143 0-7.5 3.358-7.5 7.5s3.357 7.5 7.5 7.5z"/><path d="m234.415 186.701c0 4.142 3.357 7.5 7.5 7.5h128.532c4.143 0 7.5-3.358 7.5-7.5s-3.357-7.5-7.5-7.5h-128.532c-4.143 0-7.5 3.358-7.5 7.5z"/></g></svg>