<svg xmlns="http://www.w3.org/2000/svg" width="67" height="67" viewBox="0 0 67 67">
  <g id="emargency" transform="translate(-241 -2861)">
    <circle id="Ellipse_4" data-name="Ellipse 4" cx="33.5" cy="33.5" r="33.5" transform="translate(241 2861)" fill="#0094df" opacity="0.1"/>
    <g id="call-incoming" transform="translate(256.751 2876.75)">
      <path id="Path_42" data-name="Path 42" d="M28.231,20.988a3.526,3.526,0,0,0-1.337-.263,2.7,2.7,0,0,0-1.249.227,6.215,6.215,0,0,0-.968.581,4.873,4.873,0,0,0-.808.738c-.234.27-.461.518-.684.74a5.42,5.42,0,0,1-.652.563,1.2,1.2,0,0,1-1.564-.142q-.371-.348-.738-.7-.473-.459-1.159-1.109-.716-.68-1.423-1.371l-1.53-1.494Q14.71,17.378,13.4,15.907a11.952,11.952,0,0,1-.88-1.089,1.447,1.447,0,0,1-.317-.668,1.035,1.035,0,0,1,.227-.7,7.641,7.641,0,0,1,.581-.652c.225-.221.47-.457.738-.7a6.73,6.73,0,0,0,.74-.792,4.19,4.19,0,0,0,.563-.968,3.161,3.161,0,0,0,.227-1.229,3.526,3.526,0,0,0-1.019-2.48,17.109,17.109,0,0,1-1.195-1.3,14.6,14.6,0,0,0-1.388-1.44,9.466,9.466,0,0,0-1.566-1.161A3.285,3.285,0,0,0,8.419,2.25,3.526,3.526,0,0,0,5.942,3.269q-.915.915-1.6,1.636A9.014,9.014,0,0,0,3.181,6.4a5.917,5.917,0,0,0-.7,1.721,9.877,9.877,0,0,0-.229,2.286,13.507,13.507,0,0,0,.6,3.868,23.375,23.375,0,0,0,1.615,3.989,26.207,26.207,0,0,0,2.48,3.9,37.445,37.445,0,0,0,3.163,3.638,34.449,34.449,0,0,0,3.623,3.181A27.815,27.815,0,0,0,17.65,31.5a21.921,21.921,0,0,0,4.025,1.651,13.853,13.853,0,0,0,3.938.6,10.566,10.566,0,0,0,2.268-.247,5.827,5.827,0,0,0,1.739-.7,8.9,8.9,0,0,0,1.494-1.159q.722-.688,1.618-1.584a3.528,3.528,0,0,0,1.018-2.479,4.52,4.52,0,0,0-.229-1.159,3.766,3.766,0,0,0-.578-1.089q-.394-.517-.828-1a12.107,12.107,0,0,0-.947-.95q-.483-.433-.968-.862-.425-.374-.826-.774a3.411,3.411,0,0,0-1.143-.756Zm-.826,10.319a7.042,7.042,0,0,1-1.793.193,12.433,12.433,0,0,1-3.411-.544,18.814,18.814,0,0,1-3.569-1.494,29.711,29.711,0,0,1-6.856-5.168,38.587,38.587,0,0,1-2.9-3.287,23.63,23.63,0,0,1-2.317-3.55,20.52,20.52,0,0,1-1.514-3.623A11.943,11.943,0,0,1,4.5,10.355a7.515,7.515,0,0,1,.211-1.778,4.28,4.28,0,0,1,.581-1.316,6.889,6.889,0,0,1,.947-1.125Q6.8,5.59,7.521,4.869a1.22,1.22,0,0,1,.9-.369,1.21,1.21,0,0,1,.648.281c.292.2.61.439.95.72a15.88,15.88,0,0,1,2.023,2.023,10.924,10.924,0,0,1,.7.931,1.351,1.351,0,0,1,.281.65.965.965,0,0,1-.227.7c-.164.189-.36.405-.581.652a7.6,7.6,0,0,1-.738.7,4.336,4.336,0,0,0-.74.79,5.1,5.1,0,0,0-.563.986,3.026,3.026,0,0,0-.227,1.215,3.709,3.709,0,0,0,.281,1.35,3.4,3.4,0,0,0,.756,1.125l8.383,8.386a3.436,3.436,0,0,0,2.48,1.035,2.7,2.7,0,0,0,1.231-.225A5.432,5.432,0,0,0,24.855,24.5c.247-.27.472-.518.686-.74a4.129,4.129,0,0,1,.65-.563,1.226,1.226,0,0,1,.7-.227,1.366,1.366,0,0,1,.668.281,9.508,9.508,0,0,1,.931.72c.34.292.691.617,1.055.968A11.335,11.335,0,0,1,30.515,26c.279.351.515.668.7.95a1.343,1.343,0,0,1,.281.65,1.2,1.2,0,0,1-.369.878c-.5.493-.931.922-1.282,1.282a7.108,7.108,0,0,1-1.125.95,4.343,4.343,0,0,1-1.319.6ZM33.75,3.834,23.31,14.292h7.4v2.25H19.458V5.292h2.25v7.4L32.168,2.25,33.75,3.832Z" fill="#0094df" fill-rule="evenodd"/>
    </g>
  </g>
</svg>
