<svg width="123" height="123" viewBox="0 0 123 123" fill="none" xmlns="http://www.w3.org/2000/svg">
<g clip-path="url(#clip0)">
<path d="M34.85 69.7H38.95V73.8H34.85V69.7Z" fill="#EB1C24"/>
<path d="M43.0497 69.6999H47.1497V73.7999H43.0497V69.6999Z" fill="#EB1C24"/>
<path d="M51.2496 69.6999H55.3496V73.7999H51.2496V69.6999Z" fill="#EB1C24"/>
<path d="M34.85 77.9H38.95V82H34.85V77.9Z" fill="#EB1C24"/>
<path d="M43.0497 77.8999H47.1497V81.9999H43.0497V77.8999Z" fill="#EB1C24"/>
<path d="M51.2496 77.8999H55.3496V81.9999H51.2496V77.8999Z" fill="#EB1C24"/>
<path d="M59.4496 77.8999H63.5496V81.9999H59.4496V77.8999Z" fill="#EB1C24"/>
<path d="M67.6495 77.8999H71.7495V81.9999H67.6495V77.8999Z" fill="#EB1C24"/>
<path d="M34.85 86.1H38.95V90.2H34.85V86.1Z" fill="#EB1C24"/>
<path d="M43.0497 86.0998H47.1497V90.1998H43.0497V86.0998Z" fill="#EB1C24"/>
<path d="M51.2496 86.0998H55.3496V90.1998H51.2496V86.0998Z" fill="#EB1C24"/>
<path d="M59.4496 86.0998H63.5496V90.1998H59.4496V86.0998Z" fill="#EB1C24"/>
<path d="M67.6495 86.0998H71.7495V90.1998H67.6495V86.0998Z" fill="#EB1C24"/>
<path d="M34.85 94.3H38.95V98.4H34.85V94.3Z" fill="#EB1C24"/>
<path d="M43.0497 94.2998H47.1497V98.3998H43.0497V94.2998Z" fill="#EB1C24"/>
<path d="M51.2496 94.2998H55.3496V98.3998H51.2496V94.2998Z" fill="#EB1C24"/>
<path d="M59.4496 94.2998H63.5496V98.3998H59.4496V94.2998Z" fill="#EB1C24"/>
<path d="M67.6495 94.2998H71.7495V98.3998H67.6495V94.2998Z" fill="#EB1C24"/>
<path d="M34.8497 102.5H38.9497V106.6H34.8497V102.5Z" fill="#EB1C24"/>
<path d="M43.0497 102.5H47.1497V106.6H43.0497V102.5Z" fill="#EB1C24"/>
<path d="M51.2496 102.5H55.3496V106.6H51.2496V102.5Z" fill="#EB1C24"/>
<path d="M59.4496 102.5H63.5496V106.6H59.4496V102.5Z" fill="#EB1C24"/>
<path d="M67.6495 102.5H71.7495V106.6H67.6495V102.5Z" fill="#EB1C24"/>
<path d="M34.8497 110.7H38.9497V114.8H34.8497V110.7Z" fill="#EB1C24"/>
<path d="M43.0497 110.7H47.1497V114.8H43.0497V110.7Z" fill="#EB1C24"/>
<path d="M51.2496 110.7H55.3496V114.8H51.2496V110.7Z" fill="#EB1C24"/>
<path d="M59.4496 110.7H63.5496V114.8H59.4496V110.7Z" fill="#EB1C24"/>
<path d="M67.6495 110.7H71.7495V114.8H67.6495V110.7Z" fill="#EB1C24"/>
<path d="M120.949 6.15057H106.599V2.0506C106.599 0.918499 105.681 0.000610352 104.549 0.000610352H84.0494C82.9173 0.000610352 81.9994 0.918499 81.9994 2.0506V6.15057H2.04999C0.917889 6.15057 0 7.06845 0 8.20055V16.4005C0 17.5336 0.917889 18.4505 2.04999 18.4505H8.19994V57.4002C8.19994 58.5333 9.11783 59.4502 10.2499 59.4502C11.382 59.4502 12.2999 60.3681 12.2999 61.5002C12.2999 62.6333 11.382 63.5502 10.2499 63.5502C9.11783 63.5502 8.19994 62.6333 8.19994 61.5002H4.09997C4.10598 63.0006 4.66352 64.447 5.66849 65.5621L0.410397 72.5709L0.436423 72.5909C0.162157 72.9352 0.00900871 73.3606 0 73.8001V82C0 82.5445 0.216209 83.065 0.600582 83.4494L4.70055 87.5494C5.08492 87.9338 5.60643 88.15 6.14996 88.15H14.3499C14.8934 88.15 15.4149 87.9338 15.7993 87.5494L19.8993 83.4494C20.2836 83.065 20.4999 82.5445 20.4999 82V73.8001C20.4908 73.3606 20.3377 72.9352 20.0634 72.5909L20.0895 72.5709L14.8314 65.5621C16.2007 64.0406 16.7172 61.9346 16.2077 59.9527C15.6992 57.9707 14.2318 56.3752 12.2999 55.7015V18.4505H81.9994V20.5005C81.9994 21.6336 82.9173 22.5504 84.0494 22.5504H88.1494V118.9H79.9494V36.9003H75.8494V45.1003H63.5495V41.0003H59.4496V45.1003H47.1497V43.0503H43.0497V45.1003H30.7498V38.9503H57.3996V34.8504H30.7498V26.6504H26.6498V118.9H23.3987L13.7493 109.251C12.9485 108.451 11.6513 108.451 10.8505 109.251L1.20116 118.9H0V123H122.999V118.9H121.401C122.843 117.325 123.355 115.109 122.751 113.06C122.147 111.012 120.515 109.429 118.448 108.888C119.49 106.319 118.685 103.371 116.481 101.688C114.278 100.005 111.221 100.005 109.018 101.688C106.813 103.371 106.009 106.319 107.051 108.888C104.984 109.429 103.351 111.012 102.747 113.06C102.143 115.109 102.655 117.325 104.098 118.9H100.449V22.5504H104.549C105.681 22.5504 106.599 21.6336 106.599 20.5005V18.4505H120.949C122.081 18.4505 122.999 17.5336 122.999 16.4005V8.20055C122.999 7.06845 122.081 6.15057 120.949 6.15057ZM11.2749 67.6501L14.3499 71.7501H6.14996L9.22493 67.6501H11.2749ZM16.3999 81.1522L13.5011 84.05H6.99878L4.09997 81.1522V75.8501H16.3999V81.1522ZM112.135 10.2505L106.599 13.9411V10.2505H112.135ZM86.0994 4.10058H94.2993V12.3005H86.0994V4.10058ZM30.7498 10.6609L36.2851 14.3505H25.2144L30.7498 10.6609ZM18.4499 13.9411L12.9145 10.2505H23.9852L18.4499 13.9411ZM37.5143 10.2505H48.585L43.0497 13.9411L37.5143 10.2505ZM55.3496 10.6609L60.885 14.3505H49.8142L55.3496 10.6609ZM62.1142 10.2505H73.1849L67.6495 13.9411L62.1142 10.2505ZM4.09997 10.2505H5.53536L11.6853 14.3505H4.09997V10.2505ZM74.4141 14.3505L80.564 10.2505H81.9994V14.3505H74.4141ZM96.3493 112.135L92.6597 106.6L96.3493 101.065V112.135ZM96.3493 62.9356L92.6597 57.4002L96.3493 51.8658V62.9356ZM92.2493 64.1657L95.9389 69.7001L92.2493 75.2355V64.1657ZM92.2493 50.6356V39.5659L95.9389 45.1003L92.2493 50.6356ZM92.2493 88.7656L95.9389 94.2999L92.2493 99.8353V88.7656ZM96.3493 87.5234L92.6597 82L96.3493 76.4657V87.5234ZM92.6597 32.8004L96.3493 27.266V38.3357L92.6597 32.8004ZM92.2493 26.0358V22.5504H94.5696L92.2493 26.0358ZM75.8494 49.2003V69.7001H63.5495V49.2003H75.8494ZM59.4496 49.2003V66.8303L54.735 62.1708C54.3526 61.7934 53.8371 61.5802 53.2996 61.5782H47.1497V49.2003H59.4496ZM43.0497 49.2003V52.6176H30.7498V49.2003H43.0497ZM12.2999 113.599L17.601 118.9H6.99878L12.2999 113.599ZM30.7498 118.9V56.7175H43.0497V63.6362C43.0497 64.7693 43.9676 65.6862 45.0997 65.6862H52.4568L60.0642 73.2085C60.4465 73.5859 60.962 73.7991 61.4996 73.8001H75.8494V118.9H30.7498ZM92.2493 113.365L95.9389 118.9H92.2493V113.365ZM116.849 116.85C115.717 116.85 114.799 115.933 114.799 114.8C114.799 113.668 115.717 112.75 116.849 112.75C117.981 112.75 118.899 113.668 118.899 114.8C118.899 115.933 117.981 116.85 116.849 116.85ZM112.749 104.55C113.881 104.55 114.799 105.468 114.799 106.6C114.799 107.733 113.881 108.65 112.749 108.65C111.617 108.65 110.699 107.733 110.699 106.6C110.699 105.468 111.617 104.55 112.749 104.55ZM108.649 112.75C109.781 112.75 110.699 113.668 110.699 114.8C110.699 115.933 109.781 116.85 108.649 116.85C107.517 116.85 106.599 115.933 106.599 114.8C106.599 113.668 107.517 112.75 108.649 112.75ZM102.499 18.4505H86.0994V16.4005H96.3493C97.4814 16.4005 98.3993 15.4836 98.3993 14.3505V4.10058H102.499V18.4505ZM113.364 14.3505L118.899 10.6609V14.3505H113.364Z" fill="#252837"/>
</g>
<defs>
<clipPath id="clip0">
<rect width="123" height="123" fill="white"/>
</clipPath>
</defs>
</svg>
