<svg width="123" height="123" viewBox="0 0 123 123" fill="none" xmlns="http://www.w3.org/2000/svg">
<path d="M97.375 120.95V10.25C97.375 9.1179 96.4571 8.2 95.325 8.2H63.4249L62.2527 0H42.2973L41.1251 8.2H9.225C8.0929 8.2 7.175 9.1179 7.175 10.25V120.95C7.175 122.082 8.0929 123 9.225 123H95.325C96.4571 123 97.375 122.082 97.375 120.95ZM43.8698 17.9435L45.8527 4.1H58.6973L60.6762 17.9435L72.775 21.9784V24.6H31.775V21.9784L43.8698 17.9435ZM85.075 20.5V94.3H68.675V110.7H19.475V20.5H27.675V28.7H76.875V20.5H85.075ZM82.1762 98.4L72.775 107.801V98.4H82.1762ZM93.275 118.9H11.275V12.3H40.5406L40.1802 14.8565L35.5427 16.4H15.375V114.8H71.5738L89.175 97.1988V16.4H69.0073L64.3698 14.8565L64.0094 12.3H93.275V118.9Z" fill="#252837"/>
<path d="M107.686 107.098C107.915 108.01 108.735 108.65 109.675 108.65C110.615 108.65 111.435 108.01 111.664 107.098L115.764 90.6985C115.78 90.6284 115.764 90.5583 115.764 90.4933C115.792 90.3972 115.812 90.2991 115.825 90.2V14.35C115.825 13.2179 114.907 12.3 113.775 12.3H105.575C104.443 12.3 103.525 13.2179 103.525 14.35V90.2C103.537 90.2981 103.556 90.3942 103.582 90.4893C103.593 90.5583 103.57 90.6284 103.582 90.6945L107.686 107.098ZM111.725 88.15H107.625V28.7H111.725V88.15ZM109.675 98.1478L108.201 92.25H111.149L109.675 98.1478ZM107.625 16.4H111.725V24.6H107.625V16.4Z" fill="#252837"/>
<path d="M33.825 32.8H25.625C24.4929 32.8 23.575 33.7179 23.575 34.85V43.05C23.575 44.1821 24.4929 45.1 25.625 45.1H33.825C34.9571 45.1 35.875 44.1821 35.875 43.05V34.85C35.875 33.7179 34.9571 32.8 33.825 32.8ZM31.775 41H27.675V36.9H31.775V41Z" fill="#EB1C24"/>
<path d="M33.825 49.2H25.625C24.4929 49.2 23.575 50.1179 23.575 51.25V59.45C23.575 60.5821 24.4929 61.5 25.625 61.5H33.825C34.9571 61.5 35.875 60.5821 35.875 59.45V51.25C35.875 50.1179 34.9571 49.2 33.825 49.2ZM31.775 57.4H27.675V53.3H31.775V57.4Z" fill="#EB1C24"/>
<path d="M33.825 65.6H25.625C24.4929 65.6 23.575 66.5179 23.575 67.65V75.85C23.575 76.9821 24.4929 77.9 25.625 77.9H33.825C34.9571 77.9 35.875 76.9821 35.875 75.85V67.65C35.875 66.5179 34.9571 65.6 33.825 65.6ZM31.775 73.8H27.675V69.7H31.775V73.8Z" fill="#252837"/>
<path d="M33.825 82H25.625C24.4929 82 23.575 82.9179 23.575 84.05V92.25C23.575 93.3821 24.4929 94.3 25.625 94.3H33.825C34.9571 94.3 35.875 93.3821 35.875 92.25V84.05C35.875 82.9179 34.9571 82 33.825 82ZM31.775 90.2H27.675V86.1H31.775V90.2Z" fill="#252837"/>
<path d="M39.975 32.8H74.825V36.9H39.975V32.8Z" fill="#EB1C24"/>
<path d="M39.975 41H52.275V45.1H39.975V41Z" fill="#EB1C24"/>
<path d="M39.975 49.2H74.825V53.3H39.975V49.2Z" fill="#EB1C24"/>
<path d="M39.975 57.4H52.275V61.5H39.975V57.4Z" fill="#EB1C24"/>
<path d="M39.975 65.6H74.825V69.7H39.975V65.6Z" fill="#252837"/>
<path d="M39.975 73.8H52.275V77.9H39.975V73.8Z" fill="#252837"/>
<path d="M39.975 82H74.825V86.1H39.975V82Z" fill="#252837"/>
<path d="M39.975 90.2H52.275V94.3H39.975V90.2Z" fill="#252837"/>
</svg>
