<svg xmlns="http://www.w3.org/2000/svg" width="71" height="71" viewBox="0 0 71 71">
  <g id="time" transform="translate(-1374 -862)">
    <circle id="Ellipse_3" data-name="Ellipse 3" cx="35.5" cy="35.5" r="35.5" transform="translate(1374 862)" fill="#fff" opacity="0.2"/>
    <path id="Icon_awesome-clock" data-name="Icon awesome-clock" d="M11.562.562a11,11,0,1,0,11,11A11,11,0,0,0,11.562.562ZM14.1,16.091l-3.912-2.843a.536.536,0,0,1-.217-.43V5.353a.534.534,0,0,1,.532-.532h2.129a.534.534,0,0,1,.532.532V11.46l2.817,2.049a.532.532,0,0,1,.115.745L14.84,15.976A.536.536,0,0,1,14.1,16.091Z" transform="translate(1398.438 886.438)" fill="#fff"/>
  </g>
</svg>
