<svg height="512" viewBox="0 0 64 64" width="512" xmlns="http://www.w3.org/2000/svg"><g id="Two_Tone" data-name="Two Tone"><path d="m53 24.267c0 18.366-21 36.733-21 36.733s-21-18.367-21-36.733a21 21 0 1 1 42 0z" fill="#90caf9"/><circle cx="32" cy="24" fill="#ffc108" r="17"/><path d="m39.36 13.8a4.716 4.716 0 0 0 -6.005.619 4.873 4.873 0 0 0 -.61 6.08l-4.181 4.244a4.734 4.734 0 0 0 -6.014.609 4.86 4.86 0 0 0 -.6 6.09l3.307-3.35 2.7 2.734-3.307 3.35a4.728 4.728 0 0 0 6.007-.615 4.86 4.86 0 0 0 .607-6.084l4.185-4.238a4.707 4.707 0 0 0 6.007-.615 4.88 4.88 0 0 0 .608-6.084l-3.308 3.35-2.7-2.734 3.307-3.35z" fill="#1a76d2"/><g fill="#0d47a0"><path d="m32 2a22.159 22.159 0 0 0 -22 22.267c0 7.84 3.6 16.542 10.7 25.86a86.5 86.5 0 0 0 10.642 11.626 1 1 0 0 0 1.316 0 86.5 86.5 0 0 0 10.642-11.626c7.1-9.318 10.7-18.02 10.7-25.86a22.159 22.159 0 0 0 -22-22.267zm0 57.646c-3.527-3.289-20-19.5-20-35.379a20 20 0 1 1 40 0c0 15.88-16.473 32.09-20 35.379z"/><path d="m32 6a18 18 0 1 0 18 18 18.021 18.021 0 0 0 -18-18zm0 34a16 16 0 1 1 16-16 16.019 16.019 0 0 1 -16 16z"/><path d="m42.9 15.991a1 1 0 0 0 -1.548-.153l-2.6 2.629-1.294-1.312 2.613-2.645a1 1 0 0 0 -.154-1.537 5.712 5.712 0 0 0 -7.273.746 5.889 5.889 0 0 0 -1.138 6.614l-3.117 3.167a5.746 5.746 0 0 0 -6.555 1.158 5.862 5.862 0 0 0 -.739 7.311 1.021 1.021 0 0 0 .147.185 1 1 0 0 0 1.48-.073l2.531-2.563 1.295 1.311-2.614 2.648a1 1 0 0 0 .153 1.532 5.736 5.736 0 0 0 7.277-.742 5.86 5.86 0 0 0 1.136-6.621l3.121-3.16a5.7 5.7 0 0 0 6.545-1.16 5.894 5.894 0 0 0 .734-7.335zm-2.16 5.931a3.708 3.708 0 0 1 -4.74.486 1 1 0 0 0 -1.267.128l-4.185 4.237a1 1 0 0 0 -.126 1.25 3.861 3.861 0 0 1 -.482 4.835 3.745 3.745 0 0 1 -3.581 1l2.3-2.334a1 1 0 0 0 0-1.4l-2.7-2.734a1.029 1.029 0 0 0 -1.422 0l-2.275 2.31a3.729 3.729 0 0 1 -.115-.914 3.928 3.928 0 0 1 1.114-2.727 3.741 3.741 0 0 1 4.744-.483 1 1 0 0 0 1.271-.127l4.181-4.249a1 1 0 0 0 .122-1.253 3.87 3.87 0 0 1 .492-4.83 3.7 3.7 0 0 1 3.576-1l-2.306 2.335a1 1 0 0 0 0 1.4l2.7 2.735a1.029 1.029 0 0 0 1.423 0l2.278-2.307a3.889 3.889 0 0 1 -1.002 3.642z"/></g></g></svg>