<?xml version="1.0" encoding="utf-8"?>
<!-- Generator: Adobe Illustrator 16.0.0, SVG Export Plug-In . SVG Version: 6.00 Build 0)  -->
<!DOCTYPE svg PUBLIC "-//W3C//DTD SVG 1.1//EN" "http://www.w3.org/Graphics/SVG/1.1/DTD/svg11.dtd">
<svg version="1.1" xmlns="http://www.w3.org/2000/svg" xmlns:xlink="http://www.w3.org/1999/xlink" x="0px" y="0px" width="64px"
	 height="64px" viewBox="0 0 64 64" enable-background="new 0 0 64 64" xml:space="preserve">

	<g id="icon-29" viewBox="original-file's-viewBox">
		<g>
			<g>
				<g>
					<path fill="#FFFFFF" d="M43.354,12.542c0.512,0,1.015,0.037,1.517,0.077V9.79c0-2.492-2.038-4.53-4.53-4.53H17.155l-0.128,0.012
						c-0.349,0.01-0.629,0.148-0.916,0.392L4.143,15.847c-0.323,0.274-0.505,0.652-0.546,1.044l-0.02,36.412
						c0,2.491,2.039,4.529,4.53,4.529H40.34c2.492,0,4.53-2.038,4.53-4.529v-2.479c-0.502,0.039-1.005,0.076-1.517,0.076
						c-0.557,0-1.107-0.036-1.654-0.083v2.486c0,0.735-0.623,1.358-1.359,1.358H8.106c-0.737,0-1.359-0.623-1.359-1.358V17.795
						l9.947-8.465v9.31h-4.962v3.171h8.126l0.007-13.381H40.34c0.736,0,1.359,0.622,1.359,1.359v2.837
						C42.246,12.58,42.797,12.542,43.354,12.542z"/>
					<g>
						<path fill="#FFFFFF" d="M24.341,29.341H13.081c-0.875,0-1.585,0.709-1.585,1.585c0,0.875,0.71,1.586,1.585,1.586h11.134
							c-0.011-0.264-0.038-0.525-0.038-0.791C24.176,30.914,24.244,30.123,24.341,29.341z"/>
						<path fill="#FFFFFF" d="M28.489,43.792H13.081c-0.875,0-1.585,0.71-1.585,1.586c0,0.874,0.71,1.586,1.585,1.586h18.668
							C30.538,46.04,29.45,44.971,28.489,43.792z"/>
						<path fill="#FFFFFF" d="M13.081,36.567c-0.875,0-1.585,0.709-1.585,1.585s0.71,1.586,1.585,1.586h12.876
							c-0.47-1.014-0.853-2.072-1.141-3.171H13.081z"/>
					</g>
				</g>
			</g>
			<g>
				<path fill="#FFFFFF" d="M43.349,48.041c-9.013,0-16.345-7.331-16.345-16.344c0-9.012,7.332-16.343,16.345-16.343
					c9.011,0,16.344,7.331,16.344,16.343C59.692,40.71,52.359,48.041,43.349,48.041z M43.349,18.525
					c-7.265,0-13.173,5.909-13.173,13.172c0,7.264,5.909,13.173,13.173,13.173c7.263,0,13.173-5.909,13.173-13.173
					C56.521,24.434,50.611,18.525,43.349,18.525z"/>
			</g>
			<path fill="#FFFFFF" d="M42.131,42.099l-0.002-2.399l-0.219-0.023c-3.19-0.323-5.63-1.702-6.314-3.544l2.671-0.655
				c0.453,0.574,1.774,1.243,3.587,1.485l0.277,0.037V32.8l-0.205-0.034c-2.481-0.397-3.879-1-4.491-1.322l-0.103-0.056
				c-1.269-0.856-1.938-1.933-1.938-3.113c0-2.33,2.681-4.228,6.516-4.614l0.221-0.022v-2.339h2.682l0.001,2.356l0.216,0.024
				c2.872,0.329,5.123,1.525,5.968,3.15l-2.598,0.916c-0.498-0.516-1.657-1.102-3.305-1.349l-0.281-0.042v4.383l0.202,0.036
				c1.778,0.317,3.233,0.731,4.208,1.197c0.44,0.212,0.773,0.419,1.016,0.635c0.089,0.084,0.168,0.167,0.241,0.244
				c0.585,0.671,0.886,1.414,0.886,2.209c0,2.281-2.604,4.173-6.337,4.598l-0.216,0.024l-0.001,2.419H42.131z M44.813,36.974
				l0.281-0.042c2.115-0.322,3.589-1.246,3.589-1.874c0.004-0.625-1.47-1.545-3.589-1.865l-0.281-0.042V36.974z M41.854,26.374
				c-2.336,0.312-3.774,1.315-3.778,1.897c0,0.583,1.438,1.585,3.778,1.896l0.277,0.037v-3.867L41.854,26.374z"/>
		</g>
	</g>

</svg>