<?xml version="1.0" encoding="utf-8"?>
<!-- Generator: Adobe Illustrator 16.0.0, SVG Export Plug-In . SVG Version: 6.00 Build 0)  -->
<!DOCTYPE svg PUBLIC "-//W3C//DTD SVG 1.1//EN" "http://www.w3.org/Graphics/SVG/1.1/DTD/svg11.dtd">
<svg version="1.1" xmlns="http://www.w3.org/2000/svg" xmlns:xlink="http://www.w3.org/1999/xlink" x="0px" y="0px" width="64px"
	 height="64px" viewBox="0 0 64 64" enable-background="new 0 0 64 64" xml:space="preserve">

	<g id="icon-3" viewBox="original-file's-viewBox">
		<path fill="#FFFFFF" d="M49.673,8.73c-0.267-0.198-6.637-4.84-15.968-4.84c-5.002,0-9.913,1.342-14.594,3.989
			c-1.084,0.53-9.694,5.167-7.792,17.603c0.123,1.113,0.077,3.081-0.4,3.878L5.15,36.142c-0.118,0.138-0.211,0.296-0.276,0.466
			c-0.102,0.268-0.572,1.673,0.226,2.939c0.363,0.577,1.106,1.29,2.584,1.442l2.693,0.556c0.444,0.999,1.064,2.62,1.145,3.838
			c0.117,1.75-0.234,3.933-0.327,4.463c-0.597,1.702-0.948,4.839,1.317,6.517c0.117,0.085,0.244,0.155,0.377,0.206
			c0.001,0.002,0.003,0.002,0.005,0.004c0.452,0.234,1.509,0.783,4.142,0.783c2.02,0,4.637-0.318,7.793-0.949
			c0.256,0.747,0.61,2.141,0.903,4.556h3.213c-0.602-5.302-1.583-6.997-2.153-7.53c-0.382-0.356-0.914-0.506-1.426-0.395
			c-3.479,0.748-6.283,1.128-8.331,1.128c-1.854,0-2.448-0.309-2.672-0.425c-0.017-0.008-0.034-0.018-0.052-0.027
			c-0.691-0.687-0.244-2.441-0.079-2.888c0.032-0.087,0.057-0.176,0.075-0.267c0.017-0.091,0.319-1.705,0.404-3.519L18,47.095
			c0.01,0,0.019,0,0.027,0c0.869,0,1.58-0.696,1.595-1.568c0.014-0.882-0.688-1.608-1.569-1.622l-3.54-0.059
			c-0.448-2.108-1.475-4.161-1.614-4.431c-0.221-0.432-0.625-0.737-1.099-0.836l-3.558-0.733c-0.062-0.013-0.125-0.021-0.188-0.026
			c-0.048-0.005-0.091-0.009-0.128-0.015l5.494-6.458c0.038-0.044,0.073-0.091,0.105-0.139c1.341-1.979,1.041-5.409,0.958-6.142
			c-1.644-10.763,5.702-14.173,6.007-14.31c0.052-0.023,0.104-0.048,0.153-0.077c4.21-2.388,8.604-3.598,13.064-3.598
			c8.237,0,14.013,4.173,14.071,4.216c13.173,9.707,5.099,24.514,4.455,25.641c-3.225,4.673-4.804,11.672-4.87,11.969
			c-0.018,0.082-0.03,0.166-0.035,0.248c-0.262,4.257,0.354,8.986,0.823,11.808h3.24c-0.441-2.552-1.122-7.32-0.886-11.48
			c0.215-0.914,1.703-6.922,4.387-10.779c0.023-0.033,0.046-0.067,0.066-0.103C55.063,38.418,65.409,20.326,49.673,8.73z"/>
		<path fill="#FFFFFF" d="M43.481,28.442c0-2.903-3.348-5.163-8.019-5.609v-5.087c2.5,0.3,4.188,1.207,4.676,1.978l3.032-1.067
			c-0.933-2.188-3.906-3.766-7.708-4.131v-2.667h-3.191v2.652c-4.789,0.395-8.243,2.68-8.243,5.629c0,2.949,3.455,5.232,8.243,5.627
			v5.097c-2.835-0.296-4.643-1.388-4.986-2.166l-3.105,0.76c0.694,2.447,3.871,4.266,8.092,4.612v2.732h3.191v-2.752
			C40.134,33.604,43.481,31.345,43.481,28.442z M27.219,20.14c0-0.77,1.884-2.099,5.052-2.429v4.855
			C29.104,22.237,27.219,20.909,27.219,20.14z M35.463,30.841v-4.799c3.028,0.368,4.827,1.649,4.827,2.4
			C40.29,29.192,38.491,30.473,35.463,30.841z"/>
	</g>

</svg>