<?xml version="1.0" encoding="utf-8"?>
<!-- Generator: Adobe Illustrator 16.0.0, SVG Export Plug-In . SVG Version: 6.00 Build 0)  -->
<!DOCTYPE svg PUBLIC "-//W3C//DTD SVG 1.1//EN" "http://www.w3.org/Graphics/SVG/1.1/DTD/svg11.dtd">
<svg version="1.1" xmlns="http://www.w3.org/2000/svg" xmlns:xlink="http://www.w3.org/1999/xlink" x="0px" y="0px" width="64px"
	 height="64px" viewBox="0 0 64 64" enable-background="new 0 0 64 64" xml:space="preserve">

	<g id="icon-2" viewBox="original-file's-viewBox">
		<g>
			<path fill="#FFFFFF" d="M43.257,8.688H9.077c-3.394,0-6.154,2.761-6.154,6.154v17.614c0,3.394,2.76,6.154,6.154,6.154h1.454v-3.19
				H9.077c-1.634,0-2.963-1.331-2.963-2.964V18.596H46.22v3.569h3.191v-7.322C49.411,11.449,46.651,8.688,43.257,8.688z
				 M6.113,15.405v-0.562c0-1.634,1.33-2.963,2.963-2.963h34.18c1.635,0,2.963,1.329,2.963,2.963v0.562H6.113z"/>
			<g>
				<g>
					<path fill="#FFFFFF" d="M54.087,55.31H19.906c-3.394,0-6.154-2.76-6.154-6.154V31.541c0-3.394,2.761-6.154,6.154-6.154h34.181
						c3.394,0,6.154,2.761,6.154,6.154v17.614C60.241,52.55,57.48,55.31,54.087,55.31z M19.906,28.578
						c-1.634,0-2.963,1.329-2.963,2.963v17.614c0,1.634,1.33,2.964,2.963,2.964h34.181c1.634,0,2.964-1.33,2.964-2.964V31.541
						c0-1.634-1.33-2.963-2.964-2.963H19.906z"/>
				</g>
			</g>
			<g>
				<path fill="#FFFFFF" d="M35.158,48.407H22.277c-0.881,0-1.596-0.714-1.596-1.596c0-0.88,0.715-1.595,1.596-1.595h12.881
					c0.88,0,1.596,0.715,1.596,1.595C36.754,47.693,36.038,48.407,35.158,48.407z"/>
			</g>
			<g>
				<path fill="#FFFFFF" d="M45.691,42.173H22.277c-0.881,0-1.596-0.715-1.596-1.596s0.715-1.595,1.596-1.595h23.414
					c0.88,0,1.596,0.714,1.596,1.595S46.571,42.173,45.691,42.173z"/>
			</g>
		</g>
	</g>

</svg>