<?xml version="1.0" encoding="utf-8"?>
<!-- Generator: Adobe Illustrator 16.0.0, SVG Export Plug-In . SVG Version: 6.00 Build 0)  -->
<!DOCTYPE svg PUBLIC "-//W3C//DTD SVG 1.1//EN" "http://www.w3.org/Graphics/SVG/1.1/DTD/svg11.dtd">
<svg version="1.1" xmlns="http://www.w3.org/2000/svg" xmlns:xlink="http://www.w3.org/1999/xlink" x="0px" y="0px" width="64px"
	 height="64px" viewBox="0 0 64 64" enable-background="new 0 0 64 64" xml:space="preserve">

	<g id="icon-13" viewBox="original-file's-viewBox">
		<g>
			<g>
				<g>
					<path fill="#FFFFFF" d="M21.416,57.232h-8.006c-0.881,0-1.596-0.715-1.596-1.596c0-0.882,0.714-1.596,1.596-1.596h8.006
						c0.881,0,1.595,0.714,1.595,1.596C23.011,56.518,22.296,57.232,21.416,57.232z"/>
				</g>
				<g>
					<path fill="#FFFFFF" d="M50.313,57.232h-8.006c-0.882,0-1.596-0.715-1.596-1.596c0-0.882,0.714-1.596,1.596-1.596h8.006
						c0.881,0,1.596,0.714,1.596,1.596C51.909,56.518,51.194,57.232,50.313,57.232z"/>
				</g>
			</g>
			<g>
				<path fill="#FFFFFF" d="M53.142,50.408H10.581c-3.394,0-6.154-2.76-6.154-6.154V13.485c0-3.395,2.761-6.154,6.154-6.154h42.561
					c3.394,0,6.154,2.76,6.154,6.154v30.769C59.296,47.648,56.535,50.408,53.142,50.408z M10.581,10.522
					c-1.634,0-2.963,1.329-2.963,2.963v30.769c0,1.634,1.329,2.963,2.963,2.963h42.561c1.633,0,2.963-1.329,2.963-2.963V13.485
					c0-1.634-1.33-2.963-2.963-2.963H10.581z"/>
			</g>
			<g>
				<g>
					<rect x="11.885" y="20.884" fill="#FFFFFF" width="3.191" height="3.191"/>
				</g>
				<g>
					<rect x="11.885" y="27.267" fill="#FFFFFF" width="3.191" height="3.191"/>
				</g>
				<g>
					<rect x="11.885" y="33.648" fill="#FFFFFF" width="3.191" height="3.191"/>
				</g>
			</g>
			<g>
				<g>
					<rect x="18.267" y="20.884" fill="#FFFFFF" width="3.191" height="3.191"/>
				</g>
				<g>
					<rect x="18.267" y="27.267" fill="#FFFFFF" width="3.191" height="3.191"/>
				</g>
				<g>
					<rect x="18.267" y="33.648" fill="#FFFFFF" width="3.191" height="3.191"/>
				</g>
			</g>
			<g>
				<g>
					<rect x="24.649" y="20.884" fill="#FFFFFF" width="3.191" height="3.191"/>
				</g>
				<g>
					<rect x="24.649" y="27.267" fill="#FFFFFF" width="3.191" height="3.191"/>
				</g>
				<g>
					<rect x="24.649" y="33.648" fill="#FFFFFF" width="3.191" height="3.191"/>
				</g>
			</g>
			<g>
				<path fill="#FFFFFF" d="M42.318,38.101c-5.243,0-9.51-4.267-9.51-9.511c0-5.243,4.267-9.509,9.51-9.509
					c5.244,0,9.509,4.266,9.509,9.509C51.827,33.834,47.563,38.101,42.318,38.101z M42.318,22.271c-3.484,0-6.318,2.834-6.318,6.318
					c0,3.485,2.834,6.32,6.318,6.32s6.318-2.834,6.318-6.32C48.637,25.105,45.803,22.271,42.318,22.271z"/>
			</g>
			<g>
				<path fill="#FFFFFF" d="M40.857,31.768c-0.388,0-0.775-0.14-1.082-0.422c-0.647-0.598-0.688-1.608-0.091-2.255l2.922-3.166
					c0.599-0.646,1.607-0.688,2.255-0.091c0.647,0.599,0.688,1.607,0.091,2.255l-2.922,3.166
					C41.716,31.595,41.287,31.768,40.857,31.768z"/>
			</g>
		</g>
	</g>

</svg>