<?xml version="1.0" encoding="utf-8"?>
<!-- Generator: Adobe Illustrator 16.0.0, SVG Export Plug-In . SVG Version: 6.00 Build 0)  -->
<!DOCTYPE svg PUBLIC "-//W3C//DTD SVG 1.1//EN" "http://www.w3.org/Graphics/SVG/1.1/DTD/svg11.dtd">
<svg version="1.1" xmlns="http://www.w3.org/2000/svg" xmlns:xlink="http://www.w3.org/1999/xlink" x="0px" y="0px" width="64px"
	 height="64px" viewBox="0 0 64 64" enable-background="new 0 0 64 64" xml:space="preserve">

	<g id="icon-12" viewBox="original-file's-viewBox">
		<g>
			<path fill="#FFFFFF" d="M21.547,41.121c0.267,0.172,0.566,0.253,0.862,0.253c0.525,0,1.039-0.259,1.343-0.732l4.618-7.178
				l4.479,3.714c0.4,0.331,0.931,0.448,1.431,0.313c0.499-0.133,0.902-0.499,1.083-0.984l6.048-16.26
				c0.307-0.824-0.114-1.743-0.939-2.051c-0.824-0.305-1.744,0.114-2.053,0.939l-5.264,14.153l-4.135-3.429
				c-0.352-0.291-0.813-0.418-1.263-0.348c-0.451,0.069-0.851,0.33-1.098,0.714l-5.592,8.69
				C20.591,39.656,20.806,40.643,21.547,41.121z"/>
		</g>
		<g>
			<path fill="#FFFFFF" d="M43.271,3.022H19.312c-2.507,0-4.559,2.051-4.559,4.559v48.271c0,2.507,2.052,4.559,4.559,4.559h23.959
				c2.507,0,4.559-2.052,4.559-4.559V7.581C47.83,5.074,45.778,3.022,43.271,3.022z M44.639,45.498H17.944v-31.35h26.694V45.498z
				 M19.312,6.213h23.959c0.741,0,1.367,0.626,1.367,1.368v3.376H17.944V7.581C17.944,6.839,18.571,6.213,19.312,6.213z
				 M43.271,57.219H19.312c-0.741,0-1.368-0.627-1.368-1.367v-7.163h26.694v7.163C44.639,56.592,44.013,57.219,43.271,57.219z"/>
			<circle fill="#FFFFFF" cx="31.291" cy="52.76" r="2.052"/>
		</g>
	</g>

</svg>