<?xml version="1.0" encoding="utf-8"?>
<!-- Generator: Adobe Illustrator 16.0.0, SVG Export Plug-In . SVG Version: 6.00 Build 0)  -->
<!DOCTYPE svg PUBLIC "-//W3C//DTD SVG 1.1//EN" "http://www.w3.org/Graphics/SVG/1.1/DTD/svg11.dtd">
<svg version="1.1" xmlns="http://www.w3.org/2000/svg" xmlns:xlink="http://www.w3.org/1999/xlink" x="0px" y="0px" width="64px"
	 height="64px" viewBox="0 0 64 64" enable-background="new 0 0 64 64" xml:space="preserve">

	<g id="icon-11" viewBox="original-file's-viewBox">
		<path fill="#FFFFFF" d="M30.257,40.161l-0.002-2.415l-0.221-0.022c-3.211-0.325-5.665-1.714-6.354-3.567l2.688-0.658
			c0.456,0.576,1.785,1.25,3.609,1.493l0.279,0.037v-4.225l-0.207-0.033c-2.496-0.4-3.902-1.006-4.519-1.332l-0.104-0.055
			c-1.276-0.862-1.95-1.945-1.95-3.133c0.001-2.344,2.698-4.254,6.558-4.643l0.222-0.022V19.23h2.699v2.371l0.219,0.025
			c2.889,0.33,5.155,1.535,6.003,3.169l-2.612,0.922c-0.5-0.519-1.668-1.108-3.326-1.358l-0.283-0.043l0.002,4.411l0.203,0.037
			c1.788,0.319,3.253,0.735,4.234,1.204c0.443,0.214,0.778,0.423,1.022,0.64c0.089,0.083,0.167,0.167,0.24,0.245
			c0.591,0.675,0.892,1.423,0.892,2.222c0,2.296-2.621,4.199-6.375,4.627l-0.219,0.025v2.435L30.257,40.161z M32.955,35.005
			l0.283-0.044c2.128-0.324,3.611-1.254,3.611-1.886c0.004-0.628-1.478-1.555-3.611-1.876l-0.283-0.043V35.005z M29.977,24.337
			c-2.351,0.313-3.799,1.323-3.803,1.909c0.001,0.587,1.448,1.595,3.803,1.907l0.279,0.037V24.3L29.977,24.337z"/>
		<g>
			<path fill="#FFFFFF" d="M43.493,3.136H19.534c-2.507,0-4.559,2.051-4.559,4.559v48.27c0,2.508,2.052,4.559,4.559,4.559h23.959
				c2.508,0,4.56-2.051,4.56-4.559V7.695C48.053,5.188,46.001,3.136,43.493,3.136z M44.861,45.611H18.167V14.262h26.695V45.611z
				 M19.534,6.328h23.959c0.741,0,1.368,0.625,1.368,1.367v3.376H18.167V7.695C18.167,6.953,18.793,6.328,19.534,6.328z
				 M43.493,57.333H19.534c-0.741,0-1.368-0.627-1.368-1.368v-7.162h26.695v7.162C44.861,56.706,44.234,57.333,43.493,57.333z"/>
			<circle fill="#FFFFFF" cx="31.513" cy="52.874" r="2.051"/>
		</g>
	</g>

</svg>