<?xml version="1.0" encoding="utf-8"?>
<!-- Generator: Adobe Illustrator 16.0.0, SVG Export Plug-In . SVG Version: 6.00 Build 0)  -->
<!DOCTYPE svg PUBLIC "-//W3C//DTD SVG 1.1//EN" "http://www.w3.org/Graphics/SVG/1.1/DTD/svg11.dtd">
<svg version="1.1" xmlns="http://www.w3.org/2000/svg" xmlns:xlink="http://www.w3.org/1999/xlink" x="0px" y="0px" width="64px"
	 height="64px" viewBox="0 0 64 64" enable-background="new 0 0 64 64" xml:space="preserve">

	<g id="icon-25" viewBox="original-file's-viewBox">
		<path fill="#FFFFFF" d="M51.899,50.496v-14.2c0-8.097-4.916-15.051-11.913-18.08l7.358-8.138c0.482-0.534,0.547-1.325,0.153-1.928
			c-0.391-0.603-1.143-0.866-1.824-0.642l-9.045,2.974l-3.074-7.816c-0.248-0.631-0.862-1.045-1.547-1.004
			c-0.678,0.031-1.26,0.489-1.45,1.14l-3.258,11.17l3.056,0.852l1.947-6.679l1.924,4.891c0.307,0.782,1.172,1.19,1.97,0.926
			l4.784-1.572l-4.47,4.942l-4.433-0.024c-0.003,0-0.006,0-0.009,0c-0.872,0-1.581,0.705-1.586,1.577
			c-0.005,0.876,0.701,1.589,1.577,1.594l4.946,0.027c6.771,2.068,11.724,8.348,11.724,15.789v15.203l0.044,0.055
			c0.821,1.227,2.628,4.518,2.182,6.769H13.176c-0.446-2.251,1.35-5.597,2.172-6.823l0.021-0.104V36.296
			c0-6.404,3.667-11.959,9.006-14.704L24.53,21.5c0.223-0.129,0.259-0.201,0.409-0.351c0.003-0.003,0.007-0.006,0.01-0.01
			c1.028-1.043,0.444-2.478,0.291-2.804l-0.273-0.481l-2.649-4.667l-1.445-2.545l3.313,0.995l0.637,0.191l0.099-0.329l0.813-2.708
			l-7.737-2.324c-0.619-0.186-1.292,0.023-1.696,0.531c-0.404,0.507-0.459,1.208-0.139,1.771l5.93,10.448
			c-5.907,3.407-9.895,9.784-9.895,17.08v14.257c-1.191,2.01-3.459,6.645-1.497,10.134c0.281,0.499,0.809,0.808,1.382,0.808h39.961
			c0.573,0,1.101-0.309,1.383-0.808C55.408,57.164,53.08,52.474,51.899,50.496z"/>
		<path fill="#FFFFFF" d="M30.806,50.63l-0.002-2.399l-0.22-0.022c-3.191-0.322-5.629-1.703-6.314-3.545l2.671-0.655
			c0.453,0.574,1.774,1.243,3.587,1.485l0.277,0.037v-4.199L30.6,41.297c-2.481-0.397-3.878-0.999-4.491-1.323l-0.103-0.055
			c-1.268-0.856-1.938-1.933-1.938-3.113c0-2.33,2.681-4.228,6.517-4.613l0.22-0.022v-2.34h2.681l0.002,2.356l0.216,0.024
			c2.872,0.329,5.123,1.525,5.967,3.15l-2.598,0.916c-0.497-0.517-1.656-1.102-3.304-1.35l-0.281-0.043v4.384l0.202,0.037
			c1.778,0.316,3.232,0.73,4.208,1.196c0.44,0.212,0.773,0.419,1.016,0.635c0.088,0.084,0.168,0.167,0.24,0.245
			c0.586,0.67,0.887,1.413,0.887,2.208c0,2.281-2.604,4.173-6.337,4.598l-0.216,0.024l-0.002,2.419H30.806z M33.488,45.507
			l0.281-0.044c2.115-0.322,3.589-1.246,3.589-1.874c0.004-0.625-1.471-1.545-3.589-1.865l-0.281-0.041V45.507z M30.528,34.905
			c-2.337,0.312-3.776,1.315-3.779,1.897c0,0.584,1.439,1.583,3.779,1.895l0.277,0.037v-3.866L30.528,34.905z"/>
	</g>

</svg>