<?xml version="1.0" encoding="utf-8"?>
<!-- Generator: Adobe Illustrator 16.0.0, SVG Export Plug-In . SVG Version: 6.00 Build 0)  -->
<!DOCTYPE svg PUBLIC "-//W3C//DTD SVG 1.1//EN" "http://www.w3.org/Graphics/SVG/1.1/DTD/svg11.dtd">
<svg version="1.1" xmlns="http://www.w3.org/2000/svg" xmlns:xlink="http://www.w3.org/1999/xlink" x="0px" y="0px" width="64px"
	 height="64px" viewBox="0 0 64 64" enable-background="new 0 0 64 64" xml:space="preserve">

	<g id="icon-22" viewBox="original-file's-viewBox">
		<g>
			<path fill="#FFFFFF" d="M25.975,19.932H15.683c-3.532,0-6.421,2.89-6.421,6.421V39.63c0,3.055,2.162,5.624,5.031,6.263v14.201
				h3.171l-0.016-17.215h-1.765c-1.792,0-3.25-1.456-3.25-3.249V26.353c0-1.792,1.458-3.25,3.25-3.25h10.292
				c1.792,0,3.25,1.458,3.25,3.25v2.641c1.003-0.609,2.062-1.128,3.171-1.551v-1.09C32.396,22.822,29.507,19.932,25.975,19.932z"/>
			<path fill="#FFFFFF" d="M28.595,8.769C28.595,4.478,25.121,1,20.83,1c-4.29,0-7.769,3.478-7.769,7.769s3.479,7.769,7.769,7.769
				C25.121,16.537,28.595,13.059,28.595,8.769z M20.83,13.366c-2.535,0-4.597-2.063-4.597-4.598c0-2.535,2.063-4.597,4.597-4.597
				c2.533,0,4.594,2.063,4.594,4.597C25.424,11.304,23.363,13.366,20.83,13.366z"/>
			<path fill="#FFFFFF" d="M39.309,29.208c-9.09,0-16.46,7.37-16.46,16.459c0,9.091,7.37,16.459,16.46,16.459
				c9.098,0,16.468-7.368,16.468-16.459C55.776,36.578,48.406,29.208,39.309,29.208z M39.309,58.956
				c-7.328,0-13.29-5.962-13.29-13.288c0-7.328,5.962-13.288,13.29-13.288c7.331,0,13.297,5.96,13.297,13.288
				C52.605,52.994,46.64,58.956,39.309,58.956z"/>
			<path fill="#FFFFFF" d="M38.206,55.99l-0.002-2.399l-0.221-0.021c-3.191-0.323-5.629-1.704-6.314-3.546l2.671-0.653
				c0.453,0.571,1.773,1.242,3.588,1.483l0.275,0.037v-4.198l-0.205-0.033c-2.481-0.398-3.877-1-4.491-1.323l-0.103-0.056
				c-1.268-0.856-1.938-1.932-1.938-3.114c0.001-2.329,2.681-4.228,6.517-4.613l0.22-0.023V35.19h2.683v2.357l0.218,0.024
				c2.87,0.327,5.123,1.525,5.966,3.149l-2.598,0.915c-0.498-0.515-1.657-1.101-3.305-1.349l-0.281-0.042v4.384l0.202,0.035
				c1.778,0.318,3.233,0.732,4.208,1.196c0.442,0.212,0.775,0.421,1.016,0.637c0.091,0.081,0.168,0.165,0.241,0.242
				c0.585,0.671,0.886,1.416,0.886,2.209c0,2.281-2.604,4.173-6.335,4.599l-0.218,0.025v2.419L38.206,55.99z M40.887,50.867
				l0.281-0.044c2.115-0.322,3.589-1.246,3.589-1.874c0.004-0.625-1.471-1.543-3.589-1.863l-0.281-0.043V50.867z M37.929,40.268
				c-2.338,0.31-3.776,1.313-3.78,1.895c0,0.584,1.438,1.586,3.78,1.896l0.275,0.037v-3.866L37.929,40.268z"/>
		</g>
	</g>

</svg>