<?xml version="1.0" encoding="utf-8"?>
<!-- Generator: Adobe Illustrator 16.0.0, SVG Export Plug-In . SVG Version: 6.00 Build 0)  -->
<!DOCTYPE svg PUBLIC "-//W3C//DTD SVG 1.1//EN" "http://www.w3.org/Graphics/SVG/1.1/DTD/svg11.dtd">
<svg version="1.1" xmlns="http://www.w3.org/2000/svg" xmlns:xlink="http://www.w3.org/1999/xlink" x="0px" y="0px" width="64px"
	 height="64px" viewBox="0 0 64 64" enable-background="new 0 0 64 64" xml:space="preserve">

	<g id="icon-24" viewBox="original-file's-viewBox">
		<g>
			<polygon fill="#FFFFFF" points="26.026,18.953 22.473,18.953 22.473,15.401 19.302,15.401 19.302,18.953 15.75,18.953 
				15.75,22.124 19.302,22.124 19.302,25.676 22.473,25.676 22.473,22.124 26.026,22.124 		"/>
			<g>
				
					<rect x="41.617" y="37.65" transform="matrix(0.7071 0.7071 -0.7071 0.7071 42.9095 -18.0165)" fill="#FFFFFF" width="3.171" height="10.276"/>
			</g>
			<polygon fill="#FFFFFF" points="25.649,45.254 23.138,42.741 25.649,40.23 23.407,37.988 20.896,40.499 18.385,37.988 
				16.143,40.23 18.654,42.741 16.142,45.254 18.383,47.496 20.896,44.983 23.407,47.496 		"/>
			<g>
				<rect x="38.116" y="18.972" fill="#FFFFFF" width="10.274" height="3.171"/>
			</g>
			<path fill="#FFFFFF" d="M49.633,7.769H14.515c-3.472,0-6.313,2.854-6.313,6.342v35.117c0,3.488,2.84,6.343,6.313,6.343h35.118
				c3.487,0,6.342-2.854,6.342-6.343V14.111C55.975,10.623,53.12,7.769,49.633,7.769z M52.804,14.111v15.972H33.66V10.94h15.973
				C51.381,10.94,52.804,12.363,52.804,14.111z M14.515,10.94h15.974v19.144h-19.13V14.111C11.359,12.363,12.774,10.94,14.515,10.94z
				 M11.359,49.229V33.254h19.13v19.146H14.515C12.774,52.399,11.359,50.977,11.359,49.229z M49.633,52.399H33.66V33.254h19.144
				v15.975C52.804,50.977,51.381,52.399,49.633,52.399z"/>
		</g>
	</g>

</svg>