<?xml version="1.0" encoding="utf-8"?>
<!-- Generator: Adobe Illustrator 16.0.0, SVG Export Plug-In . SVG Version: 6.00 Build 0)  -->
<!DOCTYPE svg PUBLIC "-//W3C//DTD SVG 1.1//EN" "http://www.w3.org/Graphics/SVG/1.1/DTD/svg11.dtd">
<svg version="1.1" xmlns="http://www.w3.org/2000/svg" xmlns:xlink="http://www.w3.org/1999/xlink" x="0px" y="0px" width="64px"
	 height="64px" viewBox="0 0 64 64" enable-background="new 0 0 64 64" xml:space="preserve">

	<g id="icon-16" viewBox="original-file's-viewBox">
		<path fill="#FFFFFF" d="M58.151,8.548h-1.805h-5.63H26.96h-5.629h-8.103c-2.373,0-4.304,1.931-4.304,4.304v6.586
			c0,2.373,1.931,4.304,4.304,4.304h0.671l0.959-3.171h-1.63c-0.625,0-1.133-0.508-1.133-1.133v-6.586
			c0-0.625,0.508-1.132,1.133-1.132h7.142L8.943,49.407h5.661l-1.605,5.309h29.385l13.004-42.997h2.764
			c0.625,0,1.133,0.508,1.133,1.132v6.586c0,0.625-0.508,1.133-1.133,1.133h-2.564l-0.959,3.171h3.523
			c2.373,0,4.304-1.931,4.304-4.304v-6.586C62.455,10.479,60.524,8.548,58.151,8.548z M23.683,11.719h22.758L35.977,46.236H13.219
			L23.683,11.719z M40.03,51.545H17.271l0.646-2.138H38.33l11.426-37.688h2.318L40.03,51.545z"/>
		<path fill="#FFFFFF" d="M25.688,36.731l0.544-1.783l-0.271-0.05c-1.805-0.329-3.204-1.057-3.938-2.05
			c-0.159-0.214-0.289-0.458-0.392-0.739l2.71-0.688c0.381,0.348,1.245,0.733,2.477,0.901l0.207,0.028l1.281-4.202l-0.263-0.054
			c-1.646-0.336-2.882-0.771-3.574-1.257c-0.081-0.057-0.159-0.115-0.227-0.175l-0.052-0.057c-0.068-0.072-0.137-0.144-0.194-0.22
			c-0.591-0.798-0.761-1.749-0.478-2.676c0.785-2.575,4.384-3.804,7.227-4.074l0.163-0.016l0.555-1.817l2.68,0.04l-0.554,1.815
			l0.283,0.04c2.028,0.285,3.587,1.038,4.389,2.121c0.161,0.217,0.292,0.463,0.395,0.747l-2.691,0.701
			c-0.419-0.405-1.463-0.85-2.976-0.977l-0.197-0.016l-1.286,4.216l0.277,0.044c2.392,0.38,3.548,0.98,4.024,1.304
			c0.118,0.081,0.212,0.153,0.28,0.214l0.065,0.072c0.049,0.052,0.099,0.103,0.14,0.157c0.591,0.799,0.761,1.75,0.478,2.675
			c-0.781,2.562-4.438,3.91-7.714,4.11l-0.169,0.011l-0.517,1.695L25.688,36.731z M29.728,32.312l0.389-0.065
			c2.247-0.376,3.87-1.368,4.085-2.072l0.021-0.065l-0.018-0.067c-0.129-0.497-1.387-1.128-3.192-1.28l-0.197-0.016L29.728,32.312z
			 M29.644,22.515c-2.058,0.447-3.371,1.353-3.562,1.979l-0.02,0.065l0.017,0.066c0.111,0.433,1.099,1.011,2.711,1.231l0.207,0.028
			l1.055-3.459L29.644,22.515z"/>
	</g>

</svg>