<?xml version="1.0" encoding="utf-8"?>
<!-- Generator: Adobe Illustrator 16.0.0, SVG Export Plug-In . SVG Version: 6.00 Build 0)  -->
<!DOCTYPE svg PUBLIC "-//W3C//DTD SVG 1.1//EN" "http://www.w3.org/Graphics/SVG/1.1/DTD/svg11.dtd">
<svg version="1.1" xmlns="http://www.w3.org/2000/svg" xmlns:xlink="http://www.w3.org/1999/xlink" x="0px" y="0px" width="64px"
	 height="64px" viewBox="0 0 64 64" enable-background="new 0 0 64 64" xml:space="preserve">

	<g id="icon-18" viewBox="original-file's-viewBox">
		<g>
			<g>
				<path fill="#FFFFFF" d="M29.279,48.236H12.18c-0.871,0-1.578-0.712-1.578-1.586c0-0.876,0.707-1.586,1.578-1.586h17.099
					c0.876,0,1.585,0.71,1.585,1.586C30.864,47.524,30.155,48.236,29.279,48.236z"/>
			</g>
			<path fill="#FFFFFF" d="M48.749,16.33L37.565,5.145c-0.619-0.619-1.623-0.62-2.242,0l-3.217,3.216
				c-0.243,0.243-0.4,0.557-0.449,0.896l-0.393,2.744L20.209,23.056l-2.743,0.393c-0.338,0.049-0.65,0.206-0.892,0.449l-3.199,3.216
				c-0.617,0.619-0.617,1.623,0,2.243L24.538,40.54c0.31,0.31,0.715,0.465,1.121,0.465c0.405,0,0.811-0.155,1.121-0.463l3.217-3.216
				c0.243-0.242,0.4-0.558,0.449-0.897l0.38-2.666L41.97,22.62l2.667-0.381c0.338-0.048,0.653-0.206,0.896-0.448l3.217-3.218
				C49.369,17.953,49.369,16.949,48.749,16.33z M27.381,35.456l-1.721,1.722l-8.937-8.943l1.714-1.721l2.137-0.306l7.112,7.112
				L27.381,35.456z M29.498,30.607L23.32,24.43l9.329-9.33l6.178,6.177L29.498,30.607z M43.663,19.174l-2.136,0.305l-7.111-7.113
				l0.306-2.136l1.722-1.722l8.943,8.943L43.663,19.174z"/>
			<g>
				<path fill="#FFFFFF" d="M60.779,43.435L41.751,26.672l-2.246,2.247l19.178,16.896c0.571,0.504,0.9,1.184,0.924,1.916
					c0.022,0.73-0.263,1.432-0.802,1.972l-0.536,0.534c-1.08,1.081-2.881,1.021-3.889-0.122L37.484,30.938l-2.246,2.247
					l16.764,19.026c1.118,1.271,2.715,1.998,4.376,1.998c1.549,0,3.016-0.614,4.134-1.73l0.535-0.534
					c1.166-1.166,1.78-2.697,1.729-4.313C62.724,46.015,62.015,44.525,60.779,43.435z"/>
			</g>
			<g>
				<path fill="#FFFFFF" d="M11.821,54.024h17.82v3.284h3.171v-4.87c0-0.876-0.71-1.585-1.586-1.585H10.242
					c-0.871,0-1.578,0.709-1.578,1.585v4.87h3.156V54.024z"/>
			</g>
		</g>
	</g>

</svg>