<?xml version="1.0" encoding="utf-8"?>
<!-- Generator: Adobe Illustrator 16.0.0, SVG Export Plug-In . SVG Version: 6.00 Build 0)  -->
<!DOCTYPE svg PUBLIC "-//W3C//DTD SVG 1.1//EN" "http://www.w3.org/Graphics/SVG/1.1/DTD/svg11.dtd">
<svg version="1.1" xmlns="http://www.w3.org/2000/svg" xmlns:xlink="http://www.w3.org/1999/xlink" x="0px" y="0px" width="64px"
	 height="64px" viewBox="0 0 64 64" enable-background="new 0 0 64 64" xml:space="preserve">

	<g id="icon-21" viewBox="original-file's-viewBox">
		<g>
			<g>
				<path fill="#FFFFFF" d="M24.321,33.635c-0.33,0-0.662-0.103-0.947-0.315l-1.562-1.164c-0.702-0.522-0.847-1.516-0.324-2.219
					c0.525-0.702,1.518-0.845,2.219-0.324l1.562,1.165c0.702,0.523,0.847,1.516,0.324,2.219
					C25.282,33.414,24.804,33.635,24.321,33.635z"/>
			</g>
			<g>
				<path fill="#FFFFFF" d="M39.736,33.635c-0.482,0-0.961-0.221-1.271-0.639c-0.522-0.703-0.377-1.695,0.323-2.219l1.563-1.165
					c0.701-0.522,1.695-0.378,2.22,0.324c0.521,0.703,0.377,1.696-0.324,2.219l-1.563,1.164
					C40.398,33.532,40.067,33.635,39.736,33.635z"/>
			</g>
			<g>
				<circle fill="#FFFFFF" cx="35.572" cy="54.271" r="1.703"/>
				<circle fill="#FFFFFF" cx="28.576" cy="54.271" r="1.704"/>
			</g>
			<g>
				<path fill="#FFFFFF" d="M59.132,31.448l-1.013-3.063c-1.403-5.454-7.046-6.965-9.977-7.015c-2.641-0.521-3.65-3.647-3.652-3.647
					c-0.159-0.604-0.375-1.149-0.632-1.641c4.399-1.341,7.555-3.417,9.316-6.101c-0.035,0.903-0.182,1.846-0.499,2.786
					c-0.752,2.243-2.356,4.15-4.769,5.696c0.155,0.147,0.329,0.266,0.515,0.333c1.007,0.046,2.214,0.231,3.478,0.596
					c1.798-1.62,3.081-3.502,3.796-5.651c1.961-5.906-1.041-11.496-1.17-11.732c-0.368-0.672-1.161-0.984-1.89-0.743
					c-0.728,0.241-1.177,0.968-1.071,1.727c0.855,6.058-4.487,8.897-9.12,10.211c-0.189,0.054-0.525,0.162-0.807,0.26
					c-1.706-1.315-3.488-1.705-3.614-1.73c-0.104-0.021-0.21-0.032-0.316-0.032H26.428c-0.106,0-0.212,0.011-0.315,0.032
					c-0.126,0.026-1.933,0.42-3.645,1.745c-0.279-0.102-0.622-0.217-0.822-0.274c-4.626-1.315-9.951-4.154-9.099-10.211
					c0.106-0.758-0.342-1.485-1.066-1.727C10.758,1.026,9.966,1.338,9.6,2.01C9.472,2.246,6.482,7.838,8.435,13.745
					c0.708,2.147,1.984,4.028,3.769,5.646c1.258-0.363,2.462-0.548,3.467-0.594c0.186-0.067,0.357-0.188,0.514-0.335
					c-2.404-1.545-4-3.449-4.747-5.691c-0.314-0.941-0.46-1.884-0.496-2.789c1.757,2.689,4.913,4.77,9.326,6.111
					c-0.244,0.475-0.451,0.996-0.604,1.573c-0.01,0.032-1.017,3.18-3.667,3.704c-2.922,0.049-8.531,1.561-9.927,7.014l-1.007,3.063
					c-0.207,0.627-0.003,1.316,0.509,1.731c0.287,0.233,0.637,0.35,0.99,0.35c0.277,0,0.555-0.072,0.803-0.219
					c1.157-0.688,4.851-2.435,6.99-1.784c-0.088,2.874,0.618,6.845,4.476,9.49c0.302,0.244,2.665,2.229,3.91,4.968
					c0.693-0.439,1.644-0.91,2.893-1.294c-1.656-3.652-4.719-6.071-4.889-6.202l-0.082-0.061c-4.621-3.132-2.814-9.284-2.733-9.55
					c0.258-0.835-0.208-1.721-1.043-1.981c-0.838-0.259-1.726,0.206-1.985,1.042c-0.013,0.041-0.058,0.191-0.116,0.426
					c-1.856-0.393-3.919,0.043-5.61,0.637c1.261-4.371,6.74-4.458,6.972-4.46c0.087,0,0.174-0.007,0.261-0.022
					c4.698-0.783,6.229-5.724,6.307-5.985c0.698-2.649,3.285-3.494,3.901-3.659H37.52c0.61,0.165,3.205,1.012,3.92,3.71
					c0.063,0.21,1.594,5.151,6.292,5.934c0.087,0.015,0.174,0.022,0.261,0.022c0.059,0,5.729,0.052,7.008,4.46
					c-1.715-0.6-3.811-1.041-5.689-0.629c-0.061-0.241-0.106-0.395-0.12-0.436c-0.261-0.836-1.156-1.299-1.986-1.04
					c-0.837,0.262-1.302,1.151-1.04,1.987c0.02,0.064,1.933,6.387-2.732,9.544l-0.083,0.061c-0.168,0.129-3.214,2.53-4.875,6.16
					c1.228,0.377,2.178,0.837,2.9,1.277c1.254-2.713,3.594-4.672,3.888-4.907c3.857-2.642,4.565-6.604,4.479-9.478
					c2.152-0.692,5.903,1.075,7.075,1.768c0.251,0.148,0.531,0.223,0.811,0.223c0.352,0,0.704-0.118,0.992-0.351
					C59.134,32.766,59.339,32.076,59.132,31.448z"/>
			</g>
			<path fill="#FFFFFF" d="M42.02,50.374l0.011-0.006c-0.071-0.124-0.152-0.244-0.233-0.362c-0.004-0.004-0.006-0.008-0.009-0.011
				c-0.046-0.067-0.098-0.133-0.147-0.198c-0.295-0.395-0.656-0.732-1.049-1.03c-0.096-0.07-0.181-0.155-0.28-0.22
				c-0.745-0.525-1.656-0.951-2.698-1.28c-1.561-0.49-3.426-0.758-5.539-0.758c-1.501,0-2.862,0.138-4.084,0.391l0,0.006
				c-0.289,0.053-0.542,0.118-0.801,0.183c-0.242,0.065-0.48,0.132-0.708,0.207c-0.822,0.267-1.563,0.598-2.203,0.994
				c-0.207,0.107-0.405,0.229-0.596,0.364c-0.03,0.025-0.07,0.054-0.097,0.076c-0.015,0.011-0.029,0.024-0.044,0.037
				c-0.017,0.015-0.023,0.021-0.038,0.034C23.375,48.917,23.3,48.997,23.297,49l-0.021-0.016c-0.413,0.359-0.776,0.775-1.06,1.246
				c-0.021,0.033-0.05,0.06-0.071,0.094l0.011,0.005c-0.437,0.763-0.689,1.641-0.689,2.58v3.136c0,2.872,2.337,5.21,5.21,5.21h10.795
				c2.874,0,5.21-2.338,5.21-5.21v-3.136C42.682,51.989,42.439,51.126,42.02,50.374z M39.511,56.045c0,1.124-0.915,2.039-2.039,2.039
				H26.677c-1.124,0-2.039-0.915-2.039-2.039v-3.136c0-0.368,0.103-0.708,0.275-1.003c0.955-1.393,3.608-2.227,7.162-2.227
				c3.412,0,6.212,0.856,7.103,2.14c0.205,0.316,0.333,0.685,0.333,1.09V56.045z"/>
		</g>
	</g>

</svg>