<?xml version="1.0" encoding="utf-8"?>
<!-- Generator: Adobe Illustrator 16.0.0, SVG Export Plug-In . SVG Version: 6.00 Build 0)  -->
<!DOCTYPE svg PUBLIC "-//W3C//DTD SVG 1.1//EN" "http://www.w3.org/Graphics/SVG/1.1/DTD/svg11.dtd">
<svg version="1.1" xmlns="http://www.w3.org/2000/svg" xmlns:xlink="http://www.w3.org/1999/xlink" x="0px" y="0px" width="64px"
	 height="64px" viewBox="0 0 64 64" enable-background="new 0 0 64 64" xml:space="preserve">

	<g id="icon-1" viewBox="original-file's-viewBox">
		<g>
			<path fill="#FFFFFF" d="M50.389,5.828H29.412c-3.394,0-6.154,2.761-6.154,6.154v8.123l-0.067-0.063L7.339,36.939L7.18,58.171
				h3.191l0.149-19.96l12.737-13.575v13.132l-5.236,5.235l2.257,2.256L31.348,34.19c0.766-0.767,1.805-1.207,2.848-1.207
				c0.92,0,1.764,0.338,2.377,0.952c0.646,0.645,0.982,1.533,0.948,2.504c-0.033,1.011-0.462,1.979-1.203,2.72l-19.01,19.012h4.513
				l4.333-4.334c0.947,0.593,2.061,0.942,3.258,0.942h20.977c3.395,0,6.154-2.761,6.154-6.154V11.982
				C56.543,8.589,53.783,5.828,50.389,5.828z M45.143,51.588H29.412c-0.303,0-0.59-0.059-0.866-0.145l10.027-10.028
				c1.316-1.315,2.075-3.044,2.137-4.866c0.064-1.864-0.604-3.594-1.881-4.871c-1.217-1.216-2.862-1.885-4.634-1.885
				c-1.883,0-3.744,0.78-5.104,2.141l-2.643,2.643V11.982c0-1.634,1.329-2.963,2.963-2.963h15.731V51.588z M53.352,48.625
				c0,1.634-1.329,2.963-2.963,2.963h-2.055V9.02h2.055c1.634,0,2.963,1.329,2.963,2.963V48.625z"/>
		</g>
	</g>

</svg>