<?xml version="1.0" encoding="utf-8"?>
<!-- Generator: Adobe Illustrator 16.0.0, SVG Export Plug-In . SVG Version: 6.00 Build 0)  -->
<!DOCTYPE svg PUBLIC "-//W3C//DTD SVG 1.1//EN" "http://www.w3.org/Graphics/SVG/1.1/DTD/svg11.dtd">
<svg version="1.1" xmlns="http://www.w3.org/2000/svg" xmlns:xlink="http://www.w3.org/1999/xlink" x="0px" y="0px" width="64px"
	 height="64px" viewBox="0 0 64 64" enable-background="new 0 0 64 64" xml:space="preserve">

	<g id="icon-6" viewBox="original-file's-viewBox">
		<g>
			<g>
				<circle fill="#FFFFFF" cx="19.811" cy="22.39" r="2.052"/>
			</g>
			<g>
				<path fill="#FFFFFF" d="M37.644,19.278H30.92c-0.882,0-1.596-0.714-1.596-1.596c0-0.881,0.714-1.595,1.596-1.595h6.724
					c0.882,0,1.596,0.714,1.596,1.595C39.239,18.564,38.525,19.278,37.644,19.278z"/>
			</g>
			<path fill="#FFFFFF" d="M63.579,20.819c-0.395-0.789-1.354-1.107-2.141-0.714l-5.025,2.511
				C52.543,15.01,44.076,9.719,34.271,9.719H30.75c-1.024,0-2.031,0.068-3.021,0.181c-0.85-1.142-4.286-5.351-8.813-5.351
				c-0.426,0-0.836,0.171-1.135,0.475c-0.3,0.304-0.465,0.715-0.46,1.142l0.097,7.194c-3.627,2.164-6.594,5.17-8.532,8.727
				c-0.47,0.131-1.918,0.329-5.553-0.924c-0.963-0.332-1.955-0.033-2.536,0.741c-1.618,2.159,0.293,10.315,2.182,16.776
				c0.481,1.653,2.143,2.899,3.866,2.899h1.968c2.248,4.193,5.908,7.648,10.412,9.855v5.51c0,1.886,1.534,3.419,3.419,3.419h3.991
				c1.885,0,3.419-1.533,3.419-3.419v-2.89c0.233,0.005,0.463,0.022,0.697,0.022h3.522c0.24,0,0.479-0.011,0.717-0.017v2.884
				c0,1.886,1.534,3.419,3.42,3.419h3.991c1.885,0,3.419-1.533,3.419-3.419v-5.517c7.64-3.75,12.842-11.097,12.842-19.53
				c0-2.199-0.358-4.322-1.018-6.329l5.222-2.609C63.652,22.565,63.973,21.607,63.579,20.819z M45.818,47.81
				c-1.009,0.589-2.073,1.105-3.191,1.536c-0.001,0-0.001,0-0.001,0l0.001,7.599c0,0.121-0.106,0.229-0.228,0.229h-3.991
				c-0.121,0-0.229-0.107-0.229-0.229l0.007-6.39c-0.002,0.001-0.004,0.002-0.007,0.002c-1.039,0.175-2.104,0.28-3.191,0.313
				c-0.238,0.008-0.477,0.018-0.717,0.018H30.75c-0.234,0-0.465-0.015-0.697-0.021c-1.086-0.032-2.152-0.134-3.191-0.309
				c-0.002,0-0.005,0-0.008-0.001l0.008,6.389c0,0.121-0.107,0.229-0.228,0.229h-3.991c-0.121,0-0.228-0.107-0.228-0.229v-4.209
				h0.001v-3.384h-0.001c-1.117-0.431-2.183-0.946-3.191-1.535c-2.742-1.6-5.052-3.747-6.722-6.273l-0.806-1.56
				c-0.017-0.032-0.032-0.064-0.05-0.098c-0.146-0.278-0.301-0.49-0.456-0.675c-0.576-0.686-1.154-0.808-1.372-0.823H7.428H6.843
				c-0.292,0-0.72-0.319-0.803-0.603c-1.455-4.98-2.744-10.929-2.728-13.272c1.573,0.482,2.953,0.747,4.141,0.816
				c0.196,0.012,0.398,0.03,0.584,0.03c0.808,0,1.42-0.112,1.896-0.265v-0.001c0.622-0.141,1.179-0.669,1.621-1.241
				c0.006-0.008,0.013-0.016,0.019-0.023l-0.002-0.01c0.304-0.575,0.637-1.135,1-1.676c1.944-2.894,4.722-5.289,8.036-6.913
				l-0.07-7.193c2.1,0.75,3.811,2.719,4.466,3.554c0.084,0.109,0.166,0.217,0.246,0.325c0.024,0.033,0.042,0.057,0.044,0.062
				c0.003,0.005,0.009,0.01,0.012,0.015c0.486,0.656,0.881,1.239,0.956,1.35c1.448-0.28,2.948-0.432,4.488-0.432h3.522
				c11.688,0,21.197,8.518,21.197,18.988C55.469,38.555,51.622,44.419,45.818,47.81z"/>
		</g>
	</g>

</svg>