<?xml version="1.0" encoding="utf-8"?>
<!-- Generator: Adobe Illustrator 16.0.0, SVG Export Plug-In . SVG Version: 6.00 Build 0)  -->
<!DOCTYPE svg PUBLIC "-//W3C//DTD SVG 1.1//EN" "http://www.w3.org/Graphics/SVG/1.1/DTD/svg11.dtd">
<svg version="1.1" xmlns="http://www.w3.org/2000/svg" xmlns:xlink="http://www.w3.org/1999/xlink" x="0px" y="0px" width="64px"
	 height="64px" viewBox="0 0 64 64" enable-background="new 0 0 64 64" xml:space="preserve">

	<g id="icon-26" viewBox="original-file's-viewBox">
		<g>
			<g>
				<polygon fill="#FFFFFF" points="39.887,9.631 42.446,15.207 45.936,15.207 41.446,5.426 20.143,15.207 27.744,15.207 			"/>
			</g>
			<g>
				<circle fill="#FFFFFF" cx="38.582" cy="37.344" r="2.039"/>
			</g>
			<path fill="#FFFFFF" d="M56.548,28.57H54.32v-4.529c0-3.373-2.745-6.116-6.116-6.116H11.792c-3.373,0-6.116,2.743-6.116,6.116
				v27.029c0,3.373,2.743,6.115,6.116,6.115h36.412c3.371,0,6.116-2.742,6.116-6.115v-4.53h2.228c0.874,0,1.586-0.71,1.586-1.586
				V30.155C58.134,29.28,57.422,28.57,56.548,28.57z M51.149,51.069c0,1.624-1.322,2.944-2.945,2.944H11.792
				c-1.624,0-2.945-1.32-2.945-2.944V24.041c0-1.624,1.321-2.945,2.945-2.945h36.412c1.623,0,2.945,1.321,2.945,2.945v4.529H36.558
				c-3.372,0-6.116,2.743-6.116,6.116v5.737c0,3.373,2.744,6.116,6.116,6.116h14.592V51.069z M54.963,43.368H36.558
				c-1.624,0-2.944-1.32-2.944-2.945v-5.737c0-1.624,1.32-2.944,2.944-2.944h18.405V43.368z"/>
		</g>
	</g>

</svg>