<?xml version="1.0" encoding="utf-8"?>
<!-- Generator: Adobe Illustrator 16.0.0, SVG Export Plug-In . SVG Version: 6.00 Build 0)  -->
<!DOCTYPE svg PUBLIC "-//W3C//DTD SVG 1.1//EN" "http://www.w3.org/Graphics/SVG/1.1/DTD/svg11.dtd">
<svg version="1.1" xmlns="http://www.w3.org/2000/svg" xmlns:xlink="http://www.w3.org/1999/xlink" x="0px" y="0px" width="64px"
	 height="64px" viewBox="0 0 64 64" enable-background="new 0 0 64 64" xml:space="preserve">

	<g id="icon-23" viewBox="original-file's-viewBox">
		<g>
			<g>
				<path fill="#FFFFFF" d="M21.273,52.152H0.453l4.796-11.289h11.229L21.273,52.152z M5.245,48.98h11.236l-2.102-4.945H7.347
					L5.245,48.98z"/>
			</g>
			<g>
				<path fill="#FFFFFF" d="M42.322,52.152H21.501l4.796-11.289h11.228L42.322,52.152z M26.293,48.98H37.53l-2.103-4.945h-7.033
					L26.293,48.98z"/>
			</g>
			<g>
				<path fill="#FFFFFF" d="M31.569,37.3H10.733l4.796-11.29h11.242L31.569,37.3z M15.526,34.129h11.25l-2.103-4.948h-7.046
					L15.526,34.129z"/>
			</g>
			<g>
				<path fill="#FFFFFF" d="M42.085,22.477H21.263l4.797-11.29h11.229L42.085,22.477z M26.056,19.305h11.237l-2.103-4.948h-7.032
					L26.056,19.305z"/>
			</g>
			<g>
				<path fill="#FFFFFF" d="M52.602,37.3h-20.82l4.797-11.29h11.229L52.602,37.3z M36.574,34.129H47.81l-2.103-4.948h-7.032
					L36.574,34.129z"/>
			</g>
			<g>
				<path fill="#FFFFFF" d="M63.355,52.152H42.534l4.798-11.289h11.229L63.355,52.152z M47.326,48.98h11.237l-2.103-4.945h-7.032
					L47.326,48.98z"/>
			</g>
		</g>
	</g>

</svg>