<?xml version="1.0" encoding="utf-8"?>
<!-- Generator: Adobe Illustrator 16.0.0, SVG Export Plug-In . SVG Version: 6.00 Build 0)  -->
<!DOCTYPE svg PUBLIC "-//W3C//DTD SVG 1.1//EN" "http://www.w3.org/Graphics/SVG/1.1/DTD/svg11.dtd">
<svg version="1.1" xmlns="http://www.w3.org/2000/svg" xmlns:xlink="http://www.w3.org/1999/xlink" x="0px" y="0px" width="64px"
	 height="64px" viewBox="0 0 64 64" enable-background="new 0 0 64 64" xml:space="preserve">

	<g id="icon-4" viewBox="original-file's-viewBox">
		<g>
			<g>
				<circle fill="#FFFFFF" cx="31.862" cy="7.664" r="2.051"/>
			</g>
			<path fill="#FFFFFF" d="M52.019,19.459c0.202,0.014,0.405,0.029,0.596,0.029c4.283,0,5.606-3.334,5.672-3.512
				c0.309-0.813-0.069-1.797-0.876-2.12c-0.809-0.324-1.731,0.074-2.07,0.875c-0.023,0.057-0.044,0.114-0.062,0.172
				c-0.19,0.419-1.305,2.306-5.431,0.837c-0.016-0.005-0.032-0.006-0.048-0.012c-4.785-2.045-11.394-3.112-17.795-3.112
				c-6.714,0-13.65,1.175-18.479,3.419c-3.832,1.236-4.896-0.539-5.082-0.948c-0.017-0.06-0.039-0.12-0.063-0.179
				c-0.34-0.799-1.262-1.193-2.071-0.869c-0.806,0.323-1.181,1.31-0.874,2.122c0.067,0.177,1.39,3.509,5.675,3.508
				c0.148,0,0.309-0.013,0.465-0.022C9.39,22.872,3.617,31.693,3.617,34.938c0,4.102,4.196,7.314,9.554,7.314
				s9.554-3.213,9.554-7.314c0-3.387-6.304-12.871-8.236-15.697c-0.035-0.051-0.081-0.088-0.121-0.133
				c0.087-0.027,0.3-0.104,0.395-0.149s0.535-0.209,0.535-0.209c3.561-1.561,8.824-2.714,14.968-2.902v28.757h3.191V15.84
				c6.229,0.159,11.576,1.31,15.19,2.88c0.032,0.003,0.345,0.121,0.376,0.124l0.458,0.125c-0.092,0.079-0.176,0.168-0.247,0.271
				c-1.932,2.826-8.235,12.31-8.235,15.697c0,4.102,4.195,7.314,9.554,7.314c5.356,0,9.554-3.213,9.554-7.314
				C60.106,31.627,54.095,22.51,52.019,19.459z M19.533,34.938c0,2.235-2.914,4.123-6.363,4.123s-6.363-1.888-6.363-4.123
				c0-0.08,0.014-0.176,0.031-0.279h12.663C19.52,34.762,19.533,34.857,19.533,34.938z M18.19,31.467H8.151
				c1.208-2.366,3.081-5.498,5.02-8.457C15.109,25.969,16.982,29.102,18.19,31.467z M50.553,23.01
				c2.091,3.193,4.109,6.59,5.294,9.004H45.259C46.441,29.601,48.46,26.203,50.553,23.01z M50.553,39.061
				c-3.311,0-6.119-1.74-6.342-3.854h12.682C56.671,37.32,53.861,39.061,50.553,39.061z"/>
			<path fill="#FFFFFF" d="M31.861,47.982c-7.854,0-14.51,4.736-16.917,11.315h33.835C46.369,52.719,39.715,47.982,31.861,47.982z
				 M20.52,56.12c2.697-3.017,6.775-4.947,11.341-4.947c4.564,0,8.645,1.931,11.34,4.947H20.52z"/>
		</g>
	</g>

</svg>