<?xml version="1.0" encoding="utf-8"?>
<!-- Generator: Adobe Illustrator 16.0.0, SVG Export Plug-In . SVG Version: 6.00 Build 0)  -->
<!DOCTYPE svg PUBLIC "-//W3C//DTD SVG 1.1//EN" "http://www.w3.org/Graphics/SVG/1.1/DTD/svg11.dtd">
<svg version="1.1" xmlns="http://www.w3.org/2000/svg" xmlns:xlink="http://www.w3.org/1999/xlink" x="0px" y="0px" width="64px"
	 height="64px" viewBox="0 0 64 64" enable-background="new 0 0 64 64" xml:space="preserve">

	<g id="icon-20" viewBox="original-file's-viewBox">
		<g>
			<g>
				<path fill="#FFFFFF" d="M8.805,17.075c-1.541-2.44-1.595-5.323,0.018-6.7c0.606-0.517,1.407-0.79,2.315-0.79
					c1.118,0,2.288,0.39,3.358,1.09c1.107-0.696,2.19-1.199,3.131-1.559c-1.893-1.705-4.229-2.703-6.489-2.703
					c-1.673,0-3.186,0.536-4.374,1.549c-3.197,2.73-3.042,8.18,0.346,12.15c0.152,0.177,0.316,0.338,0.476,0.505l0.348-1.167
					C8.172,18.595,8.467,17.807,8.805,17.075z"/>
				<path fill="#FFFFFF" d="M52.671,9.584c0.908,0,1.709,0.273,2.314,0.79c1.651,1.409,1.545,4.39-0.103,6.864
					c0.318,0.71,0.602,1.471,0.83,2.297l0.368,1.232c0.21-0.212,0.421-0.425,0.617-0.656c3.389-3.97,3.543-9.42,0.346-12.149
					c-1.188-1.013-2.699-1.549-4.373-1.549c-2.301,0-4.683,1.031-6.594,2.794c0.938,0.349,2.022,0.845,3.131,1.542
					C50.307,10.005,51.516,9.584,52.671,9.584z"/>
			</g>
			<path fill="#FFFFFF" d="M36.406,45.739l-2.916-2.915v-3.06c0.973-0.384,1.637-1.099,1.637-1.931c0-1.231-1.443-2.229-3.222-2.229
				c-1.78,0-3.223,0.998-3.223,2.229c0,0.832,0.664,1.547,1.637,1.931v3.058l-2.917,2.919c-0.619,0.619-0.619,1.622,0,2.241
				c0.31,0.311,0.715,0.466,1.121,0.466s0.812-0.155,1.122-0.466l2.259-2.26l2.259,2.259c0.31,0.31,0.715,0.465,1.12,0.465
				c0.406,0,0.813-0.155,1.122-0.465C37.025,47.361,37.025,46.358,36.406,45.739z"/>
			<g>
				<path fill="#FFFFFF" d="M20.821,28.046c-0.189,0-0.381-0.034-0.568-0.106l-1.933-0.743c-0.817-0.314-1.225-1.231-0.911-2.049
					c0.314-0.817,1.231-1.226,2.049-0.911l1.932,0.743c0.818,0.314,1.226,1.231,0.911,2.049
					C22.06,27.659,21.458,28.046,20.821,28.046z"/>
			</g>
			<g>
				<path fill="#FFFFFF" d="M42.987,28.046c-0.637,0-1.236-0.387-1.479-1.017c-0.314-0.817,0.094-1.735,0.912-2.049l1.931-0.743
					c0.817-0.315,1.735,0.094,2.049,0.911c0.315,0.817-0.094,1.735-0.911,2.049l-1.931,0.743
					C43.37,28.012,43.177,28.046,42.987,28.046z"/>
			</g>
			<path fill="#FFFFFF" d="M56.685,33.399L52.8,20.371c-1.434-5.162-5.287-7.36-7.765-8.263l0.002-0.007
				c-0.023-0.008-0.108-0.035-0.22-0.069c-0.575-0.198-1.06-0.329-1.408-0.406c-2.444-0.667-7.251-1.797-11.807-1.797
				c-3.787,0-7.847,0.871-10.366,1.525l-0.104,0.016c-0.325,0.051-7.987,1.326-10.111,8.973L7.147,33.339
				c-0.088,0.259-2.109,6.365,1.447,11.198c0.27,0.396,6.721,9.698,16.374,11.039c0.146,0.018,3.718,0.432,6.936,0.451h0.025h0.07
				l0.008-0.002c3.209-0.018,6.691-0.432,6.866-0.453c9.623-1.337,16.075-10.639,16.314-10.989
				C58.774,39.704,56.753,33.598,56.685,33.399z M31.99,52.856h-0.015l-0.153-0.002c-1.254-0.007-2.573-0.081-3.691-0.164v-0.002
				c-1.968-0.272-3.314-0.968-4-2.063c-1.087-1.739-0.336-4.105-0.331-4.121l3.02-14.843c0.659-1.695,3.678-2.158,4.662-2.186h0.534
				h0.28c0.04,0,3.92,0.176,4.696,2.185l2.97,14.65l0.048,0.184c0.009,0.025,0.759,2.392-0.329,4.131
				c-0.686,1.096-2.032,1.791-4,2.063v0.002C34.561,52.775,33.244,52.85,31.99,52.856z M52.6,42.75
				c-0.046,0.067-3.854,5.55-9.621,8.285c0.874-2.422,0.241-4.875,0.072-5.433l-2.976-14.684l-0.052-0.191
				c-1.428-4.238-7.406-4.417-7.694-4.423h-0.534l-0.35,0c-0.254,0.005-6.232,0.185-7.661,4.423l-3.026,14.875
				c-0.168,0.558-0.8,3,0.066,5.419c-5.755-2.743-9.572-8.213-9.644-8.317c-2.594-3.527-1.046-8.298-1.013-8.398l3.9-13.086
				c1.025-3.688,3.799-5.396,5.683-6.155l0.003,0.009c0.022-0.007,0.852-0.274,2.144-0.612l0.098-0.015v-0.011
				C24.342,13.825,28.154,13,31.603,13c5.321,0,11.277,1.754,12.296,2.067c1.832,0.66,4.774,2.296,5.854,6.182l3.911,13.116
				C53.68,34.412,55.249,39.146,52.6,42.75z"/>
		</g>
	</g>

</svg>