<?xml version="1.0" encoding="utf-8"?>
<!-- Generator: Adobe Illustrator 16.0.0, SVG Export Plug-In . SVG Version: 6.00 Build 0)  -->
<!DOCTYPE svg PUBLIC "-//W3C//DTD SVG 1.1//EN" "http://www.w3.org/Graphics/SVG/1.1/DTD/svg11.dtd">
<svg version="1.1" xmlns="http://www.w3.org/2000/svg" xmlns:xlink="http://www.w3.org/1999/xlink" x="0px" y="0px" width="64px"
	 height="64px" viewBox="0 0 64 64" enable-background="new 0 0 64 64" xml:space="preserve">

	<g id="icon-10" viewBox="original-file's-viewBox">
		<g>
			<g>
				<g>
					<polygon fill="#FFFFFF" points="62.135,12.74 7.97,12.74 7.97,15.9 58.945,15.9 58.945,44.827 62.135,44.827 				"/>
					<path fill="#FFFFFF" d="M1.587,19.092V51.18h54.167V19.092H1.587z M52.563,47.988H4.779V22.283h47.785V47.988z"/>
				</g>
			</g>
		</g>
		<path fill="#FFFFFF" d="M27.386,45.585l-0.002-2.415l-0.221-0.021c-3.211-0.326-5.665-1.714-6.354-3.568l2.688-0.657
			c0.456,0.575,1.785,1.25,3.609,1.493l0.279,0.037v-4.226l-0.207-0.033c-2.496-0.4-3.902-1.006-4.519-1.332l-0.104-0.056
			c-1.275-0.861-1.95-1.945-1.95-3.133c0.001-2.344,2.697-4.254,6.558-4.644l0.222-0.022v-2.354h2.699l0.001,2.371l0.218,0.025
			c2.889,0.33,5.156,1.535,6.003,3.169l-2.613,0.921c-0.501-0.519-1.668-1.108-3.326-1.357l-0.283-0.043l0,4.411l0.203,0.037
			c1.789,0.319,3.253,0.735,4.235,1.203c0.444,0.214,0.778,0.424,1.021,0.641c0.09,0.083,0.169,0.166,0.241,0.245
			c0.592,0.675,0.893,1.424,0.893,2.222c0,2.296-2.621,4.199-6.375,4.628l-0.218,0.024l-0.001,2.435L27.386,45.585z M30.084,40.429
			l0.283-0.043c2.128-0.324,3.612-1.254,3.612-1.887c0.003-0.628-1.479-1.554-3.612-1.876l-0.283-0.042L30.084,40.429z
			 M27.106,29.761c-2.351,0.313-3.799,1.323-3.803,1.909c0.001,0.586,1.448,1.594,3.803,1.907l0.279,0.038v-3.892L27.106,29.761z"/>
	</g>

</svg>