<?xml version="1.0" encoding="utf-8"?>
<!-- Generator: Adobe Illustrator 16.0.0, SVG Export Plug-In . SVG Version: 6.00 Build 0)  -->
<!DOCTYPE svg PUBLIC "-//W3C//DTD SVG 1.1//EN" "http://www.w3.org/Graphics/SVG/1.1/DTD/svg11.dtd">
<svg version="1.1" xmlns="http://www.w3.org/2000/svg" xmlns:xlink="http://www.w3.org/1999/xlink" x="0px" y="0px" width="64px"
	 height="64px" viewBox="0 0 64 64" enable-background="new 0 0 64 64" xml:space="preserve">

	<g id="icon-14" viewBox="original-file's-viewBox">
		<g>
			<g>
				<path fill="#FFFFFF" d="M46.863,13.758h-0.622v3.191h0.622c0.742,0,1.368,0.627,1.368,1.368v39.155
					c0,0.741-0.626,1.367-1.368,1.367H16.215c-0.742,0-1.368-0.626-1.368-1.367V18.316c0-0.741,0.626-1.368,1.368-1.368h0.622v-3.191
					h-0.622c-2.507,0-4.559,2.051-4.559,4.559v39.155c0,2.507,2.052,4.559,4.559,4.559h30.648c2.508,0,4.56-2.052,4.56-4.559V18.316
					C51.423,15.809,49.371,13.758,46.863,13.758z"/>
			</g>
			<g>
				<g>
					<rect x="19.687" y="39.694" fill="#FFFFFF" width="5.471" height="3.191"/>
				</g>
				<g>
					<rect x="28.804" y="39.694" fill="#FFFFFF" width="5.47" height="3.191"/>
				</g>
				<g>
					<rect x="37.922" y="39.694" fill="#FFFFFF" width="5.471" height="3.191"/>
				</g>
			</g>
			<g>
				<g>
					<rect x="19.687" y="46.076" fill="#FFFFFF" width="5.471" height="3.191"/>
				</g>
				<g>
					<rect x="28.804" y="46.076" fill="#FFFFFF" width="5.47" height="3.191"/>
				</g>
				<g>
					<rect x="37.922" y="46.076" fill="#FFFFFF" width="5.471" height="3.191"/>
				</g>
			</g>
			<g>
				<g>
					<rect x="19.687" y="52.459" fill="#FFFFFF" width="5.471" height="3.191"/>
				</g>
				<g>
					<rect x="28.804" y="52.459" fill="#FFFFFF" width="5.47" height="3.191"/>
				</g>
				<g>
					<rect x="37.922" y="52.459" fill="#FFFFFF" width="5.471" height="3.191"/>
				</g>
			</g>
			<g>
				<path fill="#FFFFFF" d="M19.687,26.536v8.935h23.706v-8.935H19.687z M40.202,32.279H22.879v-2.553h17.323V32.279z"/>
			</g>
			<path fill="#FFFFFF" d="M44.108,20.048h-0.669V2.566H27.11l-0.034-0.039l-0.044,0.039h-0.033L25.08,4.276l-5.461,4.786
				l0.041,0.046L19.64,9.126v10.922h-0.67c-0.881,0-1.595,0.714-1.595,1.595c0,0.882,0.714,1.596,1.595,1.596h25.139
				c0.881,0,1.595-0.714,1.595-1.596C45.703,20.762,44.989,20.048,44.108,20.048z M27.63,6.286v4.121h-4.703L27.63,6.286z
				 M22.831,13.597h7.99v-7.84h9.427v14.284H22.831V13.597z"/>
		</g>
	</g>

</svg>