<?xml version="1.0" encoding="utf-8"?>
<!-- Generator: Adobe Illustrator 16.0.0, SVG Export Plug-In . SVG Version: 6.00 Build 0)  -->
<!DOCTYPE svg PUBLIC "-//W3C//DTD SVG 1.1//EN" "http://www.w3.org/Graphics/SVG/1.1/DTD/svg11.dtd">
<svg version="1.1" xmlns="http://www.w3.org/2000/svg" xmlns:xlink="http://www.w3.org/1999/xlink" x="0px" y="0px" width="64px"
	 height="64px" viewBox="0 0 64 64" enable-background="new 0 0 64 64" xml:space="preserve">

	<g id="icon-9" viewBox="original-file's-viewBox">
		<g>
			<path fill="#FFFFFF" d="M22.693,25.4c0.217,0.428,0.616,0.735,1.085,0.837c0.47,0.102,0.959-0.014,1.335-0.314l7.091-5.677
				l3.135,11.683c0.163,0.611,0.674,1.068,1.299,1.164c0.626,0.093,1.249-0.187,1.589-0.721l5.081-7.985l11.735,17.236
				c0.309,0.454,0.81,0.698,1.32,0.698c0.309,0,0.621-0.09,0.896-0.277c0.729-0.497,0.916-1.488,0.42-2.217L44.582,20.588
				c-0.302-0.443-0.79-0.695-1.344-0.698c-0.537,0.008-1.033,0.286-1.321,0.739l-4.436,6.97l-2.827-10.537
				c-0.14-0.52-0.533-0.935-1.045-1.103c-0.51-0.167-1.074-0.066-1.494,0.271l-7.465,5.976l-4.856-9.556
				c-0.399-0.786-1.359-1.099-2.145-0.7c-0.785,0.399-1.099,1.359-0.7,2.145L22.693,25.4z"/>
			<polygon fill="#FFFFFF" points="59.586,47.213 12.371,47.213 12.371,9.222 9.179,9.222 9.179,15.288 4.348,15.288 4.348,18.479 
				9.179,18.479 9.179,28.143 4.348,28.143 4.348,31.333 9.179,31.333 9.179,40.997 4.348,40.997 4.348,44.188 9.179,44.188 
				9.179,47.213 9.179,50.252 9.179,50.403 15.671,50.403 15.671,55.057 18.862,55.057 18.862,50.403 27.108,50.403 27.108,55.057 
				30.299,55.057 30.299,50.403 38.546,50.403 38.546,55.057 41.737,55.057 41.737,50.403 49.982,50.403 49.982,55.057 
				53.174,55.057 53.174,50.403 59.586,50.403 		"/>
		</g>
	</g>

</svg>