<?xml version="1.0" encoding="utf-8"?>
<!-- Generator: Adobe Illustrator 16.0.0, SVG Export Plug-In . SVG Version: 6.00 Build 0)  -->
<!DOCTYPE svg PUBLIC "-//W3C//DTD SVG 1.1//EN" "http://www.w3.org/Graphics/SVG/1.1/DTD/svg11.dtd">
<svg version="1.1" xmlns="http://www.w3.org/2000/svg" xmlns:xlink="http://www.w3.org/1999/xlink" x="0px" y="0px" width="64px"
	 height="64px" viewBox="0 0 64 64" enable-background="new 0 0 64 64" xml:space="preserve">

	<g id="icon-8" viewBox="original-file's-viewBox">
		<g>
			<path fill="#FFFFFF" d="M17.774,41.436c0.264,0.167,0.559,0.246,0.85,0.246c0.529,0,1.047-0.264,1.351-0.744l7.076-11.218
				l5.007,7.177c0.267,0.383,0.689,0.629,1.153,0.675c0.467,0.046,0.927-0.115,1.263-0.439l7.231-6.967l5.307,5.004
				c0.383,0.362,0.922,0.51,1.438,0.397c0.516-0.114,0.941-0.476,1.139-0.966l8.51-21.274c0.327-0.818-0.07-1.747-0.89-2.074
				c-0.817-0.326-1.745,0.071-2.073,0.889l-7.64,19.098l-4.707-4.439c-0.62-0.585-1.589-0.579-2.201,0.012l-6.98,6.726l-5.313-7.616
				c-0.306-0.438-0.792-0.711-1.346-0.682c-0.535,0.013-1.027,0.292-1.313,0.744l-8.358,13.252
				C16.806,39.98,17.029,40.966,17.774,41.436z"/>
			<polygon fill="#FFFFFF" points="59.565,47.213 12.349,47.213 12.349,9.222 9.158,9.222 9.158,15.288 4.327,15.288 4.327,18.479 
				9.158,18.479 9.158,28.143 4.327,28.143 4.327,31.333 9.158,31.333 9.158,40.997 4.327,40.997 4.327,44.188 9.158,44.188 
				9.158,47.213 9.158,50.252 9.158,50.403 15.65,50.403 15.65,55.057 18.841,55.057 18.841,50.403 27.086,50.403 27.086,55.057 
				30.278,55.057 30.278,50.403 38.524,50.403 38.524,55.057 41.716,55.057 41.716,50.403 49.961,50.403 49.961,55.057 
				53.152,55.057 53.152,50.403 59.565,50.403 		"/>
		</g>
	</g>

</svg>