<?xml version="1.0" encoding="utf-8"?>
<!-- Generator: Adobe Illustrator 16.0.0, SVG Export Plug-In . SVG Version: 6.00 Build 0)  -->
<!DOCTYPE svg PUBLIC "-//W3C//DTD SVG 1.1//EN" "http://www.w3.org/Graphics/SVG/1.1/DTD/svg11.dtd">
<svg version="1.1" xmlns="http://www.w3.org/2000/svg" xmlns:xlink="http://www.w3.org/1999/xlink" x="0px" y="0px" width="64px"
	 height="64px" viewBox="0 0 64 64" enable-background="new 0 0 64 64" xml:space="preserve">

	<g id="icon-19" viewBox="original-file's-viewBox">
		<path fill="#FFFFFF" d="M61.385,34.732C59.236,20.507,46.752,9.781,32.345,9.781c-0.208,0-0.415,0.01-0.623,0.015
			c-0.145-0.018-0.288-0.012-0.428,0.01C17.335,10.313,5.401,20.854,3.305,34.732c-0.13,0.865,0.465,1.672,1.332,1.803
			c0.501,0.076,0.979-0.098,1.321-0.421c8.536-4.69,13.447,0.479,13.659,0.711c0.313,0.346,0.744,0.521,1.176,0.521
			c0.376,0,0.754-0.133,1.057-0.403c0.104-0.094,0.188-0.202,0.262-0.313c0.02-0.013,0.041-0.021,0.06-0.035
			c9.483-6.831,19.83-0.041,20.272,0.255c0.013,0.009,0.028,0.012,0.041,0.02c0.02,0.021,0.035,0.044,0.057,0.063
			c0.302,0.274,0.683,0.409,1.062,0.409c0.432,0,0.861-0.174,1.175-0.516c0.205-0.223,5.125-5.418,13.688-0.695
			c0.157,0.087,0.323,0.138,0.491,0.166c0.252,0.163,0.545,0.257,0.856,0.257c0.078,0,0.158-0.005,0.239-0.018
			C60.919,36.404,61.516,35.598,61.385,34.732z M7.118,32.09c2.595-9.228,10.166-16.335,19.411-18.473
			c-2.973,3.193-6.255,8.944-7.236,19.081C16.779,31.293,12.59,30.01,7.118,32.09z M22.484,32.663
			c1.413-13.578,7.255-18.121,9.476-19.37c2.24,1.229,8.046,5.71,9.444,19.429C37.45,30.934,29.901,28.656,22.484,32.663z
			 M44.617,32.983c-0.966-10.545-4.411-16.399-7.464-19.578c9.743,1.848,17.804,9.19,20.455,18.815
			C51.601,29.811,47.104,31.455,44.617,32.983z"/>
		<g>
			<path fill="#FFFFFF" d="M34.791,36.296v18.24c0,1.125-0.915,2.038-2.039,2.038h-0.815c-1.125,0-2.039-0.913-2.039-2.038v-1.108
				h-3.171v1.108c0,2.873,2.337,5.209,5.209,5.209h0.815c2.872,0,5.21-2.336,5.21-5.209V36.385
				C36.927,36.093,35.945,36.093,34.791,36.296z"/>
		</g>
		<g>
			<path fill="#FFFFFF" d="M33.931,4.276c0-0.875-0.711-1.585-1.586-1.585c-0.875,0-1.585,0.71-1.585,1.585v2.673h3.171V4.276z"/>
		</g>
	</g>

</svg>