<?xml version="1.0" encoding="utf-8"?>
<!-- Generator: Adobe Illustrator 16.0.0, SVG Export Plug-In . SVG Version: 6.00 Build 0)  -->
<!DOCTYPE svg PUBLIC "-//W3C//DTD SVG 1.1//EN" "http://www.w3.org/Graphics/SVG/1.1/DTD/svg11.dtd">
<svg version="1.1" xmlns="http://www.w3.org/2000/svg" xmlns:xlink="http://www.w3.org/1999/xlink" x="0px" y="0px" width="64px"
	 height="64px" viewBox="0 0 64 64" enable-background="new 0 0 64 64" xml:space="preserve">

	<g id="icon-5" viewBox="original-file's-viewBox">
		<path fill="#FFFFFF" d="M59.787,21.96l-6.766-11.212c-0.056-0.133-0.133-0.259-0.226-0.374l-0.018-0.028
			c-0.288-0.479-0.807-0.771-1.365-0.771H11.665c-0.56,0-1.078,0.292-1.367,0.771L3.29,21.96c-0.009,0.015-0.011,0.032-0.019,0.047
			c-0.069,0.123-0.124,0.254-0.159,0.394c-0.003,0.015-0.01,0.029-0.013,0.043c-0.024,0.11-0.039,0.224-0.039,0.341
			c0,0.033,0.008,0.063,0.01,0.095c0.002,0.034,0.006,0.067,0.01,0.102c0.019,0.149,0.05,0.294,0.107,0.427
			c0,0.001,0.001,0.002,0.001,0.003c0.061,0.142,0.146,0.269,0.243,0.386c0.011,0.013,0.015,0.029,0.027,0.042l26.834,30.438
			c0.308,0.351,0.747,0.541,1.197,0.541c0.016,0,0.032,0,0.048-0.001c0.467,0.031,0.926-0.177,1.245-0.54L59.618,23.84
			C60.08,23.317,60.147,22.557,59.787,21.96z M11.693,14.211l5.025,6.978H7.483L11.693,14.211z M41.052,24.38l-9.465,23.947
			L22.121,24.38H41.052z M23.505,21.189l8.082-8.155l8.083,8.155H23.505z M35.813,12.766h12.775l-5.377,7.466L35.813,12.766z
			 M19.961,20.231l-5.376-7.466h12.774L19.961,20.231z M18.69,24.38l8.534,21.59L8.19,24.38H18.69z M44.483,24.38h10.404
			l-18.86,21.393L44.483,24.38z M46.455,21.189l4.973-6.906l4.168,6.906H46.455z"/>
	</g>

</svg>