<?xml version="1.0" encoding="utf-8"?>
<!-- Generator: Adobe Illustrator 16.0.0, SVG Export Plug-In . SVG Version: 6.00 Build 0)  -->
<!DOCTYPE svg PUBLIC "-//W3C//DTD SVG 1.1//EN" "http://www.w3.org/Graphics/SVG/1.1/DTD/svg11.dtd">
<svg version="1.1" xmlns="http://www.w3.org/2000/svg" xmlns:xlink="http://www.w3.org/1999/xlink" x="0px" y="0px" width="64px"
	 height="64px" viewBox="0 0 64 64" enable-background="new 0 0 64 64" xml:space="preserve">

	<g id="icon-7" viewBox="original-file's-viewBox">
		<g>
			<path fill="#FFFFFF" d="M28.47,34.868V10.171C15.028,10.408,4.203,21.37,4.203,34.868c0,13.497,10.825,24.461,24.267,24.696
				c0.147,0.003,0.293,0.012,0.441,0.012c13.646,0,24.708-11.063,24.708-24.708H28.47z M25.279,13.668v6.371H13.403
				C16.529,16.773,20.652,14.466,25.279,13.668z M10.877,23.23h14.401v5.266H8.39C8.98,26.619,9.822,24.852,10.877,23.23z
				 M7.394,34.868c0-1.082,0.101-2.14,0.259-3.182h17.626v3.182v0.588l-1.842,1.496H7.498C7.43,36.266,7.394,35.57,7.394,34.868z
				 M11.142,46.932c-1.398-2.045-2.457-4.335-3.084-6.788h11.447L11.142,46.932z M28.911,56.386c-0.052,0-0.103-0.003-0.153-0.005
				l-0.231-0.007c-6.064-0.106-11.536-2.773-15.393-6.948L27.137,38.06h23.055C48.646,48.416,39.691,56.386,28.911,56.386z"/>
			<path fill="#FFFFFF" d="M34.813,4.703c-0.149,0-0.294,0.008-0.441,0.011v24.697h25.149C59.521,15.765,48.458,4.703,34.813,4.703z
				 M37.562,8.069c9.522,1.22,17.119,8.689,18.531,18.151H37.562V8.069z"/>
		</g>
	</g>

</svg>