<?xml version="1.0" encoding="utf-8"?>
<!-- Generator: Adobe Illustrator 16.0.0, SVG Export Plug-In . SVG Version: 6.00 Build 0)  -->
<!DOCTYPE svg PUBLIC "-//W3C//DTD SVG 1.1//EN" "http://www.w3.org/Graphics/SVG/1.1/DTD/svg11.dtd">
<svg version="1.1" xmlns="http://www.w3.org/2000/svg" xmlns:xlink="http://www.w3.org/1999/xlink" x="0px" y="0px" width="64px"
	 height="64px" viewBox="0 0 64 64" enable-background="new 0 0 64 64" xml:space="preserve">

	<g id="icon-15" viewBox="original-file's-viewBox">
		<g>
			<g>
				<path fill="#FFFFFF" d="M53.977,36.761v19.35H6.191V30.405h30.066c0.102-0.247,0.211-0.502,0.341-0.779l0.972-2.412H3v32.088
					h54.167V28.835l-3.179,7.898C53.984,36.742,53.98,36.751,53.977,36.761z"/>
			</g>
			<g>
				<path fill="#FFFFFF" d="M40.406,46.408c-0.2,0-0.396-0.038-0.583-0.113c-0.8-0.322-1.19-1.235-0.869-2.035l0.975-2.418
					c0.02-0.05,0.024-0.103,0.015-0.154l-1.666-8.73c0.171-0.705,0.367-1.237,0.732-2.004l6.344-15.748
					c0.026-0.068,0.026-0.143-0.002-0.209c-0.028-0.068-0.082-0.119-0.149-0.147l-2.421-0.973c-0.034-0.013-0.068-0.02-0.103-0.02
					c-0.108,0-0.211,0.064-0.254,0.171l-2.229,5.533c-0.234,0.583-0.828,0.973-1.476,0.973c-0.194,0-0.383-0.036-0.561-0.106
					c-0.386-0.155-0.688-0.454-0.854-0.838c-0.163-0.383-0.167-0.809-0.01-1.197L41.604,7.7c0.234-0.583,0.825-0.974,1.471-0.974
					c0.195,0,0.385,0.036,0.563,0.106c0.799,0.323,1.188,1.235,0.866,2.036l-0.706,1.75c-0.026,0.067-0.026,0.143,0.002,0.21
					c0.028,0.066,0.083,0.119,0.149,0.146l2.42,0.973c0.034,0.013,0.069,0.02,0.103,0.02c0.108,0,0.211-0.064,0.254-0.171
					l1.501-3.731c0.82-2.039,2.777-3.356,4.986-3.356c0.683,0,1.352,0.13,1.987,0.385l2.374,0.956
					c1.323,0.531,2.361,1.553,2.925,2.873c0.563,1.321,0.579,2.778,0.047,4.1l-9.214,22.895c-0.261,0.591-0.527,1.184-0.888,1.849
					l-0.063,0.06l-7.475,5.127c-0.045,0.03-0.079,0.073-0.1,0.123l-0.948,2.352C41.617,46.023,41.047,46.408,40.406,46.408z
					 M42.188,34.836c-0.062,0-0.123,0.021-0.173,0.061c-0.076,0.063-0.114,0.162-0.096,0.261l0.678,3.809
					c0.017,0.092,0.079,0.169,0.164,0.205c0.034,0.014,0.069,0.021,0.105,0.021c0.055,0,0.109-0.017,0.155-0.049l3.221-2.242
					c0.083-0.057,0.127-0.155,0.116-0.255s-0.077-0.186-0.17-0.224l-3.898-1.566C42.257,34.842,42.223,34.836,42.188,34.836z
					 M48.509,16.201c-0.108,0-0.211,0.065-0.253,0.172l-5.965,14.815c-0.027,0.068-0.027,0.144,0.002,0.21
					c0.028,0.066,0.082,0.119,0.149,0.146l6.01,2.418c0.034,0.013,0.068,0.02,0.103,0.02c0.108,0,0.211-0.064,0.254-0.172
					l5.964-14.815c0.026-0.067,0.026-0.143-0.002-0.209c-0.028-0.067-0.083-0.12-0.149-0.147l-6.01-2.418
					C48.578,16.208,48.543,16.201,48.509,16.201z M53.237,7.843c-0.912,0-1.779,0.572-2.108,1.391l-1.501,3.73
					c-0.056,0.139,0.012,0.299,0.151,0.355l6.008,2.417c0.034,0.014,0.068,0.02,0.103,0.02c0.108,0,0.211-0.065,0.254-0.171
					l1.503-3.729c0.219-0.547,0.211-1.152-0.024-1.707c-0.236-0.552-0.667-0.977-1.214-1.197l-2.374-0.956
					C53.781,7.894,53.514,7.843,53.237,7.843z"/>
			</g>
			<g>
				<path fill="#FFFFFF" d="M31.001,38.081H11.854c-0.88,0-1.596-0.714-1.596-1.596c0-0.881,0.715-1.596,1.596-1.596h19.147
					c0.882,0,1.596,0.715,1.596,1.596C32.597,37.367,31.883,38.081,31.001,38.081z"/>
			</g>
			<g>
				<path fill="#FFFFFF" d="M31.001,44.449H11.854c-0.88,0-1.596-0.715-1.596-1.596c0-0.882,0.715-1.596,1.596-1.596h19.147
					c0.882,0,1.596,0.714,1.596,1.596C32.597,43.734,31.883,44.449,31.001,44.449z"/>
			</g>
			<g>
				<path fill="#FFFFFF" d="M46.167,52.194H33.885c-0.882,0-1.596-0.715-1.596-1.596s0.714-1.596,1.596-1.596h12.282
					c0.882,0,1.596,0.715,1.596,1.596S47.049,52.194,46.167,52.194z"/>
			</g>
		</g>
	</g>

</svg>