<?xml version="1.0" encoding="utf-8"?>
<!-- Generator: Adobe Illustrator 16.0.0, SVG Export Plug-In . SVG Version: 6.00 Build 0)  -->
<!DOCTYPE svg PUBLIC "-//W3C//DTD SVG 1.1//EN" "http://www.w3.org/Graphics/SVG/1.1/DTD/svg11.dtd">
<svg version="1.1" xmlns="http://www.w3.org/2000/svg" xmlns:xlink="http://www.w3.org/1999/xlink" x="0px" y="0px" width="64px"
	 height="64px" viewBox="0 0 64 64" enable-background="new 0 0 64 64" xml:space="preserve">

	<g id="icon-27" viewBox="original-file's-viewBox">
		<g>
			<path fill="#FFFFFF" d="M42.904,21.63c1.055-0.218,2.146-0.33,3.256-0.367c-2.89-8.146-10.188-14.198-19.028-15.294
				c-0.047-0.045-0.075-0.072-0.083-0.078l-0.055,0.061c-0.902-0.106-1.82-0.167-2.752-0.167c-0.923,0-1.831,0.06-2.725,0.164
				l-0.051-0.057c-0.007,0.006-0.034,0.032-0.078,0.074C9.914,7.374,1.053,17.163,1.053,29.04c0,12.843,10.361,23.254,23.19,23.254
				c2.319,0,4.557-0.344,6.671-0.976c-0.516-0.756-0.964-1.556-1.37-2.382c-0.076-0.154-0.152-0.308-0.224-0.465
				c-0.463-1.011-0.836-2.067-1.12-3.161c-0.701,1.067-1.495,2.152-2.357,3.249v-8.573c0.59,0.026,1.17,0.068,1.738,0.131
				c0.02-1.046,0.125-2.069,0.306-3.067c-0.667-0.074-1.351-0.127-2.044-0.159v-6.251H30.3c0.682-1.14,1.475-2.2,2.37-3.171h-6.826
				V21.25c2.348-0.111,4.546-0.479,6.576-1.005c0.618,1.891,1.073,3.971,1.241,6.219c0.878-0.825,1.829-1.566,2.851-2.216
				c-0.264-1.737-0.682-3.364-1.184-4.893c1.879-0.67,3.563-1.455,5.043-2.253C41.398,18.486,42.257,20.005,42.904,21.63z
				 M22.672,18.118c-1.726-0.113-3.53-0.392-5.402-0.866c1.797-3.924,4.122-6.719,5.402-8.085V18.118z M17.991,9.972
				c-1.206,1.675-2.538,3.827-3.666,6.383c-1.312-0.468-2.651-1.038-4.018-1.722C12.456,12.54,15.071,10.933,17.991,9.972z
				 M8.146,17.091c1.718,0.899,3.403,1.63,5.049,2.217c-0.804,2.453-1.364,5.189-1.479,8.16H4.275
				C4.576,23.601,5.97,20.038,8.146,17.091z M11.768,30.639c0.182,2.558,0.718,5.264,1.714,8.09
				c-1.726,0.602-3.498,1.361-5.306,2.304c-2.192-2.946-3.591-6.518-3.897-10.394H11.768z M14.67,41.665
				c0.985,2.146,2.244,4.355,3.829,6.615c-3.108-0.931-5.896-2.595-8.163-4.79C11.813,42.754,13.258,42.153,14.67,41.665z
				 M22.672,48.577c-2.115-2.689-3.728-5.296-4.927-7.806c1.703-0.403,3.348-0.647,4.927-0.754V48.577z M22.672,36.903
				c-1.97,0.106-4.028,0.401-6.163,0.933c-0.917-2.52-1.428-4.925-1.626-7.197h7.789V36.903z M14.799,27.468
				c0.095-2.649,0.595-5.08,1.311-7.257c2.277,0.595,4.469,0.919,6.563,1.03v6.228H14.799z M25.843,18.156V9.167
				c1.29,1.375,3.647,4.212,5.454,8.207C29.604,17.783,27.784,18.068,25.843,18.156z M30.52,9.965
				c2.959,0.977,5.61,2.628,7.784,4.764c-1.211,0.634-2.571,1.243-4.063,1.771C33.099,13.882,31.749,11.67,30.52,9.965z"/>
			<g>
				<path fill="#FFFFFF" d="M46.817,56.827c-9.013,0-16.345-7.333-16.345-16.344c0-9.013,7.333-16.344,16.345-16.344
					c9.011,0,16.344,7.331,16.344,16.344C63.161,49.494,55.828,56.827,46.817,56.827z M46.817,27.311
					c-7.265,0-13.174,5.908-13.174,13.173c0,7.263,5.909,13.173,13.174,13.173c7.262,0,13.173-5.91,13.173-13.173
					C59.99,33.219,54.079,27.311,46.817,27.311z"/>
			</g>
		</g>
		<path fill="#FFFFFF" d="M45.528,50.856l-0.001-2.399l-0.22-0.022c-3.19-0.322-5.629-1.703-6.314-3.545l2.671-0.655
			c0.453,0.574,1.774,1.243,3.587,1.485l0.277,0.037v-4.199l-0.205-0.034c-2.48-0.397-3.879-1-4.491-1.323l-0.103-0.055
			c-1.269-0.856-1.938-1.933-1.938-3.113c0-2.33,2.681-4.228,6.516-4.613l0.221-0.022v-2.34h2.682l0.002,2.356l0.216,0.024
			c2.872,0.329,5.123,1.525,5.967,3.15l-2.598,0.916c-0.497-0.517-1.656-1.102-3.304-1.35l-0.281-0.043v4.384l0.201,0.037
			c1.778,0.316,3.233,0.73,4.208,1.196c0.44,0.212,0.773,0.419,1.016,0.635c0.089,0.084,0.169,0.167,0.241,0.244
			c0.586,0.671,0.887,1.414,0.887,2.209c0,2.281-2.605,4.173-6.337,4.598l-0.216,0.024l-0.002,2.419H45.528z M48.212,45.733
			l0.281-0.044c2.114-0.322,3.589-1.246,3.589-1.874c0.003-0.625-1.471-1.545-3.589-1.865l-0.281-0.041V45.733z M45.251,35.132
			c-2.336,0.312-3.774,1.314-3.778,1.897c0,0.584,1.438,1.583,3.778,1.895l0.277,0.037v-3.866L45.251,35.132z"/>
	</g>

</svg>