<?xml version="1.0" encoding="utf-8"?>
<!-- Generator: Adobe Illustrator 16.0.0, SVG Export Plug-In . SVG Version: 6.00 Build 0)  -->
<!DOCTYPE svg PUBLIC "-//W3C//DTD SVG 1.1//EN" "http://www.w3.org/Graphics/SVG/1.1/DTD/svg11.dtd">
<svg version="1.1" xmlns="http://www.w3.org/2000/svg" xmlns:xlink="http://www.w3.org/1999/xlink" x="0px" y="0px" width="64px"
	 height="64px" viewBox="0 0 64 64" enable-background="new 0 0 64 64" xml:space="preserve">

	<g id="icon-28" viewBox="original-file's-viewBox">
		<g>
			<g>
				<rect x="10.998" y="25.895" fill="#FFFFFF" width="3.171" height="15.537"/>
			</g>
			<g>
				<rect x="20.739" y="25.895" fill="#FFFFFF" width="3.171" height="15.537"/>
			</g>
			<g>
				<rect x="30.479" y="25.895" fill="#FFFFFF" width="3.172" height="15.537"/>
			</g>
			<g>
				<rect x="40.22" y="25.895" fill="#FFFFFF" width="3.171" height="15.537"/>
			</g>
			<g>
				<rect x="49.96" y="25.895" fill="#FFFFFF" width="3.171" height="15.537"/>
			</g>
		</g>
		<g>
			<path fill="#FFFFFF" d="M60.899,54.857H3.231c-0.875,0-1.585-0.711-1.585-1.585c0-0.876,0.71-1.586,1.585-1.586h57.668
				c0.876,0,1.586,0.71,1.586,1.586C62.485,54.146,61.775,54.857,60.899,54.857z"/>
		</g>
		<g>
			<path fill="#FFFFFF" d="M57.881,22.365H6.25c-0.742,0-1.384-0.514-1.547-1.238c-0.162-0.724,0.198-1.464,0.869-1.781L31.403,7.117
				c0.43-0.204,0.928-0.204,1.357,0l25.8,12.229c0.669,0.318,1.029,1.057,0.867,1.781C59.265,21.851,58.622,22.365,57.881,22.365z
				 M13.305,19.193h37.529l-18.752-8.889L13.305,19.193z"/>
		</g>
		<g>
			<path fill="#FFFFFF" d="M57.978,48.133H6.152c-0.875,0-1.586-0.711-1.586-1.585c0-0.876,0.71-1.586,1.586-1.586h51.826
				c0.876,0,1.586,0.71,1.586,1.586C59.563,47.422,58.854,48.133,57.978,48.133z"/>
		</g>
	</g>

</svg>