<?xml version="1.0" encoding="utf-8"?>
<!-- Generator: Adobe Illustrator 16.0.0, SVG Export Plug-In . SVG Version: 6.00 Build 0)  -->
<!DOCTYPE svg PUBLIC "-//W3C//DTD SVG 1.1//EN" "http://www.w3.org/Graphics/SVG/1.1/DTD/svg11.dtd">
<svg version="1.1" xmlns="http://www.w3.org/2000/svg" xmlns:xlink="http://www.w3.org/1999/xlink" x="0px" y="0px" width="64px"
	 height="64px" viewBox="0 0 64 64" enable-background="new 0 0 64 64" xml:space="preserve">

	<g id="icon-30" viewBox="original-file's-viewBox">
		<g>
			<g>
				<path fill="#FFFFFF" d="M19.993,17.294c-0.876,0-1.585-0.71-1.585-1.586v-4.083c0-0.876,0.709-1.586,1.585-1.586
					s1.585,0.71,1.585,1.586v4.083C21.578,16.583,20.869,17.294,19.993,17.294z"/>
			</g>
			<g>
				<path fill="#FFFFFF" d="M25.424,17.294c-0.876,0-1.586-0.71-1.586-1.586v-4.083c0-0.876,0.71-1.586,1.586-1.586
					s1.585,0.71,1.585,1.586v4.083C27.009,16.583,26.3,17.294,25.424,17.294z"/>
			</g>
			<g>
				<path fill="#FFFFFF" d="M30.834,17.294c-0.876,0-1.586-0.71-1.586-1.586v-4.083c0-0.876,0.71-1.586,1.586-1.586
					s1.585,0.71,1.585,1.586v4.083C32.42,16.583,31.71,17.294,30.834,17.294z"/>
			</g>
			<g>
				<path fill="#FFFFFF" d="M44.018,29.573c-0.876,0-1.586-0.71-1.586-1.586v-4.083c0-0.875,0.71-1.586,1.586-1.586
					s1.586,0.711,1.586,1.586v4.083C45.604,28.863,44.894,29.573,44.018,29.573z"/>
			</g>
			<rect x="29.249" y="24.361" fill="#FFFFFF" width="10.873" height="3.171"/>
			<path fill="#FFFFFF" d="M7.37,46.912l-1.731,9.057h52.914l-1.741-9.057H54.02v-7.123h2.698v-3.171H54.02v-9.086h2.698v-3.171
				H54.02v-9.108h2.698v-3.171H54.02V8.708c0-0.876-0.71-1.585-1.586-1.585s-1.585,0.709-1.585,1.585v3.374H34.685v3.171h16.164
				v9.108h-3.026v3.171h3.026v9.086h-2.98v3.171h2.98v7.123H13.281v-7.123h16.042v-3.171H13.281v-9.086h2.859v-3.171h-2.859v-9.108
				h2.859v-3.171h-2.859V8.708c0-0.876-0.707-1.585-1.579-1.585c-0.871,0-1.578,0.709-1.578,1.585v3.374H7.326v3.171h2.799v9.108
				H7.326v3.171h2.799v9.086H7.326v3.171h2.799v7.123H7.37z M54.715,52.798H9.458l0.52-2.715h44.215L54.715,52.798z"/>
			<g>
				<path fill="#FFFFFF" d="M33.177,41.832c-0.876,0-1.586-0.712-1.586-1.586v-4.084c0-0.876,0.709-1.586,1.586-1.586
					c0.876,0,1.586,0.71,1.586,1.586v4.084C34.763,41.12,34.053,41.832,33.177,41.832z"/>
			</g>
			<g>
				<path fill="#FFFFFF" d="M38.607,41.832c-0.876,0-1.585-0.712-1.585-1.586v-4.084c0-0.876,0.709-1.586,1.585-1.586
					s1.586,0.71,1.586,1.586v4.084C40.193,41.12,39.483,41.832,38.607,41.832z"/>
			</g>
			<g>
				<path fill="#FFFFFF" d="M44.018,41.832c-0.876,0-1.586-0.712-1.586-1.586v-4.084c0-0.876,0.71-1.586,1.586-1.586
					s1.586,0.71,1.586,1.586v4.084C45.604,41.12,44.894,41.832,44.018,41.832z"/>
			</g>
			<g>
				<path fill="#FFFFFF" d="M19.993,29.574c-0.876,0-1.585-0.711-1.585-1.586v-4.083c0-0.876,0.709-1.586,1.585-1.586
					s1.585,0.71,1.585,1.586v4.083C21.578,28.863,20.869,29.574,19.993,29.574z"/>
			</g>
			<g>
				<path fill="#FFFFFF" d="M25.424,29.574c-0.876,0-1.586-0.711-1.586-1.586v-4.083c0-0.876,0.71-1.586,1.586-1.586
					s1.585,0.71,1.585,1.586v4.083C27.009,28.863,26.3,29.574,25.424,29.574z"/>
			</g>
		</g>
	</g>

</svg>