<svg id="stack" xmlns="http://www.w3.org/2000/svg" width="54.492" height="54.491" viewBox="0 0 54.492 54.491">
  <path id="Path_247" data-name="Path 247" d="M28.57,22.7H8.135A1.136,1.136,0,0,1,7,21.57V1.135A1.136,1.136,0,0,1,8.135,0H28.57A1.136,1.136,0,0,1,29.7,1.135V21.57A1.136,1.136,0,0,1,28.57,22.7Zm-19.3-2.27H27.434V2.27H9.27Z" transform="translate(8.893)" fill="#fff"/>
  <path id="Path_248" data-name="Path 248" d="M17.947,9.082H11.135A1.136,1.136,0,0,1,10,7.947V1.135A1.136,1.136,0,0,1,11.135,0h6.811a1.136,1.136,0,0,1,1.135,1.135V7.947A1.136,1.136,0,0,1,17.947,9.082ZM12.27,6.811h4.541V2.27H12.27Z" transform="translate(12.705)" fill="#fff"/>
  <path id="Path_249" data-name="Path 249" d="M24.7,31.7H3.135A1.136,1.136,0,0,1,2,30.57V10.135A1.136,1.136,0,0,1,3.135,9H24.7a1.136,1.136,0,0,1,1.135,1.135V30.57A1.136,1.136,0,0,1,24.7,31.7ZM4.27,29.434h19.3V11.27H4.27Z" transform="translate(2.541 11.434)" fill="#fff"/>
  <path id="Path_250" data-name="Path 250" d="M12.947,18.082H6.135A1.136,1.136,0,0,1,5,16.947V10.135A1.136,1.136,0,0,1,6.135,9h6.811a1.136,1.136,0,0,1,1.135,1.135v6.811A1.136,1.136,0,0,1,12.947,18.082ZM7.27,15.811h4.541V11.27H7.27Z" transform="translate(6.352 11.434)" fill="#fff"/>
  <path id="Path_251" data-name="Path 251" d="M34.2,31.7H12.635A1.136,1.136,0,0,1,11.5,30.57V10.135A1.136,1.136,0,0,1,12.635,9H34.2a1.136,1.136,0,0,1,1.135,1.135V30.57A1.136,1.136,0,0,1,34.2,31.7ZM13.77,29.434h19.3V11.27H13.77Z" transform="translate(14.611 11.434)" fill="#fff"/>
  <path id="Path_252" data-name="Path 252" d="M22.947,18.082H16.135A1.136,1.136,0,0,1,15,16.947V10.135A1.136,1.136,0,0,1,16.135,9h6.811a1.136,1.136,0,0,1,1.135,1.135v6.811A1.136,1.136,0,0,1,22.947,18.082Zm-5.676-2.27h4.541V11.27H17.27Z" transform="translate(19.057 11.434)" fill="#fff"/>
  <path id="Path_253" data-name="Path 253" d="M53.356,31.623H44.275a1.136,1.136,0,0,1-1.135-1.135V27.082H34.057v3.406a1.136,1.136,0,0,1-1.135,1.135H21.57a1.136,1.136,0,0,1-1.135-1.135V27.082H11.352v3.406a1.136,1.136,0,0,1-1.135,1.135H1.135A1.136,1.136,0,0,1,0,30.488V19.135A1.136,1.136,0,0,1,1.135,18H53.356a1.136,1.136,0,0,1,1.135,1.135V30.488A1.136,1.136,0,0,1,53.356,31.623Zm-7.947-2.27h6.811V20.27H2.27v9.082H9.082V25.947a1.136,1.136,0,0,1,1.135-1.135H21.57A1.136,1.136,0,0,1,22.7,25.947v3.406h9.082V25.947a1.136,1.136,0,0,1,1.135-1.135H44.275a1.136,1.136,0,0,1,1.135,1.135Z" transform="translate(0 22.869)" fill="#fff"/>
</svg>
