<svg xmlns="http://www.w3.org/2000/svg" width="109" height="109" viewBox="0 0 109 109">
  <g id="services2" transform="translate(-980 -1411)">
    <rect id="Rectangle_8" data-name="Rectangle 8" width="109" height="109" rx="54.5" transform="translate(980 1411)" fill="#fff"/>
    <g id="seo" transform="translate(1011.31 1442.31)">
      <path id="Path_7" data-name="Path 7" d="M116.971,91.33h20.793a3.41,3.41,0,0,1,3.4,3.413v9.092a.665.665,0,1,0,1.33,0V94.743A4.741,4.741,0,0,0,137.764,90H116.971a.665.665,0,1,0,0,1.33Z" transform="translate(-105.995 -82.021)" fill="#202020"/>
      <path id="Path_8" data-name="Path 8" d="M27.159,111.857H14.621a.665.665,0,0,0-.507.234l-3.767,4.434L6.58,112.092a.665.665,0,0,0-.507-.234H4.729a3.41,3.41,0,0,1-3.4-3.413v-13.7a3.41,3.41,0,0,1,3.4-3.413H7.892a.665.665,0,1,0,0-1.33H4.729A4.742,4.742,0,0,0,0,94.743v13.7a4.742,4.742,0,0,0,4.729,4.743H5.765l4.075,4.8a.665.665,0,0,0,1.013,0l4.075-4.8h12.23a.665.665,0,1,0,0-1.33Z" transform="translate(0 -82.021)" fill="#202020"/>
      <path id="Path_9" data-name="Path 9" d="M19.621,423.265H13.576a.665.665,0,0,0,0,1.33h6.045a1.537,1.537,0,0,1,0,3.074H2.862a1.537,1.537,0,0,1,0-3.074H3.45a.665.665,0,0,0,.539-.275l1.155-1.6,1.155,1.6a.665.665,0,0,0,.539.275H10.5a.665.665,0,0,0,0-1.33H7.177L5.683,421.2a.665.665,0,0,0-1.077,0L3.11,423.265H2.862a2.867,2.867,0,0,0,0,5.733H19.621a2.867,2.867,0,0,0,0-5.733Z" transform="translate(0 -383.609)" fill="#202020"/>
      <path id="Path_10" data-name="Path 10" d="M261.241,5.733h2.5a.665.665,0,1,0,0-1.33h-2.5a1.537,1.537,0,0,1,0-3.074H278A1.537,1.537,0,0,1,278,4.4h-.588a.665.665,0,0,0-.539.275l-1.155,1.6-1.155-1.6a.665.665,0,0,0-.539-.275h-7.208a.665.665,0,1,0,0,1.33h6.868L275.179,7.8a.665.665,0,0,0,1.077,0l1.495-2.066H278A2.867,2.867,0,0,0,278,0H261.241a2.867,2.867,0,0,0,0,5.733Z" transform="translate(-235.473)" fill="#202020"/>
      <path id="Path_11" data-name="Path 11" d="M103.02,181.028a.665.665,0,1,0,0,1.33h3.546a.665.665,0,0,0,.665-.665v-3.546a.665.665,0,0,0-.665-.665h-2.881v-2.216h2.881a.665.665,0,1,0,0-1.33H103.02a.665.665,0,0,0-.665.665v3.546a.665.665,0,0,0,.665.665H105.9v2.216Z" transform="translate(-93.281 -158.516)" fill="#202020"/>
      <path id="Path_12" data-name="Path 12" d="M181.564,175.266a.665.665,0,1,0,0-1.33h-3.546a.665.665,0,0,0-.665.665v7.092a.665.665,0,0,0,.665.665h3.546a.665.665,0,1,0,0-1.33h-2.881v-2.216h2.881a.665.665,0,1,0,0-1.33h-2.881v-2.216Z" transform="translate(-161.63 -158.516)" fill="#202020"/>
      <path id="Path_13" data-name="Path 13" d="M253.017,173.936a.665.665,0,0,0-.665.665v7.092a.665.665,0,0,0,.665.665h3.546a.665.665,0,0,0,.665-.665V174.6a.665.665,0,0,0-.665-.665Zm2.881,7.092h-2.216v-5.762H255.9Z" transform="translate(-229.981 -158.516)" fill="#202020"/>
      <path id="Path_14" data-name="Path 14" d="M345.2,275.476a.665.665,0,0,0-.561-.656l-.917-.146-.438-1.057.546-.753a.665.665,0,0,0-.068-.86l-1.878-1.878a.665.665,0,0,0-.861-.068l-.751.546-1.056-.437-.146-.918a.665.665,0,0,0-.657-.56h-2.655a.665.665,0,0,0-.656.561l-.145.918-1.055.438-.752-.546a.665.665,0,0,0-.861.068l-1.876,1.879a.665.665,0,0,0-.068.86l.546.752-.437,1.057-.917.146a.665.665,0,0,0-.56.657v2.656a.665.665,0,0,0,.561.656l.917.146L330.89,280l-.546.753a.665.665,0,0,0,.068.86l1.878,1.878a.665.665,0,0,0,.861.068l.751-.546,1.056.437.146.918a.665.665,0,0,0,.657.56h2.655a.665.665,0,0,0,.656-.561l.145-.918,1.055-.438.752.546a.665.665,0,0,0,.861-.068l1.876-1.879a.665.665,0,0,0,.068-.86l-.546-.752.437-1.058.917-.146a.665.665,0,0,0,.56-.657Zm-2.053,2.2a.665.665,0,0,0-.51.4l-.722,1.745a.665.665,0,0,0,.076.645l.431.594-1.074,1.076-.593-.431a.665.665,0,0,0-.645-.076l-1.743.723a.665.665,0,0,0-.4.51l-.115.725h-1.519l-.115-.725a.665.665,0,0,0-.4-.51l-1.744-.722a.665.665,0,0,0-.645.077l-.593.431-1.075-1.075.431-.594a.665.665,0,0,0,.076-.645l-.723-1.744a.665.665,0,0,0-.51-.4l-.724-.115V276.05l.724-.115a.665.665,0,0,0,.51-.4l.722-1.745a.664.664,0,0,0-.076-.645l-.431-.594,1.074-1.076.593.431a.665.665,0,0,0,.645.076l1.743-.723a.665.665,0,0,0,.4-.51l.115-.725h1.519l.115.725a.665.665,0,0,0,.4.51l1.744.722a.665.665,0,0,0,.645-.076l.593-.431,1.075,1.075-.431.594a.665.665,0,0,0-.076.645l.723,1.744a.665.665,0,0,0,.51.4l.724.115v1.521Z" transform="translate(-299.809 -244.87)" fill="#202020"/>
      <path id="Path_15" data-name="Path 15" d="M387.456,323.738a.665.665,0,0,0-.665.665,2.156,2.156,0,1,1-1.265-1.965.665.665,0,1,0,.551-1.21,3.488,3.488,0,1,0,2.044,3.176A.665.665,0,0,0,387.456,323.738Z" transform="translate(-347.356 -292.466)" fill="#202020"/>
    </g>
  </g>
</svg>
