<svg xmlns="http://www.w3.org/2000/svg" width="109" height="109" viewBox="0 0 109 109">
  <g id="services1" transform="translate(-308 -1411)">
    <rect id="Rectangle_6" data-name="Rectangle 6" width="109" height="109" rx="54.5" transform="translate(308 1411)" fill="#fff"/>
    <path id="writing" d="M43.5,38.765a.8.8,0,0,0-1.111.249A10.836,10.836,0,0,1,33.2,44.072H12.487A10.89,10.89,0,0,1,1.61,33.195V13.908a.8.8,0,1,0-1.61,0V33.195A12.5,12.5,0,0,0,12.487,45.682H33.2a12.437,12.437,0,0,0,10.551-5.806.8.8,0,0,0-.248-1.111ZM36.423,17.379l-6.136,6.136a.8.8,0,1,0,1.138,1.138l6.136-6.136a.8.8,0,1,0-1.138-1.138ZM53.775,3.971l-2.8-2.8a3.986,3.986,0,0,0-5.632,0L42.426,4.078A12.411,12.411,0,0,0,33.2,0H12.487A12.492,12.492,0,0,0,.279,9.851a.8.8,0,0,0,.618.956.844.844,0,0,0,.17.018.8.8,0,0,0,.786-.636,10.882,10.882,0,0,1,10.634-8.58H33.2a10.811,10.811,0,0,1,8.091,3.608l-8.558,8.558H10.287a.8.8,0,1,0,0,1.61H31.119L27.26,19.243H10.287a.8.8,0,1,0,0,1.61H25.651l-4.992,4.992A18.093,18.093,0,0,0,17.141,30.8L14.85,35.562a3.4,3.4,0,0,0,3.043,4.871,3.42,3.42,0,0,0,1.485-.343l2.309-1.111h0L24.137,37.8A18.106,18.106,0,0,0,29.1,34.282L44.073,19.3V33.195a10.925,10.925,0,0,1-.314,2.605.8.8,0,1,0,1.563.384,12.527,12.527,0,0,0,.36-2.989v-15.5l2.237-2.237h0L53.775,9.6a3.987,3.987,0,0,0,0-5.632ZM18.68,38.64A1.782,1.782,0,0,1,16.3,36.261l.679-1.411a19.928,19.928,0,0,1,3.111,3.111Zm4.759-2.29-1.862.9A21.553,21.553,0,0,0,17.7,33.364l.9-1.862a16.479,16.479,0,0,1,2.316-3.554l6.086,6.086a16.5,16.5,0,0,1-3.554,2.316Zm4.73-3.417-6.16-6.16L40.053,8.727l6.16,6.16ZM47.351,13.75l-6.16-6.16L43.178,5.6l6.161,6.16Zm5.285-5.285-2.16,2.16-6.16-6.16,2.16-2.16a2.375,2.375,0,0,1,3.355,0l2.8,2.8a2.376,2.376,0,0,1,0,3.355ZM10.287,9.917H35.4a.8.8,0,1,0,0-1.61H10.287a.8.8,0,1,0,0,1.61Zm0,0" transform="translate(334.615 1442.164)" fill="#202020"/>
  </g>
</svg>
