<svg xmlns="http://www.w3.org/2000/svg" width="109" height="109" viewBox="0 0 109 109">
  <g id="services4" transform="translate(-980 -1849)">
    <rect id="Rectangle_9" data-name="Rectangle 9" width="109" height="109" rx="54.5" transform="translate(980 1849)" fill="#fff"/>
    <g id="web-browser_1_" data-name="web-browser (1)" transform="translate(1011.011 1880.011)">
      <path id="Path_22" data-name="Path 22" d="M70.657,43.786A.657.657,0,0,1,70,43.129V41.217a.657.657,0,0,1,1.314,0v1.912A.657.657,0,0,1,70.657,43.786Z" transform="translate(-25.326 -15.228)" fill="#202020"/>
      <path id="Path_23" data-name="Path 23" d="M45.36,47.987H4.628A2.628,2.628,0,0,1,2,45.359V4.628A2.628,2.628,0,0,1,4.628,2H45.36a2.628,2.628,0,0,1,2.628,2.628V23.391a.657.657,0,0,1-1.314,0V4.628A1.314,1.314,0,0,0,45.36,3.314H4.628A1.314,1.314,0,0,0,3.314,4.628V45.359a1.314,1.314,0,0,0,1.314,1.314H45.36a1.314,1.314,0,0,0,1.314-1.314V41.05a.657.657,0,1,1,1.314,0v4.31A2.628,2.628,0,0,1,45.36,47.987Z" transform="translate(-2 -2)" fill="#202020"/>
      <path id="Path_24" data-name="Path 24" d="M70.657,53.735A.657.657,0,0,1,70,53.078V51.127a.657.657,0,0,1,1.314,0v1.951A.657.657,0,0,1,70.657,53.735Z" transform="translate(-25.326 -18.627)" fill="#202020"/>
      <path id="Path_25" data-name="Path 25" d="M47.33,19.314H2.657a.657.657,0,1,1,0-1.314H47.33a.657.657,0,1,1,0,1.314Z" transform="translate(-2 -7.489)" fill="#202020"/>
      <path id="Path_26" data-name="Path 26" d="M63.5,11.283h-1.78a.657.657,0,1,1,0-1.314H63.5a.657.657,0,0,1,0,1.314Z" transform="translate(-22.26 -4.734)" fill="#202020"/>
      <path id="Path_27" data-name="Path 27" d="M54.5,11.283h-1.78a.657.657,0,0,1,0-1.314H54.5a.657.657,0,1,1,0,1.314Z" transform="translate(-19.173 -4.734)" fill="#202020"/>
      <path id="Path_28" data-name="Path 28" d="M45.5,11.283h-1.78a.657.657,0,0,1,0-1.314H45.5a.657.657,0,0,1,0,1.314Z" transform="translate(-16.086 -4.734)" fill="#202020"/>
      <path id="Path_29" data-name="Path 29" d="M27.151,11.22H9.136a.657.657,0,0,1,0-1.314H27.151a.657.657,0,1,1,0,1.314Z" transform="translate(-4.222 -4.712)" fill="#202020"/>
      <path id="Path_30" data-name="Path 30" d="M23.482,38.964H11.657A.657.657,0,0,1,11,38.307V26.657A.657.657,0,0,1,11.657,26H23.482a.657.657,0,0,1,.657.657v11.65A.657.657,0,0,1,23.482,38.964ZM12.314,37.65H22.825V27.314H12.314Z" transform="translate(-5.087 -10.233)" fill="#202020"/>
      <path id="Path_31" data-name="Path 31" d="M53.081,27.481H36.657a.657.657,0,1,1,0-1.314H53.081a.657.657,0,0,1,0,1.314Z" transform="translate(-13.663 -10.29)" fill="#202020"/>
      <path id="Path_32" data-name="Path 32" d="M53.081,36.353H36.657a.657.657,0,0,1,0-1.314H53.081a.657.657,0,0,1,0,1.314Z" transform="translate(-13.663 -13.334)" fill="#202020"/>
      <path id="Path_33" data-name="Path 33" d="M53.081,45.225H36.657a.657.657,0,1,1,0-1.314H53.081a.657.657,0,0,1,0,1.314Z" transform="translate(-13.663 -16.377)" fill="#202020"/>
      <path id="Path_34" data-name="Path 34" d="M44.677,54.1H12.157a.657.657,0,0,1,0-1.314h32.52a.657.657,0,1,1,0,1.314Z" transform="translate(-5.259 -19.421)" fill="#202020"/>
      <path id="Path_35" data-name="Path 35" d="M44.677,62.97H12.157a.657.657,0,1,1,0-1.314h32.52a.657.657,0,1,1,0,1.314Z" transform="translate(-5.259 -22.464)" fill="#202020"/>
    </g>
  </g>
</svg>
