<svg xmlns="http://www.w3.org/2000/svg" width="109" height="109" viewBox="0 0 109 109">
  <g id="services3" transform="translate(-308 -1849)">
    <rect id="Rectangle_10" data-name="Rectangle 10" width="109" height="109" rx="54.5" transform="translate(308 1849)" fill="#fff"/>
    <g id="email_2_" data-name="email (2)" transform="translate(338.217 1880.56)">
      <path id="Path_20" data-name="Path 20" d="M158.5,86.213a9.3,9.3,0,0,0,12.472,8.555.715.715,0,0,0-.489-1.343,7.807,7.807,0,0,1-2.781.472,7.918,7.918,0,0,1-7.773-7.717,7.862,7.862,0,1,1,15.289,2.437,1.486,1.486,0,0,1-1.407.991h0a1.5,1.5,0,0,1-1.494-1.494V82.223a.715.715,0,0,0-1.43,0v.515a4.527,4.527,0,1,0,.188,6.406,2.928,2.928,0,0,0,2.736,1.894h0a2.917,2.917,0,0,0,2.758-1.951A9.291,9.291,0,1,0,158.5,86.213Zm9.29,2.92a3.1,3.1,0,1,1,3.1-3.1A3.1,3.1,0,0,1,167.786,89.132Z" transform="translate(-143.389 -71.38)" fill="#202020"/>
      <path id="Path_21" data-name="Path 21" d="M48.519,37.515,28.479,21.856a6.43,6.43,0,0,0-7.892-.023L.28,37.511a.721.721,0,0,0-.28.567v6.29a.715.715,0,1,0,1.43,0V39.3L19.4,49.336,1.43,63.212V47.7A.715.715,0,0,0,0,47.7V64.667a.721.721,0,0,0,.715.715H48.079a.722.722,0,0,0,.715-.715v-26.5a.747.747,0,0,0-.275-.648ZM2.81,63.952l18.651-14.4a5,5,0,0,1,6.138.018l.344.269,8.961,7a.715.715,0,0,0,.88-1.126l-8.122-6.347,4.395-2.476a.715.715,0,1,0-.7-1.245l-4.914,2.768a6.428,6.428,0,0,0-7.806-.03L2.009,37.982,21.461,22.964a5,5,0,0,1,6.138.018L46.865,38.036,36.178,44.057a.715.715,0,1,0,.7,1.245L47.364,39.4V63.2l-7.026-5.49a.715.715,0,0,0-.88,1.126L46,63.952H2.81Z" transform="translate(0 -20.491)" fill="#202020"/>
    </g>
  </g>
</svg>
