<svg id="Group_17" data-name="Group 17" xmlns="http://www.w3.org/2000/svg" width="48.383" height="40.32" viewBox="0 0 48.383 40.32">
  <g id="Group_16" data-name="Group 16">
    <path id="Path_19" data-name="Path 19" d="M174.367,69.3a14.22,14.22,0,0,0,6.221-11.509c0-8.338-7.913-15.12-17.64-15.12-7.85,0-14.636,4.328-16.89,10.769a1.008,1.008,0,1,0,1.9.665c1.939-5.546,8.1-9.419,14.987-9.419,8.614,0,15.624,5.879,15.624,13.1a12.417,12.417,0,0,1-6.05,10.334,1.008,1.008,0,0,0-.351,1.294l.986,1.974L170.3,69.758a1.02,1.02,0,0,0-.863-.067,17.993,17.993,0,0,1-4.429,1.07,1.008,1.008,0,0,0-.887,1.115.994.994,0,0,0,1.115.887,20.032,20.032,0,0,0,4.471-1.022l5.334,3.048a.994.994,0,0,0,.5.133,1.009,1.009,0,0,0,.9-1.46Z" transform="translate(-132.205 -42.667)" fill="#ff5e14"/>
    <path id="Path_20" data-name="Path 20" d="M15.12,191.979C6.782,191.979,0,197.4,0,204.075a11.363,11.363,0,0,0,5.473,9.306L4.1,216.806a1.009,1.009,0,0,0,1.389,1.276l5-2.5a18.539,18.539,0,0,0,4.631.589c8.338,0,15.12-5.425,15.12-12.1S23.458,191.979,15.12,191.979Zm0,22.178a16.516,16.516,0,0,1-4.465-.617,1.011,1.011,0,0,0-.724.069l-2.97,1.484.7-1.746a1.006,1.006,0,0,0-.427-1.244c-3.314-1.935-5.215-4.86-5.215-8.026,0-5.558,5.879-10.08,13.1-10.08s13.1,4.522,13.1,10.08S22.341,214.157,15.116,214.157Z" transform="translate(0 -177.869)" fill="#ff5e14"/>
  </g>
</svg>
