<svg xmlns="http://www.w3.org/2000/svg" width="66.963" height="57.85" viewBox="0 0 66.963 57.85">
  <g id="quotes-sign" transform="translate(-1 -34.571)" opacity="0.15">
    <g id="Group_169" data-name="Group 169" transform="translate(1 34.571)">
      <path id="Path_298" data-name="Path 298" d="M.014,76.48A15.983,15.983,0,1,0,10.792,61.411C14.379,40.838,30.423,27.57,15.55,38.49-.941,50.6,0,75.993.015,76.459.015,76.466.014,76.472.014,76.48Z" transform="translate(0 -34.571)" fill="#ff5e14"/>
      <path id="Path_299" data-name="Path 299" d="M266.075,76.48a15.983,15.983,0,1,0,10.778-15.069c3.587-20.574,19.631-33.841,4.758-22.922-16.491,12.109-15.554,37.5-15.535,37.969C266.076,76.466,266.075,76.472,266.075,76.48Z" transform="translate(-230.993 -34.571)" fill="#ff5e14"/>
    </g>
  </g>
</svg>
