<svg xmlns="http://www.w3.org/2000/svg" width="74" height="74" viewBox="0 0 74 74">
  <g id="services2" transform="translate(-923 -2068)">
    <circle id="Ellipse_2" data-name="Ellipse 2" cx="37" cy="37" r="37" transform="translate(923 2068)" fill="#b40000" opacity="0.05"/>
    <g id="briefcase" transform="translate(940.072 2087.753)">
      <g id="Group_8" data-name="Group 8" transform="translate(0.908 19.063)">
        <g id="Group_7" data-name="Group 7">
          <path id="Path_12" data-name="Path 12" d="M48.855,279.273a.858.858,0,0,0-.908.908v11.8a.858.858,0,0,1-.908.908H14.36a.858.858,0,0,1-.908-.908v-11.8a.908.908,0,0,0-1.815,0v11.8A2.675,2.675,0,0,0,14.36,294.7H47.04a2.675,2.675,0,0,0,2.723-2.723v-11.8A.858.858,0,0,0,48.855,279.273Z" transform="translate(-11.637 -279.273)" fill="#b40000"/>
        </g>
      </g>
      <g id="Group_10" data-name="Group 10" transform="translate(0 6.354)">
        <g id="Group_9" data-name="Group 9">
          <path id="Path_13" data-name="Path 13" d="M37.218,116.364H2.723A2.675,2.675,0,0,0,0,119.087v5.81a2.725,2.725,0,0,0,2.088,2.632l14.252,3.177v2.9a.858.858,0,0,0,.908.908h5.447a.858.858,0,0,0,.908-.908v-2.9l14.252-3.177a2.725,2.725,0,0,0,2.088-2.633v-5.81A2.675,2.675,0,0,0,37.218,116.364ZM21.786,132.7H18.155v-3.631h3.631Zm16.34-7.807a.884.884,0,0,1-.726.908l-13.8,3.086v-.726a.858.858,0,0,0-.908-.908H17.247a.858.858,0,0,0-.908.908v.726L2.542,125.8a.884.884,0,0,1-.726-.908v-5.81a.858.858,0,0,1,.908-.908H37.218a.858.858,0,0,1,.908.908Z" transform="translate(0 -116.364)" fill="#b40000"/>
        </g>
      </g>
      <g id="Group_12" data-name="Group 12" transform="translate(12.709 0)">
        <g id="Group_11" data-name="Group 11">
          <path id="Path_14" data-name="Path 14" d="M174.71,34.909h-9.078a2.675,2.675,0,0,0-2.723,2.723v.908a.908.908,0,0,0,1.815,0v-.908a.858.858,0,0,1,.908-.908h9.078a.858.858,0,0,1,.908.908v.908a.908.908,0,0,0,1.815,0v-.908A2.674,2.674,0,0,0,174.71,34.909Z" transform="translate(-162.909 -34.909)" fill="#b40000"/>
        </g>
      </g>
    </g>
  </g>
</svg>
