<svg xmlns="http://www.w3.org/2000/svg" width="74" height="74" viewBox="0 0 74 74">
  <g id="services3" transform="translate(-480 -2376)">
    <circle id="Ellipse_4" data-name="Ellipse 4" cx="37" cy="37" r="37" transform="translate(480 2376)" fill="#b40000" opacity="0.05"/>
    <g id="car_3_" data-name="car (3)" transform="translate(496 2396)">
      <g id="Group_14" data-name="Group 14" transform="translate(0 0)">
        <g id="Group_13" data-name="Group 13">
          <path id="Path_15" data-name="Path 15" d="M38.151,55.414,33.394,44.28A2.6,2.6,0,0,0,31,42.7H10.7a2.606,2.606,0,0,0-2.395,1.58L3.551,55.414A6.09,6.09,0,0,0,0,60.945v6.948A2.614,2.614,0,0,0,2.606,70.5h.872V74.84a2.614,2.614,0,0,0,2.606,2.606H9.562a2.614,2.614,0,0,0,2.606-2.606V70.5H29.541V74.84a2.614,2.614,0,0,0,2.606,2.606h3.478a2.614,2.614,0,0,0,2.606-2.606V70.5H39.1A2.614,2.614,0,0,0,41.7,67.892V60.945A6.09,6.09,0,0,0,38.151,55.414ZM9.9,44.964a.873.873,0,0,1,.8-.529H31a.865.865,0,0,1,.8.521l4.235,9.912c-.138-.008-.277-.016-.407-.016H6.084c-.138,0-.277.008-.407.016Zm.521,29.875a.872.872,0,0,1-.872.872H6.084a.872.872,0,0,1-.872-.872V70.5h5.213Zm25.192.872H32.14a.872.872,0,0,1-.872-.872V70.5h5.213V74.84h.008A.872.872,0,0,1,35.618,75.711ZM39.1,68.764H2.606a.872.872,0,0,1-.872-.872V60.945A4.345,4.345,0,0,1,6.076,56.6H35.618a4.345,4.345,0,0,1,4.341,4.341v6.948h.008A.872.872,0,0,1,39.1,68.764Z" transform="translate(0 -42.7)" fill="#b40000"/>
        </g>
      </g>
      <g id="Group_16" data-name="Group 16" transform="translate(3.478 15.638)">
        <g id="Group_15" data-name="Group 15">
          <path id="Path_16" data-name="Path 16" d="M47.041,234.7a4.341,4.341,0,1,0,4.341,4.341A4.345,4.345,0,0,0,47.041,234.7Zm0,6.948a2.606,2.606,0,1,1,2.606-2.606A2.614,2.614,0,0,1,47.041,241.648Z" transform="translate(-42.7 -234.7)" fill="#b40000"/>
        </g>
      </g>
      <g id="Group_18" data-name="Group 18" transform="translate(29.542 15.638)">
        <g id="Group_17" data-name="Group 17">
          <path id="Path_17" data-name="Path 17" d="M367.041,234.7a4.341,4.341,0,1,0,4.341,4.341A4.345,4.345,0,0,0,367.041,234.7Zm0,6.948a2.606,2.606,0,1,1,2.606-2.606A2.614,2.614,0,0,1,367.041,241.648Z" transform="translate(-362.7 -234.7)" fill="#b40000"/>
        </g>
      </g>
      <g id="Group_20" data-name="Group 20" transform="translate(13.895 20.851)">
        <g id="Group_19" data-name="Group 19">
          <path id="Path_18" data-name="Path 18" d="M183.64,298.7H171.471a.871.871,0,1,0,0,1.743h12.16a.872.872,0,0,0,.008-1.743Z" transform="translate(-170.6 -298.7)" fill="#b40000"/>
        </g>
      </g>
      <g id="Group_22" data-name="Group 22" transform="translate(13.895 17.373)">
        <g id="Group_21" data-name="Group 21">
          <path id="Path_19" data-name="Path 19" d="M183.64,256H171.471a.871.871,0,1,0,0,1.743h12.16A.872.872,0,0,0,183.64,256Z" transform="translate(-170.6 -256)" fill="#b40000"/>
        </g>
      </g>
    </g>
  </g>
</svg>
