<svg id="scissors" xmlns="http://www.w3.org/2000/svg" xmlns:xlink="http://www.w3.org/1999/xlink" width="35.505" height="35.505" viewBox="0 0 35.505 35.505">
  <defs>
    <linearGradient id="linear-gradient" x1="0.5" x2="0.5" y2="1" gradientUnits="objectBoundingBox">
      <stop offset="0" stop-color="#ff4495"/>
      <stop offset="1" stop-color="#ff6d6d"/>
    </linearGradient>
  </defs>
  <g id="Group_8" data-name="Group 8" transform="translate(0)">
    <g id="Group_7" data-name="Group 7" transform="translate(0)">
      <path id="Path_10" data-name="Path 10" d="M23.311,17.012,35.337,4.986a.573.573,0,0,0,.168-.4V.573A.573.573,0,0,0,34.932,0H32.642a.573.573,0,0,0-.4.168L18.575,13.83a3.979,3.979,0,0,0-1.645,0L3.268.168A.573.573,0,0,0,2.863,0H.573A.573.573,0,0,0,0,.573V4.581a.573.573,0,0,0,.168.4L12.194,17.012a.573.573,0,0,0,.4.168H13.79a3.816,3.816,0,0,0,.04,1.395L7.915,24.49a5.644,5.644,0,0,0-2.188-.438,5.727,5.727,0,1,0,5.727,5.727,5.644,5.644,0,0,0-.438-2.188l5.915-5.915a3.978,3.978,0,0,0,.822.086,4.019,4.019,0,0,0,.823-.085L24.49,27.59a5.644,5.644,0,0,0-.438,2.188,5.727,5.727,0,1,0,5.727-5.727,5.644,5.644,0,0,0-2.188.438l-5.914-5.914a3.833,3.833,0,0,0,.04-1.4h1.191A.573.573,0,0,0,23.311,17.012Zm-10.476-.978L1.145,4.344v-3.2H2.626L3.485,2,2.458,3.031l.81.81L4.295,2.814l.908.908L4.176,4.749l.81.81L6.013,4.532l.908.908L5.894,6.467l.81.81L7.731,6.25l.908.908L7.612,8.185l.81.81L9.449,7.968l.908.908L9.33,9.9l.81.81,1.027-1.027.908.908-1.027,1.027.81.81L12.885,11.4l.908.908-1.027,1.027.81.81L14.6,13.122l1.157,1.157a4.028,4.028,0,0,0-1.624,1.755ZM9.924,27.062a.573.573,0,0,0-.107.663,4.532,4.532,0,0,1,.491,2.054A4.581,4.581,0,1,1,5.727,25.2a4.532,4.532,0,0,1,2.054.491.573.573,0,0,0,.663-.107l5.837-5.837a4.028,4.028,0,0,0,1.481,1.481Zm17.139-1.481a.573.573,0,0,0,.663.107,4.532,4.532,0,0,1,2.054-.491A4.581,4.581,0,1,1,25.2,29.778a4.532,4.532,0,0,1,.491-2.054.573.573,0,0,0-.107-.663l-6.427-6.427a.573.573,0,0,0-.573-.143,2.863,2.863,0,1,1,1.909-1.909.573.573,0,0,0,.143.573Zm-5.693-9.547a4.028,4.028,0,0,0-1.624-1.755L32.879,1.145H34.36v3.2l-11.69,11.69Z" transform="translate(0)" fill="url(#linear-gradient)"/>
      <path id="Path_11" data-name="Path 11" d="M371.436,374.872A3.436,3.436,0,1,0,368,371.436,3.436,3.436,0,0,0,371.436,374.872Zm0-5.727a2.291,2.291,0,1,1-2.291,2.291A2.291,2.291,0,0,1,371.436,369.145Z" transform="translate(-341.658 -341.658)" fill="url(#linear-gradient)"/>
      <path id="Path_12" data-name="Path 12" d="M35.436,368a3.436,3.436,0,1,0,3.436,3.436A3.436,3.436,0,0,0,35.436,368Zm0,5.727a2.291,2.291,0,1,1,2.291-2.291A2.291,2.291,0,0,1,35.436,373.727Z" transform="translate(-29.709 -341.658)" fill="url(#linear-gradient)"/>
      <path id="Path_13" data-name="Path 13" d="M225.718,224a1.718,1.718,0,1,0,1.718,1.718A1.718,1.718,0,0,0,225.718,224Zm0,2.291a.573.573,0,1,1,.573-.573A.573.573,0,0,1,225.718,226.291Z" transform="translate(-207.966 -207.966)" fill="url(#linear-gradient)"/>
    </g>
  </g>
</svg>
