<svg xmlns="http://www.w3.org/2000/svg" width="43" height="43" viewBox="0 0 43 43">
  <g id="notification2" transform="translate(-2 -2)">
    <path id="Path_12" data-name="Path 12" d="M44.517,9.206,23.733,2.039a.706.706,0,0,0-.467,0L2.483,9.206A.717.717,0,0,0,2,9.883v34.4A.717.717,0,0,0,2.717,45H5.583a.717.717,0,0,0,.717-.717V19.2H40.7V44.283a.717.717,0,0,0,.717.717h2.867A.717.717,0,0,0,45,44.283V9.883a.717.717,0,0,0-.483-.677ZM3.433,10.394,23.5,3.475l20.067,6.919v3.072H3.433ZM4.867,43.566H3.433V14.9H4.867ZM6.3,17.766V14.9H40.7v2.867Zm37.266,25.8H42.133V14.9h1.433Z" transform="translate(0 0)" fill="#f02930"/>
    <path id="Path_13" data-name="Path 13" d="M30.867,13.733A2.867,2.867,0,1,0,28,10.867,2.867,2.867,0,0,0,30.867,13.733Zm0-4.3a1.433,1.433,0,1,1-1.433,1.433A1.433,1.433,0,0,1,30.867,9.433Z" transform="translate(-7.367 -1.7)" fill="#f02930"/>
    <path id="Path_14" data-name="Path 14" d="M40.816,50.933H37.95V40.183a.717.717,0,0,0-.717-.717H32.216V28.717A.717.717,0,0,0,31.5,28H20.033a.717.717,0,0,0-.717.717v10.75H14.3a.717.717,0,0,0-.717.717v10.75H10.717a.717.717,0,1,0,0,1.433h30.1a.717.717,0,0,0,0-1.433ZM30.783,40.9h1.433v3.857l-.4-.2a.717.717,0,0,0-.641,0l-.4.2Zm-4.3-11.467V33.29l-.4-.2a.717.717,0,0,0-.641,0l-.4.2V29.433Zm-5.733,0h2.867V34.45a.717.717,0,0,0,1.037.645l1.113-.56,1.113.557a.717.717,0,0,0,1.037-.641V29.433h2.867V39.467H20.75ZM20.033,40.9h.717v3.857l-.4-.2a.717.717,0,0,0-.641,0l-.4.2V40.9Zm-5.017,0h2.867v5.017a.717.717,0,0,0,1.037.645L20.033,46l1.113.557a.717.717,0,0,0,1.037-.641V40.9H25.05V50.933H15.017Zm11.467,0H29.35v5.017a.717.717,0,0,0,1.037.645L31.5,46l1.113.557a.717.717,0,0,0,1.037-.641V40.9h2.867V50.933H26.483Z" transform="translate(-2.267 -7.367)" fill="#f02930"/>
  </g>
</svg>
