<svg xmlns="http://www.w3.org/2000/svg" width="25.143" height="22" viewBox="0 0 25.143 22">
  <path id="headphones" d="M7.857,14.821H7.071A3.145,3.145,0,0,0,3.929,17.97V21.1A3.146,3.146,0,0,0,7.071,24.25h.786a1.573,1.573,0,0,0,1.571-1.574V16.4A1.573,1.573,0,0,0,7.857,14.821Zm10.214,0h-.786A1.573,1.573,0,0,0,15.714,16.4v6.28a1.573,1.573,0,0,0,1.571,1.574h.786A3.146,3.146,0,0,0,21.214,21.1V17.97a3.146,3.146,0,0,0-3.143-3.149ZM12.571,2.25A12.811,12.811,0,0,0,0,14.821v5.5a.785.785,0,0,0,.786.786h.786a.785.785,0,0,0,.786-.786v-5.5a10.214,10.214,0,0,1,20.429,0v5.5a.785.785,0,0,0,.786.786h.786a.785.785,0,0,0,.786-.786v-5.5A12.811,12.811,0,0,0,12.571,2.25Z" transform="translate(0 -2.25)" fill="#fff"/>
</svg>
