<svg xmlns="http://www.w3.org/2000/svg" width="66.437" height="66.438" viewBox="0 0 66.437 66.438">
  <g id="services4" transform="translate(0)">
    <path id="Path_20" data-name="Path 20" d="M70.348,7.877,48.856,4.76a.969.969,0,0,0-.28,0l-21.352,3.1L5.872,4.76a.981.981,0,0,0-1.121.971V67.09a.981.981,0,0,0,.841.971l21.492,3.117a.97.97,0,0,0,.28,0l21.351-3.1,21.352,3.1a.981.981,0,0,0,1.121-.971V8.848a.981.981,0,0,0-.84-.971Zm-1.121,61.2-20.37-2.955a.969.969,0,0,0-.28,0l-21.351,3.1L6.713,66.24V6.865l20.37,2.955a.969.969,0,0,0,.28,0l21.352-3.1L69.226,9.7Z" transform="translate(-4.751 -4.75)" fill="#f60"/>
    <path id="Path_21" data-name="Path 21" d="M22.811,63.364V52.734l9.377-4.689a.981.981,0,0,0,0-1.755l-9.919-4.959a.981.981,0,0,0-1.42.877V63.364c-2.424.3-4.208,1.67-4.208,3.373,0,1.926,2.279,3.434,5.189,3.434s5.189-1.508,5.189-3.434C27.019,65.034,25.235,63.66,22.811,63.364Zm0-19.567,6.744,3.372L22.811,50.54V43.8ZM18.6,66.737c0-.492.855-1.159,2.245-1.386v2.772C19.458,67.9,18.6,67.226,18.6,66.737Zm4.208,1.386V65.351c1.39.224,2.243.894,2.243,1.386S24.2,67.9,22.811,68.124Z" transform="translate(-9.975 -20.776)" fill="#f60"/>
    <path id="Path_22" data-name="Path 22" d="M95.34,28.433h2.8v2.8a.981.981,0,0,0,1.962,0v-2.8h2.8a.981.981,0,1,0,0-1.962h-2.8v-2.8a.981.981,0,0,0-1.962,0v2.8h-2.8a.981.981,0,1,0,0,1.962Z" transform="translate(-44.12 -12.63)" fill="#f60"/>
    <path id="Path_23" data-name="Path 23" d="M54.561,63.662c-5.574,3.515-11.033,4.2-16.227,2.027a.981.981,0,1,0-.757,1.81,17.536,17.536,0,0,0,6.814,1.4A20.962,20.962,0,0,0,55.6,65.321c5.313-3.35,6.956-9.678,8.544-15.8,1.373-5.289,2.67-10.285,6.244-12.41a.981.981,0,0,0-1-1.686c-4.268,2.538-5.663,7.913-7.141,13.6C60.761,54.781,59.217,60.726,54.561,63.662Z" transform="translate(-18.908 -18.18)" fill="#f60"/>
  </g>
</svg>
