<svg width="118" height="43" viewBox="0 0 118 43" fill="none" xmlns="http://www.w3.org/2000/svg">
<path d="M25.032 41.072C24.488 41.072 24.072 40.904 23.784 40.568C23.5013 40.232 23.344 39.7707 23.312 39.184L24.112 38.968C24.1387 39.384 24.2187 39.72 24.352 39.976C24.4907 40.232 24.7173 40.36 25.032 40.36C25.2667 40.36 25.4427 40.296 25.56 40.168C25.6827 40.0347 25.744 39.8453 25.744 39.6C25.744 39.3333 25.688 39.112 25.576 38.936C25.464 38.76 25.2853 38.5653 25.04 38.352L23.952 37.392C23.7333 37.2 23.5733 36.9947 23.472 36.776C23.376 36.552 23.328 36.28 23.328 35.96C23.328 35.4853 23.464 35.1173 23.736 34.856C24.008 34.5947 24.3787 34.464 24.848 34.464C25.36 34.464 25.7467 34.6 26.008 34.872C26.2693 35.144 26.4267 35.5653 26.48 36.136L25.712 36.344C25.6853 35.9653 25.6107 35.6747 25.488 35.472C25.3707 35.264 25.1573 35.16 24.848 35.16C24.6187 35.16 24.4427 35.2213 24.32 35.344C24.1973 35.4613 24.136 35.6373 24.136 35.872C24.136 36.064 24.168 36.2267 24.232 36.36C24.296 36.488 24.4053 36.6187 24.56 36.752L25.656 37.712C25.9387 37.9627 26.1627 38.2347 26.328 38.528C26.4987 38.8213 26.584 39.1547 26.584 39.528C26.584 40.0027 26.44 40.3787 26.152 40.656C25.864 40.9333 25.4907 41.072 25.032 41.072ZM31.4132 34.52H32.3012V41H31.4132V34.52ZM37.4296 34.52H38.0456L39.8856 38.824V34.52H40.6376V41H40.0616L38.1976 36.576V41H37.4296V34.52ZM47.3602 41.072C46.7202 41.072 46.2695 40.8827 46.0082 40.504C45.7469 40.12 45.6162 39.592 45.6162 38.92V36.632C45.6162 35.9227 45.7442 35.384 46.0002 35.016C46.2562 34.648 46.7095 34.464 47.3602 34.464C47.9415 34.464 48.3575 34.6213 48.6082 34.936C48.8642 35.2507 48.9922 35.7147 48.9922 36.328V36.84H48.1362V36.384C48.1362 36.0853 48.1229 35.856 48.0962 35.696C48.0695 35.536 48.0002 35.408 47.8882 35.312C47.7815 35.216 47.6082 35.168 47.3682 35.168C47.1229 35.168 46.9389 35.2213 46.8162 35.328C46.6989 35.4293 46.6215 35.5733 46.5842 35.76C46.5469 35.9413 46.5282 36.1867 46.5282 36.496V39.064C46.5282 39.3947 46.5549 39.6533 46.6082 39.84C46.6615 40.0267 46.7469 40.16 46.8642 40.24C46.9869 40.32 47.1549 40.36 47.3682 40.36C47.5975 40.36 47.7682 40.3093 47.8802 40.208C47.9922 40.1067 48.0615 39.968 48.0882 39.792C48.1202 39.616 48.1362 39.376 48.1362 39.072V38.592H48.9922V39.072C48.9922 39.7173 48.8695 40.2133 48.6242 40.56C48.3842 40.9013 47.9629 41.072 47.3602 41.072ZM53.9334 34.52H56.4454V35.192H54.8374V37.336H56.1414V37.976H54.8374V40.352H56.4614V41H53.9334V34.52ZM68.0433 35.64C68.0326 35.656 67.87 35.6933 67.5553 35.752C67.246 35.8107 67.0326 35.8507 66.9153 35.872V35.224C67.566 35.0693 68.0113 34.8347 68.2513 34.52H68.8993V41H68.0433V35.64ZM75.8392 35.192H74.1032V34.52H76.6952V34.936L75.4952 41H74.6712L75.8392 35.192ZM83.0531 41.072C82.5465 41.072 82.1571 40.9333 81.8851 40.656C81.6131 40.3787 81.4718 39.9813 81.4611 39.464V39.392H82.3171C82.3171 39.7227 82.3705 39.968 82.4771 40.128C82.5891 40.2827 82.7838 40.36 83.0611 40.36C83.5411 40.36 83.7811 39.8987 83.7811 38.976V37.992C83.6958 38.1307 83.5731 38.24 83.4131 38.32C83.2585 38.4 83.0665 38.44 82.8371 38.44C82.3305 38.44 81.9705 38.28 81.7571 37.96C81.5491 37.6347 81.4451 37.1707 81.4451 36.568C81.4451 35.9333 81.5758 35.424 81.8371 35.04C82.0985 34.656 82.5038 34.464 83.0531 34.464C83.5865 34.464 83.9838 34.6613 84.2451 35.056C84.5118 35.4453 84.6451 35.9547 84.6451 36.584V38.76C84.6451 39.4587 84.5225 40.0187 84.2771 40.44C84.0318 40.8613 83.6238 41.072 83.0531 41.072ZM83.0531 37.792C83.3678 37.792 83.6105 37.6427 83.7811 37.344V36.384C83.7811 35.5733 83.5385 35.168 83.0531 35.168C82.7865 35.168 82.5945 35.28 82.4771 35.504C82.3651 35.7227 82.3091 36.008 82.3091 36.36C82.3091 36.6853 82.3225 36.944 82.3491 37.136C82.3758 37.328 82.4425 37.4853 82.5491 37.608C82.6558 37.7307 82.8238 37.792 83.0531 37.792ZM91.2608 41.072C90.7274 41.072 90.3248 40.8987 90.0528 40.552C89.7861 40.2053 89.6528 39.7413 89.6528 39.16V36.368C89.6528 35.776 89.7834 35.312 90.0448 34.976C90.3114 34.6347 90.7168 34.464 91.2608 34.464C91.7994 34.464 92.1994 34.6347 92.4608 34.976C92.7274 35.312 92.8608 35.776 92.8608 36.368V39.16C92.8608 39.7467 92.7274 40.2133 92.4608 40.56C92.1941 40.9013 91.7941 41.072 91.2608 41.072ZM91.2608 40.368C91.7514 40.368 91.9968 39.968 91.9968 39.168V36.36C91.9968 35.992 91.9434 35.7013 91.8368 35.488C91.7354 35.2693 91.5434 35.16 91.2608 35.16C90.9781 35.16 90.7834 35.2693 90.6768 35.488C90.5701 35.7013 90.5168 35.992 90.5168 36.36V39.168C90.5168 39.968 90.7648 40.368 91.2608 40.368Z" fill="black"/>
<path d="M10.7174 28.4646C9.18516 28.8662 7.98905 28.7518 7.12906 28.1212C6.27764 27.4761 5.65262 26.3931 5.25402 24.8725L3.92129 19.7883C3.51356 18.2328 3.52546 16.9768 3.95698 16.0201C4.38546 15.0518 5.37162 14.3653 6.91546 13.9606C8.38966 13.5742 9.52717 13.6544 10.328 14.2012C11.1288 14.748 11.6996 15.6714 12.0404 16.9715L12.3599 18.1903L9.31284 18.9891L8.94315 17.5787C8.80014 17.0331 8.63256 16.6305 8.44041 16.3707C8.24826 16.1109 7.93164 16.0389 7.49054 16.1545C7.04945 16.2701 6.80033 16.5029 6.74319 16.8528C6.68301 17.1911 6.72442 17.6331 6.86743 18.1786L8.60637 24.8125C8.75242 25.3697 8.93465 25.7809 9.15306 26.0462C9.38003 26.2969 9.70826 26.3659 10.1377 26.2533C10.5672 26.1407 10.802 25.9241 10.842 25.6035C10.8906 25.2682 10.8418 24.822 10.6958 24.2648L10.3078 22.7848L13.3549 21.9861L13.6744 23.2049C14.0212 24.5282 13.9844 25.6419 13.564 26.5461C13.1404 27.4387 12.1916 28.0782 10.7174 28.4646Z" fill="black"/>
<path d="M26.1061 25.0927C25.0303 25.2803 24.1493 25.2573 23.463 25.0237C22.7746 24.7783 22.2416 24.3414 21.864 23.7129C21.4962 23.0706 21.2205 22.2233 21.0371 21.1712L19.3084 11.2588L22.4471 10.7114L24.2592 21.1026C24.3602 21.6819 24.5115 22.1306 24.7132 22.4486C24.9266 22.7647 25.258 22.8835 25.7072 22.8052C26.1564 22.7268 26.4221 22.5039 26.5041 22.1363C26.5862 21.7688 26.5767 21.2953 26.4757 20.7161L24.6636 10.3249L27.82 9.77447L29.5486 19.6869C29.7321 20.739 29.7536 21.6306 29.6131 22.3616C29.4705 23.0808 29.1169 23.6723 28.5522 24.1362C27.9972 24.5862 27.1819 24.9051 26.1061 25.0927Z" fill="black"/>
<path d="M36.0501 8.71582L39.2554 8.38768L40.7403 22.8919L37.535 23.22L36.0501 8.71582Z" fill="black"/>
<path d="M52.1417 22.3749C50.7505 22.4222 49.7007 22.0917 48.9922 21.3834C48.2953 20.6627 47.8955 19.4996 47.7928 17.8942L50.5312 17.3868C50.5746 18.3098 50.7052 18.9718 50.9229 19.3726C51.1523 19.761 51.4768 19.9481 51.8966 19.9338C52.4363 19.9154 52.6941 19.5525 52.67 18.8449C52.6508 18.2812 52.5024 17.8 52.2246 17.4012C51.9589 17.002 51.5423 16.5779 50.9747 16.1289L49.6781 15.0744C49.0365 14.5679 48.5318 14.0268 48.164 13.451C47.8078 12.8627 47.6158 12.1609 47.5881 11.3453C47.5464 10.122 47.8742 9.16834 48.5714 8.48424C49.2805 7.79973 50.2707 7.43586 51.542 7.39261C52.9212 7.34569 53.8703 7.71563 54.3893 8.50244C54.9204 9.28884 55.2235 10.2571 55.2986 11.4072L52.5399 11.8433C52.4902 11.0885 52.3998 10.5513 52.2689 10.2315C52.1495 9.8994 51.898 9.73986 51.5142 9.75292C51.2383 9.7623 51.0266 9.88957 50.8788 10.1347C50.7426 10.3675 50.6795 10.6278 50.6892 10.9156C50.706 11.4074 50.828 11.8174 51.0553 12.1459C51.2946 12.474 51.6674 12.8455 52.1738 13.2605L53.4152 14.2809C54.1556 14.8681 54.7353 15.4967 55.1544 16.1669C55.5734 16.837 55.7988 17.6398 55.8306 18.5753C55.8539 19.2589 55.7132 19.888 55.4086 20.4627C55.1155 21.025 54.6867 21.4778 54.122 21.8212C53.5574 22.1646 52.8973 22.3492 52.1417 22.3749Z" fill="black"/>
<path d="M63.5658 7.52103L66.7859 7.63059L66.2902 22.2022L63.0701 22.0926L63.5658 7.52103Z" fill="black"/>
<path d="M75.3445 8.11514L77.6001 8.35203L79.8385 15.6457L80.5718 8.66412L83.2212 8.94236L81.6984 23.4426L79.5323 23.2151L77.3502 15.3844L76.5606 22.903L73.8217 22.6154L75.3445 8.11514Z" fill="black"/>
<path d="M92.11 10.2333L98.5524 11.4264L98.1526 13.5857L94.8782 12.9793L94.2194 16.5368L96.715 16.999L96.3085 19.1937L93.813 18.7315L93.0198 23.0147L96.3295 23.6276L95.9329 25.7692L89.455 24.5696L92.11 10.2333Z" fill="black"/>
<path d="M106.629 28.5151C105.283 28.1587 104.374 27.539 103.9 26.6563C103.441 25.765 103.394 24.536 103.759 22.9694L106.527 23.2744C106.302 24.1707 106.236 24.8422 106.329 25.2888C106.436 25.7269 106.693 25.9997 107.099 26.1073C107.621 26.2456 107.973 25.9725 108.154 25.2881C108.298 24.743 108.295 24.2394 108.145 23.7774C108.006 23.3184 107.729 22.7921 107.315 22.1983L106.379 20.8143C105.911 20.1441 105.584 19.4802 105.398 18.8227C105.227 18.1567 105.246 17.4292 105.455 16.6405C105.768 15.4573 106.357 14.6389 107.222 14.1853C108.099 13.7348 109.152 13.6724 110.382 13.9981C111.716 14.3515 112.517 14.9798 112.787 15.883C113.068 16.7893 113.079 17.8038 112.819 18.9266L110.052 18.5473C110.222 17.8104 110.291 17.2699 110.258 16.926C110.239 16.5736 110.045 16.3482 109.673 16.2498C109.407 16.1791 109.167 16.2398 108.955 16.4319C108.757 16.6154 108.622 16.8463 108.548 17.1247C108.422 17.6003 108.42 18.0282 108.543 18.4083C108.677 18.7915 108.927 19.2549 109.292 19.7985L110.186 21.1339C110.725 21.9099 111.098 22.6792 111.306 23.4418C111.514 24.2044 111.498 25.0381 111.258 25.9428C111.083 26.604 110.766 27.1657 110.309 27.628C109.866 28.0817 109.324 28.3913 108.685 28.557C108.045 28.7227 107.36 28.7088 106.629 28.5151Z" fill="black"/>
</svg>
