<svg width="181" height="181" viewBox="0 0 181 181" fill="none" xmlns="http://www.w3.org/2000/svg">
<path d="M25.3754 15.0562L15.9612 24.4739L22.8399 29.614L29.9711 22.4801L107.669 48.4861L112.033 44.1223L111.941 44.0304L25.3754 15.0562Z" fill="#D4E1F4"/>
<path d="M165.956 112.07C164.296 110.415 162.145 109.342 159.825 109.012C157.504 108.682 155.139 109.113 153.084 110.239L151.528 105.593L156.902 100.22C158.746 98.373 159.861 95.9229 160.042 93.3198C160.223 90.7166 159.459 88.1356 157.889 86.0513C156.319 83.9669 154.049 82.5195 151.497 81.9752C148.945 81.4308 146.282 81.8262 143.999 83.0885L139.123 68.5294L135.1 69.8755L163.658 155.193L156.902 161.949L109.111 97.9945L105.713 100.534L154.97 166.451C155.152 166.695 155.384 166.896 155.651 167.042C155.918 167.188 156.213 167.275 156.517 167.297C156.568 167.301 156.618 167.302 156.669 167.302C157.232 167.302 157.771 167.079 158.169 166.681L167.586 157.264C167.865 156.985 168.06 156.634 168.151 156.25C168.241 155.867 168.223 155.465 168.097 155.091L160.612 132.729L165.956 127.384C167.984 125.352 169.122 122.598 169.122 119.727C169.122 116.856 167.984 114.102 165.956 112.07V112.07ZM149.244 85.9771C150.547 85.9771 151.82 86.3634 152.904 87.0871C153.987 87.8109 154.831 88.8395 155.329 90.043C155.828 91.2465 155.958 92.5708 155.704 93.8484C155.45 95.126 154.823 96.2996 153.902 97.2207L150.024 101.098L145.384 87.2346C146.504 86.416 147.857 85.9756 149.244 85.9771V85.9771ZM162.956 124.384L159.107 128.234L154.469 114.378C155.813 113.415 157.47 112.992 159.11 113.195C160.751 113.397 162.255 114.209 163.324 115.47C164.393 116.731 164.949 118.348 164.881 119.999C164.813 121.651 164.126 123.216 162.956 124.384V124.384Z" fill="#081158"/>
<path d="M31.4505 23.5265C30.9995 23.1963 30.4364 23.0575 29.8836 23.1403C29.3309 23.223 28.8331 23.5205 28.4985 23.9683C28.1639 24.416 28.0196 24.9777 28.0969 25.5312C28.1741 26.0848 28.4668 26.5855 28.9112 26.9245L31.8422 29.1145C32.0651 29.2845 32.3194 29.4086 32.5906 29.4797C32.8617 29.5508 33.1442 29.5675 33.4218 29.5287C33.6995 29.49 33.9666 29.3966 34.2079 29.2539C34.4492 29.1113 34.6599 28.9223 34.8277 28.6977C34.9954 28.4732 35.1171 28.2176 35.1855 27.9458C35.2539 27.674 35.2678 27.3913 35.2263 27.1141C35.1848 26.8369 35.0888 26.5706 34.9438 26.3307C34.7988 26.0908 34.6077 25.8821 34.3815 25.7165L31.4505 23.5265Z" fill="#081158"/>
<path d="M42.4049 31.7121C42.182 31.5421 41.9277 31.418 41.6566 31.3469C41.3854 31.2758 41.1029 31.2591 40.8253 31.2979C40.5477 31.3367 40.2805 31.43 40.0392 31.5727C39.7979 31.7153 39.5872 31.9044 39.4195 32.1289C39.2517 32.3534 39.13 32.609 39.0616 32.8808C38.9932 33.1527 38.9793 33.4353 39.0208 33.7126C39.0623 33.9898 39.1583 34.256 39.3033 34.4959C39.4483 34.7358 39.6394 34.9445 39.8656 35.1101L69.2601 57.0751C69.483 57.2451 69.7373 57.3692 70.0084 57.4403C70.2796 57.5114 70.5621 57.5281 70.8397 57.4893C71.1173 57.4506 71.3845 57.3572 71.6258 57.2146C71.8671 57.0719 72.0778 56.8829 72.2455 56.6583C72.4133 56.4338 72.535 56.1782 72.6034 55.9064C72.6718 55.6346 72.6857 55.3519 72.6442 55.0747C72.6027 54.7975 72.5067 54.5312 72.3617 54.2913C72.2167 54.0514 72.0256 53.8427 71.7994 53.6771L42.4049 31.7121Z" fill="#081158"/>
<path d="M69.0275 63.7481C68.8123 63.9632 68.646 64.222 68.5398 64.5071C68.4335 64.7921 68.3898 65.0967 68.4117 65.4001C68.4335 65.7036 68.5203 65.9987 68.6663 66.2656C68.8122 66.5325 69.0139 66.7649 69.2576 66.947L80.6083 75.4289L83.1476 72.0306L71.7969 63.549C71.3884 63.2438 70.8837 63.0959 70.3751 63.1324C69.8665 63.169 69.3881 63.3875 69.0275 63.7481V63.7481Z" fill="#081158"/>
<path d="M60.3518 54.9964L19.1924 24.2406L25.948 17.4842L111.265 46.0422L112.612 42.0192L98.0468 37.1442C99.3117 34.8609 99.7092 32.1975 99.166 29.6443C98.6228 27.0912 97.1756 24.8202 95.0907 23.2495C93.0059 21.6789 90.4238 20.9142 87.8199 21.0964C85.216 21.2785 82.7655 22.3952 80.9197 24.2409L75.5463 29.6143L70.9 28.0589C72.1564 25.7739 72.5459 23.1124 71.9971 20.5632C71.4483 18.0141 69.998 15.7486 67.9127 14.1831C65.8273 12.6176 63.2471 11.8572 60.6461 12.0417C58.0451 12.2262 55.598 13.3432 53.7545 15.1874L48.4132 20.5297L26.0502 13.0447C25.6762 12.9198 25.2748 12.9015 24.891 12.9918C24.5072 13.0822 24.1561 13.2776 23.8771 13.5563L14.4878 22.9456C14.2528 23.1733 14.0726 23.4513 13.9607 23.7587C13.8089 24.1864 13.7978 24.6514 13.9292 25.0859C14.0605 25.5203 14.3273 25.9013 14.6907 26.1732L57.8125 58.3962C58.221 58.7014 58.7257 58.8493 59.2343 58.8128C59.7429 58.7762 60.2214 58.5577 60.582 58.1971C60.7974 57.982 60.964 57.7231 61.0704 57.4378C61.1768 57.1526 61.2206 56.8478 61.1988 56.5442C61.177 56.2405 61.09 55.9451 60.9439 55.678C60.7977 55.411 60.5958 55.1785 60.3518 54.9964V54.9964ZM83.9211 27.2401C85.0914 26.0677 86.6608 25.3796 88.3161 25.3134C89.9714 25.2471 91.5908 25.8074 92.8512 26.8825C94.1116 27.9576 94.9202 29.4685 95.1156 31.1135C95.3111 32.7586 94.8791 34.4169 93.9058 35.7574L80.0437 31.1175L83.9211 27.2401ZM56.7573 18.1855C57.9255 17.0161 59.491 16.3291 61.1426 16.2609C62.7942 16.1927 64.411 16.7484 65.6716 17.8176C66.9323 18.8868 67.7446 20.3911 67.947 22.0316C68.1494 23.6722 67.7272 25.3289 66.7642 26.6724L52.9082 22.0343L56.7573 18.1855Z" fill="#081158"/>
<path d="M172.044 9.0963C170.412 7.46536 168.41 6.25488 166.207 5.5689C164.005 4.88293 161.669 4.74197 159.4 5.15814L158.945 5.24157C150.139 6.84502 142.033 11.1004 135.712 17.4379L48.4847 104.666L14.5168 101.788C14.2091 101.762 13.8994 101.803 13.6094 101.909C13.3194 102.015 13.0561 102.183 12.8379 102.402L5.39891 109.84C5.20191 110.037 5.04564 110.271 4.93902 110.529C4.8324 110.786 4.77753 111.062 4.77753 111.34C4.77753 111.619 4.8324 111.895 4.93902 112.152C5.04564 112.41 5.20191 112.643 5.39891 112.84L30.4861 137.927L28.2813 142.149C27.4595 143.645 27.1456 145.368 27.3867 147.059C27.6278 148.749 28.4108 150.316 29.6182 151.523C30.8256 152.731 32.3922 153.514 34.0826 153.755C35.773 153.996 37.496 153.682 38.9928 152.86L43.2138 150.654L68.0182 175.459C68.416 175.856 68.9555 176.08 69.518 176.08C70.0805 176.08 70.62 175.856 71.0178 175.459L78.4568 168.02C78.673 167.803 78.84 167.543 78.9461 167.256C79.0523 166.969 79.0952 166.663 79.0719 166.358L76.4676 132.664L163.705 45.4267C170.055 39.0813 174.315 30.947 175.914 22.1131L175.983 21.7398C176.399 19.4709 176.258 17.1349 175.572 14.9325C174.886 12.7302 173.675 10.7274 172.044 9.0963V9.0963ZM133.392 25.7582L133.501 26.5444C133.622 27.4421 133.534 28.3556 133.246 29.2142C132.957 30.0728 132.475 30.8535 131.836 31.4958L127.349 35.9829L125.258 33.8922L133.392 25.7582ZM122.257 36.8918L124.347 38.9825L118.553 44.7773L116.462 42.6866L122.257 36.8918ZM113.464 45.6862L115.555 47.7769L109.76 53.5714L107.67 51.4807L113.464 45.6862ZM104.67 54.4806L106.762 56.5713L100.967 62.3658L98.8766 60.2751L104.67 54.4806ZM95.8756 63.2747L97.9663 65.3654L92.1718 71.1602L90.0811 69.0695L95.8756 63.2747ZM87.0815 72.0691L89.1722 74.1598L83.3774 79.9543L81.2867 77.8639L87.0815 72.0691ZM78.2871 80.8635L80.3778 82.9542L74.5833 88.7487L72.4926 86.658L78.2871 80.8635ZM69.4927 89.6579L71.5834 91.7483L67.2422 96.0898C66.5155 96.8138 65.6123 97.3354 64.622 97.603C63.6317 97.8706 62.5887 97.875 61.5962 97.6156L61.5478 97.6028L69.4927 89.6579ZM9.89845 111.34L15.1407 106.098L45.7651 108.693L32.5454 133.987L9.89845 111.34ZM69.5189 170.96L47.1544 148.596L72.4241 135.389L74.7675 165.711L69.5189 170.96ZM83.6065 119.527C83.3739 118.551 83.3947 117.531 83.6669 116.565C83.9392 115.599 84.4538 114.719 85.1619 114.008L89.5031 109.667L91.4853 111.649L83.6065 119.527ZM94.4845 108.649L92.502 106.667L98.2964 100.872L100.279 102.855L94.4845 108.649ZM103.279 99.8551L101.296 97.8726L107.091 92.0781L109.073 94.0603L103.279 99.8551ZM112.073 91.0607L110.091 89.0781L115.885 83.2837L117.868 85.2662L112.073 91.0607ZM120.867 82.2663L118.884 80.2841L124.679 74.4893L126.662 76.4718L120.867 82.2663ZM129.661 73.4722L127.679 71.4897L133.473 65.6949L135.456 67.6777L129.661 73.4722ZM138.456 64.6778L136.473 62.6953L142.268 56.9008L144.25 58.8833L138.456 64.6778ZM147.25 55.8834L145.267 53.9009L149.755 49.4141C150.397 48.7754 151.178 48.2931 152.036 48.0044C152.895 47.7158 153.808 47.6285 154.706 47.7493L155.302 47.8314L147.25 55.8834ZM160.705 42.4282L159.066 44.0675L155.284 43.5468C153.737 43.3384 152.164 43.4886 150.685 43.9859C149.206 44.4831 147.861 45.3139 146.754 46.4141L82.1606 111.008C80.9134 112.26 80.0149 113.816 79.5539 115.522C79.0929 117.228 79.0854 119.024 79.5322 120.734L80.1296 123.003L72.6475 130.487L37.0053 149.113L36.9551 149.14C36.2625 149.523 35.4641 149.671 34.68 149.562C33.8959 149.453 33.1685 149.092 32.6069 148.534C32.0489 147.973 31.6882 147.245 31.5789 146.461C31.4697 145.677 31.6178 144.879 32.001 144.186C32.0105 144.169 32.0193 144.153 32.0282 144.136L50.6549 108.494L58.0756 101.073L60.5148 101.716C61.3502 101.936 62.2104 102.047 63.0743 102.047C65.7611 102.049 68.3393 100.986 70.2436 99.0904L134.836 34.4957C135.936 33.3892 136.767 32.0443 137.264 30.5652C137.762 29.086 137.912 27.5122 137.703 25.9657L137.157 21.994L138.712 20.4385C141.988 17.1581 145.813 14.4758 150.013 12.5127L148.544 15.4486C147.342 17.848 146.926 20.5651 147.354 23.2145C147.783 25.8639 149.035 28.3111 150.933 30.2089C152.83 32.1067 155.277 33.3587 157.927 33.7874C160.576 34.2162 163.293 33.7998 165.693 32.5973L168.621 31.1331C166.662 35.3311 163.982 39.1538 160.705 42.4282H160.705ZM171.811 20.9751L171.742 21.3488C171.496 22.6876 171.18 24.0033 170.807 25.2969L163.794 28.803C162.192 29.6037 160.377 29.8799 158.609 29.5925C156.84 29.3051 155.207 28.4686 153.94 27.2016C152.673 25.9345 151.837 24.301 151.55 22.5324C151.263 20.7638 151.54 18.9497 152.341 17.347L155.85 10.3279C157.116 9.96383 158.403 9.6545 159.712 9.41411L160.168 9.33068C161.761 9.03861 163.401 9.13776 164.948 9.61961C166.494 10.1015 167.901 10.9516 169.046 12.0969C170.191 13.2423 171.041 14.6487 171.523 16.1951C172.005 17.7416 172.104 19.3819 171.812 20.9751H171.811Z" fill="#29EAFD"/>
</svg>
