<svg width="181" height="181" viewBox="0 0 181 181" fill="none" xmlns="http://www.w3.org/2000/svg">
<path d="M45.5964 63.2439V109.717H56.2019V63.2439C56.2124 59.5578 57.6813 56.0256 60.2878 53.419C62.8944 50.8125 66.4266 49.3435 70.1127 49.3331H59.5073C55.8211 49.3435 52.2889 50.8125 49.6824 53.419C47.0758 56.0256 45.6069 59.5578 45.5964 63.2439V63.2439Z" fill="#D4E1F4"/>
<path d="M35.5036 111.329C33.9053 112.307 32.5851 113.679 31.6696 115.314C30.7541 116.949 30.2739 118.792 30.2751 120.666V138.702H29.713C29.1377 138.701 28.5679 138.814 28.0363 139.034C27.5047 139.254 27.0217 139.577 26.6149 139.984C26.2081 140.391 25.8855 140.874 25.6655 141.405C25.4455 141.937 25.3325 142.507 25.3329 143.082V149.908C25.3325 150.484 25.4455 151.053 25.6655 151.585C25.8855 152.117 26.2081 152.6 26.6149 153.006C27.0217 153.413 27.5047 153.736 28.0363 153.956C28.5679 154.176 29.1377 154.289 29.713 154.288H40.3185C39.7431 154.289 39.1734 154.176 38.6418 153.956C38.1102 153.736 37.6272 153.413 37.2204 153.006C36.8135 152.6 36.4909 152.117 36.271 151.585C36.051 151.053 35.938 150.484 35.9384 149.908V143.082C35.938 142.507 36.051 141.937 36.271 141.405C36.4909 140.874 36.8135 140.391 37.2204 139.984C37.6272 139.577 38.1102 139.254 38.6418 139.034C39.1734 138.814 39.7431 138.701 40.3185 138.702H40.8805V120.666C40.8799 117.763 42.0317 114.98 44.0828 112.927C46.1339 110.874 48.9163 109.72 51.8183 109.717H41.2235C39.2044 109.715 37.2242 110.273 35.5036 111.329V111.329Z" fill="#D4E1F4"/>
<path d="M141.406 122.316C141.406 121.754 141.183 121.214 140.785 120.817C140.387 120.419 139.848 120.195 139.285 120.195H123.73C123.168 120.195 122.628 120.419 122.231 120.817C121.833 121.214 121.609 121.754 121.609 122.316V131.861C121.609 132.424 121.833 132.963 122.231 133.361C122.628 133.759 123.168 133.982 123.73 133.982H139.285C139.848 133.982 140.387 133.759 140.785 133.361C141.183 132.963 141.406 132.424 141.406 131.861V122.316ZM125.852 124.438H137.164V129.74H125.852V124.438Z" fill="#081158"/>
<path d="M59.3906 122.316C59.3906 121.754 59.1672 121.214 58.7694 120.817C58.3716 120.419 57.8321 120.195 57.2695 120.195H41.7148C41.1523 120.195 40.6128 120.419 40.215 120.817C39.8172 121.214 39.5938 121.754 39.5938 122.316V131.861C39.5937 132.424 39.8172 132.963 40.215 133.361C40.6128 133.759 41.1523 133.982 41.7148 133.982H57.2695C57.8321 133.982 58.3716 133.759 58.7694 133.361C59.1672 132.963 59.3906 132.424 59.3906 131.861V122.316ZM43.8359 124.438H55.1484V129.74H43.8359V124.438Z" fill="#081158"/>
<path d="M54.4414 167.664C54.4414 168.909 53.471 170.041 52.2252 170.041H43.4435C42.814 170.02 42.2151 169.765 41.7643 169.325C41.3136 168.885 41.0437 168.292 41.0078 167.664V154.133H36.7656V167.664C36.7656 171.248 39.8585 174.283 43.4435 174.283H52.2252C55.8102 174.283 58.6836 171.248 58.6836 167.664V154.133H54.4414V167.664Z" fill="#29EAFD"/>
<path d="M139.639 167.664C139.639 168.909 138.802 170.041 137.556 170.041H128.776C127.531 170.041 126.559 168.91 126.559 167.664V154.133H122.316V167.664C122.316 171.248 125.192 174.283 128.776 174.283H137.556C141.141 174.283 143.881 171.248 143.881 167.664V154.133H139.639V167.664Z" fill="#29EAFD"/>
<path d="M143.527 95.8027H147.77V111.357H143.527V95.8027Z" fill="#29EAFD"/>
<path d="M131.038 6.7168H49.9624C40.742 6.7168 33.2305 14.3365 33.2305 23.5565V77.4199H37.4727V23.5565C37.4727 16.6753 43.0812 10.959 49.9624 10.959H131.038C137.919 10.959 143.527 16.6753 143.527 23.5565V77.4199H147.77V23.5565C147.77 14.3365 140.258 6.7168 131.038 6.7168V6.7168Z" fill="#29EAFD"/>
<path d="M33.2305 96.1562H37.4727V111.004H33.2305V96.1562Z" fill="#29EAFD"/>
<path d="M42.7754 49.2522C42.7754 49.8147 42.9989 50.3542 43.3966 50.752C43.7944 51.1498 44.3339 51.3733 44.8965 51.3733C45.459 51.3733 45.9985 51.1498 46.3963 50.752C46.7941 50.3542 47.0176 49.8147 47.0176 49.2522V31.8493C47.0176 31.2868 46.7941 30.7472 46.3963 30.3495C45.9985 29.9517 45.459 29.7282 44.8965 29.7282C44.3339 29.7282 43.7944 29.9517 43.3966 30.3495C42.9989 30.7472 42.7754 31.2868 42.7754 31.8493V49.2522Z" fill="#29EAFD"/>
<path d="M44.8965 25.7419C45.459 25.7419 45.9985 25.5185 46.3963 25.1207C46.7941 24.7229 47.0176 24.1834 47.0176 23.6208V22.2644C47.0176 21.7019 46.7941 21.1623 46.3963 20.7646C45.9985 20.3668 45.459 20.1433 44.8965 20.1433C44.3339 20.1433 43.7944 20.3668 43.3966 20.7646C42.9989 21.1623 42.7754 21.7019 42.7754 22.2644V23.6208C42.7754 24.1834 42.9989 24.7229 43.3966 25.1207C43.7944 25.5185 44.3339 25.7419 44.8965 25.7419V25.7419Z" fill="#29EAFD"/>
<path d="M143.284 74.9453C141.232 74.9453 139.639 76.7178 139.639 78.7707V94.3816C139.639 96.4348 141.232 98.2773 143.284 98.2773H153.87C155.922 98.2773 157.668 96.4348 157.668 94.3816V78.7707C157.654 77.7653 157.25 76.8046 156.541 76.091C155.833 75.3775 154.875 74.9667 153.87 74.9453H151.305V72.6771C151.305 68.9709 147.304 66.1074 142.384 66.1074H137.871V63.2439C137.871 54.4029 130.54 47.3711 121.699 47.3711H112.064V43.019C112.079 42.7541 112.038 42.4891 111.944 42.241C111.85 41.9928 111.706 41.7669 111.52 41.5777C111.334 41.3885 111.111 41.24 110.864 41.1419C110.618 41.0438 110.354 40.9981 110.089 41.0078H70.9113C70.6463 40.9981 70.3821 41.0438 70.1356 41.1419C69.8892 41.24 69.6659 41.3885 69.48 41.5777C69.2941 41.7669 69.1496 41.9928 69.0559 42.241C68.9622 42.4891 68.9212 42.7541 68.9355 43.019V47.3711H59.5062C57.4104 47.3558 55.3322 47.7549 53.3911 48.5453C51.45 49.3358 49.6842 50.502 48.1951 51.977C46.7061 53.4519 45.5233 55.2066 44.7145 57.1402C43.9057 59.0737 43.487 61.1481 43.4824 63.2439V66.1074H38.7248C33.7434 66.1074 29.6953 68.9709 29.6953 72.6771V74.9453H27.1302C26.1249 74.9667 25.1671 75.3775 24.4587 76.091C23.7502 76.8046 23.3463 77.7653 23.332 78.7707V94.3816C23.332 96.4348 25.0777 98.2773 27.1302 98.2773H37.7155C39.768 98.2773 41.3613 96.4348 41.3613 94.3816V78.7707C41.3613 76.7178 39.768 74.9453 37.7155 74.9453H33.9375V72.6771C33.9375 71.7106 35.8917 70.3496 38.7248 70.3496H43.4824V107.469H41.1941C37.8023 107.483 34.5537 108.838 32.1561 111.237C30.9159 112.478 29.9347 113.954 29.2695 115.578C28.6043 117.201 28.2684 118.941 28.2812 120.696V136.743C26.8564 137.075 25.5882 137.885 24.6877 139.038C23.7873 140.191 23.3088 141.617 23.332 143.08V149.91C23.3224 150.749 23.481 151.581 23.7986 152.357C24.1162 153.134 24.5863 153.838 25.1811 154.43C25.7759 155.021 26.4833 155.488 27.2614 155.801C28.0395 156.114 28.8725 156.268 29.7112 156.254H151.289C152.127 156.268 152.961 156.114 153.739 155.801C154.517 155.488 155.224 155.021 155.819 154.43C156.414 153.838 156.884 153.134 157.201 152.357C157.519 151.581 157.678 150.749 157.668 149.91V143.08C157.691 141.617 157.213 140.191 156.312 139.038C155.412 137.885 154.144 137.075 152.719 136.743V120.67C152.719 113.463 146.907 107.469 139.699 107.469H137.871V70.3496H142.384C145.151 70.3496 147.063 71.7106 147.063 72.6771V74.9453H143.284ZM37.1191 79.1875V94.0351H27.5742V79.1875H37.1191ZM73.1777 45.25H107.822V53.3808H73.1777V45.25ZM47.7246 63.2439C47.7286 61.705 48.0371 60.182 48.6325 58.7628C49.2279 57.3437 50.0982 56.0564 51.1935 54.9752C52.2887 53.894 53.5871 53.0403 55.0138 52.4633C56.4405 51.8863 57.9673 51.5974 59.5062 51.6133H68.9355V55.5511C68.9202 55.8191 68.9601 56.0873 69.0527 56.3393C69.1454 56.5912 69.2887 56.8214 69.474 57.0157C69.6592 57.2099 69.8824 57.3641 70.1296 57.4685C70.3769 57.573 70.6429 57.6256 70.9113 57.623H110.089C110.357 57.6256 110.623 57.573 110.87 57.4685C111.118 57.3641 111.341 57.2099 111.526 57.0157C111.711 56.8214 111.855 56.5912 111.947 56.3393C112.04 56.0873 112.08 55.8191 112.064 55.5511V51.6133H121.699C128.201 51.6133 133.629 56.7424 133.629 63.2439V63.2793H47.7246V63.2439ZM133.629 67.5215V95.0957H92.6211V67.5215H133.629ZM47.7246 67.5215H88.3789V95.0957H47.7246V67.5215ZM151.52 140.699C151.817 140.699 152.111 140.758 152.385 140.871C152.659 140.985 152.908 141.151 153.118 141.361C153.328 141.571 153.494 141.82 153.607 142.094C153.721 142.368 153.779 142.662 153.779 142.958V149.753C153.779 150.049 153.721 150.343 153.607 150.617C153.494 150.891 153.328 151.14 153.118 151.35C152.908 151.56 152.659 151.726 152.385 151.84C152.111 151.953 151.817 152.012 151.52 152.012H29.8332C29.5365 152.012 29.2427 151.953 28.9687 151.84C28.6946 151.726 28.4455 151.56 28.2357 151.35C28.026 151.14 27.8596 150.891 27.7461 150.617C27.6326 150.343 27.5742 150.049 27.5742 149.753V142.958C27.5742 142.662 27.6326 142.368 27.7461 142.094C27.8596 141.82 28.026 141.571 28.2357 141.361C28.4455 141.151 28.6946 140.985 28.9687 140.871C29.2427 140.758 29.5365 140.699 29.8332 140.699H151.52ZM139.724 111.841C140.879 111.844 142.022 112.075 143.088 112.52C144.153 112.966 145.121 113.618 145.934 114.438C146.747 115.258 147.39 116.231 147.827 117.3C148.263 118.37 148.484 119.515 148.477 120.67V136.457H32.5234V120.667C32.5019 118.427 33.3364 116.263 34.8566 114.617C35.6716 113.738 36.6597 113.037 37.7587 112.559C38.8576 112.081 40.0437 111.835 41.2422 111.838H57.2685C57.8351 111.819 58.3723 111.581 58.7665 111.173C59.1607 110.766 59.3811 110.221 59.3813 109.654C59.3814 109.087 59.1612 108.542 58.7672 108.134C58.3732 107.727 57.8362 107.488 57.2695 107.469H47.7246V99.3379H133.629V107.598H71.4809C70.9146 107.597 70.3705 107.819 69.9668 108.216C69.5631 108.613 69.3322 109.153 69.3244 109.72C69.3225 109.997 69.3754 110.272 69.4802 110.53C69.585 110.787 69.7397 111.021 69.9352 111.218C70.1307 111.415 70.3632 111.571 70.6195 111.678C70.8757 111.785 71.1505 111.84 71.4282 111.841L139.724 111.841ZM153.426 79.1875V94.0351H143.881V79.1875H153.426Z" fill="#081158"/>
</svg>
