<svg xmlns="http://www.w3.org/2000/svg" width="74" height="74" viewBox="0 0 74 74">
  <g id="services4" transform="translate(-923 -2376)">
    <circle id="Ellipse_3" data-name="Ellipse 3" cx="37" cy="37" r="37" transform="translate(923 2376)" fill="#b40000" opacity="0.05"/>
    <g id="hand" transform="translate(941.008 2394)">
      <path id="Path_23" data-name="Path 23" d="M219.991,331.461a.742.742,0,1,0-1.05,0A.743.743,0,0,0,219.991,331.461Zm0,0" transform="translate(-202.528 -305.687)" fill="#b40000"/>
      <path id="Path_24" data-name="Path 24" d="M188.449,8.162A8.162,8.162,0,1,0,196.611,0,8.171,8.171,0,0,0,188.449,8.162Zm14.84,0a6.678,6.678,0,1,1-6.678-6.678A6.686,6.686,0,0,1,203.289,8.162Zm0,0" transform="translate(-174.5)" fill="#b40000"/>
      <path id="Path_25" data-name="Path 25" d="M9.048,234.341a.742.742,0,0,0,1.047.006l3.6-3.544a2.242,2.242,0,0,0,.528-2.3l.774-.746a2.213,2.213,0,0,1,1.545-.624H26.4a6.643,6.643,0,0,0,4.658-1.892c.052-.05-.392.472,6.729-8.039a2.968,2.968,0,0,0-4.516-3.852l-4.378,4.5a2.982,2.982,0,0,0-2.307-1.1H18.314A9.572,9.572,0,0,0,14.6,216a9.18,9.18,0,0,0-8.367,4.744,2.216,2.216,0,0,0-1.984.615L.718,224.9a.742.742,0,0,0,0,1.047ZM14.6,217.485a8.1,8.1,0,0,1,3.266.68.74.74,0,0,0,.3.062h8.426a1.484,1.484,0,1,1,0,2.968H20.535a.742.742,0,1,0,0,1.484h6.054a2.963,2.963,0,0,0,2.942-3.356c4.235-4.354,4.833-4.965,4.858-5a1.484,1.484,0,1,1,2.266,1.918L30,224.2a5.166,5.166,0,0,1-3.6,1.446H16.539a3.689,3.689,0,0,0-2.576,1.04l-.631.609L7.52,221.483a7.661,7.661,0,0,1,7.079-4Zm-9.3,4.924a.74.74,0,0,1,.919-.1c.128.078-.24-.257,6.427,6.4a.743.743,0,0,1,0,1.046L9.58,232.771,2.29,225.425Zm0,0" transform="translate(-0.501 -196.561)" fill="#b40000"/>
      <path id="Path_26" data-name="Path 26" d="M267.318,40.73V41.6a2.226,2.226,0,0,0,.742,4.324.742.742,0,1,1,0,1.484,1.342,1.342,0,0,1-.963-.561.742.742,0,0,0-1.136.955,3.077,3.077,0,0,0,1.357.966v.866a.742.742,0,1,0,1.484,0v-.869a2.226,2.226,0,0,0-.742-4.324.742.742,0,0,1,0-1.484,1.191,1.191,0,0,1,.8.388.742.742,0,1,0,1.032-1.066,2.866,2.866,0,0,0-1.093-.683V40.73a.742.742,0,1,0-1.484,0Zm0,0" transform="translate(-246.098 -37.02)" fill="#b40000"/>
    </g>
  </g>
</svg>
