<svg width="123" height="123" viewBox="0 0 123 123" fill="none" xmlns="http://www.w3.org/2000/svg">
<g clip-path="url(#clip0)">
<path d="M29.6309 29.6389C28.8001 30.4707 27.9903 31.3426 27.2236 32.2425L21.2177 28.7741C20.7462 28.5018 20.1867 28.4277 19.6612 28.5679C19.1347 28.709 18.6872 29.0523 18.415 29.5238L12.265 40.1842C11.6994 41.1652 12.0367 42.4194 13.0177 42.9839L19.0135 46.4473C18.2278 48.6795 17.6202 50.9707 17.1978 53.3H10.25C9.1179 53.3 8.2 54.2179 8.2 55.35V67.65C8.2 68.7821 9.1179 69.7 10.25 69.7H17.1978C17.6202 72.0313 18.2268 74.3265 19.0135 76.5617L13.0177 80.0241C12.0387 80.5886 11.7024 81.8398 12.265 82.8198L18.415 93.4802C18.6872 93.9517 19.1347 94.295 19.6612 94.4361C20.1867 94.5773 20.7462 94.5032 21.2177 94.2299L27.2236 90.7615C28.7641 92.5623 30.4417 94.2409 32.2425 95.7804L28.7741 101.786C28.5018 102.258 28.4277 102.817 28.5679 103.343C28.709 103.869 29.0523 104.317 29.5238 104.589L40.1842 110.739C40.6557 111.008 41.2142 111.082 41.7397 110.944C42.2652 110.803 42.7127 110.46 42.9839 109.988L46.4473 103.992C48.6805 104.775 50.9717 105.38 53.3 105.802V112.75C53.3 113.882 54.2179 114.8 55.35 114.8H67.65C68.7821 114.8 69.7 113.882 69.7 112.75V105.802C72.0313 105.379 74.3255 104.771 76.5617 103.986L80.0241 109.982C80.2953 110.454 80.7428 110.797 81.2683 110.938C81.7938 111.075 82.3523 111.002 82.8238 110.733L93.4842 104.583C93.9557 104.311 94.299 103.862 94.4401 103.337C94.5813 102.811 94.5072 102.252 94.2339 101.78L90.7656 95.7744C91.6654 95.0077 92.5393 94.1979 93.3731 93.3631C94.2039 92.5313 95.0137 91.6594 95.7804 90.7595L101.786 94.2279C102.258 94.5012 102.817 94.5743 103.343 94.4341C103.869 94.293 104.317 93.9497 104.589 93.4782L110.739 82.8178C111.305 81.8368 110.968 80.5826 109.986 80.0181L103.99 76.5557C104.775 74.3215 105.381 72.0293 105.802 69.7H112.75C113.882 69.7 114.8 68.7821 114.8 67.65V55.35C114.8 54.2179 113.882 53.3 112.75 53.3H105.802C105.38 50.9687 104.773 48.6735 103.986 46.4383L109.982 42.9759C110.963 42.4104 111.301 41.1572 110.735 40.1762L107.691 34.901L104.583 29.5198C104.016 28.5398 102.763 28.2035 101.782 28.7701L95.7764 32.2384C94.2359 30.4377 92.5583 28.7591 90.7575 27.2196L94.2259 21.2137C94.4982 20.7422 94.5723 20.1827 94.4321 19.6572C94.291 19.1307 93.9477 18.6832 93.4762 18.411L82.8158 12.261C81.8348 11.6954 80.5806 12.0317 80.0161 13.0137L76.5527 19.0095C74.3195 18.2268 72.0283 17.6202 69.7 17.1978V10.25C69.7 9.11789 68.7821 8.2 67.65 8.2H55.35C54.2179 8.2 53.3 9.11789 53.3 10.25V17.1978C50.9687 17.6212 48.6745 18.2288 46.4383 19.0135L42.9759 13.0177C42.4114 12.0387 41.1602 11.7024 40.1802 12.265L29.5198 18.415C29.0483 18.6872 28.705 19.1347 28.5639 19.6612C28.4227 20.1867 28.4968 20.7462 28.7701 21.2177L32.2385 27.2236C31.3386 27.9903 30.4647 28.8001 29.6309 29.6349V29.6389ZM82.5495 106.158L79.2423 100.43C78.7328 99.5461 77.6518 99.1727 76.7048 99.5521C73.6999 100.748 70.5618 101.58 67.3587 102.031C66.3487 102.176 65.599 103.042 65.6 104.063V110.7H57.4V104.063C57.401 103.042 56.6513 102.176 55.6413 102.031C52.4382 101.58 49.3001 100.748 46.2952 99.5521C45.3482 99.1727 44.2672 99.5461 43.7577 100.43L40.4505 106.158L33.3495 102.058L36.6618 96.317C37.1713 95.4351 36.9551 94.313 36.1563 93.6834C33.6148 91.6804 31.3186 89.3852 29.3146 86.8437C28.685 86.0449 27.5629 85.8287 26.681 86.3382L20.9404 89.6485L16.8404 82.5515L22.566 79.2423C23.4479 78.7328 23.8222 77.6528 23.4439 76.7068C22.2507 73.6999 21.4199 70.5618 20.9675 67.3587C20.8223 66.3497 19.9575 65.6 18.9375 65.6H12.3V57.4H18.9395C19.9595 57.4 20.8243 56.6503 20.9695 55.6413C21.4219 52.4382 22.2527 49.3001 23.4459 46.2932C23.8242 45.3472 23.4499 44.2672 22.568 43.7577L16.8424 40.4485L20.9424 33.3515L26.683 36.6618C27.5649 37.1663 28.683 36.952 29.3166 36.1583C29.8952 35.4256 30.4978 34.7129 31.1254 34.0202L42.7177 45.6145C34.4466 55.381 35.0462 69.8571 44.095 78.907C53.1438 87.9568 67.621 88.5564 77.3875 80.2863L88.9798 91.8786C88.2871 92.5072 87.5754 93.1088 86.8437 93.6834C86.0439 94.314 85.8277 95.4371 86.3382 96.319L89.6505 102.06L82.5495 106.158ZM79.2533 51.283C83.8928 59.3069 82.5565 69.4478 75.9951 75.9951C67.9793 83.9419 55.0487 83.9129 47.0679 75.9321C39.0871 67.9513 39.0581 55.0207 47.0049 47.0049C51.5123 42.4945 57.8635 40.3404 64.1846 41.1802C70.5068 42.019 76.0762 45.7546 79.2513 51.285L79.2533 51.283ZM110.7 65.6H104.061C103.041 65.6 102.176 66.3497 102.031 67.3587C101.578 70.5618 100.746 73.6999 99.5521 76.7068C99.1738 77.6538 99.5491 78.7338 100.432 79.2423L106.158 82.5515L102.058 89.6485L96.317 86.3382C95.4361 85.8287 94.314 86.0429 93.6834 86.8417C93.1048 87.5734 92.5022 88.2861 91.8746 88.9798L80.2823 77.3855C83.5976 73.4897 85.6035 68.649 86.0159 63.55H110.7V65.6ZM100.432 43.7577C99.5491 44.2662 99.1738 45.3462 99.5521 46.2932C100.746 49.3001 101.578 52.4382 102.031 55.6413C102.176 56.6503 103.041 57.4 104.061 57.4H110.7V59.45H86.0139C85.7667 56.5372 85.0039 53.6904 83.7587 51.0448L105.165 38.7268L106.162 40.4485L100.432 43.7577ZM40.4505 16.8424L43.7577 22.57C44.2672 23.4539 45.3482 23.8272 46.2952 23.4479C49.3001 22.2517 52.4382 21.4199 55.6413 20.9695C56.6513 20.8243 57.401 19.9585 57.4 18.9375V12.3H65.6V18.9375C65.599 19.9585 66.3487 20.8243 67.3587 20.9695C70.5618 21.4199 73.6999 22.2517 76.7048 23.4479C77.6518 23.8272 78.7328 23.4539 79.2423 22.57L82.5495 16.8424L89.6505 20.9424L86.3382 26.683C85.8287 27.5649 86.0449 28.687 86.8437 29.3166C89.3852 31.3196 91.6814 33.6148 93.6854 36.1563C94.315 36.9551 95.4371 37.1713 96.319 36.6618L102.06 33.3515L103.113 35.1743L81.7047 47.5003C77.1062 40.8789 69.5619 36.921 61.5 36.9C55.6803 36.883 50.0468 38.945 45.6125 42.7137L34.0302 31.1214C34.7229 30.4907 35.4346 29.8902 36.1663 29.3166C36.9671 28.686 37.1823 27.5629 36.6728 26.681L33.3595 20.9404L40.4505 16.8424Z" fill="#252837"/>
<path d="M0 102.5H18.45V106.6H0V102.5Z" fill="#252837"/>
<path d="M0 110.7H24.6V114.8H0V110.7Z" fill="#252837"/>
<path d="M0 118.9H30.75V123H0V118.9Z" fill="#252837"/>
<path d="M102.5 102.5H118.9V106.6H102.5V102.5Z" fill="#252837"/>
<path d="M102.5 110.7H123V114.8H102.5V110.7Z" fill="#252837"/>
<path d="M102.5 118.9H114.8V123H102.5V118.9Z" fill="#252837"/>
<path d="M4.1 0H24.6V4.1H4.1V0Z" fill="#252837"/>
<path d="M4.1 8.2H18.45V12.3H4.1V8.2Z" fill="#252837"/>
<path d="M102.5 6.14999H123V10.25H102.5V6.14999Z" fill="#252837"/>
<path d="M102.5 14.35H116.85V18.45H102.5V14.35Z" fill="#252837"/>
<path d="M4.1 16.4H10.25V20.5H4.1V16.4Z" fill="#252837"/>
<circle cx="61" cy="61" r="22.5" stroke="#EB1C24" stroke-width="5"/>
</g>
<defs>
<clipPath id="clip0">
<rect width="123" height="123" fill="white"/>
</clipPath>
</defs>
</svg>
