<svg xmlns="http://www.w3.org/2000/svg" width="52" height="52" viewBox="0 0 52 52">
  <g id="company-logo1" transform="translate(-335 -1384)">
    <circle id="Ellipse_22" data-name="Ellipse 22" cx="26" cy="26" r="26" transform="translate(335 1384)" fill="#fff"/>
    <g id="crunchyroll" transform="translate(344.458 1392.989)">
      <path id="Path_128" data-name="Path 128" d="M16.54.011a16.54,16.54,0,1,0,0,33.081c.158,0,.314-.011.47-.021l.247-.015a.689.689,0,1,0,0-1.378A13.774,13.774,0,1,1,31.668,17.272a.689.689,0,0,0,.689.657h0a.689.689,0,0,0,.689-.66l.015-.24c.011-.158.021-.317.021-.48A16.558,16.558,0,0,0,16.54.011Z" fill="#ffc107"/>
      <path id="Path_129" data-name="Path 129" d="M139.295,114.772a.671.671,0,0,0-.678.4,4.135,4.135,0,1,1-4.572-5.775.689.689,0,0,0,.2-1.275,12.094,12.094,0,1,0,5.651,7.15A.689.689,0,0,0,139.295,114.772Z" transform="translate(-108.683 -99.652)" fill="#ffc107"/>
    </g>
  </g>
</svg>
