<svg xmlns="http://www.w3.org/2000/svg" width="52" height="52" viewBox="0 0 52 52">
  <g id="company-logo5" transform="translate(-335 -1384)">
    <circle id="Ellipse_22" data-name="Ellipse 22" cx="26" cy="26" r="26" transform="translate(335 1384)" fill="#fff"/>
    <g id="ubuntu" transform="translate(344.659 1395)">
      <circle id="Ellipse_23" data-name="Ellipse 23" cx="3.096" cy="3.096" r="3.096" transform="translate(1.341 11.766)" fill="#ff5722"/>
      <circle id="Ellipse_24" data-name="Ellipse 24" cx="3.096" cy="3.096" r="3.096" transform="translate(21.774 23.533)" fill="#ff5722"/>
      <circle id="Ellipse_25" data-name="Ellipse 25" cx="3.096" cy="3.096" r="3.096" transform="translate(21.774 0)" fill="#ff5722"/>
      <path id="Path_144" data-name="Path 144" d="M219.572,48.831a.619.619,0,0,0,.687.291,6.157,6.157,0,0,1,7.466,4.309.619.619,0,0,0,.6.451h5.061a.619.619,0,0,0,.612-.717,12.353,12.353,0,0,0-2.816-6.095.619.619,0,0,0-.813-.109,4.331,4.331,0,0,1-6.734-3.547.619.619,0,0,0-.554-.607,12.424,12.424,0,0,0-5.728.751.619.619,0,0,0-.315.888Z" transform="translate(-203.092 -40.258)" fill="#ff5722"/>
      <path id="Path_145" data-name="Path 145" d="M233.507,277.333h-5.061a.619.619,0,0,0-.6.451,6.154,6.154,0,0,1-7.466,4.309.619.619,0,0,0-.687.291l-2.532,4.386a.619.619,0,0,0,.315.888,12.231,12.231,0,0,0,5.728.751.619.619,0,0,0,.554-.607,4.325,4.325,0,0,1,6.727-3.547.619.619,0,0,0,.814-.113,12.353,12.353,0,0,0,2.816-6.091.619.619,0,0,0-.514-.709A.627.627,0,0,0,233.507,277.333Z" transform="translate(-203.216 -261.232)" fill="#ff5722"/>
      <path id="Path_146" data-name="Path 146" d="M105.084,102.273a6.18,6.18,0,0,1,0-8.624.619.619,0,0,0,.092-.743l-2.528-4.376a.619.619,0,0,0-.425-.3.646.646,0,0,0-.5.124,12.4,12.4,0,0,0-3.9,5.592.619.619,0,0,0,.192.68,4.267,4.267,0,0,1,0,6.672.619.619,0,0,0-.192.68,12.4,12.4,0,0,0,3.9,5.587.619.619,0,0,0,.391.139.676.676,0,0,0,.111-.01.619.619,0,0,0,.425-.3l2.528-4.378A.619.619,0,0,0,105.084,102.273Z" transform="translate(-90.842 -83.099)" fill="#ff5722"/>
    </g>
  </g>
</svg>
