<svg xmlns="http://www.w3.org/2000/svg" width="52" height="52" viewBox="0 0 52 52">
  <g id="company-logo4" transform="translate(-335 -1384)">
    <circle id="Ellipse_22" data-name="Ellipse 22" cx="26" cy="26" r="26" transform="translate(335 1384)" fill="#fff"/>
    <g id="behance" transform="translate(346 1320.005)">
      <path id="Path_142" data-name="Path 142" d="M12.391,89.125c1.488-.9,1.956-1.752,1.956-3.913A5.217,5.217,0,0,0,9.13,80C4.557,80.012,0,80,0,80V99.559H11.739a3.913,3.913,0,0,0,3.913-3.913v-1.3C15.652,92.181,15.732,89.94,12.391,89.125ZM3.913,83.908H8.478a1.956,1.956,0,1,1,0,3.913H3.913ZM9.782,95.647H3.913V91.734H9.782a1.956,1.956,0,1,1,0,3.913Z" transform="translate(0 0)" fill="#2196f3"/>
      <rect id="Rectangle_3194" data-name="Rectangle 3194" width="9.13" height="3.913" transform="translate(18.26 79.995)" fill="#2196f3"/>
      <path id="Path_143" data-name="Path 143" d="M266.3,195.476a3.884,3.884,0,0,1-6.8-1.017h10.766a6.553,6.553,0,0,0,.082-.978,7.182,7.182,0,1,0-7.175,6.848,7.142,7.142,0,0,0,6.862-4.852Zm-3.13-6.235a3.9,3.9,0,0,1,3.673,2.609H259.5A3.9,3.9,0,0,1,263.173,189.242Z" transform="translate(-240.347 -100.117)" fill="#2196f3"/>
    </g>
  </g>
</svg>
