<svg xmlns="http://www.w3.org/2000/svg" width="52" height="52" viewBox="0 0 52 52">
  <g id="company-logo2" transform="translate(-335 -1384)">
    <path id="Path_196" data-name="Path 196" d="M26,0A26,26,0,1,1,0,26,26,26,0,0,1,26,0Z" transform="translate(335 1384)" fill="#fff"/>
    <g id="admin_1_" data-name="admin (1)" transform="translate(334.614 1393.598)">
      <g id="Group_55" data-name="Group 55" transform="translate(10.667 0)">
        <path id="Path_130" data-name="Path 130" d="M22.59,32.147l-1.445-4.4A12.56,12.56,0,0,1,19.2,26.609l-4.494.92a.959.959,0,0,1-1.025-.461L10.8,22.074a.958.958,0,0,1,.113-1.118l3.041-3.432a10.877,10.877,0,0,1,0-2.245l-3.041-3.432A.959.959,0,0,1,10.8,10.73L13.68,5.737A.95.95,0,0,1,14.7,5.276L19.2,6.2a12.541,12.541,0,0,1,1.945-1.135L22.59.657A.963.963,0,0,1,23.5,0h5.766a.963.963,0,0,1,.912.657l1.447,4.4A12.547,12.547,0,0,1,33.573,6.2l4.494-.92a.952.952,0,0,1,1.025.461l2.883,4.993a.958.958,0,0,1-.113,1.118L38.821,15.28a10.877,10.877,0,0,1,0,2.245l3.041,3.432a.959.959,0,0,1,.113,1.118l-2.883,4.993a.96.96,0,0,1-1.025.461l-4.494-.92a12.523,12.523,0,0,1-1.95,1.138l-1.442,4.4Z" transform="translate(-10.667 0)" fill="#4086f4"/>
      </g>
      <g id="Group_58" data-name="Group 58" transform="translate(26.386 0)">
        <g id="Group_57" data-name="Group 57">
          <g id="Group_56" data-name="Group 56">
            <path id="Path_131" data-name="Path 131" d="M271.589,10.73l-2.883-4.993a.952.952,0,0,0-1.025-.461l-4.494.92a12.54,12.54,0,0,0-1.945-1.135L259.8.657A.963.963,0,0,0,258.883,0H256V32.147h3.8l1.442-4.4a12.524,12.524,0,0,0,1.95-1.138l4.494.92a.96.96,0,0,0,1.025-.461l2.883-4.993a.958.958,0,0,0-.113-1.118l-3.041-3.432a10.878,10.878,0,0,0,0-2.245l3.041-3.432a.959.959,0,0,0,.113-1.118Z" transform="translate(-256 0)" fill="#4175df"/>
          </g>
        </g>
      </g>
      <g id="Group_60" data-name="Group 60" transform="translate(22.542 22.554)">
        <g id="Group_59" data-name="Group 59">
          <path id="Path_132" data-name="Path 132" d="M202.727,362.264h-5.766A.961.961,0,0,1,196,361.3v-8.329a.961.961,0,0,1,1.344-.881,6.573,6.573,0,0,0,5,0,.961.961,0,0,1,1.344.881V361.3A.961.961,0,0,1,202.727,362.264Z" transform="translate(-196 -352.013)" fill="#e3e7ea"/>
        </g>
      </g>
      <path id="Path_133" data-name="Path 133" d="M258.883,362.274a.961.961,0,0,0,.961-.961v-8.329a.961.961,0,0,0-1.344-.881,6.339,6.339,0,0,1-2.5.494v9.677Z" transform="translate(-229.614 -329.47)" fill="#babac0"/>
      <g id="Group_62" data-name="Group 62" transform="translate(17.736 8.309)">
        <g id="Group_61" data-name="Group 61">
          <path id="Path_134" data-name="Path 134" d="M126.383,145.768a8.641,8.641,0,0,1,.017-16.013.961.961,0,0,1,1.327.889v6.617l1.922,1.281,1.922-1.281v-6.617a.961.961,0,0,1,1.327-.889,8.641,8.641,0,0,1-.007,16.023,8.446,8.446,0,0,1-6.508-.01Z" transform="translate(-121 -129.681)" fill="#fff5f5"/>
        </g>
      </g>
      <path id="Path_135" data-name="Path 135" d="M259.242,145.778a8.641,8.641,0,0,0,.008-16.024.961.961,0,0,0-1.327.889v6.617L256,138.541v7.881A8.189,8.189,0,0,0,259.242,145.778Z" transform="translate(-229.614 -121.372)" fill="#e3e7ea"/>
    </g>
  </g>
</svg>
