<svg xmlns="http://www.w3.org/2000/svg" width="52" height="52" viewBox="0 0 52 52">
  <g id="company-logo3" transform="translate(-335 -1384)">
    <circle id="Ellipse_22" data-name="Ellipse 22" cx="26" cy="26" r="26" transform="translate(335 1384)" fill="#fff"/>
    <g id="google" transform="translate(347 1396)">
      <path id="Path_136" data-name="Path 136" d="M6.463,108.605a7.28,7.28,0,0,1,1.03-3.742v-4.648H2.845a13.795,13.795,0,0,0,0,16.78H7.493v-4.648A7.28,7.28,0,0,1,6.463,108.605Z" transform="translate(0 -94.818)" fill="#fbbd00"/>
      <path id="Path_137" data-name="Path 137" d="M199.231,373.986,196,377.218l3.231,3.231a13.683,13.683,0,0,0,8.39-2.845v-4.643h-4.643A7.324,7.324,0,0,1,199.231,373.986Z" transform="translate(-185.444 -352.874)" fill="#0f9d58"/>
      <path id="Path_138" data-name="Path 138" d="M57.471,325.477l-4.648,4.648a14.015,14.015,0,0,0,1.193,1.359,13.7,13.7,0,0,0,9.749,4.038V329.06A7.328,7.328,0,0,1,57.471,325.477Z" transform="translate(-49.978 -307.947)" fill="#31aa52"/>
      <path id="Path_139" data-name="Path 139" d="M269.788,200.484a13.908,13.908,0,0,0-.226-2.5l-.121-.662H256v6.463h6.541a7.292,7.292,0,0,1-2.794,3l4.643,4.643a14.01,14.01,0,0,0,1.359-1.193A13.7,13.7,0,0,0,269.788,200.484Z" transform="translate(-242.212 -186.697)" fill="#3c79e6"/>
      <path id="Path_140" data-name="Path 140" d="M204.411,8.608l.571.571,4.57-4.57-.571-.571A13.7,13.7,0,0,0,199.231,0L196,3.231l3.231,3.231A7.277,7.277,0,0,1,204.411,8.608Z" transform="translate(-185.444)" fill="#cf2d48"/>
      <path id="Path_141" data-name="Path 141" d="M63.765,6.463V0a13.7,13.7,0,0,0-9.749,4.038A13.994,13.994,0,0,0,52.822,5.4l4.648,4.648a7.328,7.328,0,0,1,6.294-3.583Z" transform="translate(-49.977 0)" fill="#eb4132"/>
    </g>
  </g>
</svg>
