<svg id="flag" xmlns="http://www.w3.org/2000/svg" width="25" height="25" viewBox="0 0 25 25">
  <circle id="Ellipse_21" data-name="Ellipse 21" cx="12.5" cy="12.5" r="12.5" fill="#f0f0f0"/>
  <g id="Group_54" data-name="Group 54" transform="translate(0.426 2.686)">
    <path id="Path_123" data-name="Path 123" d="M244.87,192.44h12.892a12.369,12.369,0,0,0-.426-3.223H244.87Z" transform="translate(-233.478 -182.771)" fill="#d80027"/>
    <path id="Path_124" data-name="Path 124" d="M244.87,58.875h11.078a12.42,12.42,0,0,0-2.851-3.223H244.87Z" transform="translate(-233.478 -55.652)" fill="#d80027"/>
    <path id="Path_125" data-name="Path 125" d="M104.335,459.034a12.3,12.3,0,0,0,7.691-2.686H96.644A12.3,12.3,0,0,0,104.335,459.034Z" transform="translate(-92.406 -437.01)" fill="#d80027"/>
    <path id="Path_126" data-name="Path 126" d="M10.207,326.005H31.289a12.281,12.281,0,0,0,1.388-3.223H8.819A12.282,12.282,0,0,0,10.207,326.005Z" transform="translate(-8.819 -309.89)" fill="#d80027"/>
  </g>
  <path id="Path_127" data-name="Path 127" d="M5.723,1.929H6.849L5.8,2.69l.4,1.231L5.154,3.16l-1.047.761.346-1.064a12.423,12.423,0,0,0-2.4,2.671h.361l-.667.484q-.156.26-.3.528l.318.98-.594-.431q-.221.469-.4.959l.351,1.079H2.417L1.37,9.888l.4,1.231L.723,10.358.1,10.814A12.474,12.474,0,0,0,0,12.355H12.355V0A12.3,12.3,0,0,0,5.723,1.929Zm.479,9.19-1.047-.761-1.047.761.4-1.231L3.46,9.127H4.754l.4-1.231.4,1.231H6.849L5.8,9.888Zm-.4-4.83L6.2,7.52,5.154,6.759,4.107,7.52l.4-1.231L3.46,5.528H4.754l.4-1.231.4,1.231H6.849Zm4.832,4.83-1.047-.761-1.047.761.4-1.231L7.891,9.127H9.186l.4-1.231.4,1.231H11.28l-1.047.761Zm-.4-4.83.4,1.231L9.586,6.759,8.539,7.52l.4-1.231L7.891,5.528H9.186l.4-1.231.4,1.231H11.28Zm0-3.6.4,1.231L9.586,3.16l-1.047.761.4-1.231L7.891,1.929H9.186L9.586.7l.4,1.231H11.28Z" fill="#0052b4"/>
</svg>
