<svg xmlns="http://www.w3.org/2000/svg" width="77" height="77" viewBox="0 0 77 77">
  <g id="icon2" transform="translate(-300 -4345)">
    <circle id="Ellipse_29" data-name="Ellipse 29" cx="38.5" cy="38.5" r="38.5" transform="translate(300 4345)" fill="#007aff"/>
    <g id="megaphone" transform="translate(317 4366)">
      <path id="Path_189" data-name="Path 189" d="M33.241,20.881h-.8V13.448a2.266,2.266,0,0,0-2.264-2.264H28.5l-.024,0a.57.57,0,0,0-.115.017l-.038.012a.594.594,0,0,0-.1.043c-.007,0-.015.005-.022.01A44.7,44.7,0,0,1,5.219,17.631H3.94A3.945,3.945,0,0,0,0,21.572v5.8a3.945,3.945,0,0,0,3.94,3.94h.922L2.623,44.353a1.928,1.928,0,0,0,1.9,2.255H7.586a1.924,1.924,0,0,0,1.9-1.6l.7-4.091H11.4a1.923,1.923,0,0,0,1.9-1.6l.556-3.237a1.928,1.928,0,0,0-1.9-2.254h-.544l.348-2.024a44.679,44.679,0,0,1,16.419,5.861l.014.008.014.008h0a.585.585,0,0,0,.138.059l.008,0a.586.586,0,0,0,.152.022h1.677a2.266,2.266,0,0,0,2.264-2.264V28.064h.8a2.6,2.6,0,0,0,2.6-2.6V23.479a2.6,2.6,0,0,0-2.6-2.6ZM1.174,27.37v-5.8A2.77,2.77,0,0,1,3.94,18.805H5.219a45.863,45.863,0,0,0,22.7-6.011l0,23.354a45.862,45.862,0,0,0-16.529-5.591.082.082,0,0,1-.015,0,.213.213,0,0,0-.025,0,45.827,45.827,0,0,0-6.129-.416H3.94A2.77,2.77,0,0,1,1.174,27.37ZM11.952,35a.754.754,0,0,1,.743.882l-.556,3.237a.753.753,0,0,1-.744.627H10.39L11,36.193,11.2,35ZM8.33,44.807a.753.753,0,0,1-.744.627H4.523a.755.755,0,0,1-.743-.882L6.052,31.325a44.72,44.72,0,0,1,4.54.317ZM31.271,35.5a1.091,1.091,0,0,1-1.09,1.09h-1.09V12.358h1.09a1.091,1.091,0,0,1,1.09,1.09Zm3.4-10.031a1.427,1.427,0,0,1-1.425,1.425h-.8V22.055h.8a1.427,1.427,0,0,1,1.425,1.425Z" transform="translate(0 -11.184)" fill="#fff"/>
      <path id="Path_190" data-name="Path 190" d="M20.825,45.582a.587.587,0,0,0,.714-.573V35.575A.587.587,0,0,0,20.825,35a47.446,47.446,0,0,1-10.289,1.133H9.258A1.259,1.259,0,0,0,8,37.393v5.8a1.259,1.259,0,0,0,1.258,1.258h1.279a47.452,47.452,0,0,1,10.289,1.133ZM9.174,43.192v-5.8a.085.085,0,0,1,.084-.084h1.279a48.608,48.608,0,0,0,9.83-1.009v7.981a48.612,48.612,0,0,0-9.83-1.006H9.258A.085.085,0,0,1,9.174,43.192Z" transform="translate(-5.317 -27.006)" fill="#fff"/>
      <path id="Path_191" data-name="Path 191" d="M118.523,49.059h-3.312a.587.587,0,0,0,0,1.174h3.312a.587.587,0,0,0,0-1.174Z" transform="translate(-76.186 -36.358)" fill="#fff"/>
      <path id="Path_192" data-name="Path 192" d="M110.437,34.057a.584.584,0,0,0,.415-.172l2.341-2.342a.587.587,0,0,0-.83-.83l-2.342,2.341a.587.587,0,0,0,.415,1Z" transform="translate(-73.012 -24.05)" fill="#fff"/>
      <path id="Path_193" data-name="Path 193" d="M110.849,60.764a.587.587,0,1,0-.83.83l2.342,2.342a.587.587,0,1,0,.83-.83Z" transform="translate(-73.01 -44.023)" fill="#fff"/>
    </g>
  </g>
</svg>
