<svg xmlns="http://www.w3.org/2000/svg" width="77" height="77" viewBox="0 0 77 77">
  <g id="icon3" transform="translate(-300 -4447)">
    <circle id="Ellipse_30" data-name="Ellipse 30" cx="38.5" cy="38.5" r="38.5" transform="translate(300 4447)" fill="#007aff"/>
    <g id="stats" transform="translate(321 4468)">
      <g id="Group_64" data-name="Group 64" transform="translate(0 13.525)">
        <g id="Group_63" data-name="Group 63">
          <path id="Path_194" data-name="Path 194" d="M35.467,213.79H32.051V192.9a.528.528,0,0,0-.528-.528H25.887a.528.528,0,0,0-.528.528V213.79H21.344V199.1a.528.528,0,0,0-.528-.528H15.18a.528.528,0,0,0-.528.528V213.79H10.637V201.921a.528.528,0,0,0-.528-.528H4.473a.528.528,0,0,0-.528.528V213.79H.528a.528.528,0,1,0,0,1.057H35.467a.528.528,0,1,0,0-1.057Zm-25.887,0H5V202.449H9.58V213.79Zm10.707,0H15.708V199.632h4.579Zm10.707,0H26.416V193.433h4.579V213.79Z" transform="translate(0 -192.376)" fill="#fff"/>
        </g>
      </g>
      <g id="Group_66" data-name="Group 66" transform="translate(0.564 0)">
        <g id="Group_65" data-name="Group 65">
          <path id="Path_195" data-name="Path 195" d="M41.762.414a1.655,1.655,0,0,0-1.3-.4L35.953.576a1.655,1.655,0,0,0,.411,3.285l.368-.046a39.957,39.957,0,0,1-16.76,11.4A38.216,38.216,0,0,1,9.621,17.47a1.655,1.655,0,0,0,.051,3.31h.051a40.492,40.492,0,0,0,11.283-2.42,44.4,44.4,0,0,0,9.905-4.98.528.528,0,0,0-.59-.876,43.333,43.333,0,0,1-9.67,4.861,39.33,39.33,0,0,1-10.96,2.359H9.672a.6.6,0,0,1-.018-1.2,39.048,39.048,0,0,0,10.674-2.318A40.876,40.876,0,0,0,38.405,3.456a.533.533,0,0,0-.477-.855l-1.7.212a.6.6,0,1,1-.149-1.188l4.508-.564a.6.6,0,0,1,.673.594V6.163a.6.6,0,0,1-1.2,0V4.8a.528.528,0,0,0-.938-.334,40.848,40.848,0,0,1-6.678,6.5.528.528,0,0,0,.646.837,41.872,41.872,0,0,0,5.915-5.564,1.655,1.655,0,0,0,3.309-.074V1.655A1.657,1.657,0,0,0,41.762.414Z" transform="translate(-8.017 0)" fill="#fff"/>
        </g>
      </g>
    </g>
  </g>
</svg>
