<svg width="181" height="181" viewBox="0 0 181 181" fill="none" xmlns="http://www.w3.org/2000/svg">
<path d="M16.8132 64.2974H27.4187V95.276H16.8132V64.2974Z" fill="#D4E1F4"/>
<path d="M9.76764 110.148L14.8406 131.331L14.9537 131.465C17.732 129.187 19.9927 126.443 23.9917 125.259L20.3731 110.148L20.4968 110.12H20.366L16.8132 95.276H6.20773L9.76764 110.148Z" fill="#D4E1F4"/>
<path d="M32.4103 64.2338V64.2974H43.0158V64.2338V33.1138H32.4103V64.2338Z" fill="#D4E1F4"/>
<path d="M177.47 81.4355C177.27 81.1627 177.006 80.9437 176.7 80.7982C176.395 80.6527 176.058 80.5851 175.721 80.6015H172.162V73.1912C172.152 71.6861 171.548 70.2459 170.481 69.1841C169.414 68.1222 167.971 67.5247 166.466 67.5215H161.557V25.4588C161.567 23.7296 160.906 22.0638 159.713 20.8118C158.52 19.5599 156.888 18.8194 155.161 18.7461C153.433 18.6728 151.744 19.2725 150.45 20.419C149.155 21.5654 148.356 23.1693 148.22 24.8931L123.504 17.4672C123.015 17.3206 122.49 17.3554 122.026 17.5652C121.561 17.7751 121.187 18.1457 120.974 18.609L119.157 22.5493C118.951 22.9958 118.907 23.4998 119.032 23.9752C119.157 24.4505 119.443 24.8677 119.842 25.1555V44.543H118.051C116.88 44.543 115.953 45.6272 115.953 46.7984V51.1215C115.949 51.884 116.099 52.6394 116.394 53.3423C116.69 54.0452 117.124 54.6811 117.672 55.2117L120.195 57.651V61.23C120.2 61.7945 120.427 62.3344 120.829 62.7318C121.23 63.1292 121.772 63.3518 122.336 63.351C122.881 63.3448 123.407 63.5546 123.798 63.9347C124.188 64.3147 124.413 64.8341 124.422 65.3792C124.428 65.6431 124.381 65.9056 124.285 66.1513C124.188 66.397 124.043 66.6209 123.859 66.8098C123.674 66.9987 123.454 67.1489 123.211 67.2515C122.968 67.3541 122.706 67.4071 122.442 67.4073C121.9 67.4098 121.378 67.1969 120.992 66.8152C120.607 66.4336 120.388 65.9144 120.385 65.3717C120.385 64.8092 120.161 64.2697 119.764 63.8719C119.366 63.4741 118.826 63.2506 118.264 63.2506C117.701 63.2506 117.162 63.4741 116.764 63.8719C116.366 64.2697 116.143 64.8092 116.143 65.3717C116.139 66.5218 116.453 67.6506 117.049 68.634C117.646 69.6174 118.501 70.4175 119.523 70.9463C120.544 71.4751 121.691 71.7123 122.838 71.6317C123.986 71.551 125.089 71.1558 126.026 70.4893C126.963 69.8229 127.699 68.911 128.151 67.8538C128.604 66.7967 128.757 65.6352 128.593 64.4969C128.429 63.3585 127.954 62.2875 127.221 61.4013C126.488 60.5152 125.525 59.8482 124.437 59.4737V57.7365L127.101 55.1484H127.192C127.755 54.6366 128.209 54.0158 128.525 53.3237C128.842 52.6315 129.014 51.8824 129.033 51.1215V46.7984C129.002 46.2055 128.75 45.6458 128.327 45.2287C127.905 44.8115 127.342 44.567 126.749 44.543H124.084V27.5169L148.123 40.8349V67.5215H143.395C142.659 67.5265 141.931 67.6776 141.253 67.9661C140.576 68.2546 139.962 68.6748 139.449 69.2022C138.935 69.7296 138.531 70.3538 138.26 71.0385C137.989 71.7233 137.857 72.4549 137.871 73.1912V80.6015H134.212C133.897 80.6017 133.586 80.6719 133.302 80.807C133.018 80.9421 132.767 81.1388 132.568 81.3828L122.835 93.3281H112.418V64.2974C112.42 64.0225 112.367 63.7499 112.262 63.4956C112.158 63.2414 112.003 63.0107 111.808 62.8171C111.613 62.6234 111.381 62.4707 111.126 62.368C110.871 62.2652 110.598 62.2145 110.323 62.2187H96.8633V33.1127C96.859 32.8394 96.7998 32.5698 96.6892 32.3199C96.5786 32.0699 96.4188 31.8448 96.2194 31.6579C96.0199 31.471 95.785 31.3261 95.5284 31.2318C95.2718 31.1376 94.9989 31.096 94.7259 31.1094H32.4092C32.143 31.0983 31.8774 31.1425 31.6292 31.2393C31.3809 31.336 31.1554 31.4831 30.9668 31.6713C30.7783 31.8596 30.6308 32.0848 30.5336 32.3329C30.4365 32.581 30.3918 32.8465 30.4023 33.1127V62.2187H16.8121C15.6406 62.2187 14.8477 63.1262 14.8477 64.2974V93.3281H6.20914C5.89499 93.3084 5.58064 93.3632 5.29167 93.488C5.0027 93.6128 4.74729 93.8041 4.54624 94.0463C4.34519 94.2885 4.20418 94.5747 4.1347 94.8817C4.06521 95.1887 4.06922 95.5078 4.14638 95.813L12.7782 131.847L16.9037 130.848L12.4943 112.418H39.9473C40.5098 112.418 41.0493 112.194 41.4471 111.797C41.8449 111.399 42.0684 110.859 42.0684 110.297C42.0684 109.734 41.8449 109.195 41.4471 108.797C41.0493 108.399 40.5098 108.176 39.9473 108.176H11.4786L8.89798 97.5703H123.842C124.157 97.5703 124.468 97.5002 124.753 97.3651C125.037 97.23 125.288 97.0332 125.487 96.789L135.22 84.8437H172.63L163.572 108.176H54.0879C53.5253 108.176 52.9858 108.399 52.588 108.797C52.1903 109.195 51.9668 109.734 51.9668 110.297C51.9668 110.859 52.1903 111.399 52.588 111.797C52.9858 112.194 53.5253 112.418 54.0879 112.418H161.935L156.559 126.367L160.519 127.892L177.7 83.3137C177.824 83.0069 177.868 82.6735 177.828 82.3449C177.787 82.0163 177.664 81.7034 177.47 81.4355V81.4355ZM93.3281 66.4609H96.1562V68.6654L95.6115 68.3826C95.3397 68.249 95.0408 68.1795 94.7379 68.1795C94.4351 68.1795 94.1362 68.249 93.8644 68.3826L93.3281 68.6654V66.4609ZM77.7734 35.3516H80.6016V37.4808L80.0359 37.198C79.766 37.0642 79.4689 36.9946 79.1677 36.9946C78.8665 36.9946 78.5694 37.0642 78.2995 37.198L77.7741 37.4808L77.7734 35.3516ZM65.7539 35.3516H73.5312V40.8289C73.5201 41.1819 73.5994 41.5319 73.7618 41.8455C73.9242 42.1591 74.1642 42.4259 74.4589 42.6205C74.7876 42.8354 75.1719 42.9499 75.5647 42.95C75.8733 42.9501 76.1781 42.8806 76.4562 42.7467L79.1716 41.4603L81.8908 42.7467C82.2077 42.8993 82.5584 42.9679 82.9094 42.9458C83.2603 42.9237 83.5997 42.8117 83.8949 42.6205C84.1924 42.4272 84.4356 42.1613 84.6017 41.8478C84.7677 41.5343 84.851 41.1836 84.8437 40.8289V35.3516H92.6211V62.2187H65.7539V35.3516ZM62.2187 66.4609H65.0469V68.6654L64.4597 68.3826C64.1917 68.2489 63.8963 68.1793 63.5967 68.1793C63.2972 68.1793 63.0018 68.2489 62.7338 68.3826L62.2187 68.6654V66.4609ZM46.3105 35.3516H49.4922V37.4808L48.8834 37.198C48.5861 37.0639 48.2636 36.9946 47.9374 36.9946C47.6112 36.9946 47.2888 37.0639 46.9914 37.198L46.3105 37.4808V35.3516ZM34.6445 35.3516H42.0684V40.8289C42.0831 41.192 42.1877 41.5457 42.3728 41.8584C42.5579 42.1711 42.8177 42.433 43.1289 42.6205C43.4822 42.8363 43.8882 42.9503 44.3022 42.95C44.6217 42.9502 44.9374 42.8808 45.2274 42.7467L47.9593 41.4603L50.6871 42.7467C51.0115 42.8999 51.3694 42.9689 51.7275 42.9473C52.0857 42.9256 52.4326 42.8141 52.7363 42.623C53.04 42.4319 53.2906 42.1673 53.4651 41.8538C53.6395 41.5402 53.7321 41.1877 53.7344 40.8289V35.3516H61.5117V62.2187H34.6445V35.3516ZM30.7559 66.4609H33.9375V68.6654L33.3079 68.3826C33.0124 68.2486 32.6917 68.1793 32.3672 68.1793C32.0427 68.1793 31.722 68.2486 31.4265 68.3826L30.7548 68.6654L30.7559 66.4609ZM45.957 93.3281H19.0898V66.4609H26.5137V72.0139C26.5261 72.3754 26.6276 72.7283 26.8093 73.041C26.991 73.3538 27.2473 73.6168 27.5552 73.8066C27.8631 73.9964 28.2131 74.1072 28.5742 74.129C28.9352 74.1508 29.2961 74.0831 29.6246 73.9318L32.3608 72.6453L35.0903 73.9318C35.3748 74.0657 35.6854 74.1351 35.9999 74.135C36.4118 74.1355 36.8157 74.0214 37.1665 73.8056C37.4718 73.6155 37.7245 73.3519 37.9015 73.0389C38.0785 72.7259 38.1742 72.3735 38.1797 72.0139V66.4609H45.957V93.3281ZM77.0664 93.3281H50.1992V66.4609H57.9766V72.0139C57.9584 72.3655 58.0323 72.7157 58.1911 73.0299C58.35 73.344 58.5881 73.6112 58.882 73.805C59.1759 73.9988 59.5153 74.1125 59.8666 74.1347C60.2179 74.1569 60.569 74.087 60.8849 73.9318L63.5872 72.6453L66.3001 73.9318C66.5816 74.0657 66.8894 74.1351 67.2012 74.135C67.598 74.135 67.9863 74.0206 68.3197 73.8056C68.6197 73.6133 68.8659 73.3481 69.0355 73.0348C69.205 72.7214 69.2923 72.3702 69.2891 72.0139V66.4609H77.0664V93.3281ZM108.176 93.3281H81.3086V66.4609H89.0859V72.0139C89.0775 72.3688 89.1602 72.7198 89.3263 73.0335C89.4924 73.3472 89.7362 73.613 90.0344 73.8055C90.3326 73.9979 90.6753 74.1106 91.0295 74.1327C91.3838 74.1548 91.7377 74.0856 92.0576 73.9318L94.7708 72.6453L97.4887 73.9318C97.7712 74.0657 98.0799 74.1351 98.3926 74.135C98.7765 74.1348 99.1517 74.0201 99.4701 73.8056C99.7649 73.611 100.005 73.3442 100.167 73.0306C100.33 72.717 100.409 72.367 100.398 72.0139V66.4609H108.176V93.3281ZM152.365 25.4588C152.365 24.8025 152.626 24.173 153.09 23.709C153.554 23.2449 154.184 22.9842 154.84 22.9842C155.496 22.9842 156.126 23.2449 156.59 23.709C157.054 24.173 157.314 24.8025 157.314 25.4588V67.5215H152.365V25.4588ZM124.791 48.7851V51.1215C124.745 51.5649 124.564 51.9835 124.272 52.3203H124.231L122.42 53.9419L120.631 52.1881C120.352 51.9035 120.195 51.5205 120.195 51.1215V48.7851H124.791ZM123.793 22.5363L123.991 22.0597L148.123 29.3142V35.9896L123.793 22.5363ZM167.92 80.6015H142.113V73.1912C142.099 73.0122 142.121 72.8321 142.178 72.6619C142.235 72.4917 142.327 72.335 142.447 72.2014C142.567 72.0678 142.713 71.9601 142.876 71.8848C143.039 71.8095 143.216 71.7683 143.395 71.7637H166.466C166.847 71.7656 167.211 71.9158 167.483 72.1823C167.754 72.4489 167.911 72.8108 167.92 73.1912V80.6015Z" fill="#081158"/>
<path d="M54.1879 79.541C54.1879 80.1036 54.4114 80.6431 54.8092 81.0409C55.207 81.4386 55.7465 81.6621 56.309 81.6621H71.0269C71.5895 81.6621 72.129 81.4386 72.5268 81.0409C72.9246 80.6431 73.148 80.1036 73.148 79.541C73.148 78.9785 72.9246 78.439 72.5268 78.0412C72.129 77.6434 71.5895 77.4199 71.0269 77.4199H56.309C55.7465 77.4199 55.207 77.6434 54.8092 78.0412C54.4114 78.439 54.1879 78.9785 54.1879 79.541V79.541Z" fill="#081158"/>
<path d="M71.0269 83.7832H56.1086C55.546 83.7832 55.0065 84.0067 54.6087 84.4045C54.211 84.8022 53.9875 85.3417 53.9875 85.9043C53.9875 86.4668 54.211 87.0064 54.6087 87.4041C55.0065 87.8019 55.546 88.0254 56.1086 88.0254H71.0269C71.5895 88.0254 72.129 87.8019 72.5268 87.4041C72.9246 87.0064 73.148 86.4668 73.148 85.9043C73.148 85.3417 72.9246 84.8022 72.5268 84.4045C72.129 84.0067 71.5895 83.7832 71.0269 83.7832Z" fill="#081158"/>
<path d="M25.1152 81.6621H39.8331C40.3956 81.6621 40.9351 81.4386 41.3329 81.0409C41.7307 80.6431 41.9542 80.1036 41.9542 79.541C41.9542 78.9785 41.7307 78.439 41.3329 78.0412C40.9351 77.6434 40.3956 77.4199 39.8331 77.4199H25.1152C24.5526 77.4199 24.0131 77.6434 23.6153 78.0412C23.2176 78.439 22.9941 78.9785 22.9941 79.541C22.9941 80.1036 23.2176 80.6431 23.6153 81.0409C24.0131 81.4386 24.5526 81.6621 25.1152 81.6621V81.6621Z" fill="#081158"/>
<path d="M39.8331 83.7832H24.9147C24.3522 83.7832 23.8127 84.0067 23.4149 84.4045C23.0171 84.8022 22.7936 85.3417 22.7936 85.9043C22.7936 86.4668 23.0171 87.0064 23.4149 87.4041C23.8127 87.8019 24.3522 88.0254 24.9147 88.0254H39.8331C40.3956 88.0254 40.9352 87.8019 41.3329 87.4041C41.7307 87.0064 41.9542 86.4668 41.9542 85.9043C41.9542 85.3417 41.7307 84.8022 41.3329 84.4045C40.9352 84.0067 40.3956 83.7832 39.8331 83.7832V83.7832Z" fill="#081158"/>
<path d="M87.5029 77.4199C86.9404 77.4199 86.4008 77.6434 86.0031 78.0412C85.6053 78.439 85.3818 78.9785 85.3818 79.541C85.3818 80.1036 85.6053 80.6431 86.0031 81.0409C86.4008 81.4386 86.9404 81.6621 87.5029 81.6621H102.221C102.783 81.6621 103.323 81.4386 103.721 81.0409C104.118 80.6431 104.342 80.1036 104.342 79.541C104.342 78.9785 104.118 78.439 103.721 78.0412C103.323 77.6434 102.783 77.4199 102.221 77.4199H87.5029Z" fill="#081158"/>
<path d="M102.221 83.7832H87.3025C86.7399 83.7832 86.2004 84.0067 85.8026 84.4045C85.4048 84.8022 85.1814 85.3417 85.1814 85.9043C85.1814 86.4668 85.4048 87.0064 85.8026 87.4041C86.2004 87.8019 86.7399 88.0254 87.3025 88.0254H102.221C102.783 88.0254 103.323 87.8019 103.721 87.4041C104.118 87.0064 104.342 86.4668 104.342 85.9043C104.342 85.3417 104.118 84.8022 103.721 84.4045C103.323 84.0067 102.783 83.7832 102.221 83.7832Z" fill="#081158"/>
<path d="M71.9051 50.5527H86.6227C87.1852 50.5527 87.7247 50.3293 88.1225 49.9315C88.5203 49.5337 88.7437 48.9942 88.7437 48.4316C88.7437 47.8691 88.5203 47.3296 88.1225 46.9318C87.7247 46.534 87.1852 46.3105 86.6227 46.3105H71.9051C71.3425 46.3105 70.803 46.534 70.4053 46.9318C70.0075 47.3296 69.784 47.8691 69.784 48.4316C69.784 48.9942 70.0075 49.5337 70.4053 49.9315C70.803 50.3293 71.3425 50.5527 71.9051 50.5527V50.5527Z" fill="#081158"/>
<path d="M71.7054 56.916H86.6237C87.1863 56.916 87.7258 56.6925 88.1235 56.2948C88.5213 55.897 88.7448 55.3575 88.7448 54.7949C88.7448 54.2324 88.5213 53.6929 88.1235 53.2951C87.7258 52.8973 87.1863 52.6738 86.6237 52.6738H71.7054C71.1428 52.6738 70.6033 52.8973 70.2055 53.2951C69.8077 53.6929 69.5843 54.2324 69.5843 54.7949C69.5843 55.3575 69.8077 55.897 70.2055 56.2948C70.6033 56.6925 71.1428 56.916 71.7054 56.916Z" fill="#081158"/>
<path d="M40.7123 50.5527H55.4313C55.9938 50.5527 56.5333 50.3293 56.9311 49.9315C57.3289 49.5337 57.5524 48.9942 57.5524 48.4316C57.5524 47.8691 57.3289 47.3296 56.9311 46.9318C56.5333 46.534 55.9938 46.3105 55.4313 46.3105H40.7123C40.1497 46.3105 39.6102 46.534 39.2124 46.9318C38.8147 47.3296 38.5912 47.8691 38.5912 48.4316C38.5912 48.9942 38.8147 49.5337 39.2124 49.9315C39.6102 50.3293 40.1497 50.5527 40.7123 50.5527V50.5527Z" fill="#081158"/>
<path d="M57.5523 54.7949C57.5523 54.2324 57.3289 53.6929 56.9311 53.2951C56.5333 52.8973 55.9938 52.6738 55.4312 52.6738H40.5129C39.9503 52.6738 39.4108 52.8973 39.013 53.2951C38.6153 53.6929 38.3918 54.2324 38.3918 54.7949C38.3918 55.3575 38.6153 55.897 39.013 56.2948C39.4108 56.6925 39.9503 56.916 40.5129 56.916H55.4312C55.9938 56.916 56.5333 56.6925 56.9311 56.2948C57.3289 55.897 57.5523 55.3575 57.5523 54.7949Z" fill="#081158"/>
<path d="M126.262 104.994C126.824 104.994 127.364 104.771 127.761 104.373C128.159 103.975 128.383 103.436 128.383 102.873C128.383 102.31 128.159 101.771 127.761 101.373C127.364 100.975 126.824 100.752 126.262 100.752H88.789C88.2265 100.752 87.6869 100.975 87.2892 101.373C86.8914 101.771 86.6679 102.31 86.6679 102.873C86.6679 103.436 86.8914 103.975 87.2892 104.373C87.6869 104.771 88.2265 104.994 88.789 104.994H126.262Z" fill="#081158"/>
<path d="M147.908 104.994C148.47 104.994 149.01 104.771 149.408 104.373C149.805 103.975 150.029 103.436 150.029 102.873C150.029 102.31 149.805 101.771 149.408 101.373C149.01 100.975 148.47 100.752 147.908 100.752H134.393C133.831 100.752 133.291 100.975 132.893 101.373C132.496 101.771 132.272 102.31 132.272 102.873C132.272 103.436 132.496 103.975 132.893 104.373C133.291 104.771 133.831 104.994 134.393 104.994H147.908Z" fill="#081158"/>
<path d="M158.198 104.994C158.761 104.994 159.3 104.771 159.698 104.373C160.096 103.975 160.319 103.436 160.319 102.873C160.319 102.31 160.096 101.771 159.698 101.373C159.3 100.975 158.761 100.752 158.198 100.752H156.135C155.572 100.752 155.033 100.975 154.635 101.373C154.237 101.771 154.014 102.31 154.014 102.873C154.014 103.436 154.237 103.975 154.635 104.373C155.033 104.771 155.572 104.994 156.135 104.994H158.198Z" fill="#081158"/>
<path d="M166.753 122.546C160.174 122.546 156.789 125.586 153.802 128.268C151.032 130.755 148.641 132.904 143.685 132.904C138.729 132.904 136.34 130.755 133.57 128.268C130.584 125.586 127.199 122.546 120.62 122.546C114.041 122.546 110.657 125.586 107.67 128.268C104.9 130.755 102.509 132.904 97.5548 132.904C92.6006 132.904 90.2083 130.755 87.4382 128.268C84.4517 125.586 81.0664 122.546 74.4868 122.546C67.9072 122.546 64.5219 125.586 61.535 128.268C58.7652 130.755 56.3737 132.904 51.4181 132.904C46.4625 132.904 44.0707 130.755 41.3005 128.268C38.3137 125.586 34.9287 122.546 28.3484 122.546C21.7681 122.546 18.3828 125.586 15.3963 128.268C12.6261 130.755 10.235 132.904 5.27939 132.904C4.71684 132.904 4.17733 133.127 3.77955 133.525C3.38177 133.923 3.15829 134.462 3.15829 135.025C3.15829 135.587 3.38177 136.127 3.77955 136.524C4.17733 136.922 4.71684 137.146 5.27939 137.146C11.859 137.146 15.2439 134.105 18.2304 131.424C21.0006 128.937 23.3918 126.788 28.3477 126.788C33.3036 126.788 35.6955 128.937 38.4657 131.424C41.4525 134.106 44.8374 137.146 51.4174 137.146C57.9974 137.146 61.3823 134.105 64.3688 131.424C67.139 128.937 69.5302 126.788 74.4861 126.788C79.442 126.788 81.8328 128.937 84.603 131.424C87.5899 134.106 90.9748 137.146 97.5541 137.146C104.133 137.146 107.518 134.105 110.504 131.424C113.274 128.937 115.665 126.788 120.62 126.788C125.574 126.788 127.965 128.937 130.735 131.424C133.721 134.106 137.106 137.146 143.684 137.146C150.263 137.146 153.649 134.105 156.636 131.424C159.406 128.937 161.797 126.788 166.753 126.788C167.315 126.788 167.855 126.565 168.252 126.167C168.65 125.769 168.874 125.23 168.874 124.667C168.874 124.105 168.65 123.565 168.252 123.167C167.855 122.77 167.315 122.546 166.753 122.546H166.753Z" fill="#29EAFD"/>
<path d="M166.753 135.785C160.174 135.785 156.789 138.826 153.802 141.507C151.032 143.994 148.641 146.143 143.685 146.143C138.729 146.143 136.34 143.994 133.57 141.507C130.583 138.826 127.198 135.785 120.62 135.785C114.041 135.785 110.656 138.826 107.67 141.507C104.9 143.994 102.508 146.143 97.5541 146.143C92.5999 146.143 90.2076 143.994 87.4375 141.507C84.451 138.826 81.0657 135.785 74.4857 135.785C67.9057 135.785 64.5208 138.826 61.534 141.507C58.7642 143.994 56.3727 146.143 51.4171 146.143C46.4615 146.143 44.0696 143.994 41.2995 141.507C38.313 138.826 34.9273 135.785 28.3477 135.785C21.7681 135.785 18.3828 138.826 15.3963 141.506C12.6261 143.994 10.235 146.142 5.27939 146.142C4.71684 146.142 4.17733 146.365 3.77955 146.763C3.38177 147.161 3.15829 147.701 3.15829 148.263C3.15829 148.826 3.38177 149.365 3.77955 149.763C4.17733 150.161 4.71684 150.384 5.27939 150.384C11.859 150.384 15.2439 147.344 18.2304 144.663C21.0006 142.175 23.3918 140.027 28.3477 140.027C33.3036 140.027 35.6955 142.175 38.4657 144.663C41.4525 147.344 44.8374 150.384 51.4174 150.384C57.9974 150.384 61.3823 147.344 64.3688 144.663C67.139 142.175 69.5302 140.027 74.4861 140.027C79.442 140.027 81.8328 142.175 84.603 144.663C87.5899 147.344 90.9748 150.384 97.5541 150.384C104.133 150.384 107.518 147.344 110.504 144.662C113.274 142.175 115.665 140.027 120.62 140.027C125.574 140.027 127.965 142.175 130.735 144.662C133.721 147.344 137.106 150.384 143.684 150.384C150.263 150.384 153.649 147.344 156.636 144.663C159.406 142.175 161.797 140.027 166.753 140.027C167.315 140.027 167.855 139.803 168.252 139.406C168.65 139.008 168.874 138.468 168.874 137.906C168.874 137.343 168.65 136.804 168.252 136.406C167.855 136.008 167.315 135.785 166.753 135.785L166.753 135.785Z" fill="#29EAFD"/>
<path d="M166.753 149.023C160.174 149.023 156.789 152.063 153.802 154.744C151.032 157.232 148.641 159.38 143.685 159.38C138.729 159.38 136.34 157.232 133.57 154.744C130.584 152.063 127.199 149.023 120.62 149.023C114.041 149.023 110.657 152.063 107.67 154.744C104.9 157.232 102.509 159.38 97.5548 159.38C92.6006 159.38 90.2083 157.232 87.4382 154.744C84.4517 152.063 81.0664 149.023 74.4868 149.023C67.9072 149.023 64.5219 152.063 61.535 154.744C58.7652 157.232 56.3737 159.38 51.4181 159.38C46.4625 159.38 44.0707 157.232 41.3005 154.744C38.3137 152.063 34.9287 149.023 28.3484 149.023C21.7681 149.023 18.3828 152.063 15.3963 154.744C12.6261 157.232 10.235 159.38 5.27939 159.38C4.71684 159.38 4.17733 159.604 3.77955 160.001C3.38177 160.399 3.15829 160.939 3.15829 161.501C3.15829 162.064 3.38177 162.603 3.77955 163.001C4.17733 163.399 4.71684 163.622 5.27939 163.622C11.8587 163.622 15.2439 160.582 18.2304 157.901C21.0006 155.414 23.3918 153.265 28.3477 153.265C33.3036 153.265 35.6955 155.414 38.4657 157.901C41.4525 160.583 44.8374 163.622 51.4174 163.622C57.9974 163.622 61.3823 160.582 64.3688 157.901C67.139 155.414 69.5302 153.265 74.4861 153.265C79.442 153.265 81.8328 155.414 84.603 157.901C87.5899 160.583 90.9748 163.622 97.5541 163.622C104.133 163.622 107.518 160.582 110.504 157.901C113.274 155.414 115.665 153.265 120.62 153.265C125.574 153.265 127.965 155.414 130.735 157.901C133.721 160.583 137.106 163.622 143.684 163.622C150.263 163.622 153.649 160.582 156.636 157.901C159.406 155.414 161.797 153.265 166.753 153.265C167.315 153.265 167.855 153.042 168.252 152.644C168.65 152.246 168.874 151.707 168.874 151.144C168.874 150.582 168.65 150.042 168.252 149.644C167.855 149.247 167.315 149.023 166.753 149.023H166.753Z" fill="#29EAFD"/>
</svg>
