<svg width="181" height="181" viewBox="0 0 181 181" fill="none" xmlns="http://www.w3.org/2000/svg">
<path d="M120.195 133.001C120.205 125.485 122.871 118.214 127.723 112.473C132.575 106.733 139.3 102.892 146.709 101.629C142.147 100.858 137.472 101.092 133.009 102.314C128.547 103.535 124.405 105.715 120.871 108.702C117.338 111.689 114.498 115.41 112.55 119.607C110.603 123.804 109.594 128.374 109.594 133.001C109.594 137.628 110.603 142.199 112.55 146.395C114.498 150.592 117.338 154.313 120.871 157.3C124.405 160.287 128.547 162.467 133.009 163.688C137.472 164.91 142.147 165.144 146.709 164.373C139.3 163.111 132.575 159.27 127.723 153.529C122.872 147.788 120.205 140.517 120.195 133.001V133.001Z" fill="#D4E1F4"/>
<path d="M73.5312 174.389C73.9035 174.39 74.2693 174.292 74.5918 174.106L113.378 151.713L111.257 148.039L75.6523 168.595V88.3255L139.285 51.5871V99.0643H143.527V47.9187C143.527 47.912 143.527 47.9053 143.527 47.8985C143.526 47.7213 143.502 47.5449 143.457 47.3736L143.451 47.3548C143.374 47.0667 143.237 46.7982 143.048 46.5674C142.859 46.3366 142.623 46.1488 142.355 46.0164L74.5918 6.89355C74.2693 6.70738 73.9036 6.60938 73.5312 6.60938C73.1589 6.60938 72.7931 6.70738 72.4707 6.89355L4.71872 46.0104C4.44904 46.1423 4.21075 46.3304 4.01988 46.5622C3.82902 46.7939 3.69001 47.0638 3.61222 47.3538L3.60692 47.3725C3.56144 47.5438 3.53769 47.7202 3.53621 47.8975V47.9176V133.08C3.53597 133.452 3.63387 133.818 3.82005 134.141C4.00622 134.464 4.27411 134.732 4.59676 134.918L72.4707 174.106C72.7932 174.292 73.159 174.39 73.5312 174.389V174.389ZM34.7152 67.1404L47.6539 74.6098V121.108L42.4045 115.145C42.1124 114.813 41.7239 114.581 41.2932 114.481C40.8626 114.381 40.4114 114.418 40.0028 114.586L34.7152 116.77V67.1404ZM36.8363 63.4663L100.466 26.7307L113.525 34.2705L49.8966 71.0061L36.8363 63.4663ZM117.767 36.7197L137.159 47.9159L73.5312 84.6518L54.1388 73.4556L117.767 36.7197ZM73.5312 11.1799L96.2234 24.2812L32.5941 61.0168L9.90197 47.9155L73.5312 11.1799ZM7.77734 51.5871L30.473 64.6909V119.941C30.473 120.289 30.559 120.633 30.7232 120.94C30.8874 121.248 31.125 121.51 31.4147 121.704C31.7045 121.898 32.0376 122.017 32.3845 122.052C32.7314 122.086 33.0815 122.034 33.4037 121.901L40.2205 119.086L48.1817 128.13C48.4666 128.453 48.8431 128.681 49.2611 128.785C49.6791 128.889 50.1189 128.863 50.5218 128.711C50.9248 128.559 51.2719 128.288 51.5169 127.933C51.762 127.579 51.8934 127.159 51.8936 126.728V77.059L71.4077 88.3255V168.595L7.77734 131.857V51.5871Z" fill="#29EAFD"/>
<path d="M92.5362 123.525C93.0988 123.525 93.6383 123.301 94.0361 122.903C94.4339 122.506 94.6573 121.966 94.6573 121.404V95.6373L97.3221 98.4605C97.7084 98.8695 98.2413 99.1084 98.8037 99.1246C99.366 99.1407 99.9118 98.9328 100.321 98.5466C100.73 98.1603 100.969 97.6274 100.985 97.065C101.001 96.5027 100.793 95.9569 100.407 95.5479L94.079 88.8441C93.8483 88.5999 93.563 88.4139 93.2464 88.3014C92.9298 88.189 92.591 88.1534 92.2579 88.1976C91.9249 88.2417 91.6071 88.3644 91.3307 88.5554C91.0543 88.7464 90.8273 89.0003 90.6683 89.2963L84.6939 100.412C84.562 100.657 84.4797 100.926 84.4517 101.203C84.4238 101.481 84.4507 101.761 84.531 102.027C84.6112 102.294 84.7432 102.542 84.9194 102.758C85.0956 102.974 85.3126 103.153 85.558 103.285C85.8034 103.417 86.0723 103.499 86.3495 103.527C86.6267 103.555 86.9067 103.528 87.1734 103.448C87.4402 103.367 87.6885 103.235 87.9043 103.059C88.12 102.883 88.299 102.666 88.4309 102.421L90.4169 98.726V121.404C90.4169 121.966 90.6401 122.505 91.0375 122.903C91.4349 123.301 91.974 123.524 92.5362 123.525V123.525Z" fill="#29EAFD"/>
<path d="M14.4333 119.999C13.8708 119.999 13.3313 120.223 12.9335 120.621C12.5357 121.019 12.3122 121.558 12.3122 122.121V131.284C12.3122 131.846 12.5357 132.386 12.9335 132.784C13.3313 133.181 13.8708 133.405 14.4333 133.405C14.9959 133.405 15.5354 133.181 15.9332 132.784C16.331 132.386 16.5544 131.846 16.5544 131.284V122.121C16.5544 121.558 16.331 121.019 15.9332 120.621C15.5354 120.223 14.9959 119.999 14.4333 119.999Z" fill="#29EAFD"/>
<path d="M24.4817 126.787C23.9191 126.787 23.3796 127.01 22.9818 127.408C22.584 127.806 22.3606 128.346 22.3606 128.908V137.164C22.3606 137.727 22.584 138.266 22.9818 138.664C23.3796 139.062 23.9191 139.285 24.4817 139.285C25.0442 139.285 25.5837 139.062 25.9815 138.664C26.3793 138.266 26.6028 137.727 26.6028 137.164V128.909C26.6029 128.631 26.5482 128.355 26.4417 128.097C26.3352 127.84 26.179 127.606 25.982 127.409C25.785 127.212 25.5511 127.055 25.2937 126.949C25.0363 126.842 24.7603 126.787 24.4817 126.787V126.787Z" fill="#29EAFD"/>
<path d="M34.5303 133.575C33.9678 133.575 33.4283 133.798 33.0305 134.196C32.6327 134.594 32.4093 135.133 32.4093 135.696V142.964C32.4093 143.527 32.6327 144.066 33.0305 144.464C33.4283 144.862 33.9678 145.085 34.5303 145.085C35.0929 145.085 35.6324 144.862 36.0302 144.464C36.428 144.066 36.6514 143.527 36.6514 142.964V135.696C36.6514 135.133 36.428 134.594 36.0302 134.196C35.6324 133.798 35.0929 133.575 34.5303 133.575V133.575Z" fill="#29EAFD"/>
<path d="M44.5783 140.362C44.0158 140.362 43.4763 140.586 43.0785 140.984C42.6807 141.381 42.4572 141.921 42.4572 142.483V148.766C42.4572 149.328 42.6807 149.868 43.0785 150.266C43.4763 150.663 44.0158 150.887 44.5783 150.887C45.1409 150.887 45.6804 150.663 46.0782 150.266C46.4759 149.868 46.6994 149.328 46.6994 148.766V142.483C46.6994 141.921 46.4759 141.381 46.0782 140.984C45.6804 140.586 45.1409 140.362 44.5783 140.362V140.362Z" fill="#29EAFD"/>
<path d="M54.6266 147.149C54.0641 147.149 53.5246 147.373 53.1268 147.771C52.729 148.169 52.5055 148.708 52.5055 149.271V154.701C52.5055 155.263 52.729 155.803 53.1268 156.2C53.5246 156.598 54.0641 156.822 54.6266 156.822C55.1892 156.822 55.7287 156.598 56.1265 156.2C56.5242 155.803 56.7477 155.263 56.7477 154.701V149.271C56.7477 148.708 56.5242 148.169 56.1265 147.771C55.7287 147.373 55.1892 147.149 54.6266 147.149Z" fill="#29EAFD"/>
<path d="M87.5941 135.728C87.9657 135.729 88.3307 135.631 88.6525 135.446L99.9251 128.938C100.166 128.798 100.378 128.613 100.547 128.392C100.717 128.171 100.841 127.919 100.913 127.65C100.986 127.381 101.004 127.1 100.968 126.824C100.931 126.548 100.841 126.281 100.702 126.04C100.562 125.799 100.377 125.587 100.156 125.418C99.9349 125.248 99.6827 125.124 99.4136 125.052C99.1445 124.98 98.8639 124.961 98.5877 124.998C98.3116 125.034 98.0452 125.124 97.804 125.264L86.5314 131.772C86.1262 132.005 85.8095 132.365 85.6303 132.797C85.4512 133.229 85.4198 133.708 85.541 134.16C85.6622 134.611 85.9292 135.01 86.3005 135.294C86.6718 135.578 87.1266 135.732 87.5941 135.731V135.728Z" fill="#29EAFD"/>
<path d="M141.406 96.9425C134.275 96.9425 127.303 99.0573 121.373 103.019C115.443 106.982 110.822 112.613 108.092 119.202C105.363 125.791 104.649 133.041 106.041 140.036C107.432 147.03 110.866 153.455 115.909 158.498C120.952 163.541 127.377 166.975 134.372 168.367C141.366 169.758 148.616 169.044 155.205 166.315C161.794 163.586 167.426 158.964 171.388 153.034C175.35 147.104 177.465 140.133 177.465 133.001C177.454 123.441 173.652 114.276 166.892 107.516C160.132 100.756 150.966 96.9532 141.406 96.9425V96.9425ZM141.406 164.817C135.114 164.817 128.962 162.951 123.73 159.455C118.498 155.959 114.42 150.99 112.012 145.177C109.604 139.363 108.974 132.966 110.201 126.794C111.429 120.622 114.459 114.953 118.909 110.503C123.358 106.054 129.027 103.024 135.199 101.796C141.371 100.568 147.768 101.198 153.582 103.607C159.396 106.015 164.365 110.093 167.861 115.325C171.357 120.557 173.223 126.708 173.223 133.001C173.213 141.436 169.858 149.524 163.894 155.488C157.929 161.453 149.842 164.808 141.406 164.817V164.817Z" fill="#081158"/>
<path d="M156.622 111.62L146.767 121.146L127.951 115.624C127.124 115.331 126.221 115.33 125.393 115.621C124.565 115.911 123.861 116.476 123.398 117.222C122.936 117.967 122.742 118.849 122.849 119.72C122.957 120.591 123.359 121.399 123.989 122.01L134.771 132.792L125.448 141.763L117.654 137.121C117.591 137.084 117.526 137.05 117.46 137.019C115.812 136.256 113.932 136.636 112.556 138.013C112.158 138.411 111.935 138.95 111.935 139.513C111.935 140.075 112.158 140.615 112.556 141.012L133.681 162.137C134.079 162.535 134.618 162.759 135.181 162.759C135.743 162.759 136.283 162.535 136.68 162.137C137.259 161.601 137.679 160.916 137.894 160.157C138.109 159.399 138.111 158.595 137.9 157.835C137.798 157.493 137.652 157.165 137.465 156.86L132.934 149.254L141.952 139.975L152.683 150.704C153.294 151.334 154.102 151.736 154.973 151.843C155.844 151.951 156.725 151.758 157.471 151.295C158.216 150.833 158.781 150.129 159.072 149.302C159.363 148.474 159.362 147.572 159.07 146.744L153.613 128.05L163.198 118.216C164.048 117.339 164.519 116.163 164.511 114.941C164.502 113.72 164.014 112.551 163.152 111.686C162.29 110.821 161.122 110.329 159.901 110.317C158.679 110.304 157.502 110.772 156.622 111.619L156.622 111.62ZM160.157 115.259L149.712 125.976C149.45 126.245 149.264 126.578 149.173 126.943C149.082 127.307 149.09 127.689 149.195 128.05L154.622 146.643L143.431 135.452C143.234 135.255 143 135.099 142.743 134.992C142.486 134.886 142.21 134.831 141.931 134.831H141.916C141.635 134.833 141.357 134.891 141.099 135.001C140.84 135.112 140.606 135.272 140.41 135.474L128.76 147.462C128.435 147.797 128.229 148.23 128.174 148.693C128.12 149.157 128.22 149.625 128.458 150.026L129.766 152.223L122.47 144.927L124.668 146.235C125.068 146.473 125.534 146.573 125.996 146.52C126.458 146.467 126.89 146.263 127.225 145.94L139.269 134.345C139.472 134.15 139.634 133.916 139.745 133.657C139.857 133.398 139.916 133.119 139.918 132.837C139.921 132.556 139.867 132.276 139.761 132.015C139.654 131.754 139.496 131.517 139.297 131.318L128.055 120.074L146.758 125.562C147.118 125.667 147.499 125.676 147.863 125.586C148.227 125.497 148.56 125.312 148.83 125.052L159.57 114.671C159.648 114.596 159.753 114.554 159.861 114.555C159.97 114.556 160.074 114.599 160.151 114.675C160.229 114.752 160.273 114.856 160.274 114.965C160.275 115.074 160.234 115.179 160.158 115.257L160.157 115.259Z" fill="#081158"/>
</svg>
