<svg width="181" height="181" viewBox="0 0 181 181" fill="none" xmlns="http://www.w3.org/2000/svg">
<path d="M48.0566 37.6611C44.2221 37.1502 40.3227 37.4654 36.6202 38.5856C32.9176 39.7058 29.4974 41.605 26.5893 44.1558C23.6811 46.7067 21.3523 49.85 19.759 53.375C18.1657 56.9 17.3449 60.725 17.3516 64.5933V75.2769C17.36 75.3161 17.3771 75.3529 17.4016 75.3846C17.426 75.4164 17.4573 75.4423 17.493 75.4604L18.877 76.171L19.5134 65.6952C19.5481 65.1373 19.8014 64.6155 20.2183 64.2432C20.6353 63.8708 21.1822 63.6778 21.7405 63.706C21.79 63.7088 22.7788 63.7534 24.4442 63.747C24.6528 57.3068 27.1408 51.1497 31.465 46.3725C35.7892 41.5953 41.6688 38.5082 48.0566 37.6611V37.6611Z" fill="#D4E1F4"/>
<path d="M26.0895 81.0131C26.4869 81.2173 26.9285 81.3202 27.3753 81.3127C27.822 81.3052 28.26 81.1875 28.6503 80.97C29.0406 80.7526 29.3712 80.4422 29.6127 80.0662C29.8542 79.6903 29.9992 79.2606 30.0347 78.8152C30.0347 78.8018 30.0368 78.7887 30.0375 78.7753L30.694 67.9984C30.9669 68.0008 31.2656 68.0023 31.5841 68.0019C31.4866 67.9206 31.3883 67.8418 31.2914 67.7594C28.0348 67.9864 25.3548 68.0146 23.6237 67.9984L22.9672 78.7753C22.9672 78.7887 22.9672 78.8018 22.9644 78.8152C22.9483 78.9985 22.9136 79.1796 22.8608 79.3558L26.0895 81.0131Z" fill="#D4E1F4"/>
<path d="M25.3648 92.6455V89.011C25.3648 88.5118 25.1889 88.0286 24.8678 87.6464C24.5468 87.2642 24.1012 87.0075 23.6096 86.9214C22.3951 86.7097 21.2945 86.0757 20.5022 85.1313C19.7098 84.1868 19.2767 82.9928 19.2793 81.76C19.2792 81.5542 19.291 81.3486 19.3147 81.1442C19.213 81.1066 19.1137 81.0628 19.0174 81.0131L15.5547 79.2345C15.0595 78.9785 14.6165 78.6322 14.2485 78.2136C13.7763 78.4219 13.3595 78.7379 13.0314 79.1364C12.7033 79.5348 12.4731 80.0045 12.3593 80.5079C12.189 81.2048 12.1635 81.9292 12.2842 82.6364C12.4049 83.3436 12.6693 84.0186 13.061 84.6196C13.4527 85.2206 13.9635 85.735 14.5618 86.1309C15.1601 86.5267 15.8333 86.7958 16.5396 86.9214C17.0313 87.0075 17.4768 87.2642 17.7979 87.6464C18.1189 88.0286 18.2949 88.5118 18.2948 89.011V92.6455C18.2887 96.4372 19.0951 100.186 20.6595 103.64C22.2239 107.094 24.5101 110.173 27.3642 112.669C30.2183 115.165 33.5741 117.021 37.2056 118.111C40.8371 119.202 44.6601 119.502 48.4172 118.991C42.0393 118.128 36.19 114.983 31.9519 110.14C27.7137 105.296 25.3736 99.0814 25.3648 92.6455V92.6455Z" fill="#D4E1F4"/>
<path d="M41.3415 128.516V123.265C38.9267 122.99 36.5532 122.429 34.2712 121.593V128.516C39.017 130.463 44.1808 131.168 49.2748 130.564C46.5491 130.247 43.8797 129.558 41.3415 128.516V128.516Z" fill="#D4E1F4"/>
<path d="M52.8099 135.022C55.8931 135.022 58.9623 134.608 61.9352 133.791L58.7932 132.45C55.7513 133.699 52.5457 134.503 49.2748 134.839C50.4493 134.96 51.6292 135.021 52.8099 135.022V135.022Z" fill="#D4E1F4"/>
<path d="M22.0947 139.989L36.6157 133.791C35.2803 133.424 33.9685 132.977 32.6875 132.45L15.0244 139.989C13.0141 141.014 11.2956 142.53 10.0285 144.397C8.7615 146.264 7.98711 148.422 7.77734 150.668V168.048H14.8477V150.668C15.0574 148.422 15.8318 146.264 17.0988 144.397C18.3659 142.53 20.0844 141.014 22.0947 139.989V139.989Z" fill="#D4E1F4"/>
<path d="M63.6473 112.341H67.8895V133.121H63.6473V112.341Z" fill="#29EAFD"/>
<path d="M168.273 15.2192H156.461V10.8296C156.461 10.267 156.237 9.72753 155.839 9.32975C155.442 8.93197 154.902 8.7085 154.34 8.7085H90.3066C89.7441 8.7085 89.2046 8.93197 88.8068 9.32975C88.409 9.72753 88.1855 10.267 88.1855 10.8296V15.2192H72.8376C70.4007 15.2217 68.0643 16.1909 66.3411 17.9141C64.618 19.6373 63.6488 21.9737 63.6462 24.4106V44.7551H67.8884V24.4099C67.8896 23.0977 68.4115 21.8395 69.3394 20.9116C70.2673 19.9837 71.5254 19.4619 72.8376 19.4607H88.1855V22.9845C88.1855 23.5471 88.409 24.0866 88.8068 24.4844C89.2046 24.8821 89.7441 25.1056 90.3066 25.1056H154.34C154.902 25.1056 155.442 24.8821 155.839 24.4844C156.237 24.0866 156.461 23.5471 156.461 22.9845V19.4614H168.273C169.586 19.4626 170.844 19.9844 171.772 20.9123C172.7 21.8402 173.221 23.0984 173.223 24.4106V141.717C173.221 143.03 172.7 144.288 171.772 145.216C170.844 146.144 169.586 146.665 168.273 146.667H85.5653V150.909H168.273C170.71 150.906 173.047 149.937 174.77 148.214C176.493 146.491 177.462 144.154 177.465 141.717V24.4099C177.462 21.9731 176.493 19.6369 174.77 17.9139C173.046 16.1909 170.71 15.2218 168.273 15.2192V15.2192ZM152.219 20.8641H92.4277V12.9507H152.219V20.8641Z" fill="#29EAFD"/>
<path d="M157.874 78.3695H142.367C141.805 78.3695 141.265 78.5929 140.867 78.9907C140.47 79.3885 140.246 79.928 140.246 80.4906C140.246 81.0531 140.47 81.5926 140.867 81.9904C141.265 82.3882 141.805 82.6117 142.367 82.6117H157.874C158.437 82.6117 158.977 82.3882 159.374 81.9904C159.772 81.5926 159.996 81.0531 159.996 80.4906C159.996 79.928 159.772 79.3885 159.374 78.9907C158.977 78.5929 158.437 78.3695 157.874 78.3695V78.3695Z" fill="#29EAFD"/>
<path d="M125.907 80.4906C125.907 81.0531 126.131 81.5926 126.528 81.9904C126.926 82.3882 127.466 82.6117 128.028 82.6117H133.23C133.793 82.6117 134.332 82.3882 134.73 81.9904C135.128 81.5926 135.351 81.0531 135.351 80.4906C135.351 79.928 135.128 79.3885 134.73 78.9907C134.332 78.5929 133.793 78.3695 133.23 78.3695H128.028C127.466 78.3695 126.926 78.5929 126.528 78.9907C126.131 79.3885 125.907 79.928 125.907 80.4906V80.4906Z" fill="#29EAFD"/>
<path d="M157.874 101.311H152.609C152.046 101.311 151.507 101.535 151.109 101.932C150.711 102.33 150.488 102.87 150.488 103.432C150.488 103.995 150.711 104.534 151.109 104.932C151.507 105.33 152.046 105.553 152.609 105.553H157.874C158.437 105.553 158.976 105.33 159.374 104.932C159.772 104.534 159.996 103.995 159.996 103.432C159.996 102.87 159.772 102.33 159.374 101.932C158.976 101.535 158.437 101.311 157.874 101.311Z" fill="#29EAFD"/>
<path d="M115.062 103.432C115.062 103.995 115.285 104.534 115.683 104.932C116.081 105.33 116.62 105.553 117.183 105.553H145.273C145.835 105.553 146.375 105.33 146.772 104.932C147.17 104.534 147.394 103.995 147.394 103.432C147.394 102.87 147.17 102.33 146.772 101.932C146.375 101.535 145.835 101.311 145.273 101.311H117.183C116.62 101.311 116.081 101.535 115.683 101.932C115.285 102.33 115.062 102.87 115.062 103.432Z" fill="#29EAFD"/>
<path d="M109.744 101.311H107.849C107.287 101.311 106.747 101.535 106.349 101.932C105.951 102.33 105.728 102.87 105.728 103.432C105.728 103.995 105.951 104.534 106.349 104.932C106.747 105.33 107.287 105.553 107.849 105.553H109.744C110.307 105.553 110.846 105.33 111.244 104.932C111.642 104.534 111.865 103.995 111.865 103.432C111.865 102.87 111.642 102.33 111.244 101.932C110.846 101.535 110.307 101.311 109.744 101.311Z" fill="#29EAFD"/>
<path d="M86.6862 105.553H98.7121C99.2747 105.553 99.8142 105.33 100.212 104.932C100.61 104.534 100.833 103.995 100.833 103.432C100.833 102.87 100.61 102.33 100.212 101.932C99.8142 101.535 99.2747 101.311 98.7121 101.311H86.6862C86.1237 101.311 85.5842 101.535 85.1864 101.932C84.7886 102.33 84.5652 102.87 84.5652 103.432C84.5652 103.995 84.7886 104.534 85.1864 104.932C85.5842 105.33 86.1237 105.553 86.6862 105.553Z" fill="#29EAFD"/>
<path d="M157.874 122.515H145.736C145.174 122.515 144.634 122.739 144.237 123.137C143.839 123.534 143.615 124.074 143.615 124.637C143.615 125.199 143.839 125.739 144.237 126.136C144.634 126.534 145.174 126.758 145.736 126.758H157.874C158.437 126.758 158.976 126.534 159.374 126.136C159.772 125.739 159.996 125.199 159.996 124.637C159.996 124.074 159.772 123.534 159.374 123.137C158.976 122.739 158.437 122.515 157.874 122.515Z" fill="#29EAFD"/>
<path d="M136.598 122.515C136.036 122.515 135.496 122.739 135.099 123.137C134.701 123.534 134.477 124.074 134.477 124.637C134.477 125.199 134.701 125.739 135.099 126.136C135.496 126.534 136.036 126.758 136.598 126.758H138.122C138.685 126.758 139.224 126.534 139.622 126.136C140.02 125.739 140.243 125.199 140.243 124.637C140.243 124.074 140.02 123.534 139.622 123.137C139.224 122.739 138.685 122.515 138.122 122.515H136.598Z" fill="#29EAFD"/>
<path d="M119.099 122.515C118.537 122.515 117.997 122.739 117.6 123.137C117.202 123.534 116.978 124.074 116.978 124.637C116.978 125.199 117.202 125.739 117.6 126.136C117.997 126.534 118.537 126.758 119.099 126.758H130.629C131.192 126.758 131.731 126.534 132.129 126.136C132.527 125.739 132.75 125.199 132.75 124.637C132.75 124.074 132.527 123.534 132.129 123.137C131.731 122.739 131.192 122.515 130.629 122.515H119.099Z" fill="#29EAFD"/>
<path d="M86.6862 126.758H109.744C110.307 126.758 110.846 126.534 111.244 126.136C111.642 125.739 111.865 125.199 111.865 124.637C111.865 124.074 111.642 123.534 111.244 123.137C110.846 122.739 110.307 122.515 109.744 122.515H86.6862C86.1237 122.515 85.5842 122.739 85.1864 123.137C84.7886 123.534 84.5652 124.074 84.5652 124.637C84.5652 125.199 84.7886 125.739 85.1864 126.136C85.5842 126.534 86.1237 126.758 86.6862 126.758Z" fill="#29EAFD"/>
<path d="M157.874 60.3098H156.506C155.943 60.3098 155.404 60.5332 155.006 60.931C154.608 61.3288 154.384 61.8683 154.384 62.4308C154.384 62.9934 154.608 63.5329 155.006 63.9307C155.404 64.3285 155.943 64.5519 156.506 64.5519H157.874C158.437 64.5519 158.976 64.3285 159.374 63.9307C159.772 63.5329 159.995 62.9934 159.995 62.4308C159.995 61.8683 159.772 61.3288 159.374 60.931C158.976 60.5332 158.437 60.3098 157.874 60.3098V60.3098Z" fill="#29EAFD"/>
<path d="M132.335 64.5519H147.369C147.932 64.5519 148.471 64.3285 148.869 63.9307C149.267 63.5329 149.49 62.9934 149.49 62.4308C149.49 61.8683 149.267 61.3288 148.869 60.931C148.471 60.5332 147.932 60.3098 147.369 60.3098H132.335C131.772 60.3098 131.233 60.5332 130.835 60.931C130.437 61.3288 130.214 61.8683 130.214 62.4308C130.214 62.9934 130.437 63.5329 130.835 63.9307C131.233 64.3285 131.772 64.5519 132.335 64.5519V64.5519Z" fill="#29EAFD"/>
<path d="M157.874 42.634H142.72C142.158 42.634 141.618 42.8574 141.22 43.2552C140.823 43.653 140.599 44.1925 140.599 44.7551C140.599 45.3176 140.823 45.8571 141.22 46.2549C141.618 46.6527 142.158 46.8762 142.72 46.8762H157.874C158.437 46.8762 158.976 46.6527 159.374 46.2549C159.772 45.8571 159.996 45.3176 159.996 44.7551C159.996 44.1925 159.772 43.653 159.374 43.2552C158.976 42.8574 158.437 42.634 157.874 42.634Z" fill="#29EAFD"/>
<path d="M132.335 46.8762H133.584C134.146 46.8762 134.686 46.6527 135.084 46.2549C135.481 45.8571 135.705 45.3176 135.705 44.7551C135.705 44.1925 135.481 43.653 135.084 43.2552C134.686 42.8574 134.146 42.634 133.584 42.634H132.335C131.772 42.634 131.233 42.8574 130.835 43.2552C130.437 43.653 130.214 44.1925 130.214 44.7551C130.214 45.3176 130.437 45.8571 130.835 46.2549C131.233 46.6527 131.772 46.8762 132.335 46.8762V46.8762Z" fill="#29EAFD"/>
<path d="M101.768 37.4444C97.1537 37.4444 92.6427 38.8128 88.8057 41.3765C84.9688 43.9403 81.9783 47.5842 80.2123 51.8476C78.4464 56.111 77.9843 60.8023 78.8846 65.3283C79.7849 69.8542 82.007 74.0116 85.2701 77.2746C88.5331 80.5377 92.6905 82.7598 97.2165 83.6601C101.742 84.5604 106.434 84.0983 110.697 82.3324C114.96 80.5664 118.604 77.5759 121.168 73.739C123.732 69.902 125.1 65.391 125.1 60.7764C125.093 54.5905 122.633 48.66 118.259 44.2859C113.885 39.9118 107.954 37.4514 101.768 37.4444ZM101.768 79.8662C97.9927 79.8662 94.3019 78.7466 91.1626 76.649C88.0233 74.5514 85.5765 71.57 84.1316 68.0818C82.6867 64.5936 82.3087 60.7552 83.0453 57.0522C83.7819 53.3491 85.6 49.9476 88.2698 47.2778C90.9395 44.6081 94.341 42.7899 98.0441 42.0534C101.747 41.3168 105.585 41.6948 109.074 43.1397C112.562 44.5845 115.543 47.0313 117.641 50.1706C119.739 53.31 120.858 57.0008 120.858 60.7764C120.852 65.8376 118.839 70.6899 115.261 74.2687C111.682 77.8475 106.83 79.8605 101.768 79.8662V79.8662Z" fill="#29EAFD"/>
<path d="M111.039 51.5291L97.0439 65.5245L92.497 60.9779C92.301 60.7765 92.067 60.6161 91.8086 60.5059C91.5501 60.3958 91.2723 60.338 90.9914 60.3361C90.7104 60.3342 90.4319 60.3881 90.1719 60.4947C89.912 60.6014 89.6758 60.7586 89.4771 60.9572C89.2784 61.1559 89.1212 61.3921 89.0145 61.652C88.9079 61.9119 88.8539 62.1905 88.8558 62.4714C88.8577 62.7524 88.9154 63.0302 89.0255 63.2887C89.1357 63.5471 89.2961 63.7812 89.4974 63.9771L95.5425 70.024C95.9403 70.4218 96.4798 70.6452 97.0423 70.6452C97.6048 70.6452 98.1443 70.4218 98.5421 70.024L114.037 54.5287C114.43 54.1298 114.649 53.5921 114.646 53.0325C114.644 52.473 114.421 51.937 114.025 51.5413C113.63 51.1456 113.094 50.9223 112.534 50.9201C111.974 50.9178 111.437 51.1367 111.038 51.5291H111.039Z" fill="#29EAFD"/>
<path d="M78.2984 136.167C78.2606 136.147 78.2221 136.131 78.1828 136.113L61.4499 128.972V118.634C65.8192 115.849 69.4162 112.009 71.9089 107.466C74.4015 102.924 75.7093 97.8268 75.7114 92.6455V90.617C77.8666 89.7876 79.6458 88.2013 80.7158 86.1548C81.7859 84.1084 82.0735 81.7422 81.5249 79.4989C81.2005 78.1382 80.5067 76.8934 79.5201 75.9017C78.5336 74.9099 77.2924 74.2097 75.9334 73.8781V64.5933C75.9334 56.2623 72.6239 48.2726 66.733 42.3817C60.8421 36.4908 52.8524 33.1813 44.5214 33.1813C36.1904 33.1813 28.2007 36.4908 22.3098 42.3817C16.4189 48.2726 13.1094 56.2623 13.1094 64.5933V74.1004C11.9104 74.5202 10.8361 75.2345 9.98509 76.1776C9.13404 77.1208 8.53354 78.2626 8.23868 79.4982C7.69004 81.7415 7.97767 84.1079 9.04773 86.1545C10.1178 88.201 11.8969 89.7875 14.0522 90.617V92.6455C14.056 98.1649 15.5403 103.582 18.3504 108.333C21.1605 113.083 25.1936 116.993 30.029 119.654V128.972L13.2961 136.113C13.2568 136.13 13.2183 136.149 13.1805 136.167C10.4937 137.522 8.19781 139.54 6.51095 142.032C4.82409 144.523 3.80227 147.405 3.54258 150.403C3.53763 150.461 3.53516 150.52 3.53516 150.579V170.171C3.53516 170.734 3.75863 171.274 4.15641 171.671C4.55419 172.069 5.0937 172.293 5.65625 172.293H85.8226C86.3852 172.293 86.9247 172.069 87.3225 171.671C87.7203 171.274 87.9437 170.734 87.9437 170.171V150.578C87.9437 150.52 87.9413 150.461 87.9367 150.401C87.6768 147.404 86.6548 144.523 84.9679 142.031C83.281 139.54 80.9851 137.521 78.2984 136.167ZM17.3516 64.5933C17.3516 57.3874 20.2141 50.4767 25.3095 45.3814C30.4048 40.286 37.3155 37.4235 44.5214 37.4235C51.7273 37.4235 58.638 40.286 63.7333 45.3814C68.8287 50.4767 71.6912 57.3874 71.6912 64.5933V74.25C66.4351 74.8181 50.3901 75.6753 37.5062 67.1323C46.359 65.9522 57.1504 63.2344 65.154 57.0963C65.3814 56.9292 65.5732 56.7184 65.7182 56.4763C65.8631 56.2342 65.9583 55.9655 65.9981 55.6861C66.0379 55.4068 66.0215 55.1222 65.95 54.8492C65.8784 54.5763 65.7532 54.3203 65.5814 54.0963C65.4097 53.8724 65.1951 53.6849 64.95 53.545C64.7049 53.4051 64.4344 53.3154 64.1543 53.2814C63.8741 53.2473 63.59 53.2695 63.3185 53.3466C63.0471 53.4237 62.7937 53.5542 62.5733 53.7305C48.0131 64.8977 22.0018 63.7198 21.7423 63.706C21.184 63.6777 20.637 63.8707 20.2201 64.2431C19.8032 64.6155 19.5499 65.1373 19.5151 65.6952L18.8788 76.171L17.4948 75.4604C17.459 75.4423 17.4278 75.4164 17.4034 75.3846C17.3789 75.3529 17.3618 75.3161 17.3534 75.2769L17.3516 64.5933ZM18.2944 92.6455V89.011C18.2945 88.5118 18.1185 88.0286 17.7975 87.6464C17.4765 87.2642 17.0309 87.0075 16.5392 86.9214C15.8329 86.7958 15.1598 86.5268 14.5615 86.1309C13.9632 85.735 13.4524 85.2206 13.0606 84.6196C12.6689 84.0186 12.4045 83.3436 12.2838 82.6364C12.1631 81.9292 12.1887 81.2048 12.3589 80.5079C12.4728 80.0045 12.703 79.5348 13.031 79.1364C13.3591 78.738 13.7759 78.4219 14.2481 78.2136C14.6167 78.6324 15.0603 78.9787 15.5561 79.2345L19.0206 81.0131C19.418 81.2173 19.8596 81.3202 20.3064 81.3127C20.7531 81.3052 21.1911 81.1875 21.5814 80.97C21.9717 80.7526 22.3023 80.4422 22.5438 80.0663C22.7853 79.6904 22.9303 79.2606 22.9658 78.8153C22.9658 78.8018 22.9679 78.7887 22.9686 78.7753L23.6251 67.9984C25.3573 68.0146 28.0363 67.9864 31.2928 67.7594C48.6169 82.4968 73.1339 78.3818 74.1824 78.1977C74.4021 78.1572 74.6141 78.0821 74.8103 77.9753C75.4399 78.105 76.0191 78.4125 76.4792 78.8614C76.9393 79.3103 77.261 79.8817 77.4061 80.5079C77.5766 81.2048 77.6023 81.9293 77.4817 82.6365C77.3612 83.3438 77.0968 84.0188 76.7051 84.6199C76.3133 85.2209 75.8025 85.7353 75.2041 86.1311C74.6058 86.527 73.9326 86.7959 73.2262 86.9214C72.7345 87.0075 72.2889 87.2642 71.9679 87.6464C71.6468 88.0286 71.4709 88.5118 71.471 89.011V92.6455C71.4453 99.6801 68.6328 106.418 63.6495 111.383C58.6662 116.348 51.9182 119.136 44.8836 119.136C37.8489 119.136 31.101 116.348 26.1176 111.383C21.1343 106.418 18.3219 99.6801 18.2962 92.6455H18.2944ZM44.8816 123.475C49.1241 123.48 53.3213 122.604 57.2077 120.902V128.518C49.8599 131.535 41.619 131.535 34.2712 128.518V121.593C37.6694 122.841 41.2615 123.478 44.8816 123.475V123.475ZM83.7015 168.049H7.77734V150.668C7.98711 148.422 8.7615 146.264 10.0285 144.397C11.2956 142.53 13.0141 141.014 15.0244 139.989L32.6875 132.45C41.0522 135.879 50.4303 135.879 58.795 132.45L76.4584 139.989C78.468 141.014 80.1858 142.531 81.4521 144.398C82.7185 146.265 83.4922 148.422 83.7015 150.668V168.049Z" fill="#081158"/>
</svg>
