<svg id="logo" xmlns="http://www.w3.org/2000/svg" width="120.735" height="43.035" viewBox="0 0 120.735 43.035">
  <path id="Path_234" data-name="Path 234" d="M420.529,264.6c-.7,0-1.5.243-1.5,1.077,0,1.041,1.415,1.255,2.212,1.447,1.511.365,2.76.95,2.76,2.695,0,1.793-1.572,2.62-3.187,2.62A5.421,5.421,0,0,1,417.107,271l.943-1.134a4.243,4.243,0,0,0,2.8,1.173c.72,0,1.581-.286,1.581-1.14,0-.916-1.072-1.155-1.785-1.326-1.585-.381-3.187-.8-3.187-2.784,0-1.784,1.516-2.575,3.123-2.575a5.053,5.053,0,0,1,3.148,1.071l-.8,1.134a3.9,3.9,0,0,0-2.4-.816Zm-50.784,0c-.7,0-1.5.243-1.5,1.077,0,1.041,1.415,1.255,2.212,1.447,1.511.365,2.76.95,2.76,2.695,0,1.793-1.571,2.62-3.187,2.62A5.421,5.421,0,0,1,366.323,271l.944-1.134a4.239,4.239,0,0,0,2.8,1.173c.72,0,1.581-.286,1.581-1.14,0-.916-1.072-1.155-1.785-1.326-1.584-.381-3.187-.8-3.187-2.784,0-1.784,1.516-2.575,3.123-2.575a5.053,5.053,0,0,1,3.148,1.071l-.8,1.134a3.906,3.906,0,0,0-2.4-.816Zm-63.054,0c-.7,0-1.5.243-1.5,1.077,0,1.041,1.413,1.254,2.211,1.447,1.51.365,2.76.95,2.76,2.695,0,1.793-1.572,2.62-3.187,2.62A5.421,5.421,0,0,1,303.269,271l.943-1.134a4.243,4.243,0,0,0,2.8,1.173c.72,0,1.581-.286,1.581-1.14,0-.915-1.072-1.155-1.785-1.326-1.584-.381-3.187-.8-3.187-2.784,0-1.785,1.516-2.575,3.124-2.575a5.055,5.055,0,0,1,3.148,1.071l-.8,1.134a3.9,3.9,0,0,0-2.4-.816Zm12.061-1.172c2.241,0,3.888.673,3.888,3.174,0,2.464-1.665,3.123-3.863,3.123H317.2v2.613h-1.5v-8.909Zm.192,4.933c1.375,0,2.154-.4,2.154-1.88s-1.137-1.689-2.371-1.689H317.2v3.569Zm13.252,4.065a4.608,4.608,0,1,1,4.69-4.608,4.542,4.542,0,0,1-4.69,4.608Zm0-7.838a3.232,3.232,0,1,0,3.148,3.231,3.151,3.151,0,0,0-3.148-3.231Zm17.37,1.734a2.587,2.587,0,0,1-1.925,2.778l2.333,3.238h-1.912l-2.129-3h-1.975v3h-1.5v-8.909h3.314c2.107,0,3.8.462,3.8,2.893Zm-3.735,1.656c1.266,0,2.193-.207,2.193-1.663,0-1.408-.967-1.523-2.155-1.523h-1.912v3.186Zm12.934-3.174v7.534h-1.5V264.8h-2.7v-1.376h6.909V264.8Zm24.014,6.169a3.34,3.34,0,0,0,2.511-1.1l.969.995a4.642,4.642,0,0,1-8.12-3.022,4.569,4.569,0,0,1,4.786-4.639,4.482,4.482,0,0,1,3.461,1.53l-.956,1.046a3.292,3.292,0,0,0-2.537-1.1,3.049,3.049,0,0,0-3.187,3.1,3.1,3.1,0,0,0,3.072,3.179Zm10.245-.663-.892,2.027h-1.606l3.926-8.909h1.606l3.926,8.909h-1.606l-.892-2.027Zm3.849-1.389-1.618-3.671-1.618,3.671Zm15.126-2.6a2.586,2.586,0,0,1-1.924,2.778l2.332,3.238h-1.912l-2.128-3h-1.976v3h-1.5v-8.909H408.2c2.108,0,3.8.462,3.8,2.893Zm-3.734,1.656c1.266,0,2.192-.207,2.192-1.663,0-1.408-.966-1.523-2.154-1.523h-1.912v3.186Z" transform="translate(-303.268 -237.288)" fill="#f9c300"/>
  <path id="Path_235" data-name="Path 235" d="M344.537,277.659l-1.019,2.059h-.5L342,277.659v2.372h-.842v-3.768H342.3l.971,2.07.975-2.07h1.132v3.768h-.841v-2.372Zm8.21.466a1.122,1.122,0,1,0-1.119,1.211,1.157,1.157,0,0,0,1.119-1.211Zm-1.121,1.944a1.946,1.946,0,1,1,1.978-1.946,1.921,1.921,0,0,1-1.978,1.946Zm8.884-3.806h.841v3.768h-.841l-1.795-2.361v2.361h-.841v-3.768h.787l1.849,2.426v-2.426Zm8.012,3.768-.351-.814h-1.58l-.351.814h-.895l1.629-3.768h.813l1.629,3.768Zm-1.137-2.647-.475,1.095h.944l-.469-1.095Zm7.758,1.9a1.24,1.24,0,0,0,1.013-.49l.539.555a1.965,1.965,0,0,1-1.512.723,1.9,1.9,0,0,1-2-1.938,1.93,1.93,0,0,1,1.979-1.96,1.99,1.99,0,0,1,1.552.706l-.523.593a1.226,1.226,0,0,0-.992-.5,1.1,1.1,0,0,0-1.149,1.146,1.087,1.087,0,0,0,1.089,1.162Zm8.658-1.162a1.122,1.122,0,1,0-1.119,1.211,1.157,1.157,0,0,0,1.119-1.211Zm-1.121,1.944a1.946,1.946,0,1,1,1.978-1.946,1.921,1.921,0,0,1-1.978,1.946Z" transform="translate(-302.542 -237.04)" fill="#f9c300"/>
  <path id="Path_236" data-name="Path 236" d="M424,259.335c-3.371-8.236-11-13.047-19.708-15.524-23.074-6.565-49.062-10.55-71.227,3.088-3.3.247-6.554.523-9.728.828-8.532.82-16.022,2.978-20.072,11.608,6.116-7.429,12.032-8.913,21.37-9.3h78c6.19,0,14.392.722,21.37,9.3Zm-92.057-6.55c20.523.861,41.481,2.134,57.984,3.8a23.135,23.135,0,0,1,5.41-3.8Zm88.518,6.55a20.353,20.353,0,0,0-29.354,0,34.524,34.524,0,0,1,29.354,0Zm-84.3,0a20.353,20.353,0,0,0-29.354,0,34.534,34.534,0,0,1,29.354,0Zm59.1-13.8c-17.347-.56-38.62-.236-58.436,1.1a58.278,58.278,0,0,1,15.894-5.8c13.72-2.96,30.816-.424,42.542,4.7Z" transform="translate(-303.268 -237.775)" fill="#f9c300"/>
</svg>
