<svg xmlns="http://www.w3.org/2000/svg" width="30.805" height="30.806" viewBox="0 0 30.805 30.806">
  <g id="message" transform="translate(-0.014)">
    <g id="Group_6" data-name="Group 6" transform="translate(0.014 0)">
      <g id="Group_5" data-name="Group 5" transform="translate(0 0)">
        <path id="Path_16" data-name="Path 16" d="M30.511,12.363A15.4,15.4,0,0,0,12.858.215l-.077.012A15.406,15.406,0,0,0,.724,20.015a11.526,11.526,0,0,1-.588,8.316,1.283,1.283,0,0,0,1.5,1.784l5.752-1.571a15.264,15.264,0,0,0,7.994,2.262,15.524,15.524,0,0,0,3.072-.308A15.4,15.4,0,0,0,30.511,12.363ZM26.1,22.506A12.829,12.829,0,0,1,8.309,26.087a1.287,1.287,0,0,0-.711-.214,1.31,1.31,0,0,0-.337.045L3.342,26.987a14.116,14.116,0,0,0-.167-7.737,12.675,12.675,0,0,1-.4-1.654A12.847,12.847,0,0,1,13.161,2.766l.069-.01A12.831,12.831,0,0,1,26.1,22.506Z" transform="translate(-0.014 0)" fill="#ff6d21"/>
      </g>
    </g>
    <g id="Group_8" data-name="Group 8" transform="translate(8.997 11.552)">
      <g id="Group_7" data-name="Group 7">
        <path id="Path_17" data-name="Path 17" d="M160.859,191.991H150.592a1.283,1.283,0,1,0,0,2.567h10.266a1.283,1.283,0,1,0,0-2.567Z" transform="translate(-149.309 -191.991)" fill="#ff6d21"/>
      </g>
    </g>
    <g id="Group_10" data-name="Group 10" transform="translate(8.997 16.685)">
      <g id="Group_9" data-name="Group 9">
        <path id="Path_18" data-name="Path 18" d="M160.859,277.306H150.592a1.283,1.283,0,0,0,0,2.567h10.266a1.283,1.283,0,0,0,0-2.567Z" transform="translate(-149.309 -277.306)" fill="#ff6d21"/>
      </g>
    </g>
  </g>
</svg>
