<svg width="123" height="123" viewBox="0 0 123 123" fill="none" xmlns="http://www.w3.org/2000/svg">
<g clip-path="url(#clip0)">
<path d="M45.1001 82.0005H28.534C26.5671 81.9985 24.6182 82.3909 22.8045 83.1547C12.7017 87.3918 6.1343 97.2844 6.15031 108.24V123H116.85V108.24C116.864 97.2864 110.295 87.3968 100.194 83.1607C98.3818 82.3949 96.4339 81.9995 94.466 82.0005H73.7999V75.5082C80.6746 71.9338 85.2651 65.1142 85.9878 57.4007H86.0999C89.2289 57.4067 91.9996 55.3817 92.9435 52.3988C93.8864 49.4159 92.7854 46.1648 90.2229 44.371C92.6622 43.2169 94.2398 40.7836 94.2988 38.0859C94.3569 35.3883 92.8865 32.8889 90.4991 31.6297C89.4521 21.7451 82.8848 13.3119 73.5587 9.87357C72.4206 4.16103 67.4237 0.0350299 61.6001 -4.1662e-06C55.7754 -0.0350382 50.7286 4.0299 49.5224 9.72743C39.9901 13.1628 33.2536 21.7361 32.1716 31.8109C30.0075 33.1031 28.6882 35.4424 28.7012 37.9628C28.7152 40.4833 30.0595 42.8085 32.2366 44.0778C29.4479 45.7123 28.1026 49.0145 28.9544 52.1326C29.8053 55.2506 32.643 57.4107 35.8751 57.4007H37.0133C37.736 65.1142 42.3264 71.9338 49.2001 75.5082V82.0005H45.1001ZM10.2503 118.9V108.24C10.2393 98.937 15.8167 90.5378 24.396 86.9403C25.7053 86.3868 27.1126 86.1015 28.534 86.1005H28.7002V106.127L24.1758 118.9H10.2503ZM94.466 86.1005C95.8874 86.0985 97.2957 86.3828 98.605 86.9343C107.186 90.5328 112.765 98.935 112.75 108.24V118.9H98.8242L94.2998 106.127V86.1005H94.466ZM90.1998 86.1005V106.83L94.474 118.9H28.526L32.8002 106.83V86.1005H41.0001V108.65H79.9499V86.1005H90.1998ZM75.8499 86.1005V104.55H45.1001V86.1005H49.2001C49.2001 92.8931 54.7074 98.4004 61.5 98.4004C68.2936 98.4004 73.7999 92.8931 73.7999 86.1005H75.8499ZM35.8751 41.0008C34.1775 41.0008 32.8002 39.6234 32.8002 37.9258C32.8002 36.2271 34.1775 34.8508 35.8751 34.8508H87.1249C88.8235 34.8508 90.1998 36.2271 90.1998 37.9258C90.1998 39.6234 88.8235 41.0008 87.1249 41.0008H35.8751ZM57.4 23.8832C60.0496 24.8401 62.9504 24.8401 65.6 23.8832V30.7508H57.4V23.8832ZM86.0999 53.3007V47.1507C87.7985 47.1507 89.1749 48.5271 89.1749 50.2257C89.1749 51.9234 87.7985 53.3007 86.0999 53.3007ZM73.6178 14.3299C80.3022 17.3578 85.0398 23.5138 86.256 30.7508H69.7V21.4438C71.775 19.585 73.1563 17.0766 73.6178 14.3299ZM53.3411 11.4801C53.7855 7.05384 57.6783 3.78967 62.1146 4.123C66.5509 4.45632 69.9122 8.26601 69.6899 12.7093C69.4677 17.1526 65.7431 20.608 61.2958 20.4969C56.8485 20.3858 53.301 16.7492 53.3 12.3009C53.3 12.0237 53.3151 11.7474 53.3411 11.4801ZM49.3622 14.1988C49.8007 16.9955 51.192 19.555 53.3 21.4438V30.7508H36.4417C37.735 23.4307 42.5756 17.2297 49.3622 14.1988ZM32.8002 50.2257C32.8002 48.5271 34.1775 47.1507 35.8751 47.1507H36.9001V53.3007H35.8751C34.1775 53.3007 32.8002 51.9234 32.8002 50.2257ZM41.0001 55.1125V45.1007H81.9999V55.1125C82.1761 65.2363 74.1283 73.5944 64.0054 73.8006H58.9956C48.8728 73.5944 40.8239 65.2363 41.0001 55.1125ZM58.9956 77.9006H64.0054C65.9313 77.8936 67.8462 77.6253 69.7 77.1048V86.1005C69.7 90.6289 66.0294 94.3005 61.5 94.3005C56.9716 94.3005 53.3 90.6289 53.3 86.1005V77.1048C55.1538 77.6253 57.0697 77.8936 58.9956 77.9006Z" fill="#252837"/>
<path d="M55.3501 49.2007C55.3501 51.4649 53.5153 53.3007 51.2501 53.3007C48.9859 53.3007 47.1501 51.4649 47.1501 49.2007C47.1501 46.9365 48.9859 45.1007 51.2501 45.1007C53.5153 45.1007 55.3501 46.9365 55.3501 49.2007Z" fill="#EB1C24"/>
<path d="M75.85 49.2007C75.85 51.4649 74.0152 53.3007 71.75 53.3007C69.4858 53.3007 67.65 51.4649 67.65 49.2007C67.65 46.9365 69.4858 45.1007 71.75 45.1007C74.0152 45.1007 75.85 46.9365 75.85 49.2007Z" fill="#EB1C24"/>
<path d="M60.8524 57.5068L62.1486 61.3936L71.4447 58.2986L62.9494 49.8013L60.0506 52.7001L63.8563 56.5048L60.8524 57.5068Z" fill="#EB1C24"/>
<path d="M65.1006 69.6386L66.1006 65.6617L65.0756 65.4035C60.9545 64.3765 57.366 61.848 55.0117 58.3126L51.6014 60.5878C54.5193 64.9711 58.9686 68.1061 64.0776 69.3804L65.1006 69.6386Z" fill="#EB1C24"/>
</g>
<defs>
<clipPath id="clip0">
<rect width="123" height="123" fill="white"/>
</clipPath>
</defs>
</svg>
