<?xml version="1.0" encoding="utf-8"?>
<!-- Generator: Adobe Illustrator 16.0.0, SVG Export Plug-In . SVG Version: 6.00 Build 0)  -->
<!DOCTYPE svg PUBLIC "-//W3C//DTD SVG 1.1//EN" "http://www.w3.org/Graphics/SVG/1.1/DTD/svg11.dtd">
<svg version="1.1" xmlns="http://www.w3.org/2000/svg" xmlns:xlink="http://www.w3.org/1999/xlink" x="0px" y="0px" width="64px"
	 height="64px" viewBox="0 0 64 64" enable-background="new 0 0 64 64" xml:space="preserve">
	<symbol id="icon-1" viewBox="original-file's-viewBox">
		<g>
			<path fill="#3A444F" d="M50.389,5.828H29.412c-3.394,0-6.154,2.761-6.154,6.154v8.123l-0.067-0.063L7.339,36.939L7.18,58.171
				h3.191l0.149-19.96l12.737-13.575v13.132l-5.236,5.235l2.257,2.256L31.348,34.19c0.766-0.767,1.805-1.207,2.848-1.207
				c0.92,0,1.764,0.338,2.377,0.952c0.646,0.645,0.982,1.533,0.948,2.504c-0.033,1.011-0.462,1.979-1.203,2.72l-19.01,19.012h4.513
				l4.333-4.334c0.947,0.593,2.061,0.942,3.258,0.942h20.977c3.395,0,6.154-2.761,6.154-6.154V11.982
				C56.543,8.589,53.783,5.828,50.389,5.828z M45.143,51.588H29.412c-0.303,0-0.59-0.059-0.866-0.145l10.027-10.028
				c1.316-1.315,2.075-3.044,2.137-4.866c0.064-1.864-0.604-3.594-1.881-4.871c-1.217-1.216-2.862-1.885-4.634-1.885
				c-1.883,0-3.744,0.78-5.104,2.141l-2.643,2.643V11.982c0-1.634,1.329-2.963,2.963-2.963h15.731V51.588z M53.352,48.625
				c0,1.634-1.329,2.963-2.963,2.963h-2.055V9.02h2.055c1.634,0,2.963,1.329,2.963,2.963V48.625z"/>
		</g>
	</symbol>
	<symbol id="icon-2" viewBox="original-file's-viewBox">
		<g>
			<path fill="#3A444F" d="M43.257,8.688H9.077c-3.394,0-6.154,2.761-6.154,6.154v17.614c0,3.394,2.76,6.154,6.154,6.154h1.454v-3.19
				H9.077c-1.634,0-2.963-1.331-2.963-2.964V18.596H46.22v3.569h3.191v-7.322C49.411,11.449,46.651,8.688,43.257,8.688z
				 M6.113,15.405v-0.562c0-1.634,1.33-2.963,2.963-2.963h34.18c1.635,0,2.963,1.329,2.963,2.963v0.562H6.113z"/>
			<g>
				<g>
					<path fill="#3A444F" d="M54.087,55.31H19.906c-3.394,0-6.154-2.76-6.154-6.154V31.541c0-3.394,2.761-6.154,6.154-6.154h34.181
						c3.394,0,6.154,2.761,6.154,6.154v17.614C60.241,52.55,57.48,55.31,54.087,55.31z M19.906,28.578
						c-1.634,0-2.963,1.329-2.963,2.963v17.614c0,1.634,1.33,2.964,2.963,2.964h34.181c1.634,0,2.964-1.33,2.964-2.964V31.541
						c0-1.634-1.33-2.963-2.964-2.963H19.906z"/>
				</g>
			</g>
			<g>
				<path fill="#3A444F" d="M35.158,48.407H22.277c-0.881,0-1.596-0.714-1.596-1.596c0-0.88,0.715-1.595,1.596-1.595h12.881
					c0.88,0,1.596,0.715,1.596,1.595C36.754,47.693,36.038,48.407,35.158,48.407z"/>
			</g>
			<g>
				<path fill="#3A444F" d="M45.691,42.173H22.277c-0.881,0-1.596-0.715-1.596-1.596s0.715-1.595,1.596-1.595h23.414
					c0.88,0,1.596,0.714,1.596,1.595S46.571,42.173,45.691,42.173z"/>
			</g>
		</g>
	</symbol>
	<symbol id="icon-3" viewBox="original-file's-viewBox">
		<path fill="#3A444F" d="M49.673,8.73c-0.267-0.198-6.637-4.84-15.968-4.84c-5.002,0-9.913,1.342-14.594,3.989
			c-1.084,0.53-9.694,5.167-7.792,17.603c0.123,1.113,0.077,3.081-0.4,3.878L5.15,36.142c-0.118,0.138-0.211,0.296-0.276,0.466
			c-0.102,0.268-0.572,1.673,0.226,2.939c0.363,0.577,1.106,1.29,2.584,1.442l2.693,0.556c0.444,0.999,1.064,2.62,1.145,3.838
			c0.117,1.75-0.234,3.933-0.327,4.463c-0.597,1.702-0.948,4.839,1.317,6.517c0.117,0.085,0.244,0.155,0.377,0.206
			c0.001,0.002,0.003,0.002,0.005,0.004c0.452,0.234,1.509,0.783,4.142,0.783c2.02,0,4.637-0.318,7.793-0.949
			c0.256,0.747,0.61,2.141,0.903,4.556h3.213c-0.602-5.302-1.583-6.997-2.153-7.53c-0.382-0.356-0.914-0.506-1.426-0.395
			c-3.479,0.748-6.283,1.128-8.331,1.128c-1.854,0-2.448-0.309-2.672-0.425c-0.017-0.008-0.034-0.018-0.052-0.027
			c-0.691-0.687-0.244-2.441-0.079-2.888c0.032-0.087,0.057-0.176,0.075-0.267c0.017-0.091,0.319-1.705,0.404-3.519L18,47.095
			c0.01,0,0.019,0,0.027,0c0.869,0,1.58-0.696,1.595-1.568c0.014-0.882-0.688-1.608-1.569-1.622l-3.54-0.059
			c-0.448-2.108-1.475-4.161-1.614-4.431c-0.221-0.432-0.625-0.737-1.099-0.836l-3.558-0.733c-0.062-0.013-0.125-0.021-0.188-0.026
			c-0.048-0.005-0.091-0.009-0.128-0.015l5.494-6.458c0.038-0.044,0.073-0.091,0.105-0.139c1.341-1.979,1.041-5.409,0.958-6.142
			c-1.644-10.763,5.702-14.173,6.007-14.31c0.052-0.023,0.104-0.048,0.153-0.077c4.21-2.388,8.604-3.598,13.064-3.598
			c8.237,0,14.013,4.173,14.071,4.216c13.173,9.707,5.099,24.514,4.455,25.641c-3.225,4.673-4.804,11.672-4.87,11.969
			c-0.018,0.082-0.03,0.166-0.035,0.248c-0.262,4.257,0.354,8.986,0.823,11.808h3.24c-0.441-2.552-1.122-7.32-0.886-11.48
			c0.215-0.914,1.703-6.922,4.387-10.779c0.023-0.033,0.046-0.067,0.066-0.103C55.063,38.418,65.409,20.326,49.673,8.73z"/>
		<path fill="#3A444F" d="M43.481,28.442c0-2.903-3.348-5.163-8.019-5.609v-5.087c2.5,0.3,4.188,1.207,4.676,1.978l3.032-1.067
			c-0.933-2.188-3.906-3.766-7.708-4.131v-2.667h-3.191v2.652c-4.789,0.395-8.243,2.68-8.243,5.629c0,2.949,3.455,5.232,8.243,5.627
			v5.097c-2.835-0.296-4.643-1.388-4.986-2.166l-3.105,0.76c0.694,2.447,3.871,4.266,8.092,4.612v2.732h3.191v-2.752
			C40.134,33.604,43.481,31.345,43.481,28.442z M27.219,20.14c0-0.77,1.884-2.099,5.052-2.429v4.855
			C29.104,22.237,27.219,20.909,27.219,20.14z M35.463,30.841v-4.799c3.028,0.368,4.827,1.649,4.827,2.4
			C40.29,29.192,38.491,30.473,35.463,30.841z"/>
	</symbol>
	<symbol id="icon-4" viewBox="original-file's-viewBox">
		<g>
			<g>
				<circle fill="#3A444F" cx="31.862" cy="7.664" r="2.051"/>
			</g>
			<path fill="#3A444F" d="M52.019,19.459c0.202,0.014,0.405,0.029,0.596,0.029c4.283,0,5.606-3.334,5.672-3.512
				c0.309-0.813-0.069-1.797-0.876-2.12c-0.809-0.324-1.731,0.074-2.07,0.875c-0.023,0.057-0.044,0.114-0.062,0.172
				c-0.19,0.419-1.305,2.306-5.431,0.837c-0.016-0.005-0.032-0.006-0.048-0.012c-4.785-2.045-11.394-3.112-17.795-3.112
				c-6.714,0-13.65,1.175-18.479,3.419c-3.832,1.236-4.896-0.539-5.082-0.948c-0.017-0.06-0.039-0.12-0.063-0.179
				c-0.34-0.799-1.262-1.193-2.071-0.869c-0.806,0.323-1.181,1.31-0.874,2.122c0.067,0.177,1.39,3.509,5.675,3.508
				c0.148,0,0.309-0.013,0.465-0.022C9.39,22.872,3.617,31.693,3.617,34.938c0,4.102,4.196,7.314,9.554,7.314
				s9.554-3.213,9.554-7.314c0-3.387-6.304-12.871-8.236-15.697c-0.035-0.051-0.081-0.088-0.121-0.133
				c0.087-0.027,0.3-0.104,0.395-0.149s0.535-0.209,0.535-0.209c3.561-1.561,8.824-2.714,14.968-2.902v28.757h3.191V15.84
				c6.229,0.159,11.576,1.31,15.19,2.88c0.032,0.003,0.345,0.121,0.376,0.124l0.458,0.125c-0.092,0.079-0.176,0.168-0.247,0.271
				c-1.932,2.826-8.235,12.31-8.235,15.697c0,4.102,4.195,7.314,9.554,7.314c5.356,0,9.554-3.213,9.554-7.314
				C60.106,31.627,54.095,22.51,52.019,19.459z M19.533,34.938c0,2.235-2.914,4.123-6.363,4.123s-6.363-1.888-6.363-4.123
				c0-0.08,0.014-0.176,0.031-0.279h12.663C19.52,34.762,19.533,34.857,19.533,34.938z M18.19,31.467H8.151
				c1.208-2.366,3.081-5.498,5.02-8.457C15.109,25.969,16.982,29.102,18.19,31.467z M50.553,23.01
				c2.091,3.193,4.109,6.59,5.294,9.004H45.259C46.441,29.601,48.46,26.203,50.553,23.01z M50.553,39.061
				c-3.311,0-6.119-1.74-6.342-3.854h12.682C56.671,37.32,53.861,39.061,50.553,39.061z"/>
			<path fill="#3A444F" d="M31.861,47.982c-7.854,0-14.51,4.736-16.917,11.315h33.835C46.369,52.719,39.715,47.982,31.861,47.982z
				 M20.52,56.12c2.697-3.017,6.775-4.947,11.341-4.947c4.564,0,8.645,1.931,11.34,4.947H20.52z"/>
		</g>
	</symbol>
	<symbol id="icon-5" viewBox="original-file's-viewBox">
		<path fill="#3A444F" d="M59.787,21.96l-6.766-11.212c-0.056-0.133-0.133-0.259-0.226-0.374l-0.018-0.028
			c-0.288-0.479-0.807-0.771-1.365-0.771H11.665c-0.56,0-1.078,0.292-1.367,0.771L3.29,21.96c-0.009,0.015-0.011,0.032-0.019,0.047
			c-0.069,0.123-0.124,0.254-0.159,0.394c-0.003,0.015-0.01,0.029-0.013,0.043c-0.024,0.11-0.039,0.224-0.039,0.341
			c0,0.033,0.008,0.063,0.01,0.095c0.002,0.034,0.006,0.067,0.01,0.102c0.019,0.149,0.05,0.294,0.107,0.427
			c0,0.001,0.001,0.002,0.001,0.003c0.061,0.142,0.146,0.269,0.243,0.386c0.011,0.013,0.015,0.029,0.027,0.042l26.834,30.438
			c0.308,0.351,0.747,0.541,1.197,0.541c0.016,0,0.032,0,0.048-0.001c0.467,0.031,0.926-0.177,1.245-0.54L59.618,23.84
			C60.08,23.317,60.147,22.557,59.787,21.96z M11.693,14.211l5.025,6.978H7.483L11.693,14.211z M41.052,24.38l-9.465,23.947
			L22.121,24.38H41.052z M23.505,21.189l8.082-8.155l8.083,8.155H23.505z M35.813,12.766h12.775l-5.377,7.466L35.813,12.766z
			 M19.961,20.231l-5.376-7.466h12.774L19.961,20.231z M18.69,24.38l8.534,21.59L8.19,24.38H18.69z M44.483,24.38h10.404
			l-18.86,21.393L44.483,24.38z M46.455,21.189l4.973-6.906l4.168,6.906H46.455z"/>
	</symbol>
	<symbol id="icon-6" viewBox="original-file's-viewBox">
		<g>
			<g>
				<circle fill="#3A444F" cx="19.811" cy="22.39" r="2.052"/>
			</g>
			<g>
				<path fill="#3A444F" d="M37.644,19.278H30.92c-0.882,0-1.596-0.714-1.596-1.596c0-0.881,0.714-1.595,1.596-1.595h6.724
					c0.882,0,1.596,0.714,1.596,1.595C39.239,18.564,38.525,19.278,37.644,19.278z"/>
			</g>
			<path fill="#3A444F" d="M63.579,20.819c-0.395-0.789-1.354-1.107-2.141-0.714l-5.025,2.511
				C52.543,15.01,44.076,9.719,34.271,9.719H30.75c-1.024,0-2.031,0.068-3.021,0.181c-0.85-1.142-4.286-5.351-8.813-5.351
				c-0.426,0-0.836,0.171-1.135,0.475c-0.3,0.304-0.465,0.715-0.46,1.142l0.097,7.194c-3.627,2.164-6.594,5.17-8.532,8.727
				c-0.47,0.131-1.918,0.329-5.553-0.924c-0.963-0.332-1.955-0.033-2.536,0.741c-1.618,2.159,0.293,10.315,2.182,16.776
				c0.481,1.653,2.143,2.899,3.866,2.899h1.968c2.248,4.193,5.908,7.648,10.412,9.855v5.51c0,1.886,1.534,3.419,3.419,3.419h3.991
				c1.885,0,3.419-1.533,3.419-3.419v-2.89c0.233,0.005,0.463,0.022,0.697,0.022h3.522c0.24,0,0.479-0.011,0.717-0.017v2.884
				c0,1.886,1.534,3.419,3.42,3.419h3.991c1.885,0,3.419-1.533,3.419-3.419v-5.517c7.64-3.75,12.842-11.097,12.842-19.53
				c0-2.199-0.358-4.322-1.018-6.329l5.222-2.609C63.652,22.565,63.973,21.607,63.579,20.819z M45.818,47.81
				c-1.009,0.589-2.073,1.105-3.191,1.536c-0.001,0-0.001,0-0.001,0l0.001,7.599c0,0.121-0.106,0.229-0.228,0.229h-3.991
				c-0.121,0-0.229-0.107-0.229-0.229l0.007-6.39c-0.002,0.001-0.004,0.002-0.007,0.002c-1.039,0.175-2.104,0.28-3.191,0.313
				c-0.238,0.008-0.477,0.018-0.717,0.018H30.75c-0.234,0-0.465-0.015-0.697-0.021c-1.086-0.032-2.152-0.134-3.191-0.309
				c-0.002,0-0.005,0-0.008-0.001l0.008,6.389c0,0.121-0.107,0.229-0.228,0.229h-3.991c-0.121,0-0.228-0.107-0.228-0.229v-4.209
				h0.001v-3.384h-0.001c-1.117-0.431-2.183-0.946-3.191-1.535c-2.742-1.6-5.052-3.747-6.722-6.273l-0.806-1.56
				c-0.017-0.032-0.032-0.064-0.05-0.098c-0.146-0.278-0.301-0.49-0.456-0.675c-0.576-0.686-1.154-0.808-1.372-0.823H7.428H6.843
				c-0.292,0-0.72-0.319-0.803-0.603c-1.455-4.98-2.744-10.929-2.728-13.272c1.573,0.482,2.953,0.747,4.141,0.816
				c0.196,0.012,0.398,0.03,0.584,0.03c0.808,0,1.42-0.112,1.896-0.265v-0.001c0.622-0.141,1.179-0.669,1.621-1.241
				c0.006-0.008,0.013-0.016,0.019-0.023l-0.002-0.01c0.304-0.575,0.637-1.135,1-1.676c1.944-2.894,4.722-5.289,8.036-6.913
				l-0.07-7.193c2.1,0.75,3.811,2.719,4.466,3.554c0.084,0.109,0.166,0.217,0.246,0.325c0.024,0.033,0.042,0.057,0.044,0.062
				c0.003,0.005,0.009,0.01,0.012,0.015c0.486,0.656,0.881,1.239,0.956,1.35c1.448-0.28,2.948-0.432,4.488-0.432h3.522
				c11.688,0,21.197,8.518,21.197,18.988C55.469,38.555,51.622,44.419,45.818,47.81z"/>
		</g>
	</symbol>
	<symbol id="icon-7" viewBox="original-file's-viewBox">
		<g>
			<path fill="#3A444F" d="M28.47,34.868V10.171C15.028,10.408,4.203,21.37,4.203,34.868c0,13.497,10.825,24.461,24.267,24.696
				c0.147,0.003,0.293,0.012,0.441,0.012c13.646,0,24.708-11.063,24.708-24.708H28.47z M25.279,13.668v6.371H13.403
				C16.529,16.773,20.652,14.466,25.279,13.668z M10.877,23.23h14.401v5.266H8.39C8.98,26.619,9.822,24.852,10.877,23.23z
				 M7.394,34.868c0-1.082,0.101-2.14,0.259-3.182h17.626v3.182v0.588l-1.842,1.496H7.498C7.43,36.266,7.394,35.57,7.394,34.868z
				 M11.142,46.932c-1.398-2.045-2.457-4.335-3.084-6.788h11.447L11.142,46.932z M28.911,56.386c-0.052,0-0.103-0.003-0.153-0.005
				l-0.231-0.007c-6.064-0.106-11.536-2.773-15.393-6.948L27.137,38.06h23.055C48.646,48.416,39.691,56.386,28.911,56.386z"/>
			<path fill="#3A444F" d="M34.813,4.703c-0.149,0-0.294,0.008-0.441,0.011v24.697h25.149C59.521,15.765,48.458,4.703,34.813,4.703z
				 M37.562,8.069c9.522,1.22,17.119,8.689,18.531,18.151H37.562V8.069z"/>
		</g>
	</symbol>
	<symbol id="icon-8" viewBox="original-file's-viewBox">
		<g>
			<path fill="#3A444F" d="M17.774,41.436c0.264,0.167,0.559,0.246,0.85,0.246c0.529,0,1.047-0.264,1.351-0.744l7.076-11.218
				l5.007,7.177c0.267,0.383,0.689,0.629,1.153,0.675c0.467,0.046,0.927-0.115,1.263-0.439l7.231-6.967l5.307,5.004
				c0.383,0.362,0.922,0.51,1.438,0.397c0.516-0.114,0.941-0.476,1.139-0.966l8.51-21.274c0.327-0.818-0.07-1.747-0.89-2.074
				c-0.817-0.326-1.745,0.071-2.073,0.889l-7.64,19.098l-4.707-4.439c-0.62-0.585-1.589-0.579-2.201,0.012l-6.98,6.726l-5.313-7.616
				c-0.306-0.438-0.792-0.711-1.346-0.682c-0.535,0.013-1.027,0.292-1.313,0.744l-8.358,13.252
				C16.806,39.98,17.029,40.966,17.774,41.436z"/>
			<polygon fill="#3A444F" points="59.565,47.213 12.349,47.213 12.349,9.222 9.158,9.222 9.158,15.288 4.327,15.288 4.327,18.479 
				9.158,18.479 9.158,28.143 4.327,28.143 4.327,31.333 9.158,31.333 9.158,40.997 4.327,40.997 4.327,44.188 9.158,44.188 
				9.158,47.213 9.158,50.252 9.158,50.403 15.65,50.403 15.65,55.057 18.841,55.057 18.841,50.403 27.086,50.403 27.086,55.057 
				30.278,55.057 30.278,50.403 38.524,50.403 38.524,55.057 41.716,55.057 41.716,50.403 49.961,50.403 49.961,55.057 
				53.152,55.057 53.152,50.403 59.565,50.403 		"/>
		</g>
	</symbol>
	<symbol id="icon-9" viewBox="original-file's-viewBox">
		<g>
			<path fill="#3A444F" d="M22.693,25.4c0.217,0.428,0.616,0.735,1.085,0.837c0.47,0.102,0.959-0.014,1.335-0.314l7.091-5.677
				l3.135,11.683c0.163,0.611,0.674,1.068,1.299,1.164c0.626,0.093,1.249-0.187,1.589-0.721l5.081-7.985l11.735,17.236
				c0.309,0.454,0.81,0.698,1.32,0.698c0.309,0,0.621-0.09,0.896-0.277c0.729-0.497,0.916-1.488,0.42-2.217L44.582,20.588
				c-0.302-0.443-0.79-0.695-1.344-0.698c-0.537,0.008-1.033,0.286-1.321,0.739l-4.436,6.97l-2.827-10.537
				c-0.14-0.52-0.533-0.935-1.045-1.103c-0.51-0.167-1.074-0.066-1.494,0.271l-7.465,5.976l-4.856-9.556
				c-0.399-0.786-1.359-1.099-2.145-0.7c-0.785,0.399-1.099,1.359-0.7,2.145L22.693,25.4z"/>
			<polygon fill="#3A444F" points="59.586,47.213 12.371,47.213 12.371,9.222 9.179,9.222 9.179,15.288 4.348,15.288 4.348,18.479 
				9.179,18.479 9.179,28.143 4.348,28.143 4.348,31.333 9.179,31.333 9.179,40.997 4.348,40.997 4.348,44.188 9.179,44.188 
				9.179,47.213 9.179,50.252 9.179,50.403 15.671,50.403 15.671,55.057 18.862,55.057 18.862,50.403 27.108,50.403 27.108,55.057 
				30.299,55.057 30.299,50.403 38.546,50.403 38.546,55.057 41.737,55.057 41.737,50.403 49.982,50.403 49.982,55.057 
				53.174,55.057 53.174,50.403 59.586,50.403 		"/>
		</g>
	</symbol>
	<symbol id="icon-10" viewBox="original-file's-viewBox">
		<g>
			<g>
				<g>
					<polygon fill="#3A444F" points="62.135,12.74 7.97,12.74 7.97,15.9 58.945,15.9 58.945,44.827 62.135,44.827 				"/>
					<path fill="#3A444F" d="M1.587,19.092V51.18h54.167V19.092H1.587z M52.563,47.988H4.779V22.283h47.785V47.988z"/>
				</g>
			</g>
		</g>
		<path fill="#3A444F" d="M27.386,45.585l-0.002-2.415l-0.221-0.021c-3.211-0.326-5.665-1.714-6.354-3.568l2.688-0.657
			c0.456,0.575,1.785,1.25,3.609,1.493l0.279,0.037v-4.226l-0.207-0.033c-2.496-0.4-3.902-1.006-4.519-1.332l-0.104-0.056
			c-1.275-0.861-1.95-1.945-1.95-3.133c0.001-2.344,2.697-4.254,6.558-4.644l0.222-0.022v-2.354h2.699l0.001,2.371l0.218,0.025
			c2.889,0.33,5.156,1.535,6.003,3.169l-2.613,0.921c-0.501-0.519-1.668-1.108-3.326-1.357l-0.283-0.043l0,4.411l0.203,0.037
			c1.789,0.319,3.253,0.735,4.235,1.203c0.444,0.214,0.778,0.424,1.021,0.641c0.09,0.083,0.169,0.166,0.241,0.245
			c0.592,0.675,0.893,1.424,0.893,2.222c0,2.296-2.621,4.199-6.375,4.628l-0.218,0.024l-0.001,2.435L27.386,45.585z M30.084,40.429
			l0.283-0.043c2.128-0.324,3.612-1.254,3.612-1.887c0.003-0.628-1.479-1.554-3.612-1.876l-0.283-0.042L30.084,40.429z
			 M27.106,29.761c-2.351,0.313-3.799,1.323-3.803,1.909c0.001,0.586,1.448,1.594,3.803,1.907l0.279,0.038v-3.892L27.106,29.761z"/>
	</symbol>
	<symbol id="icon-11" viewBox="original-file's-viewBox">
		<path fill="#3A444F" d="M30.257,40.161l-0.002-2.415l-0.221-0.022c-3.211-0.325-5.665-1.714-6.354-3.567l2.688-0.658
			c0.456,0.576,1.785,1.25,3.609,1.493l0.279,0.037v-4.225l-0.207-0.033c-2.496-0.4-3.902-1.006-4.519-1.332l-0.104-0.055
			c-1.276-0.862-1.95-1.945-1.95-3.133c0.001-2.344,2.698-4.254,6.558-4.643l0.222-0.022V19.23h2.699v2.371l0.219,0.025
			c2.889,0.33,5.155,1.535,6.003,3.169l-2.612,0.922c-0.5-0.519-1.668-1.108-3.326-1.358l-0.283-0.043l0.002,4.411l0.203,0.037
			c1.788,0.319,3.253,0.735,4.234,1.204c0.443,0.214,0.778,0.423,1.022,0.64c0.089,0.083,0.167,0.167,0.24,0.245
			c0.591,0.675,0.892,1.423,0.892,2.222c0,2.296-2.621,4.199-6.375,4.627l-0.219,0.025v2.435L30.257,40.161z M32.955,35.005
			l0.283-0.044c2.128-0.324,3.611-1.254,3.611-1.886c0.004-0.628-1.478-1.555-3.611-1.876l-0.283-0.043V35.005z M29.977,24.337
			c-2.351,0.313-3.799,1.323-3.803,1.909c0.001,0.587,1.448,1.595,3.803,1.907l0.279,0.037V24.3L29.977,24.337z"/>
		<g>
			<path fill="#3A444F" d="M43.493,3.136H19.534c-2.507,0-4.559,2.051-4.559,4.559v48.27c0,2.508,2.052,4.559,4.559,4.559h23.959
				c2.508,0,4.56-2.051,4.56-4.559V7.695C48.053,5.188,46.001,3.136,43.493,3.136z M44.861,45.611H18.167V14.262h26.695V45.611z
				 M19.534,6.328h23.959c0.741,0,1.368,0.625,1.368,1.367v3.376H18.167V7.695C18.167,6.953,18.793,6.328,19.534,6.328z
				 M43.493,57.333H19.534c-0.741,0-1.368-0.627-1.368-1.368v-7.162h26.695v7.162C44.861,56.706,44.234,57.333,43.493,57.333z"/>
			<circle fill="#3A444F" cx="31.513" cy="52.874" r="2.051"/>
		</g>
	</symbol>
	<symbol id="icon-12" viewBox="original-file's-viewBox">
		<g>
			<path fill="#3A444F" d="M21.547,41.121c0.267,0.172,0.566,0.253,0.862,0.253c0.525,0,1.039-0.259,1.343-0.732l4.618-7.178
				l4.479,3.714c0.4,0.331,0.931,0.448,1.431,0.313c0.499-0.133,0.902-0.499,1.083-0.984l6.048-16.26
				c0.307-0.824-0.114-1.743-0.939-2.051c-0.824-0.305-1.744,0.114-2.053,0.939l-5.264,14.153l-4.135-3.429
				c-0.352-0.291-0.813-0.418-1.263-0.348c-0.451,0.069-0.851,0.33-1.098,0.714l-5.592,8.69
				C20.591,39.656,20.806,40.643,21.547,41.121z"/>
		</g>
		<g>
			<path fill="#3A444F" d="M43.271,3.022H19.312c-2.507,0-4.559,2.051-4.559,4.559v48.271c0,2.507,2.052,4.559,4.559,4.559h23.959
				c2.507,0,4.559-2.052,4.559-4.559V7.581C47.83,5.074,45.778,3.022,43.271,3.022z M44.639,45.498H17.944v-31.35h26.694V45.498z
				 M19.312,6.213h23.959c0.741,0,1.367,0.626,1.367,1.368v3.376H17.944V7.581C17.944,6.839,18.571,6.213,19.312,6.213z
				 M43.271,57.219H19.312c-0.741,0-1.368-0.627-1.368-1.367v-7.163h26.694v7.163C44.639,56.592,44.013,57.219,43.271,57.219z"/>
			<circle fill="#3A444F" cx="31.291" cy="52.76" r="2.052"/>
		</g>
	</symbol>
	<symbol id="icon-13" viewBox="original-file's-viewBox">
		<g>
			<g>
				<g>
					<path fill="#3A444F" d="M21.416,57.232h-8.006c-0.881,0-1.596-0.715-1.596-1.596c0-0.882,0.714-1.596,1.596-1.596h8.006
						c0.881,0,1.595,0.714,1.595,1.596C23.011,56.518,22.296,57.232,21.416,57.232z"/>
				</g>
				<g>
					<path fill="#3A444F" d="M50.313,57.232h-8.006c-0.882,0-1.596-0.715-1.596-1.596c0-0.882,0.714-1.596,1.596-1.596h8.006
						c0.881,0,1.596,0.714,1.596,1.596C51.909,56.518,51.194,57.232,50.313,57.232z"/>
				</g>
			</g>
			<g>
				<path fill="#3A444F" d="M53.142,50.408H10.581c-3.394,0-6.154-2.76-6.154-6.154V13.485c0-3.395,2.761-6.154,6.154-6.154h42.561
					c3.394,0,6.154,2.76,6.154,6.154v30.769C59.296,47.648,56.535,50.408,53.142,50.408z M10.581,10.522
					c-1.634,0-2.963,1.329-2.963,2.963v30.769c0,1.634,1.329,2.963,2.963,2.963h42.561c1.633,0,2.963-1.329,2.963-2.963V13.485
					c0-1.634-1.33-2.963-2.963-2.963H10.581z"/>
			</g>
			<g>
				<g>
					<rect x="11.885" y="20.884" fill="#3A444F" width="3.191" height="3.191"/>
				</g>
				<g>
					<rect x="11.885" y="27.267" fill="#3A444F" width="3.191" height="3.191"/>
				</g>
				<g>
					<rect x="11.885" y="33.648" fill="#3A444F" width="3.191" height="3.191"/>
				</g>
			</g>
			<g>
				<g>
					<rect x="18.267" y="20.884" fill="#3A444F" width="3.191" height="3.191"/>
				</g>
				<g>
					<rect x="18.267" y="27.267" fill="#3A444F" width="3.191" height="3.191"/>
				</g>
				<g>
					<rect x="18.267" y="33.648" fill="#3A444F" width="3.191" height="3.191"/>
				</g>
			</g>
			<g>
				<g>
					<rect x="24.649" y="20.884" fill="#3A444F" width="3.191" height="3.191"/>
				</g>
				<g>
					<rect x="24.649" y="27.267" fill="#3A444F" width="3.191" height="3.191"/>
				</g>
				<g>
					<rect x="24.649" y="33.648" fill="#3A444F" width="3.191" height="3.191"/>
				</g>
			</g>
			<g>
				<path fill="#3A444F" d="M42.318,38.101c-5.243,0-9.51-4.267-9.51-9.511c0-5.243,4.267-9.509,9.51-9.509
					c5.244,0,9.509,4.266,9.509,9.509C51.827,33.834,47.563,38.101,42.318,38.101z M42.318,22.271c-3.484,0-6.318,2.834-6.318,6.318
					c0,3.485,2.834,6.32,6.318,6.32s6.318-2.834,6.318-6.32C48.637,25.105,45.803,22.271,42.318,22.271z"/>
			</g>
			<g>
				<path fill="#3A444F" d="M40.857,31.768c-0.388,0-0.775-0.14-1.082-0.422c-0.647-0.598-0.688-1.608-0.091-2.255l2.922-3.166
					c0.599-0.646,1.607-0.688,2.255-0.091c0.647,0.599,0.688,1.607,0.091,2.255l-2.922,3.166
					C41.716,31.595,41.287,31.768,40.857,31.768z"/>
			</g>
		</g>
	</symbol>
	<symbol id="icon-14" viewBox="original-file's-viewBox">
		<g>
			<g>
				<path fill="#3A444F" d="M46.863,13.758h-0.622v3.191h0.622c0.742,0,1.368,0.627,1.368,1.368v39.155
					c0,0.741-0.626,1.367-1.368,1.367H16.215c-0.742,0-1.368-0.626-1.368-1.367V18.316c0-0.741,0.626-1.368,1.368-1.368h0.622v-3.191
					h-0.622c-2.507,0-4.559,2.051-4.559,4.559v39.155c0,2.507,2.052,4.559,4.559,4.559h30.648c2.508,0,4.56-2.052,4.56-4.559V18.316
					C51.423,15.809,49.371,13.758,46.863,13.758z"/>
			</g>
			<g>
				<g>
					<rect x="19.687" y="39.694" fill="#3A444F" width="5.471" height="3.191"/>
				</g>
				<g>
					<rect x="28.804" y="39.694" fill="#3A444F" width="5.47" height="3.191"/>
				</g>
				<g>
					<rect x="37.922" y="39.694" fill="#3A444F" width="5.471" height="3.191"/>
				</g>
			</g>
			<g>
				<g>
					<rect x="19.687" y="46.076" fill="#3A444F" width="5.471" height="3.191"/>
				</g>
				<g>
					<rect x="28.804" y="46.076" fill="#3A444F" width="5.47" height="3.191"/>
				</g>
				<g>
					<rect x="37.922" y="46.076" fill="#3A444F" width="5.471" height="3.191"/>
				</g>
			</g>
			<g>
				<g>
					<rect x="19.687" y="52.459" fill="#3A444F" width="5.471" height="3.191"/>
				</g>
				<g>
					<rect x="28.804" y="52.459" fill="#3A444F" width="5.47" height="3.191"/>
				</g>
				<g>
					<rect x="37.922" y="52.459" fill="#3A444F" width="5.471" height="3.191"/>
				</g>
			</g>
			<g>
				<path fill="#3A444F" d="M19.687,26.536v8.935h23.706v-8.935H19.687z M40.202,32.279H22.879v-2.553h17.323V32.279z"/>
			</g>
			<path fill="#3A444F" d="M44.108,20.048h-0.669V2.566H27.11l-0.034-0.039l-0.044,0.039h-0.033L25.08,4.276l-5.461,4.786
				l0.041,0.046L19.64,9.126v10.922h-0.67c-0.881,0-1.595,0.714-1.595,1.595c0,0.882,0.714,1.596,1.595,1.596h25.139
				c0.881,0,1.595-0.714,1.595-1.596C45.703,20.762,44.989,20.048,44.108,20.048z M27.63,6.286v4.121h-4.703L27.63,6.286z
				 M22.831,13.597h7.99v-7.84h9.427v14.284H22.831V13.597z"/>
		</g>
	</symbol>
	<symbol id="icon-15" viewBox="original-file's-viewBox">
		<g>
			<g>
				<path fill="#3A444F" d="M53.977,36.761v19.35H6.191V30.405h30.066c0.102-0.247,0.211-0.502,0.341-0.779l0.972-2.412H3v32.088
					h54.167V28.835l-3.179,7.898C53.984,36.742,53.98,36.751,53.977,36.761z"/>
			</g>
			<g>
				<path fill="#3A444F" d="M40.406,46.408c-0.2,0-0.396-0.038-0.583-0.113c-0.8-0.322-1.19-1.235-0.869-2.035l0.975-2.418
					c0.02-0.05,0.024-0.103,0.015-0.154l-1.666-8.73c0.171-0.705,0.367-1.237,0.732-2.004l6.344-15.748
					c0.026-0.068,0.026-0.143-0.002-0.209c-0.028-0.068-0.082-0.119-0.149-0.147l-2.421-0.973c-0.034-0.013-0.068-0.02-0.103-0.02
					c-0.108,0-0.211,0.064-0.254,0.171l-2.229,5.533c-0.234,0.583-0.828,0.973-1.476,0.973c-0.194,0-0.383-0.036-0.561-0.106
					c-0.386-0.155-0.688-0.454-0.854-0.838c-0.163-0.383-0.167-0.809-0.01-1.197L41.604,7.7c0.234-0.583,0.825-0.974,1.471-0.974
					c0.195,0,0.385,0.036,0.563,0.106c0.799,0.323,1.188,1.235,0.866,2.036l-0.706,1.75c-0.026,0.067-0.026,0.143,0.002,0.21
					c0.028,0.066,0.083,0.119,0.149,0.146l2.42,0.973c0.034,0.013,0.069,0.02,0.103,0.02c0.108,0,0.211-0.064,0.254-0.171
					l1.501-3.731c0.82-2.039,2.777-3.356,4.986-3.356c0.683,0,1.352,0.13,1.987,0.385l2.374,0.956
					c1.323,0.531,2.361,1.553,2.925,2.873c0.563,1.321,0.579,2.778,0.047,4.1l-9.214,22.895c-0.261,0.591-0.527,1.184-0.888,1.849
					l-0.063,0.06l-7.475,5.127c-0.045,0.03-0.079,0.073-0.1,0.123l-0.948,2.352C41.617,46.023,41.047,46.408,40.406,46.408z
					 M42.188,34.836c-0.062,0-0.123,0.021-0.173,0.061c-0.076,0.063-0.114,0.162-0.096,0.261l0.678,3.809
					c0.017,0.092,0.079,0.169,0.164,0.205c0.034,0.014,0.069,0.021,0.105,0.021c0.055,0,0.109-0.017,0.155-0.049l3.221-2.242
					c0.083-0.057,0.127-0.155,0.116-0.255s-0.077-0.186-0.17-0.224l-3.898-1.566C42.257,34.842,42.223,34.836,42.188,34.836z
					 M48.509,16.201c-0.108,0-0.211,0.065-0.253,0.172l-5.965,14.815c-0.027,0.068-0.027,0.144,0.002,0.21
					c0.028,0.066,0.082,0.119,0.149,0.146l6.01,2.418c0.034,0.013,0.068,0.02,0.103,0.02c0.108,0,0.211-0.064,0.254-0.172
					l5.964-14.815c0.026-0.067,0.026-0.143-0.002-0.209c-0.028-0.067-0.083-0.12-0.149-0.147l-6.01-2.418
					C48.578,16.208,48.543,16.201,48.509,16.201z M53.237,7.843c-0.912,0-1.779,0.572-2.108,1.391l-1.501,3.73
					c-0.056,0.139,0.012,0.299,0.151,0.355l6.008,2.417c0.034,0.014,0.068,0.02,0.103,0.02c0.108,0,0.211-0.065,0.254-0.171
					l1.503-3.729c0.219-0.547,0.211-1.152-0.024-1.707c-0.236-0.552-0.667-0.977-1.214-1.197l-2.374-0.956
					C53.781,7.894,53.514,7.843,53.237,7.843z"/>
			</g>
			<g>
				<path fill="#3A444F" d="M31.001,38.081H11.854c-0.88,0-1.596-0.714-1.596-1.596c0-0.881,0.715-1.596,1.596-1.596h19.147
					c0.882,0,1.596,0.715,1.596,1.596C32.597,37.367,31.883,38.081,31.001,38.081z"/>
			</g>
			<g>
				<path fill="#3A444F" d="M31.001,44.449H11.854c-0.88,0-1.596-0.715-1.596-1.596c0-0.882,0.715-1.596,1.596-1.596h19.147
					c0.882,0,1.596,0.714,1.596,1.596C32.597,43.734,31.883,44.449,31.001,44.449z"/>
			</g>
			<g>
				<path fill="#3A444F" d="M46.167,52.194H33.885c-0.882,0-1.596-0.715-1.596-1.596s0.714-1.596,1.596-1.596h12.282
					c0.882,0,1.596,0.715,1.596,1.596S47.049,52.194,46.167,52.194z"/>
			</g>
		</g>
	</symbol>
	<symbol id="icon-16" viewBox="original-file's-viewBox">
		<path fill="#3A444F" d="M58.151,8.548h-1.805h-5.63H26.96h-5.629h-8.103c-2.373,0-4.304,1.931-4.304,4.304v6.586
			c0,2.373,1.931,4.304,4.304,4.304h0.671l0.959-3.171h-1.63c-0.625,0-1.133-0.508-1.133-1.133v-6.586
			c0-0.625,0.508-1.132,1.133-1.132h7.142L8.943,49.407h5.661l-1.605,5.309h29.385l13.004-42.997h2.764
			c0.625,0,1.133,0.508,1.133,1.132v6.586c0,0.625-0.508,1.133-1.133,1.133h-2.564l-0.959,3.171h3.523
			c2.373,0,4.304-1.931,4.304-4.304v-6.586C62.455,10.479,60.524,8.548,58.151,8.548z M23.683,11.719h22.758L35.977,46.236H13.219
			L23.683,11.719z M40.03,51.545H17.271l0.646-2.138H38.33l11.426-37.688h2.318L40.03,51.545z"/>
		<path fill="#3A444F" d="M25.688,36.731l0.544-1.783l-0.271-0.05c-1.805-0.329-3.204-1.057-3.938-2.05
			c-0.159-0.214-0.289-0.458-0.392-0.739l2.71-0.688c0.381,0.348,1.245,0.733,2.477,0.901l0.207,0.028l1.281-4.202l-0.263-0.054
			c-1.646-0.336-2.882-0.771-3.574-1.257c-0.081-0.057-0.159-0.115-0.227-0.175l-0.052-0.057c-0.068-0.072-0.137-0.144-0.194-0.22
			c-0.591-0.798-0.761-1.749-0.478-2.676c0.785-2.575,4.384-3.804,7.227-4.074l0.163-0.016l0.555-1.817l2.68,0.04l-0.554,1.815
			l0.283,0.04c2.028,0.285,3.587,1.038,4.389,2.121c0.161,0.217,0.292,0.463,0.395,0.747l-2.691,0.701
			c-0.419-0.405-1.463-0.85-2.976-0.977l-0.197-0.016l-1.286,4.216l0.277,0.044c2.392,0.38,3.548,0.98,4.024,1.304
			c0.118,0.081,0.212,0.153,0.28,0.214l0.065,0.072c0.049,0.052,0.099,0.103,0.14,0.157c0.591,0.799,0.761,1.75,0.478,2.675
			c-0.781,2.562-4.438,3.91-7.714,4.11l-0.169,0.011l-0.517,1.695L25.688,36.731z M29.728,32.312l0.389-0.065
			c2.247-0.376,3.87-1.368,4.085-2.072l0.021-0.065l-0.018-0.067c-0.129-0.497-1.387-1.128-3.192-1.28l-0.197-0.016L29.728,32.312z
			 M29.644,22.515c-2.058,0.447-3.371,1.353-3.562,1.979l-0.02,0.065l0.017,0.066c0.111,0.433,1.099,1.011,2.711,1.231l0.207,0.028
			l1.055-3.459L29.644,22.515z"/>
	</symbol>
	<symbol id="icon-17" viewBox="original-file's-viewBox">
		<g>
			<g>
				<rect x="18.888" y="30.229" fill="#3A444F" width="3.171" height="3.171"/>
			</g>
			<g>
				<rect x="25.23" y="30.229" fill="#3A444F" width="3.171" height="3.171"/>
			</g>
			<g>
				<rect x="31.573" y="30.229" fill="#3A444F" width="3.171" height="3.171"/>
			</g>
			<g>
				<rect x="18.888" y="36.57" fill="#3A444F" width="3.171" height="3.172"/>
			</g>
			<g>
				<rect x="25.23" y="36.57" fill="#3A444F" width="3.171" height="3.172"/>
			</g>
			<g>
				<rect x="31.573" y="36.57" fill="#3A444F" width="3.171" height="3.172"/>
			</g>
			<g>
				<circle fill="#3A444F" cx="35.529" cy="50.4" r="2.039"/>
			</g>
			<path fill="#3A444F" d="M58.389,23.18c-0.253-3.479-3.314-6.325-6.803-6.325h-5.539v-2.893h5.168c0.874,0,1.585-0.71,1.585-1.585
				V5.813c0-0.875-0.711-1.585-1.585-1.585H37.317c-0.876,0-1.585,0.71-1.585,1.585v6.564c0,0.875,0.709,1.585,1.585,1.585h5.559
				v2.893H19.471c-3.488,0-6.549,2.846-6.802,6.325l-1.206,16.599h3.179l1.189-16.369c0.134-1.835,1.8-3.385,3.639-3.385h32.115
				c1.839,0,3.506,1.55,3.639,3.384l1.19,16.369h3.179L58.389,23.18z M38.903,7.398h10.726v3.394H38.903V7.398z"/>
			<g>
				<rect x="37.618" y="23.74" fill="#3A444F" width="13.695" height="3.171"/>
			</g>
			<path fill="#3A444F" d="M59.923,43.037H11.134c-1.994,0-3.625,1.631-3.625,3.624v7.479c0,1.992,1.631,3.624,3.625,3.624h48.789
				c1.994,0,3.624-1.632,3.624-3.624v-7.479C63.547,44.668,61.917,43.037,59.923,43.037z M60.376,54.14
				c0,0.24-0.211,0.453-0.453,0.453H11.134c-0.241,0-0.453-0.213-0.453-0.453v-7.479c0-0.241,0.212-0.453,0.453-0.453h48.789
				c0.242,0,0.453,0.212,0.453,0.453V54.14z"/>
		</g>
	</symbol>
	<symbol id="icon-18" viewBox="original-file's-viewBox">
		<g>
			<g>
				<path fill="#3A444F" d="M29.279,48.236H12.18c-0.871,0-1.578-0.712-1.578-1.586c0-0.876,0.707-1.586,1.578-1.586h17.099
					c0.876,0,1.585,0.71,1.585,1.586C30.864,47.524,30.155,48.236,29.279,48.236z"/>
			</g>
			<path fill="#3A444F" d="M48.749,16.33L37.565,5.145c-0.619-0.619-1.623-0.62-2.242,0l-3.217,3.216
				c-0.243,0.243-0.4,0.557-0.449,0.896l-0.393,2.744L20.209,23.056l-2.743,0.393c-0.338,0.049-0.65,0.206-0.892,0.449l-3.199,3.216
				c-0.617,0.619-0.617,1.623,0,2.243L24.538,40.54c0.31,0.31,0.715,0.465,1.121,0.465c0.405,0,0.811-0.155,1.121-0.463l3.217-3.216
				c0.243-0.242,0.4-0.558,0.449-0.897l0.38-2.666L41.97,22.62l2.667-0.381c0.338-0.048,0.653-0.206,0.896-0.448l3.217-3.218
				C49.369,17.953,49.369,16.949,48.749,16.33z M27.381,35.456l-1.721,1.722l-8.937-8.943l1.714-1.721l2.137-0.306l7.112,7.112
				L27.381,35.456z M29.498,30.607L23.32,24.43l9.329-9.33l6.178,6.177L29.498,30.607z M43.663,19.174l-2.136,0.305l-7.111-7.113
				l0.306-2.136l1.722-1.722l8.943,8.943L43.663,19.174z"/>
			<g>
				<path fill="#3A444F" d="M60.779,43.435L41.751,26.672l-2.246,2.247l19.178,16.896c0.571,0.504,0.9,1.184,0.924,1.916
					c0.022,0.73-0.263,1.432-0.802,1.972l-0.536,0.534c-1.08,1.081-2.881,1.021-3.889-0.122L37.484,30.938l-2.246,2.247
					l16.764,19.026c1.118,1.271,2.715,1.998,4.376,1.998c1.549,0,3.016-0.614,4.134-1.73l0.535-0.534
					c1.166-1.166,1.78-2.697,1.729-4.313C62.724,46.015,62.015,44.525,60.779,43.435z"/>
			</g>
			<g>
				<path fill="#3A444F" d="M11.821,54.024h17.82v3.284h3.171v-4.87c0-0.876-0.71-1.585-1.586-1.585H10.242
					c-0.871,0-1.578,0.709-1.578,1.585v4.87h3.156V54.024z"/>
			</g>
		</g>
	</symbol>
	<symbol id="icon-19" viewBox="original-file's-viewBox">
		<path fill="#3A444F" d="M61.385,34.732C59.236,20.507,46.752,9.781,32.345,9.781c-0.208,0-0.415,0.01-0.623,0.015
			c-0.145-0.018-0.288-0.012-0.428,0.01C17.335,10.313,5.401,20.854,3.305,34.732c-0.13,0.865,0.465,1.672,1.332,1.803
			c0.501,0.076,0.979-0.098,1.321-0.421c8.536-4.69,13.447,0.479,13.659,0.711c0.313,0.346,0.744,0.521,1.176,0.521
			c0.376,0,0.754-0.133,1.057-0.403c0.104-0.094,0.188-0.202,0.262-0.313c0.02-0.013,0.041-0.021,0.06-0.035
			c9.483-6.831,19.83-0.041,20.272,0.255c0.013,0.009,0.028,0.012,0.041,0.02c0.02,0.021,0.035,0.044,0.057,0.063
			c0.302,0.274,0.683,0.409,1.062,0.409c0.432,0,0.861-0.174,1.175-0.516c0.205-0.223,5.125-5.418,13.688-0.695
			c0.157,0.087,0.323,0.138,0.491,0.166c0.252,0.163,0.545,0.257,0.856,0.257c0.078,0,0.158-0.005,0.239-0.018
			C60.919,36.404,61.516,35.598,61.385,34.732z M7.118,32.09c2.595-9.228,10.166-16.335,19.411-18.473
			c-2.973,3.193-6.255,8.944-7.236,19.081C16.779,31.293,12.59,30.01,7.118,32.09z M22.484,32.663
			c1.413-13.578,7.255-18.121,9.476-19.37c2.24,1.229,8.046,5.71,9.444,19.429C37.45,30.934,29.901,28.656,22.484,32.663z
			 M44.617,32.983c-0.966-10.545-4.411-16.399-7.464-19.578c9.743,1.848,17.804,9.19,20.455,18.815
			C51.601,29.811,47.104,31.455,44.617,32.983z"/>
		<g>
			<path fill="#3A444F" d="M34.791,36.296v18.24c0,1.125-0.915,2.038-2.039,2.038h-0.815c-1.125,0-2.039-0.913-2.039-2.038v-1.108
				h-3.171v1.108c0,2.873,2.337,5.209,5.209,5.209h0.815c2.872,0,5.21-2.336,5.21-5.209V36.385
				C36.927,36.093,35.945,36.093,34.791,36.296z"/>
		</g>
		<g>
			<path fill="#3A444F" d="M33.931,4.276c0-0.875-0.711-1.585-1.586-1.585c-0.875,0-1.585,0.71-1.585,1.585v2.673h3.171V4.276z"/>
		</g>
	</symbol>
	<symbol id="icon-20" viewBox="original-file's-viewBox">
		<g>
			<g>
				<path fill="#3A444F" d="M8.805,17.075c-1.541-2.44-1.595-5.323,0.018-6.7c0.606-0.517,1.407-0.79,2.315-0.79
					c1.118,0,2.288,0.39,3.358,1.09c1.107-0.696,2.19-1.199,3.131-1.559c-1.893-1.705-4.229-2.703-6.489-2.703
					c-1.673,0-3.186,0.536-4.374,1.549c-3.197,2.73-3.042,8.18,0.346,12.15c0.152,0.177,0.316,0.338,0.476,0.505l0.348-1.167
					C8.172,18.595,8.467,17.807,8.805,17.075z"/>
				<path fill="#3A444F" d="M52.671,9.584c0.908,0,1.709,0.273,2.314,0.79c1.651,1.409,1.545,4.39-0.103,6.864
					c0.318,0.71,0.602,1.471,0.83,2.297l0.368,1.232c0.21-0.212,0.421-0.425,0.617-0.656c3.389-3.97,3.543-9.42,0.346-12.149
					c-1.188-1.013-2.699-1.549-4.373-1.549c-2.301,0-4.683,1.031-6.594,2.794c0.938,0.349,2.022,0.845,3.131,1.542
					C50.307,10.005,51.516,9.584,52.671,9.584z"/>
			</g>
			<path fill="#3A444F" d="M36.406,45.739l-2.916-2.915v-3.06c0.973-0.384,1.637-1.099,1.637-1.931c0-1.231-1.443-2.229-3.222-2.229
				c-1.78,0-3.223,0.998-3.223,2.229c0,0.832,0.664,1.547,1.637,1.931v3.058l-2.917,2.919c-0.619,0.619-0.619,1.622,0,2.241
				c0.31,0.311,0.715,0.466,1.121,0.466s0.812-0.155,1.122-0.466l2.259-2.26l2.259,2.259c0.31,0.31,0.715,0.465,1.12,0.465
				c0.406,0,0.813-0.155,1.122-0.465C37.025,47.361,37.025,46.358,36.406,45.739z"/>
			<g>
				<path fill="#3A444F" d="M20.821,28.046c-0.189,0-0.381-0.034-0.568-0.106l-1.933-0.743c-0.817-0.314-1.225-1.231-0.911-2.049
					c0.314-0.817,1.231-1.226,2.049-0.911l1.932,0.743c0.818,0.314,1.226,1.231,0.911,2.049
					C22.06,27.659,21.458,28.046,20.821,28.046z"/>
			</g>
			<g>
				<path fill="#3A444F" d="M42.987,28.046c-0.637,0-1.236-0.387-1.479-1.017c-0.314-0.817,0.094-1.735,0.912-2.049l1.931-0.743
					c0.817-0.315,1.735,0.094,2.049,0.911c0.315,0.817-0.094,1.735-0.911,2.049l-1.931,0.743
					C43.37,28.012,43.177,28.046,42.987,28.046z"/>
			</g>
			<path fill="#3A444F" d="M56.685,33.399L52.8,20.371c-1.434-5.162-5.287-7.36-7.765-8.263l0.002-0.007
				c-0.023-0.008-0.108-0.035-0.22-0.069c-0.575-0.198-1.06-0.329-1.408-0.406c-2.444-0.667-7.251-1.797-11.807-1.797
				c-3.787,0-7.847,0.871-10.366,1.525l-0.104,0.016c-0.325,0.051-7.987,1.326-10.111,8.973L7.147,33.339
				c-0.088,0.259-2.109,6.365,1.447,11.198c0.27,0.396,6.721,9.698,16.374,11.039c0.146,0.018,3.718,0.432,6.936,0.451h0.025h0.07
				l0.008-0.002c3.209-0.018,6.691-0.432,6.866-0.453c9.623-1.337,16.075-10.639,16.314-10.989
				C58.774,39.704,56.753,33.598,56.685,33.399z M31.99,52.856h-0.015l-0.153-0.002c-1.254-0.007-2.573-0.081-3.691-0.164v-0.002
				c-1.968-0.272-3.314-0.968-4-2.063c-1.087-1.739-0.336-4.105-0.331-4.121l3.02-14.843c0.659-1.695,3.678-2.158,4.662-2.186h0.534
				h0.28c0.04,0,3.92,0.176,4.696,2.185l2.97,14.65l0.048,0.184c0.009,0.025,0.759,2.392-0.329,4.131
				c-0.686,1.096-2.032,1.791-4,2.063v0.002C34.561,52.775,33.244,52.85,31.99,52.856z M52.6,42.75
				c-0.046,0.067-3.854,5.55-9.621,8.285c0.874-2.422,0.241-4.875,0.072-5.433l-2.976-14.684l-0.052-0.191
				c-1.428-4.238-7.406-4.417-7.694-4.423h-0.534l-0.35,0c-0.254,0.005-6.232,0.185-7.661,4.423l-3.026,14.875
				c-0.168,0.558-0.8,3,0.066,5.419c-5.755-2.743-9.572-8.213-9.644-8.317c-2.594-3.527-1.046-8.298-1.013-8.398l3.9-13.086
				c1.025-3.688,3.799-5.396,5.683-6.155l0.003,0.009c0.022-0.007,0.852-0.274,2.144-0.612l0.098-0.015v-0.011
				C24.342,13.825,28.154,13,31.603,13c5.321,0,11.277,1.754,12.296,2.067c1.832,0.66,4.774,2.296,5.854,6.182l3.911,13.116
				C53.68,34.412,55.249,39.146,52.6,42.75z"/>
		</g>
	</symbol>
	<symbol id="icon-21" viewBox="original-file's-viewBox">
		<g>
			<g>
				<path fill="#3A444F" d="M24.321,33.635c-0.33,0-0.662-0.103-0.947-0.315l-1.562-1.164c-0.702-0.522-0.847-1.516-0.324-2.219
					c0.525-0.702,1.518-0.845,2.219-0.324l1.562,1.165c0.702,0.523,0.847,1.516,0.324,2.219
					C25.282,33.414,24.804,33.635,24.321,33.635z"/>
			</g>
			<g>
				<path fill="#3A444F" d="M39.736,33.635c-0.482,0-0.961-0.221-1.271-0.639c-0.522-0.703-0.377-1.695,0.323-2.219l1.563-1.165
					c0.701-0.522,1.695-0.378,2.22,0.324c0.521,0.703,0.377,1.696-0.324,2.219l-1.563,1.164
					C40.398,33.532,40.067,33.635,39.736,33.635z"/>
			</g>
			<g>
				<circle fill="#3A444F" cx="35.572" cy="54.271" r="1.703"/>
				<circle fill="#3A444F" cx="28.576" cy="54.271" r="1.704"/>
			</g>
			<g>
				<path fill="#3A444F" d="M59.132,31.448l-1.013-3.063c-1.403-5.454-7.046-6.965-9.977-7.015c-2.641-0.521-3.65-3.647-3.652-3.647
					c-0.159-0.604-0.375-1.149-0.632-1.641c4.399-1.341,7.555-3.417,9.316-6.101c-0.035,0.903-0.182,1.846-0.499,2.786
					c-0.752,2.243-2.356,4.15-4.769,5.696c0.155,0.147,0.329,0.266,0.515,0.333c1.007,0.046,2.214,0.231,3.478,0.596
					c1.798-1.62,3.081-3.502,3.796-5.651c1.961-5.906-1.041-11.496-1.17-11.732c-0.368-0.672-1.161-0.984-1.89-0.743
					c-0.728,0.241-1.177,0.968-1.071,1.727c0.855,6.058-4.487,8.897-9.12,10.211c-0.189,0.054-0.525,0.162-0.807,0.26
					c-1.706-1.315-3.488-1.705-3.614-1.73c-0.104-0.021-0.21-0.032-0.316-0.032H26.428c-0.106,0-0.212,0.011-0.315,0.032
					c-0.126,0.026-1.933,0.42-3.645,1.745c-0.279-0.102-0.622-0.217-0.822-0.274c-4.626-1.315-9.951-4.154-9.099-10.211
					c0.106-0.758-0.342-1.485-1.066-1.727C10.758,1.026,9.966,1.338,9.6,2.01C9.472,2.246,6.482,7.838,8.435,13.745
					c0.708,2.147,1.984,4.028,3.769,5.646c1.258-0.363,2.462-0.548,3.467-0.594c0.186-0.067,0.357-0.188,0.514-0.335
					c-2.404-1.545-4-3.449-4.747-5.691c-0.314-0.941-0.46-1.884-0.496-2.789c1.757,2.689,4.913,4.77,9.326,6.111
					c-0.244,0.475-0.451,0.996-0.604,1.573c-0.01,0.032-1.017,3.18-3.667,3.704c-2.922,0.049-8.531,1.561-9.927,7.014l-1.007,3.063
					c-0.207,0.627-0.003,1.316,0.509,1.731c0.287,0.233,0.637,0.35,0.99,0.35c0.277,0,0.555-0.072,0.803-0.219
					c1.157-0.688,4.851-2.435,6.99-1.784c-0.088,2.874,0.618,6.845,4.476,9.49c0.302,0.244,2.665,2.229,3.91,4.968
					c0.693-0.439,1.644-0.91,2.893-1.294c-1.656-3.652-4.719-6.071-4.889-6.202l-0.082-0.061c-4.621-3.132-2.814-9.284-2.733-9.55
					c0.258-0.835-0.208-1.721-1.043-1.981c-0.838-0.259-1.726,0.206-1.985,1.042c-0.013,0.041-0.058,0.191-0.116,0.426
					c-1.856-0.393-3.919,0.043-5.61,0.637c1.261-4.371,6.74-4.458,6.972-4.46c0.087,0,0.174-0.007,0.261-0.022
					c4.698-0.783,6.229-5.724,6.307-5.985c0.698-2.649,3.285-3.494,3.901-3.659H37.52c0.61,0.165,3.205,1.012,3.92,3.71
					c0.063,0.21,1.594,5.151,6.292,5.934c0.087,0.015,0.174,0.022,0.261,0.022c0.059,0,5.729,0.052,7.008,4.46
					c-1.715-0.6-3.811-1.041-5.689-0.629c-0.061-0.241-0.106-0.395-0.12-0.436c-0.261-0.836-1.156-1.299-1.986-1.04
					c-0.837,0.262-1.302,1.151-1.04,1.987c0.02,0.064,1.933,6.387-2.732,9.544l-0.083,0.061c-0.168,0.129-3.214,2.53-4.875,6.16
					c1.228,0.377,2.178,0.837,2.9,1.277c1.254-2.713,3.594-4.672,3.888-4.907c3.857-2.642,4.565-6.604,4.479-9.478
					c2.152-0.692,5.903,1.075,7.075,1.768c0.251,0.148,0.531,0.223,0.811,0.223c0.352,0,0.704-0.118,0.992-0.351
					C59.134,32.766,59.339,32.076,59.132,31.448z"/>
			</g>
			<path fill="#3A444F" d="M42.02,50.374l0.011-0.006c-0.071-0.124-0.152-0.244-0.233-0.362c-0.004-0.004-0.006-0.008-0.009-0.011
				c-0.046-0.067-0.098-0.133-0.147-0.198c-0.295-0.395-0.656-0.732-1.049-1.03c-0.096-0.07-0.181-0.155-0.28-0.22
				c-0.745-0.525-1.656-0.951-2.698-1.28c-1.561-0.49-3.426-0.758-5.539-0.758c-1.501,0-2.862,0.138-4.084,0.391l0,0.006
				c-0.289,0.053-0.542,0.118-0.801,0.183c-0.242,0.065-0.48,0.132-0.708,0.207c-0.822,0.267-1.563,0.598-2.203,0.994
				c-0.207,0.107-0.405,0.229-0.596,0.364c-0.03,0.025-0.07,0.054-0.097,0.076c-0.015,0.011-0.029,0.024-0.044,0.037
				c-0.017,0.015-0.023,0.021-0.038,0.034C23.375,48.917,23.3,48.997,23.297,49l-0.021-0.016c-0.413,0.359-0.776,0.775-1.06,1.246
				c-0.021,0.033-0.05,0.06-0.071,0.094l0.011,0.005c-0.437,0.763-0.689,1.641-0.689,2.58v3.136c0,2.872,2.337,5.21,5.21,5.21h10.795
				c2.874,0,5.21-2.338,5.21-5.21v-3.136C42.682,51.989,42.439,51.126,42.02,50.374z M39.511,56.045c0,1.124-0.915,2.039-2.039,2.039
				H26.677c-1.124,0-2.039-0.915-2.039-2.039v-3.136c0-0.368,0.103-0.708,0.275-1.003c0.955-1.393,3.608-2.227,7.162-2.227
				c3.412,0,6.212,0.856,7.103,2.14c0.205,0.316,0.333,0.685,0.333,1.09V56.045z"/>
		</g>
	</symbol>
	<symbol id="icon-22" viewBox="original-file's-viewBox">
		<g>
			<path fill="#3A444F" d="M25.975,19.932H15.683c-3.532,0-6.421,2.89-6.421,6.421V39.63c0,3.055,2.162,5.624,5.031,6.263v14.201
				h3.171l-0.016-17.215h-1.765c-1.792,0-3.25-1.456-3.25-3.249V26.353c0-1.792,1.458-3.25,3.25-3.25h10.292
				c1.792,0,3.25,1.458,3.25,3.25v2.641c1.003-0.609,2.062-1.128,3.171-1.551v-1.09C32.396,22.822,29.507,19.932,25.975,19.932z"/>
			<path fill="#3A444F" d="M28.595,8.769C28.595,4.478,25.121,1,20.83,1c-4.29,0-7.769,3.478-7.769,7.769s3.479,7.769,7.769,7.769
				C25.121,16.537,28.595,13.059,28.595,8.769z M20.83,13.366c-2.535,0-4.597-2.063-4.597-4.598c0-2.535,2.063-4.597,4.597-4.597
				c2.533,0,4.594,2.063,4.594,4.597C25.424,11.304,23.363,13.366,20.83,13.366z"/>
			<path fill="#3A444F" d="M39.309,29.208c-9.09,0-16.46,7.37-16.46,16.459c0,9.091,7.37,16.459,16.46,16.459
				c9.098,0,16.468-7.368,16.468-16.459C55.776,36.578,48.406,29.208,39.309,29.208z M39.309,58.956
				c-7.328,0-13.29-5.962-13.29-13.288c0-7.328,5.962-13.288,13.29-13.288c7.331,0,13.297,5.96,13.297,13.288
				C52.605,52.994,46.64,58.956,39.309,58.956z"/>
			<path fill="#3A444F" d="M38.206,55.99l-0.002-2.399l-0.221-0.021c-3.191-0.323-5.629-1.704-6.314-3.546l2.671-0.653
				c0.453,0.571,1.773,1.242,3.588,1.483l0.275,0.037v-4.198l-0.205-0.033c-2.481-0.398-3.877-1-4.491-1.323l-0.103-0.056
				c-1.268-0.856-1.938-1.932-1.938-3.114c0.001-2.329,2.681-4.228,6.517-4.613l0.22-0.023V35.19h2.683v2.357l0.218,0.024
				c2.87,0.327,5.123,1.525,5.966,3.149l-2.598,0.915c-0.498-0.515-1.657-1.101-3.305-1.349l-0.281-0.042v4.384l0.202,0.035
				c1.778,0.318,3.233,0.732,4.208,1.196c0.442,0.212,0.775,0.421,1.016,0.637c0.091,0.081,0.168,0.165,0.241,0.242
				c0.585,0.671,0.886,1.416,0.886,2.209c0,2.281-2.604,4.173-6.335,4.599l-0.218,0.025v2.419L38.206,55.99z M40.887,50.867
				l0.281-0.044c2.115-0.322,3.589-1.246,3.589-1.874c0.004-0.625-1.471-1.543-3.589-1.863l-0.281-0.043V50.867z M37.929,40.268
				c-2.338,0.31-3.776,1.313-3.78,1.895c0,0.584,1.438,1.586,3.78,1.896l0.275,0.037v-3.866L37.929,40.268z"/>
		</g>
	</symbol>
	<symbol id="icon-23" viewBox="original-file's-viewBox">
		<g>
			<g>
				<path fill="#3A444F" d="M21.273,52.152H0.453l4.796-11.289h11.229L21.273,52.152z M5.245,48.98h11.236l-2.102-4.945H7.347
					L5.245,48.98z"/>
			</g>
			<g>
				<path fill="#3A444F" d="M42.322,52.152H21.501l4.796-11.289h11.228L42.322,52.152z M26.293,48.98H37.53l-2.103-4.945h-7.033
					L26.293,48.98z"/>
			</g>
			<g>
				<path fill="#3A444F" d="M31.569,37.3H10.733l4.796-11.29h11.242L31.569,37.3z M15.526,34.129h11.25l-2.103-4.948h-7.046
					L15.526,34.129z"/>
			</g>
			<g>
				<path fill="#3A444F" d="M42.085,22.477H21.263l4.797-11.29h11.229L42.085,22.477z M26.056,19.305h11.237l-2.103-4.948h-7.032
					L26.056,19.305z"/>
			</g>
			<g>
				<path fill="#3A444F" d="M52.602,37.3h-20.82l4.797-11.29h11.229L52.602,37.3z M36.574,34.129H47.81l-2.103-4.948h-7.032
					L36.574,34.129z"/>
			</g>
			<g>
				<path fill="#3A444F" d="M63.355,52.152H42.534l4.798-11.289h11.229L63.355,52.152z M47.326,48.98h11.237l-2.103-4.945h-7.032
					L47.326,48.98z"/>
			</g>
		</g>
	</symbol>
	<symbol id="icon-24" viewBox="original-file's-viewBox">
		<g>
			<polygon fill="#3A444F" points="26.026,18.953 22.473,18.953 22.473,15.401 19.302,15.401 19.302,18.953 15.75,18.953 
				15.75,22.124 19.302,22.124 19.302,25.676 22.473,25.676 22.473,22.124 26.026,22.124 		"/>
			<g>
				
					<rect x="41.617" y="37.65" transform="matrix(0.7071 0.7071 -0.7071 0.7071 42.9095 -18.0165)" fill="#3A444F" width="3.171" height="10.276"/>
			</g>
			<polygon fill="#3A444F" points="25.649,45.254 23.138,42.741 25.649,40.23 23.407,37.988 20.896,40.499 18.385,37.988 
				16.143,40.23 18.654,42.741 16.142,45.254 18.383,47.496 20.896,44.983 23.407,47.496 		"/>
			<g>
				<rect x="38.116" y="18.972" fill="#3A444F" width="10.274" height="3.171"/>
			</g>
			<path fill="#3A444F" d="M49.633,7.769H14.515c-3.472,0-6.313,2.854-6.313,6.342v35.117c0,3.488,2.84,6.343,6.313,6.343h35.118
				c3.487,0,6.342-2.854,6.342-6.343V14.111C55.975,10.623,53.12,7.769,49.633,7.769z M52.804,14.111v15.972H33.66V10.94h15.973
				C51.381,10.94,52.804,12.363,52.804,14.111z M14.515,10.94h15.974v19.144h-19.13V14.111C11.359,12.363,12.774,10.94,14.515,10.94z
				 M11.359,49.229V33.254h19.13v19.146H14.515C12.774,52.399,11.359,50.977,11.359,49.229z M49.633,52.399H33.66V33.254h19.144
				v15.975C52.804,50.977,51.381,52.399,49.633,52.399z"/>
		</g>
	</symbol>
	<symbol id="icon-25" viewBox="original-file's-viewBox">
		<path fill="#3A444F" d="M51.899,50.496v-14.2c0-8.097-4.916-15.051-11.913-18.08l7.358-8.138c0.482-0.534,0.547-1.325,0.153-1.928
			c-0.391-0.603-1.143-0.866-1.824-0.642l-9.045,2.974l-3.074-7.816c-0.248-0.631-0.862-1.045-1.547-1.004
			c-0.678,0.031-1.26,0.489-1.45,1.14l-3.258,11.17l3.056,0.852l1.947-6.679l1.924,4.891c0.307,0.782,1.172,1.19,1.97,0.926
			l4.784-1.572l-4.47,4.942l-4.433-0.024c-0.003,0-0.006,0-0.009,0c-0.872,0-1.581,0.705-1.586,1.577
			c-0.005,0.876,0.701,1.589,1.577,1.594l4.946,0.027c6.771,2.068,11.724,8.348,11.724,15.789v15.203l0.044,0.055
			c0.821,1.227,2.628,4.518,2.182,6.769H13.176c-0.446-2.251,1.35-5.597,2.172-6.823l0.021-0.104V36.296
			c0-6.404,3.667-11.959,9.006-14.704L24.53,21.5c0.223-0.129,0.259-0.201,0.409-0.351c0.003-0.003,0.007-0.006,0.01-0.01
			c1.028-1.043,0.444-2.478,0.291-2.804l-0.273-0.481l-2.649-4.667l-1.445-2.545l3.313,0.995l0.637,0.191l0.099-0.329l0.813-2.708
			l-7.737-2.324c-0.619-0.186-1.292,0.023-1.696,0.531c-0.404,0.507-0.459,1.208-0.139,1.771l5.93,10.448
			c-5.907,3.407-9.895,9.784-9.895,17.08v14.257c-1.191,2.01-3.459,6.645-1.497,10.134c0.281,0.499,0.809,0.808,1.382,0.808h39.961
			c0.573,0,1.101-0.309,1.383-0.808C55.408,57.164,53.08,52.474,51.899,50.496z"/>
		<path fill="#3A444F" d="M30.806,50.63l-0.002-2.399l-0.22-0.022c-3.191-0.322-5.629-1.703-6.314-3.545l2.671-0.655
			c0.453,0.574,1.774,1.243,3.587,1.485l0.277,0.037v-4.199L30.6,41.297c-2.481-0.397-3.878-0.999-4.491-1.323l-0.103-0.055
			c-1.268-0.856-1.938-1.933-1.938-3.113c0-2.33,2.681-4.228,6.517-4.613l0.22-0.022v-2.34h2.681l0.002,2.356l0.216,0.024
			c2.872,0.329,5.123,1.525,5.967,3.15l-2.598,0.916c-0.497-0.517-1.656-1.102-3.304-1.35l-0.281-0.043v4.384l0.202,0.037
			c1.778,0.316,3.232,0.73,4.208,1.196c0.44,0.212,0.773,0.419,1.016,0.635c0.088,0.084,0.168,0.167,0.24,0.245
			c0.586,0.67,0.887,1.413,0.887,2.208c0,2.281-2.604,4.173-6.337,4.598l-0.216,0.024l-0.002,2.419H30.806z M33.488,45.507
			l0.281-0.044c2.115-0.322,3.589-1.246,3.589-1.874c0.004-0.625-1.471-1.545-3.589-1.865l-0.281-0.041V45.507z M30.528,34.905
			c-2.337,0.312-3.776,1.315-3.779,1.897c0,0.584,1.439,1.583,3.779,1.895l0.277,0.037v-3.866L30.528,34.905z"/>
	</symbol>
	<symbol id="icon-26" viewBox="original-file's-viewBox">
		<g>
			<g>
				<polygon fill="#3A444F" points="39.887,9.631 42.446,15.207 45.936,15.207 41.446,5.426 20.143,15.207 27.744,15.207 			"/>
			</g>
			<g>
				<circle fill="#3A444F" cx="38.582" cy="37.344" r="2.039"/>
			</g>
			<path fill="#3A444F" d="M56.548,28.57H54.32v-4.529c0-3.373-2.745-6.116-6.116-6.116H11.792c-3.373,0-6.116,2.743-6.116,6.116
				v27.029c0,3.373,2.743,6.115,6.116,6.115h36.412c3.371,0,6.116-2.742,6.116-6.115v-4.53h2.228c0.874,0,1.586-0.71,1.586-1.586
				V30.155C58.134,29.28,57.422,28.57,56.548,28.57z M51.149,51.069c0,1.624-1.322,2.944-2.945,2.944H11.792
				c-1.624,0-2.945-1.32-2.945-2.944V24.041c0-1.624,1.321-2.945,2.945-2.945h36.412c1.623,0,2.945,1.321,2.945,2.945v4.529H36.558
				c-3.372,0-6.116,2.743-6.116,6.116v5.737c0,3.373,2.744,6.116,6.116,6.116h14.592V51.069z M54.963,43.368H36.558
				c-1.624,0-2.944-1.32-2.944-2.945v-5.737c0-1.624,1.32-2.944,2.944-2.944h18.405V43.368z"/>
		</g>
	</symbol>
	<symbol id="icon-27" viewBox="original-file's-viewBox">
		<g>
			<path fill="#3A444F" d="M42.904,21.63c1.055-0.218,2.146-0.33,3.256-0.367c-2.89-8.146-10.188-14.198-19.028-15.294
				c-0.047-0.045-0.075-0.072-0.083-0.078l-0.055,0.061c-0.902-0.106-1.82-0.167-2.752-0.167c-0.923,0-1.831,0.06-2.725,0.164
				l-0.051-0.057c-0.007,0.006-0.034,0.032-0.078,0.074C9.914,7.374,1.053,17.163,1.053,29.04c0,12.843,10.361,23.254,23.19,23.254
				c2.319,0,4.557-0.344,6.671-0.976c-0.516-0.756-0.964-1.556-1.37-2.382c-0.076-0.154-0.152-0.308-0.224-0.465
				c-0.463-1.011-0.836-2.067-1.12-3.161c-0.701,1.067-1.495,2.152-2.357,3.249v-8.573c0.59,0.026,1.17,0.068,1.738,0.131
				c0.02-1.046,0.125-2.069,0.306-3.067c-0.667-0.074-1.351-0.127-2.044-0.159v-6.251H30.3c0.682-1.14,1.475-2.2,2.37-3.171h-6.826
				V21.25c2.348-0.111,4.546-0.479,6.576-1.005c0.618,1.891,1.073,3.971,1.241,6.219c0.878-0.825,1.829-1.566,2.851-2.216
				c-0.264-1.737-0.682-3.364-1.184-4.893c1.879-0.67,3.563-1.455,5.043-2.253C41.398,18.486,42.257,20.005,42.904,21.63z
				 M22.672,18.118c-1.726-0.113-3.53-0.392-5.402-0.866c1.797-3.924,4.122-6.719,5.402-8.085V18.118z M17.991,9.972
				c-1.206,1.675-2.538,3.827-3.666,6.383c-1.312-0.468-2.651-1.038-4.018-1.722C12.456,12.54,15.071,10.933,17.991,9.972z
				 M8.146,17.091c1.718,0.899,3.403,1.63,5.049,2.217c-0.804,2.453-1.364,5.189-1.479,8.16H4.275
				C4.576,23.601,5.97,20.038,8.146,17.091z M11.768,30.639c0.182,2.558,0.718,5.264,1.714,8.09
				c-1.726,0.602-3.498,1.361-5.306,2.304c-2.192-2.946-3.591-6.518-3.897-10.394H11.768z M14.67,41.665
				c0.985,2.146,2.244,4.355,3.829,6.615c-3.108-0.931-5.896-2.595-8.163-4.79C11.813,42.754,13.258,42.153,14.67,41.665z
				 M22.672,48.577c-2.115-2.689-3.728-5.296-4.927-7.806c1.703-0.403,3.348-0.647,4.927-0.754V48.577z M22.672,36.903
				c-1.97,0.106-4.028,0.401-6.163,0.933c-0.917-2.52-1.428-4.925-1.626-7.197h7.789V36.903z M14.799,27.468
				c0.095-2.649,0.595-5.08,1.311-7.257c2.277,0.595,4.469,0.919,6.563,1.03v6.228H14.799z M25.843,18.156V9.167
				c1.29,1.375,3.647,4.212,5.454,8.207C29.604,17.783,27.784,18.068,25.843,18.156z M30.52,9.965
				c2.959,0.977,5.61,2.628,7.784,4.764c-1.211,0.634-2.571,1.243-4.063,1.771C33.099,13.882,31.749,11.67,30.52,9.965z"/>
			<g>
				<path fill="#3A444F" d="M46.817,56.827c-9.013,0-16.345-7.333-16.345-16.344c0-9.013,7.333-16.344,16.345-16.344
					c9.011,0,16.344,7.331,16.344,16.344C63.161,49.494,55.828,56.827,46.817,56.827z M46.817,27.311
					c-7.265,0-13.174,5.908-13.174,13.173c0,7.263,5.909,13.173,13.174,13.173c7.262,0,13.173-5.91,13.173-13.173
					C59.99,33.219,54.079,27.311,46.817,27.311z"/>
			</g>
		</g>
		<path fill="#3A444F" d="M45.528,50.856l-0.001-2.399l-0.22-0.022c-3.19-0.322-5.629-1.703-6.314-3.545l2.671-0.655
			c0.453,0.574,1.774,1.243,3.587,1.485l0.277,0.037v-4.199l-0.205-0.034c-2.48-0.397-3.879-1-4.491-1.323l-0.103-0.055
			c-1.269-0.856-1.938-1.933-1.938-3.113c0-2.33,2.681-4.228,6.516-4.613l0.221-0.022v-2.34h2.682l0.002,2.356l0.216,0.024
			c2.872,0.329,5.123,1.525,5.967,3.15l-2.598,0.916c-0.497-0.517-1.656-1.102-3.304-1.35l-0.281-0.043v4.384l0.201,0.037
			c1.778,0.316,3.233,0.73,4.208,1.196c0.44,0.212,0.773,0.419,1.016,0.635c0.089,0.084,0.169,0.167,0.241,0.244
			c0.586,0.671,0.887,1.414,0.887,2.209c0,2.281-2.605,4.173-6.337,4.598l-0.216,0.024l-0.002,2.419H45.528z M48.212,45.733
			l0.281-0.044c2.114-0.322,3.589-1.246,3.589-1.874c0.003-0.625-1.471-1.545-3.589-1.865l-0.281-0.041V45.733z M45.251,35.132
			c-2.336,0.312-3.774,1.314-3.778,1.897c0,0.584,1.438,1.583,3.778,1.895l0.277,0.037v-3.866L45.251,35.132z"/>
	</symbol>
	<symbol id="icon-28" viewBox="original-file's-viewBox">
		<g>
			<g>
				<rect x="10.998" y="25.895" fill="#3A444F" width="3.171" height="15.537"/>
			</g>
			<g>
				<rect x="20.739" y="25.895" fill="#3A444F" width="3.171" height="15.537"/>
			</g>
			<g>
				<rect x="30.479" y="25.895" fill="#3A444F" width="3.172" height="15.537"/>
			</g>
			<g>
				<rect x="40.22" y="25.895" fill="#3A444F" width="3.171" height="15.537"/>
			</g>
			<g>
				<rect x="49.96" y="25.895" fill="#3A444F" width="3.171" height="15.537"/>
			</g>
		</g>
		<g>
			<path fill="#3A444F" d="M60.899,54.857H3.231c-0.875,0-1.585-0.711-1.585-1.585c0-0.876,0.71-1.586,1.585-1.586h57.668
				c0.876,0,1.586,0.71,1.586,1.586C62.485,54.146,61.775,54.857,60.899,54.857z"/>
		</g>
		<g>
			<path fill="#3A444F" d="M57.881,22.365H6.25c-0.742,0-1.384-0.514-1.547-1.238c-0.162-0.724,0.198-1.464,0.869-1.781L31.403,7.117
				c0.43-0.204,0.928-0.204,1.357,0l25.8,12.229c0.669,0.318,1.029,1.057,0.867,1.781C59.265,21.851,58.622,22.365,57.881,22.365z
				 M13.305,19.193h37.529l-18.752-8.889L13.305,19.193z"/>
		</g>
		<g>
			<path fill="#3A444F" d="M57.978,48.133H6.152c-0.875,0-1.586-0.711-1.586-1.585c0-0.876,0.71-1.586,1.586-1.586h51.826
				c0.876,0,1.586,0.71,1.586,1.586C59.563,47.422,58.854,48.133,57.978,48.133z"/>
		</g>
	</symbol>
	<symbol id="icon-29" viewBox="original-file's-viewBox">
		<g>
			<g>
				<g>
					<path fill="#3A444F" d="M43.354,12.542c0.512,0,1.015,0.037,1.517,0.077V9.79c0-2.492-2.038-4.53-4.53-4.53H17.155l-0.128,0.012
						c-0.349,0.01-0.629,0.148-0.916,0.392L4.143,15.847c-0.323,0.274-0.505,0.652-0.546,1.044l-0.02,36.412
						c0,2.491,2.039,4.529,4.53,4.529H40.34c2.492,0,4.53-2.038,4.53-4.529v-2.479c-0.502,0.039-1.005,0.076-1.517,0.076
						c-0.557,0-1.107-0.036-1.654-0.083v2.486c0,0.735-0.623,1.358-1.359,1.358H8.106c-0.737,0-1.359-0.623-1.359-1.358V17.795
						l9.947-8.465v9.31h-4.962v3.171h8.126l0.007-13.381H40.34c0.736,0,1.359,0.622,1.359,1.359v2.837
						C42.246,12.58,42.797,12.542,43.354,12.542z"/>
					<g>
						<path fill="#3A444F" d="M24.341,29.341H13.081c-0.875,0-1.585,0.709-1.585,1.585c0,0.875,0.71,1.586,1.585,1.586h11.134
							c-0.011-0.264-0.038-0.525-0.038-0.791C24.176,30.914,24.244,30.123,24.341,29.341z"/>
						<path fill="#3A444F" d="M28.489,43.792H13.081c-0.875,0-1.585,0.71-1.585,1.586c0,0.874,0.71,1.586,1.585,1.586h18.668
							C30.538,46.04,29.45,44.971,28.489,43.792z"/>
						<path fill="#3A444F" d="M13.081,36.567c-0.875,0-1.585,0.709-1.585,1.585s0.71,1.586,1.585,1.586h12.876
							c-0.47-1.014-0.853-2.072-1.141-3.171H13.081z"/>
					</g>
				</g>
			</g>
			<g>
				<path fill="#3A444F" d="M43.349,48.041c-9.013,0-16.345-7.331-16.345-16.344c0-9.012,7.332-16.343,16.345-16.343
					c9.011,0,16.344,7.331,16.344,16.343C59.692,40.71,52.359,48.041,43.349,48.041z M43.349,18.525
					c-7.265,0-13.173,5.909-13.173,13.172c0,7.264,5.909,13.173,13.173,13.173c7.263,0,13.173-5.909,13.173-13.173
					C56.521,24.434,50.611,18.525,43.349,18.525z"/>
			</g>
			<path fill="#3A444F" d="M42.131,42.099l-0.002-2.399l-0.219-0.023c-3.19-0.323-5.63-1.702-6.314-3.544l2.671-0.655
				c0.453,0.574,1.774,1.243,3.587,1.485l0.277,0.037V32.8l-0.205-0.034c-2.481-0.397-3.879-1-4.491-1.322l-0.103-0.056
				c-1.269-0.856-1.938-1.933-1.938-3.113c0-2.33,2.681-4.228,6.516-4.614l0.221-0.022v-2.339h2.682l0.001,2.356l0.216,0.024
				c2.872,0.329,5.123,1.525,5.968,3.15l-2.598,0.916c-0.498-0.516-1.657-1.102-3.305-1.349l-0.281-0.042v4.383l0.202,0.036
				c1.778,0.317,3.233,0.731,4.208,1.197c0.44,0.212,0.773,0.419,1.016,0.635c0.089,0.084,0.168,0.167,0.241,0.244
				c0.585,0.671,0.886,1.414,0.886,2.209c0,2.281-2.604,4.173-6.337,4.598l-0.216,0.024l-0.001,2.419H42.131z M44.813,36.974
				l0.281-0.042c2.115-0.322,3.589-1.246,3.589-1.874c0.004-0.625-1.47-1.545-3.589-1.865l-0.281-0.042V36.974z M41.854,26.374
				c-2.336,0.312-3.774,1.315-3.778,1.897c0,0.583,1.438,1.585,3.778,1.896l0.277,0.037v-3.867L41.854,26.374z"/>
		</g>
	</symbol>
	<symbol id="icon-30" viewBox="original-file's-viewBox">
		<g>
			<g>
				<path fill="#3A444F" d="M19.993,17.294c-0.876,0-1.585-0.71-1.585-1.586v-4.083c0-0.876,0.709-1.586,1.585-1.586
					s1.585,0.71,1.585,1.586v4.083C21.578,16.583,20.869,17.294,19.993,17.294z"/>
			</g>
			<g>
				<path fill="#3A444F" d="M25.424,17.294c-0.876,0-1.586-0.71-1.586-1.586v-4.083c0-0.876,0.71-1.586,1.586-1.586
					s1.585,0.71,1.585,1.586v4.083C27.009,16.583,26.3,17.294,25.424,17.294z"/>
			</g>
			<g>
				<path fill="#3A444F" d="M30.834,17.294c-0.876,0-1.586-0.71-1.586-1.586v-4.083c0-0.876,0.71-1.586,1.586-1.586
					s1.585,0.71,1.585,1.586v4.083C32.42,16.583,31.71,17.294,30.834,17.294z"/>
			</g>
			<g>
				<path fill="#3A444F" d="M44.018,29.573c-0.876,0-1.586-0.71-1.586-1.586v-4.083c0-0.875,0.71-1.586,1.586-1.586
					s1.586,0.711,1.586,1.586v4.083C45.604,28.863,44.894,29.573,44.018,29.573z"/>
			</g>
			<rect x="29.249" y="24.361" fill="#3A444F" width="10.873" height="3.171"/>
			<path fill="#3A444F" d="M7.37,46.912l-1.731,9.057h52.914l-1.741-9.057H54.02v-7.123h2.698v-3.171H54.02v-9.086h2.698v-3.171
				H54.02v-9.108h2.698v-3.171H54.02V8.708c0-0.876-0.71-1.585-1.586-1.585s-1.585,0.709-1.585,1.585v3.374H34.685v3.171h16.164
				v9.108h-3.026v3.171h3.026v9.086h-2.98v3.171h2.98v7.123H13.281v-7.123h16.042v-3.171H13.281v-9.086h2.859v-3.171h-2.859v-9.108
				h2.859v-3.171h-2.859V8.708c0-0.876-0.707-1.585-1.579-1.585c-0.871,0-1.578,0.709-1.578,1.585v3.374H7.326v3.171h2.799v9.108
				H7.326v3.171h2.799v9.086H7.326v3.171h2.799v7.123H7.37z M54.715,52.798H9.458l0.52-2.715h44.215L54.715,52.798z"/>
			<g>
				<path fill="#3A444F" d="M33.177,41.832c-0.876,0-1.586-0.712-1.586-1.586v-4.084c0-0.876,0.709-1.586,1.586-1.586
					c0.876,0,1.586,0.71,1.586,1.586v4.084C34.763,41.12,34.053,41.832,33.177,41.832z"/>
			</g>
			<g>
				<path fill="#3A444F" d="M38.607,41.832c-0.876,0-1.585-0.712-1.585-1.586v-4.084c0-0.876,0.709-1.586,1.585-1.586
					s1.586,0.71,1.586,1.586v4.084C40.193,41.12,39.483,41.832,38.607,41.832z"/>
			</g>
			<g>
				<path fill="#3A444F" d="M44.018,41.832c-0.876,0-1.586-0.712-1.586-1.586v-4.084c0-0.876,0.71-1.586,1.586-1.586
					s1.586,0.71,1.586,1.586v4.084C45.604,41.12,44.894,41.832,44.018,41.832z"/>
			</g>
			<g>
				<path fill="#3A444F" d="M19.993,29.574c-0.876,0-1.585-0.711-1.585-1.586v-4.083c0-0.876,0.709-1.586,1.585-1.586
					s1.585,0.71,1.585,1.586v4.083C21.578,28.863,20.869,29.574,19.993,29.574z"/>
			</g>
			<g>
				<path fill="#3A444F" d="M25.424,29.574c-0.876,0-1.586-0.711-1.586-1.586v-4.083c0-0.876,0.71-1.586,1.586-1.586
					s1.585,0.71,1.585,1.586v4.083C27.009,28.863,26.3,29.574,25.424,29.574z"/>
			</g>
		</g>
	</symbol>
</svg>