<svg xmlns="http://www.w3.org/2000/svg" width="44.599" height="39.025" viewBox="0 0 44.599 39.025">
  <g id="like" transform="translate(0 -1)">
    <path id="Path_3" data-name="Path 3" d="M9.756,0H1.394A1.393,1.393,0,0,0,0,1.394V26.481a1.393,1.393,0,0,0,1.394,1.394H9.756a1.393,1.393,0,0,0,1.394-1.394V1.394A1.393,1.393,0,0,0,9.756,0ZM8.362,25.087H2.787V2.787H8.362Z" transform="translate(0 12.15)" fill="#fff"/>
    <path id="Path_4" data-name="Path 4" d="M25.514,13.967H17.28a1.394,1.394,0,0,1-1.22-2.07l2.9-5.228A4.18,4.18,0,0,0,16.322.584L14.275.072A1.391,1.391,0,0,0,12.9.491L1.787,12.839A6.965,6.965,0,0,0,0,17.5V29.3a6.977,6.977,0,0,0,6.969,6.969H20.834a6.984,6.984,0,0,0,6.721-5.126L30.53,20.273a5.147,5.147,0,0,0-5.015-6.306Zm2.312,5.623L24.865,30.4a4.19,4.19,0,0,1-4.031,3.076H6.969A4.186,4.186,0,0,1,2.787,29.3V17.5A4.178,4.178,0,0,1,3.86,14.7L14.412,2.979l1.233.308a1.395,1.395,0,0,1,.882,2.029l-2.9,5.228a4.181,4.181,0,0,0,3.656,6.211h8.234a2.363,2.363,0,0,1,2.36,2.36,2.306,2.306,0,0,1-.048.475Z" transform="translate(13.937 0.97)" fill="#fff"/>
  </g>
</svg>
